<svg width="226" height="196" viewBox="0 0 226 196" fill="none" xmlns="http://www.w3.org/2000/svg">
<g opacity="0.6" clip-path="url(#clip0_2255_6441)">
<g clip-path="url(#clip1_2255_6441)">
<path d="M55.5495 8.50505C58.0672 9.59151 59.2468 10.844 60.3775 13.3297C61.0187 15.3274 61.0187 15.3274 60.981 17.5512C59.8099 19.7994 58.5155 21.9957 56.028 22.814C55.6709 22.8684 55.3139 22.9228 54.946 22.9789C54.6472 24.4715 54.6472 24.4715 54.3425 25.9943C55.2387 26.2928 55.2387 26.2928 56.153 26.5974C56.5985 27.6527 56.5985 27.6527 56.9451 29.0097C57.7761 31.7778 59.0726 33.816 60.724 36.1665C63.5829 40.44 64.1147 44.8021 64.1493 49.8158C64.1618 50.2659 64.1742 50.716 64.1871 51.1798C64.2072 54.0253 63.8205 55.5514 62.188 57.9574C61.499 60.2886 61.6246 61.6521 62.4919 63.9054C62.706 64.4711 62.92 65.0368 63.1405 65.6196C63.3793 66.224 63.6181 66.8284 63.8641 67.4511C64.108 68.0793 64.3519 68.7076 64.6032 69.3549C65.1224 70.6835 65.6456 72.0106 66.1728 73.3361C66.9714 75.3539 67.7468 77.3795 68.5212 79.4066C69.0294 80.6989 69.5389 81.9907 70.05 83.2819C70.2778 83.8838 70.5056 84.4858 70.7403 85.106C72.1824 88.6592 73.6978 90.8977 76.7592 93.2386C78.6229 94.742 79.8545 96.6424 81.1605 98.6274C81.4392 99.0428 81.7178 99.4582 82.0049 99.8862C89.4621 111.165 97.8235 124.858 94.9915 138.887C94.449 140.933 93.9152 142.904 92.9665 144.8C90.7011 144.046 90.4072 143.253 89.3455 141.182C89.3455 140.784 89.3455 140.386 89.3455 139.976C85.4072 142.851 81.6367 145.916 77.879 149.022C78.1567 149.855 78.1567 149.855 78.44 150.704C79.0577 152.556 79.6753 154.407 80.293 156.259C75.7071 158.007 70.2892 158.3 65.5449 156.862C61.6161 155.046 59.3151 151.601 57.8126 147.665C56.6674 144.148 55.7765 140.563 54.946 136.96C54.5679 137.549 54.1898 138.137 53.8003 138.744C53.3021 139.519 52.8039 140.294 52.3057 141.069C52.0567 141.456 51.8078 141.844 51.5513 142.243C50.4812 143.908 49.4056 145.567 48.3075 147.213C47.9092 147.213 47.5108 147.213 47.1005 147.213C46.9635 147.636 46.8266 148.059 46.6856 148.494C45.4663 151.163 44.2176 153.215 41.5346 154.478C39.4899 155.182 37.8073 155.656 35.634 155.656C35.4348 156.452 35.2356 157.248 35.0305 158.068C36.8229 157.471 36.8229 157.471 38.6515 156.862C37.262 158.43 35.9363 159.182 34.0121 159.99C33.5243 160.198 33.0365 160.406 32.5339 160.619C32.1629 160.773 31.7918 160.926 31.4095 161.084C31.7269 160.263 31.7269 160.263 32.0507 159.425C32.5951 157.539 32.6972 156.831 32.013 155.053C31.4279 155.028 30.8429 155.003 30.2402 154.977C25.8928 154.344 22.1888 151.153 19.5092 147.813C15.9339 142.247 14.8781 136.009 16.0886 129.561C18.0925 121.842 21.8908 115.02 26.0534 108.277C26.2919 107.889 26.5305 107.502 26.7762 107.103C29.2538 103.196 31.7535 99.4164 36.2375 97.7604C37.0341 97.7604 37.8307 97.7604 38.6515 97.7604C38.6515 98.9545 38.6515 100.149 38.6515 101.379C39.0498 101.379 39.4481 101.379 39.8585 101.379C40.0576 100.384 40.2568 99.3887 40.462 98.3635C41.0541 100.204 41.0541 101.347 40.462 103.188C41.0594 103.387 41.6569 103.586 42.2725 103.791C42.902 104.726 42.902 104.726 43.463 105.918C43.7728 106.56 43.7728 106.56 44.0889 107.215C44.4033 107.89 44.4033 107.89 44.7242 108.578C45.144 109.464 45.5659 110.349 45.9901 111.233C46.1745 111.627 46.359 112.021 46.549 112.427C47.1004 113.554 47.1004 113.554 48.3075 114.647C49.3032 111.064 50.299 107.482 51.325 103.791C50.13 103.791 48.9351 103.791 47.704 103.791C48.1566 101.756 48.1566 101.756 48.911 99.5697C50.1059 98.9726 50.1059 98.9726 51.325 98.3635C51.325 95.5773 51.325 92.7911 51.325 89.9204C50.4661 90.6481 50.4661 90.6481 49.5899 91.3904C47.3453 93.2921 45.9243 93.7178 42.8925 93.6685C40.3572 93.4 39.0036 92.1118 37.3313 90.2974C33.0625 84.1193 35.0487 75.1453 35.4831 68.0212C35.5082 67.6016 35.5333 67.1819 35.5591 66.7495C35.9744 59.9605 36.6247 53.2129 37.4445 46.4612C37.4949 46.0403 37.5454 45.6194 37.5973 45.1858C38.4886 37.8358 38.4886 37.8358 39.3823 34.5363C39.5394 33.9066 39.6966 33.2769 39.8585 32.6281C39.0413 31.6607 39.0413 31.6607 38.048 30.8189C37.7462 28.7835 37.7462 28.7835 38.048 26.5974C39.519 24.8635 39.519 24.8635 41.0655 23.582C41.3642 23.2834 41.3642 23.2834 41.669 22.9789C42.8878 22.9352 44.1081 22.9284 45.3277 22.9412C46.3277 22.9494 46.3277 22.9494 47.348 22.9577C47.8638 22.9647 48.3796 22.9717 48.911 22.9789C47.759 20.2399 47.759 20.2399 46.497 17.5512C46.2701 14.5472 46.3904 12.6924 48.3075 10.3143C50.682 8.40279 52.5445 8.18331 55.5495 8.50505Z" fill="#2C6EA3"/>
<path d="M138.832 81.4766C139.43 81.7751 139.43 81.7751 140.039 82.0796C139.442 82.2787 138.844 82.4777 138.229 82.6827C139.623 86.663 141.017 90.6433 142.453 94.7443C146.038 95.3413 146.038 95.3413 149.695 95.9504C149.695 96.1494 149.695 96.3484 149.695 96.5535C147.184 96.6027 144.899 96.5429 142.453 95.9504C143.051 97.7415 143.648 99.5327 144.264 101.378C145.857 101.378 147.45 101.378 149.092 101.378C149.005 101.938 148.918 102.498 148.828 103.074C148.715 103.916 148.601 104.758 148.488 105.6C148.411 106.086 148.333 106.572 148.253 107.074C147.673 111.438 148.306 114.535 149.896 118.601C150.108 119.175 150.32 119.749 150.539 120.34C151.214 122.153 151.906 123.959 152.6 125.765C153.059 126.992 153.516 128.22 153.973 129.448C154.811 131.69 155.652 133.93 156.508 136.164C156.679 136.61 156.849 137.056 157.025 137.516C157.525 138.789 157.525 138.789 158.209 140.025C158.748 141.181 158.748 141.181 158.748 142.99C159.943 142.99 161.138 142.99 162.369 142.99C161.174 144.384 159.979 145.777 158.748 147.212C160.142 147.411 161.536 147.61 162.972 147.815C162.773 149.407 162.574 150.999 162.369 152.64C163.165 152.441 163.962 152.242 164.783 152.037C164.385 152.634 163.986 153.231 163.576 153.846C166.143 153.846 167.428 153.333 169.762 152.338C172.978 151.07 175.234 150.341 178.663 150.83C181.636 152.181 183.67 153.948 184.849 157.012C184.999 157.559 185.148 158.107 185.302 158.67C183.368 159.853 181.422 160.947 179.393 161.958C178.83 162.24 178.267 162.521 177.687 162.811C177.103 163.101 176.519 163.392 175.917 163.691C175.374 163.961 174.832 164.232 174.272 164.511C172.254 165.518 170.235 166.523 168.215 167.528C161.438 170.905 161.438 170.905 154.523 174.35C170.057 174.549 185.592 174.748 201.596 174.953C201.596 175.153 201.596 175.352 201.596 175.557C134.68 175.557 67.7642 175.557 -1.17969 175.557C-1.17969 175.358 -1.17969 175.159 -1.17969 174.953C35.2657 174.953 71.7111 174.953 109.261 174.953C107.07 171.172 104.879 167.391 102.622 163.495C103.618 162.5 104.614 161.505 105.64 160.48C106.038 160.48 106.436 160.48 106.847 160.48C107.562 159.614 108.275 158.747 108.976 157.871C110.445 156.2 112.192 154.935 113.976 153.62C114.336 153.348 114.697 153.077 115.068 152.797C115.946 152.138 116.828 151.484 117.71 150.83C116.7 147.276 115.334 145.592 112.278 143.593C110.614 143.025 110.614 143.025 109.261 142.99C110.503 140.818 111.823 138.835 113.485 136.96C113.884 136.96 114.282 136.96 114.692 136.96C114.84 136.541 114.988 136.122 115.14 135.69C116.015 133.679 117.166 131.945 118.389 130.137C120.472 126.976 122.339 123.754 124.047 120.375C124.352 119.78 124.352 119.78 124.665 119.173C125.813 116.849 126.363 114.778 126.762 112.233C128.007 111.404 128.007 111.404 129.176 111.027C128.778 109.634 128.38 108.241 127.969 106.806C127.422 107.117 126.874 107.428 126.31 107.748C124.348 108.615 124.348 108.615 121.934 108.012C123.528 107.216 125.121 106.42 126.762 105.6C126.563 104.008 126.364 102.415 126.159 100.775C127.969 102.961 127.969 102.961 127.969 104.997C132.351 102.807 136.732 100.618 141.246 98.3627C141.246 96.1638 141.048 95.1277 140.301 93.14C140.108 92.6117 139.914 92.0835 139.715 91.5392C139.302 90.4315 138.887 89.3243 138.471 88.2176C138.278 87.6901 138.085 87.1627 137.887 86.6192C137.707 86.1387 137.527 85.6582 137.341 85.1632C137.022 83.8889 137.022 83.8889 137.625 82.0796C138.024 81.8806 138.422 81.6816 138.832 81.4766Z" fill="#2C2C2C"/>
<path d="M135.211 13.932C137.022 14.8367 137.022 14.8367 138.229 15.7413C138.229 15.3432 138.229 14.9452 138.229 14.5351C140.039 15.1382 140.039 15.1382 141.058 16.9474C142.532 21.1202 141.984 25.8583 141.85 30.2151C143.244 30.2151 144.638 30.2151 146.074 30.2151C143.462 35.5787 140.708 40.7825 137.625 45.8951C140.845 46.5854 144.162 47.2364 147.281 45.8951C150.382 42.7504 152.183 38.443 153.92 34.4367C160.989 37.8299 166.18 48.2121 169.144 55.1863C170.184 58.6706 170.028 61.9119 169.045 65.382C163.448 72.6701 152.226 74.03 143.736 75.4459C141.759 75.7799 140.503 76.1189 138.682 77.029C135.061 78.3556 131.18 78.2892 127.366 77.8582C125.579 77.0148 125.579 77.0148 124.348 76.049C124.348 75.6509 124.348 75.2529 124.348 74.8428C122.755 74.8428 121.162 74.8428 119.52 74.8428C122.11 86.2335 122.11 86.2335 125.685 97.3404C126.159 98.9659 126.159 98.9659 125.555 100.775C122.348 92.5115 120.258 84.0847 118.313 75.4459C117.354 75.4016 117.354 75.4016 116.376 75.3564C115.538 75.3111 114.7 75.2656 113.863 75.2197C113.441 75.2011 113.019 75.1824 112.585 75.1632C109.398 74.9794 109.398 74.9794 108.054 73.6367C107.804 72.1996 107.804 72.1996 107.677 70.5459C107.632 69.997 107.587 69.4482 107.54 68.8827C107.51 68.4614 107.481 68.04 107.45 67.6059C107.043 67.8166 106.635 68.0272 106.215 68.2443C105.677 68.5187 105.138 68.7931 104.584 69.0759C104.052 69.3488 103.52 69.6216 102.971 69.9028C100.2 71.1826 97.8391 71.4837 94.777 71.2243C92.8105 70.4033 90.9352 69.5771 89.949 67.6059C89.4678 62.9952 90.0712 59.5471 92.363 55.5443C92.6562 55.0305 92.9495 54.5166 93.2517 53.9872C95.956 49.5215 99.2105 45.6045 102.622 41.6736C102.224 40.6785 101.826 39.6834 101.415 38.6582C102.424 38.6395 102.424 38.6395 103.452 38.6205C105.842 38.3361 107.174 37.5107 109.072 36.0574C115.995 30.9633 123.368 31.1089 131.59 31.4213C130.957 28.2923 130.957 28.2923 128.837 26.1067C128.352 25.8703 127.866 25.634 127.366 25.3905C126.126 22.9119 126.623 19.977 127.215 17.362C128.881 13.7834 131.46 13.3531 135.211 13.932Z" fill="#373737"/>
<path d="M54.9461 136.357C55.1452 136.357 55.3444 136.357 55.5496 136.357C55.7584 137.363 55.7584 137.363 55.9715 138.388C57.9903 148.36 57.9903 148.36 64.6021 155.656C67.2979 156.745 69.5489 157.01 72.4476 156.975C73.1571 156.971 73.8666 156.967 74.5975 156.963C76.5436 156.868 78.3811 156.623 80.2931 156.259C80.0939 155.662 79.8948 155.065 79.6896 154.45C84.1152 151.635 88.5409 148.821 92.9666 146.007C93.564 147.002 94.1615 147.997 94.7771 149.022C94.9762 148.624 95.1754 148.226 95.3806 147.816C97.1911 148.419 97.1911 148.419 97.7946 149.625C98.1929 149.625 98.5912 149.625 99.0016 149.625C99.2007 148.63 99.3999 147.635 99.6051 146.61C100.042 146.752 100.478 146.894 100.928 147.041C103.204 147.272 103.853 146.556 105.602 145.14C107.326 143.745 108.286 143.042 110.499 142.739C112.541 143.028 113.331 143.501 114.843 144.876C115.446 145.401 115.446 145.401 116.06 145.936C117.323 147.477 117.784 148.926 118.314 150.831C117.883 151.181 117.453 151.531 117.01 151.891C115.228 153.343 113.451 154.801 111.675 156.259C111.226 156.623 110.777 156.987 110.315 157.361C108.088 159.161 108.088 159.161 106.847 161.687C106.25 161.687 105.652 161.687 105.037 161.687C104.018 162.554 104.018 162.554 103.226 163.496C103.409 163.8 103.592 164.104 103.78 164.418C104.604 165.793 105.424 167.17 106.244 168.547C106.531 169.026 106.819 169.504 107.116 169.998C107.388 170.456 107.66 170.915 107.941 171.388C108.194 171.811 108.447 172.234 108.707 172.67C109.261 173.748 109.261 173.748 109.261 174.954C98.1397 175.011 87.0184 175.053 75.8969 175.079C70.733 175.092 65.5692 175.109 60.4054 175.136C55.9047 175.16 51.4041 175.176 46.9033 175.181C44.5201 175.184 42.137 175.192 39.7538 175.209C37.5104 175.226 35.2672 175.231 33.0236 175.227C31.8084 175.228 30.5931 175.241 29.3779 175.254C28.2901 175.25 28.2901 175.25 27.1803 175.244C26.2365 175.248 26.2365 175.248 25.2737 175.251C23.107 174.875 22.1182 174.051 20.5465 172.542C19.0644 170.215 17.8631 167.75 16.6428 165.278C16.0567 164.096 15.453 162.925 14.8475 161.753C14.4712 161.002 14.0959 160.252 13.7218 159.5C13.3807 158.821 13.0396 158.142 12.6882 157.442C12.0975 155.656 12.0975 155.656 12.5147 154.301C14.5877 151.525 17.2728 149.385 19.943 147.213C20.416 147.847 20.889 148.482 21.3764 149.135C23.8271 152.01 27.2189 153.964 30.9381 154.723C31.2928 154.832 31.6476 154.941 32.0131 155.053C32.8429 156.787 32.8429 156.787 33.2201 158.671C32.8217 159.268 32.4234 159.865 32.0131 160.48C34.1042 159.286 34.1042 159.286 36.2376 158.068C35.0426 158.367 35.0426 158.367 33.8236 158.671C34.7502 156.727 35.228 155.818 37.2677 155.003C37.8862 154.858 38.5047 154.713 39.1419 154.563C42.9451 153.445 44.6171 151.849 46.4971 148.419C46.6962 148.021 46.8954 147.623 47.1006 147.213C47.4989 147.213 47.8972 147.213 48.3076 147.213C48.4499 146.905 48.5923 146.597 48.739 146.28C49.8012 144.254 51.0303 142.351 52.268 140.428C52.5166 140.036 52.7651 139.645 53.0212 139.241C53.6457 138.269 54.2939 137.311 54.9461 136.357Z" fill="#FAFBFB"/>
<path d="M55.5498 8.50505C58.0676 9.59151 59.2472 10.844 60.3778 13.3297C61.019 15.3274 61.019 15.3274 60.9813 17.5512C59.8103 19.7994 58.5158 21.9957 56.0284 22.814C55.6713 22.8684 55.3142 22.9228 54.9463 22.9789C54.6476 24.4715 54.6476 24.4715 54.3428 25.9943C54.9403 26.1933 55.5377 26.3923 56.1533 26.5974C56.5989 27.6527 56.5989 27.6527 56.9454 29.0097C57.7764 31.7778 59.0729 33.816 60.7243 36.1665C63.5832 40.44 64.115 44.8021 64.1497 49.8158C64.1621 50.2659 64.1746 50.716 64.1874 51.1798C64.2071 53.9548 63.9462 55.6822 62.1883 57.9574C60.8475 59.1632 60.0238 59.7146 58.248 60.0843C56.7009 60.7962 56.7009 60.7962 56.3681 62.0042C56.0932 63.4439 55.9121 64.8725 55.7549 66.3298C55.6845 66.8654 55.6141 67.4011 55.5416 67.953C55.3174 69.6705 55.1116 71.3895 54.9086 73.1097C54.7017 74.8165 54.4906 76.5225 54.2691 78.2276C54.1317 79.2884 54.0029 80.3503 53.884 81.4133C53.3545 85.5664 52.2659 89.0907 49.1376 91.9935C46.6488 93.6298 44.6154 93.8509 41.6693 93.5389C38.7359 92.2731 36.9607 90.1995 35.5724 87.3472C33.6699 81.5572 35.1164 74.0406 35.4834 68.0212C35.5085 67.6016 35.5336 67.1819 35.5594 66.7495C35.9747 59.9605 36.625 53.2129 37.4448 46.4612C37.4952 46.0403 37.5457 45.6194 37.5977 45.1858C38.4889 37.8358 38.4889 37.8358 39.3826 34.5363C39.5397 33.9066 39.6969 33.2769 39.8588 32.6281C39.0416 31.6607 39.0416 31.6607 38.0483 30.8189C37.7465 28.7835 37.7465 28.7835 38.0483 26.5974C39.5193 24.8635 39.5193 24.8635 41.0658 23.582C41.2649 23.383 41.4641 23.1839 41.6693 22.9789C42.8881 22.9352 44.1084 22.9284 45.328 22.9412C45.9947 22.9466 46.6614 22.9521 47.3483 22.9577C47.8641 22.9647 48.3799 22.9717 48.9113 22.9789C47.7593 20.2399 47.7593 20.2399 46.4973 17.5512C46.2704 14.5472 46.3908 12.6924 48.3078 10.3143C50.6823 8.40279 52.5448 8.18331 55.5498 8.50505Z" fill="#81C3F8"/>
<path d="M51.9285 87.5078C52.1276 87.5078 52.3268 87.5078 52.532 87.5078C53.1309 90.9495 53.1987 94.2708 53.1355 97.7601C53.7131 97.6843 53.7131 97.6843 54.3024 97.607C55.0504 97.5149 55.0504 97.5149 55.8135 97.4209C56.5592 97.3264 56.5592 97.3264 57.3199 97.2301C57.7314 97.206 58.143 97.1819 58.567 97.157C59.5667 98.1561 59.2737 99.332 59.2836 100.7C59.2922 101.233 59.3007 101.767 59.3096 102.316C59.1705 103.791 59.1705 103.791 57.9635 105.6C56.1711 105.401 54.3787 105.202 52.532 104.997C52.3717 105.601 52.2115 106.205 52.0463 106.827C51.831 107.637 51.6157 108.447 51.4004 109.256C51.2954 109.652 51.1904 110.048 51.0822 110.457C50.9771 110.851 50.8721 111.246 50.7639 111.652C50.659 112.05 50.5541 112.448 50.4459 112.858C50.1284 114.006 49.7655 115.14 49.4013 116.274C48.9071 118.28 48.9087 119.18 49.439 121.129C50.9531 128.216 50.8144 137.065 49.5145 144.197C48.917 144.496 48.917 144.496 48.3075 144.8C48.0585 145.522 47.8096 146.243 47.5531 146.986C46.3653 150.259 44.7176 152.959 41.4969 154.511C39.4642 155.217 37.7951 155.656 35.634 155.656C35.3352 156.85 35.3352 156.85 35.0305 158.068C36.8229 157.471 36.8229 157.471 38.6515 156.862C37.262 158.43 35.9363 159.182 34.0121 159.99C33.5243 160.198 33.0365 160.405 32.5339 160.619C32.1629 160.772 31.7918 160.925 31.4095 161.083C31.7269 160.262 31.7269 160.262 32.0507 159.425C32.5951 157.539 32.6972 156.83 32.013 155.052C31.4279 155.028 30.8429 155.003 30.2402 154.977C25.8928 154.344 22.1888 151.153 19.5092 147.813C15.9339 142.247 14.8781 136.009 16.0886 129.561C18.0925 121.842 21.8908 115.02 26.0534 108.276C26.2919 107.889 26.5305 107.501 26.7762 107.102C29.2538 103.196 31.7535 99.4161 36.2375 97.7601C37.0341 97.7601 37.8307 97.7601 38.6515 97.7601C38.6515 98.9542 38.6515 100.148 38.6515 101.379C39.0498 101.379 39.4481 101.379 39.8585 101.379C40.0576 100.384 40.2568 99.3884 40.462 98.3632C41.0541 100.204 41.0541 101.347 40.462 103.188C41.0594 103.387 41.6569 103.586 42.2725 103.791C42.902 104.726 42.902 104.726 43.463 105.918C43.7728 106.56 43.7728 106.56 44.0889 107.215C44.2985 107.665 44.5082 108.114 44.7242 108.578C45.144 109.464 45.5659 110.349 45.9901 111.233C46.1745 111.627 46.359 112.021 46.549 112.427C47.1004 113.554 47.1004 113.554 48.3075 114.646C49.3032 111.064 50.299 107.482 51.325 103.791C50.13 103.791 48.9351 103.791 47.704 103.791C48.1566 101.756 48.1566 101.756 48.911 99.5694C49.7076 99.1713 50.5042 98.7733 51.325 98.3632C51.5241 94.7809 51.7233 91.1986 51.9285 87.5078Z" fill="#626262"/>
<path d="M138.833 81.4766C139.232 81.6756 139.63 81.8746 140.04 82.0796C139.443 82.2787 138.845 82.4777 138.23 82.6827C139.624 86.663 141.018 90.6433 142.454 94.7443C146.039 95.3413 146.039 95.3413 149.696 95.9504C149.696 96.1494 149.696 96.3484 149.696 96.5535C147.185 96.6027 144.9 96.5429 142.454 95.9504C143.052 97.7415 143.649 99.5327 144.265 101.378C145.858 101.378 147.451 101.378 149.093 101.378C149.006 101.938 148.918 102.498 148.829 103.074C148.715 103.916 148.602 104.758 148.489 105.6C148.374 106.336 148.374 106.336 148.256 107.087C147.702 111.327 148.23 114.276 149.828 118.205C150.031 118.739 150.235 119.273 150.444 119.823C151.087 121.507 151.748 123.184 152.412 124.86C153.073 126.553 153.73 128.247 154.38 129.943C154.783 130.994 155.193 132.042 155.611 133.087C155.794 133.56 155.977 134.033 156.166 134.521C156.412 135.142 156.412 135.142 156.663 135.775C156.993 137.196 156.849 138.016 156.335 139.372C155.269 140.089 155.269 140.089 153.9 140.663C153.411 140.873 152.923 141.083 152.42 141.299C151.907 141.509 151.394 141.719 150.866 141.935C150.35 142.154 149.835 142.373 149.304 142.599C148.03 143.14 146.752 143.672 145.472 144.197C145.639 144.552 145.807 144.908 145.98 145.275C146.734 146.885 147.48 148.5 148.225 150.114C148.489 150.674 148.753 151.234 149.026 151.812C149.273 152.35 149.52 152.888 149.774 153.443C150.005 153.939 150.235 154.435 150.473 154.945C150.903 156.258 150.903 156.258 150.3 158.067C148.308 153.888 146.317 149.709 144.265 145.403C142.472 145.701 142.472 145.701 140.644 146.006C140.273 145.188 140.273 145.188 139.894 144.354C139.569 143.643 139.244 142.932 138.909 142.199C138.587 141.492 138.265 140.786 137.933 140.057C137.06 138.13 137.06 138.13 135.816 136.357C135.408 136.975 135 137.593 134.58 138.229C134.037 139.05 133.493 139.871 132.949 140.691C132.548 141.3 132.548 141.3 132.138 141.922C130.642 144.176 129.099 146.335 127.367 148.418C125.412 147.547 123.975 146.453 122.388 145.026C121.748 144.454 121.748 144.454 121.096 143.871C120.775 143.581 120.455 143.29 120.125 142.99C118.354 143.846 116.846 144.79 115.297 146.006C114.861 145.62 114.425 145.235 113.977 144.837C112.29 143.601 111.304 143.224 109.262 142.99C110.504 140.818 111.824 138.835 113.486 136.96C113.885 136.96 114.283 136.96 114.693 136.96C114.841 136.541 114.989 136.122 115.141 135.69C116.015 133.679 117.167 131.945 118.39 130.137C120.473 126.976 122.34 123.754 124.047 120.375C124.251 119.978 124.455 119.582 124.665 119.173C125.814 116.849 126.364 114.778 126.763 112.233C128.008 111.404 128.008 111.404 129.177 111.027C128.779 109.634 128.381 108.241 127.97 106.806C127.423 107.117 126.875 107.428 126.311 107.748C124.349 108.615 124.349 108.615 121.935 108.012C123.528 107.216 125.122 106.42 126.763 105.6C126.564 104.008 126.365 102.415 126.16 100.775C127.97 102.961 127.97 102.961 127.97 104.997C132.352 102.807 136.733 100.618 141.247 98.3627C141.247 96.1638 141.049 95.1277 140.302 93.14C140.109 92.6117 139.915 92.0835 139.716 91.5392C139.302 90.4315 138.888 89.3243 138.471 88.2176C138.279 87.6901 138.086 87.1627 137.888 86.6192C137.618 85.8985 137.618 85.8985 137.342 85.1632C137.023 83.8889 137.023 83.8889 137.626 82.0796C138.025 81.8806 138.423 81.6816 138.833 81.4766Z" fill="#FCAA97"/>
<path d="M62.7921 76.0488C66.2409 81.2185 65.5929 91.1115 65.8096 97.1565C65.8301 97.6913 65.8506 98.226 65.8717 98.777C66.1055 105.751 65.985 112.015 63.8647 118.7C63.0426 122.164 64.1909 125.068 65.3782 128.342C65.5113 128.712 65.6444 129.082 65.7815 129.462C66.2029 130.631 66.6285 131.797 67.0543 132.964C67.3426 133.761 67.6306 134.558 67.9183 135.355C68.6208 137.298 69.3261 139.24 70.0341 141.181C72.6106 140.386 74.9235 139.396 77.3091 138.142C77.9781 137.792 78.6471 137.443 79.3365 137.082C80.0257 136.718 80.715 136.354 81.4251 135.98C82.1284 135.611 82.8317 135.243 83.5562 134.863C85.2863 133.956 87.015 133.047 88.7426 132.135C86.3569 125.73 83.9205 119.347 81.4375 112.979C80.8967 111.592 80.357 110.204 79.8174 108.816C79.4606 107.9 79.1039 106.984 78.7471 106.068C78.5748 105.625 78.4026 105.182 78.2251 104.725C77.3644 102.517 76.4884 100.317 75.5811 98.1274C75.4092 97.7097 75.2373 97.292 75.0602 96.8617C74.5893 95.7213 74.1129 94.5832 73.6362 93.4452C73.4433 92.8788 73.2503 92.3124 73.0516 91.7288C73.2507 91.3308 73.4499 90.9328 73.6551 90.5227C76.6993 92.9096 78.991 95.3696 81.1234 98.5888C81.4048 99.007 81.6861 99.4251 81.976 99.8559C89.4549 111.131 97.8258 124.848 94.9921 138.887C94.4496 140.932 93.9157 142.904 92.9671 144.8C90.7017 144.045 90.4078 143.253 89.3461 141.181C89.3461 140.783 89.3461 140.385 89.3461 139.975C85.4078 142.851 81.6372 145.915 77.8796 149.021C78.0647 149.576 78.2499 150.131 78.4406 150.703C79.0583 152.555 79.6759 154.406 80.2936 156.258C75.7077 158.006 70.2898 158.299 65.5455 156.861C61.547 155.013 59.2835 151.517 57.7755 147.513C57.4209 146.413 57.0804 145.307 56.7571 144.197C56.6209 143.752 56.4848 143.307 56.3445 142.849C54.866 137.591 55.6818 134.348 58.1149 129.685C62.4606 120.97 64.1171 112.916 64.1122 103.187C64.1127 102.788 64.1131 102.389 64.1135 101.977C64.1128 95.593 63.7598 89.2959 63.0561 82.9489C62.8023 80.6315 62.7418 78.3788 62.7921 76.0488Z" fill="#626262"/>
<path d="M153.92 34.4365C160.967 37.5763 166.252 48.3797 169.144 55.1861C170.184 58.6705 170.028 61.9118 169.045 65.3819C163.448 72.67 152.226 74.0298 143.736 75.4458C141.759 75.7798 140.503 76.1188 138.682 77.0288C135.061 78.3554 131.18 78.2891 127.366 77.8581C125.579 77.0147 125.579 77.0147 124.349 76.0488C124.349 75.6508 124.349 75.2528 124.349 74.8427C127.037 74.5442 127.037 74.5442 129.78 74.2396C129.979 73.6426 130.178 73.0455 130.384 72.4304C131.989 71.6365 131.989 71.6365 134.042 70.885C135.042 70.5107 135.042 70.5107 136.063 70.1288C138.229 69.415 138.229 69.415 140.584 68.9132C143.472 68.2192 145.731 66.7404 148.187 65.1181C148.626 64.8359 149.064 64.5537 149.516 64.2629C150.586 63.5739 151.65 62.8768 152.713 62.1781C152.034 60.0441 151.306 58.1604 150.299 56.1473C149.901 58.1374 149.503 60.1276 149.092 62.1781C148.893 62.1781 148.694 62.1781 148.489 62.1781C148.489 58.5958 148.489 55.0135 148.489 51.3227C150.48 51.3227 152.472 51.3227 154.524 51.3227C152.467 48.9255 150.101 47.7839 147.282 46.4981C149.476 42.467 151.683 38.4436 153.92 34.4365Z" fill="#FCAA97"/>
<path d="M135.815 135.754C137.674 136.683 137.975 138.464 138.682 140.315C138.965 141.037 139.248 141.759 139.54 142.503C140.18 144.169 140.803 145.839 141.417 147.515C143.629 153.537 146.105 159.408 148.715 165.267C149.294 166.572 149.873 167.878 150.45 169.184C150.805 169.985 151.16 170.787 151.518 171.588C152.713 174.284 152.713 174.284 152.713 174.954C145.543 174.954 138.374 174.954 130.987 174.954C130.589 172.964 130.19 170.974 129.78 168.923C128.176 165.974 126.072 165.315 123.099 164.127C121.935 163.495 121.935 163.495 121.293 161.837C121.306 161.389 121.318 160.941 121.331 160.48C122.327 160.679 123.323 160.878 124.349 161.083C124.349 160.685 124.349 160.287 124.349 159.877C123.154 159.678 121.959 159.479 120.728 159.274C120.728 158.478 120.728 157.682 120.728 156.862C122.321 156.663 123.914 156.464 125.556 156.259C125.244 155.898 124.933 155.537 124.613 155.165C124.326 154.73 124.04 154.295 123.745 153.846C123.944 153.249 124.143 152.652 124.349 152.037C124.747 152.037 125.145 152.037 125.556 152.037C125.623 151.687 125.69 151.338 125.76 150.978C126.201 149.483 126.806 148.534 127.717 147.274C128.031 146.835 128.345 146.397 128.669 145.945C128.998 145.493 129.327 145.04 129.667 144.574C130.312 143.677 130.958 142.781 131.602 141.884C131.909 141.458 132.216 141.032 132.533 140.593C133.664 139.003 134.745 137.385 135.815 135.754Z" fill="#FDFCFB"/>
<path d="M119.521 74.8432C121.114 74.8432 122.707 74.8432 124.349 74.8432C124.349 75.2412 124.349 75.6392 124.349 76.0493C128.45 78.0011 133.854 78.0435 138.182 76.7136C139.164 76.284 140.14 75.8404 141.107 75.3803C143.225 74.5354 145.03 74.6765 147.282 74.8432C149.729 81.7687 149.863 88.7008 149.696 95.9508C147.306 95.7518 144.916 95.5528 142.454 95.3478C138.229 86.1768 138.229 86.1768 138.229 82.6832C138.03 82.6832 137.831 82.6832 137.626 82.6832C139.177 87.9278 140.814 93.1452 142.454 98.3632C140.268 99.4727 138.079 100.577 135.89 101.68C135.267 101.996 134.644 102.313 134.002 102.639C133.407 102.938 132.812 103.237 132.199 103.546C131.649 103.824 131.099 104.102 130.532 104.388C129.177 104.997 129.177 104.997 127.97 104.997C124.193 95.0887 120.647 85.4422 119.521 74.8432Z" fill="#2C6EA3"/>
<path d="M118.917 142.388C121.043 143.331 122.702 144.616 124.499 146.082C125.038 146.518 125.576 146.955 126.131 147.405C126.742 147.907 126.742 147.907 127.366 148.418C126.768 149.613 126.171 150.807 125.555 152.037C125.954 152.037 126.352 152.037 126.762 152.037C126.563 152.435 126.364 152.833 126.159 153.243C125.561 153.044 124.964 152.845 124.348 152.64C124.535 153.001 124.722 153.361 124.914 153.733C125.555 155.052 125.555 155.052 126.159 156.862C124.366 156.862 122.574 156.862 120.727 156.862C120.727 157.658 120.727 158.454 120.727 159.274C121.922 159.473 123.117 159.672 124.348 159.877C124.348 160.275 124.348 160.673 124.348 161.083C123.353 160.884 122.357 160.685 121.331 160.48C121.582 161.969 121.582 161.969 122.538 163.495C123.603 164.004 123.603 164.004 124.839 164.362C127.647 165.25 128.706 166.535 130.383 168.923C130.987 170.129 130.987 170.129 130.987 174.954C154.288 174.954 177.589 174.954 201.596 174.954C201.596 175.153 201.596 175.352 201.596 175.557C134.68 175.557 67.7642 175.557 -1.17969 175.557C-1.17969 175.358 -1.17969 175.159 -1.17969 174.954C35.2657 174.954 71.7111 174.954 109.261 174.954C105.975 169.282 105.975 169.282 102.622 163.495C103.618 162.5 104.614 161.505 105.64 160.48C106.038 160.48 106.436 160.48 106.847 160.48C107.562 159.615 108.275 158.748 108.976 157.872C110.445 156.201 112.192 154.936 113.976 153.62C114.517 153.213 114.517 153.213 115.068 152.798C115.946 152.138 116.828 151.484 117.71 150.831C117.511 150.283 117.312 149.736 117.106 149.172C116.503 147.212 116.503 147.212 116.503 144.8C117.71 143.443 117.71 143.443 118.917 142.388Z" fill="#2C2C2C"/>
<path d="M112.278 142.991C113.646 143.787 113.646 143.787 114.843 144.875C115.245 145.225 115.646 145.575 116.06 145.935C117.323 147.476 117.784 148.925 118.313 150.831C117.883 151.18 117.453 151.53 117.01 151.891C115.228 153.343 113.451 154.8 111.675 156.258C111.226 156.622 110.777 156.986 110.315 157.361C108.088 159.161 108.088 159.161 106.847 161.686C106.25 161.686 105.652 161.686 105.036 161.686C103.762 162.658 102.574 163.641 101.378 164.701C100.674 165.31 99.97 165.917 99.2655 166.525C98.9162 166.828 98.5669 167.131 98.207 167.443C96.7664 168.686 95.3071 169.904 93.834 171.109C93.3727 171.49 92.9113 171.871 92.436 172.263C91.1704 173.134 90.2449 173.495 88.742 173.748C88.5428 172.752 88.3436 171.757 88.1385 170.732C87.7401 170.732 87.3418 170.732 86.9315 170.732C86.8132 170.416 86.695 170.099 86.5731 169.773C84.5514 164.54 82.1088 159.507 79.6895 154.449C84.1151 151.635 88.5408 148.82 92.9665 146.006C93.5639 147.001 94.1614 147.996 94.777 149.021C94.9761 148.623 95.1753 148.225 95.3805 147.815C97.191 148.418 97.191 148.418 97.7945 149.624C98.1928 149.624 98.5911 149.624 99.0015 149.624C99.2006 148.629 99.3998 147.634 99.605 146.609C100.041 146.751 100.478 146.894 100.927 147.04C103.204 147.271 103.853 146.556 105.602 145.139C107.918 143.265 109.271 142.565 112.278 142.991Z" fill="#2C2C2C"/>
<path d="M115.296 39.2617C115.893 39.6597 116.491 40.0578 117.106 40.4679C117.106 41.2639 117.106 42.06 117.106 42.8802C117.704 42.6812 118.301 42.4821 118.917 42.2771C120.954 42.0509 120.954 42.0509 123.141 42.2771C124.914 43.7094 124.914 43.7094 126.159 45.2925C126.159 45.6905 126.159 46.0885 126.159 46.4986C120.184 46.4986 114.21 46.4986 108.054 46.4986C108.054 48.4888 108.054 50.4789 108.054 52.5294C108.913 52.6911 109.772 52.8528 110.656 53.0194C112.75 53.4135 114.016 53.7823 115.296 55.5448C115.296 58.4216 115.033 60.2184 113.221 62.4802C111.675 63.9879 111.675 63.9879 110.468 63.9879C110.257 64.5266 110.257 64.5266 110.041 65.0762C108.24 68.1322 104.209 69.6522 101 70.8479C96.5883 71.6798 94.2065 71.2956 90.5523 68.8125C89.201 66.1117 89.5506 62.4083 90.3401 59.5614C90.9333 58.1607 91.6069 56.8651 92.3628 55.5448C92.8027 54.774 92.8027 54.774 93.2516 53.9876C100.656 41.7598 100.656 41.7598 105.64 40.4679C107.059 40.4396 107.059 40.4396 108.431 40.6186C109.115 40.6979 109.115 40.6979 109.812 40.7788C111.071 41.0709 111.071 41.0709 112.882 42.2771C113.678 41.282 114.475 40.2869 115.296 39.2617Z" fill="#FCAA97"/>
<path d="M19.3399 147.212C19.7756 147.66 20.2112 148.107 20.6601 148.569C23.3136 151.162 25.2564 152.646 28.8073 153.77C31.8731 154.815 31.8731 154.815 33.1073 156.899C33.2204 158.67 33.2204 158.67 32.0134 160.48C32.8101 160.281 33.6067 160.082 34.4274 159.877C34.4274 160.275 34.4274 160.673 34.4274 161.083C34.9588 161.135 35.4901 161.187 36.0376 161.241C42.4765 162.019 42.4765 162.019 44.2343 163.797C45.9879 166.3 45.9595 167.743 45.9317 170.807C45.9262 171.58 45.9208 172.353 45.9152 173.149C45.9082 173.744 45.9012 174.34 45.8939 174.953C42.7692 175.013 39.6447 175.057 36.5195 175.086C35.457 175.098 34.3946 175.115 33.3323 175.135C31.8026 175.165 30.2735 175.178 28.7437 175.189C28.2708 175.201 27.798 175.214 27.3108 175.227C25.1598 175.228 23.7437 175.057 21.8686 173.973C19.5241 171.433 18.1597 168.349 16.6432 165.277C16.057 164.095 15.4533 162.924 14.8479 161.752C14.4715 161.002 14.0963 160.251 13.7222 159.5C13.3811 158.82 13.04 158.141 12.6886 157.441C12.0979 155.655 12.0979 155.655 12.5127 154.3C13.6463 152.787 14.954 151.531 16.3224 150.227C17.1626 149.388 17.1626 149.388 18.0198 148.531C18.6732 147.878 18.6732 147.878 19.3399 147.212Z" fill="#212121"/>
<path d="M55.5494 8.50505C58.0671 9.59151 59.2467 10.844 60.3774 13.3297C61.0186 15.3274 61.0186 15.3274 60.9809 17.5512C59.8098 19.7994 58.5154 21.9957 56.0279 22.814C55.6708 22.8684 55.3138 22.9228 54.9459 22.9789C54.7467 23.974 54.5475 24.969 54.3424 25.9943C54.9398 26.1933 55.5373 26.3923 56.1529 26.5974C56.5984 27.6527 56.5984 27.6527 56.9449 29.0097C57.776 31.7778 59.0725 33.816 60.7239 36.1665C63.5828 40.44 64.1146 44.8021 64.1492 49.8158C64.1617 50.2659 64.1741 50.716 64.187 51.1798C64.2066 53.9559 63.9435 55.6797 62.1879 57.9574C60.3684 59.6501 58.4952 60.2223 56.1529 60.9727C56.1718 59.8918 56.1718 59.8918 56.1912 58.7891C56.2351 56.095 56.2627 53.401 56.2855 50.7067C56.2975 49.5445 56.314 48.3823 56.335 47.2202C56.3645 45.5419 56.378 43.864 56.3886 42.1855C56.4011 41.6726 56.4135 41.1598 56.4264 40.6314C56.4277 36.9915 55.7263 33.9186 53.7389 30.8189C50.9787 28.9801 48.6219 28.7378 45.4242 29.2146C43.1676 29.8844 41.6593 31.1348 39.8583 32.6281C38.3049 31.2656 38.0669 30.9472 37.7461 28.7835C38.1196 26.0777 39.0001 25.2934 41.0653 23.582C41.2645 23.383 41.4637 23.1839 41.6688 22.9789C42.8877 22.9352 44.108 22.9284 45.3276 22.9412C46.3276 22.9494 46.3276 22.9494 47.3479 22.9577C47.8637 22.9647 48.3794 22.9717 48.9108 22.9789C47.7589 20.2399 47.7589 20.2399 46.4968 17.5512C46.27 14.5472 46.3903 12.6924 48.3073 10.3143C50.6819 8.40279 52.5444 8.18331 55.5494 8.50505Z" fill="#21537B"/>
<path d="M135.212 13.932C137.023 14.8367 137.023 14.8367 138.23 15.7413C138.23 15.3432 138.23 14.9452 138.23 14.5351C140.04 15.1382 140.04 15.1382 141.059 16.9474C142.532 21.1202 141.984 25.8583 141.851 30.2151C143.245 30.2151 144.639 30.2151 146.075 30.2151C144.681 33.0013 143.287 35.7876 141.851 38.6582C129.982 38.6582 118.113 38.6582 106.244 38.6582C108.132 36.727 109.728 35.2067 112.166 34.022C112.643 33.7834 113.12 33.5447 113.611 33.2988C117.871 31.6019 121.626 31.2554 126.16 31.3459C126.685 31.3513 127.21 31.3568 127.751 31.3624C129.031 31.3764 130.311 31.3981 131.591 31.4213C130.958 28.2923 130.958 28.2923 128.838 26.1067C128.352 25.8703 127.867 25.634 127.367 25.3905C126.126 22.9119 126.623 19.977 127.216 17.362C128.881 13.7834 131.461 13.3531 135.212 13.932Z" fill="#C0E1FC"/>
<path d="M126.763 114.646C128.778 117.667 130.057 121.083 131.48 124.414C131.856 125.29 132.236 126.164 132.621 127.035C133.178 128.296 133.72 129.563 134.26 130.831C134.521 131.412 134.521 131.412 134.787 132.005C135.547 133.83 135.887 134.88 135.378 136.818C134.405 138.524 133.371 140.158 132.27 141.785C131.861 142.394 131.452 143.004 131.03 143.632C129.866 145.282 128.647 146.858 127.367 148.419C125.412 147.548 123.975 146.454 122.388 145.026C121.962 144.646 121.535 144.265 121.096 143.872C120.775 143.581 120.455 143.291 120.125 142.991C118.354 143.846 116.846 144.79 115.297 146.006C114.861 145.621 114.425 145.235 113.977 144.838C112.29 143.602 111.304 143.224 109.262 142.991C110.504 140.819 111.824 138.836 113.486 136.96C113.885 136.96 114.283 136.96 114.693 136.96C114.842 136.54 114.99 136.119 115.143 135.686C116.014 133.682 117.126 132.022 118.352 130.213C121.636 125.266 124.198 119.991 126.763 114.646Z" fill="#FCAA97"/>
<path d="M73.0508 90.5234C83.7088 96.321 90.466 112.915 94.2652 123.893C96.2173 130.752 96.2115 138.315 92.9663 144.8C90.7009 144.046 90.407 143.253 89.3453 141.182C89.3453 140.784 89.3453 140.386 89.3453 139.976C85.8763 142.509 82.5623 145.193 79.2791 147.962C77.8788 149.022 77.8788 149.022 76.6718 149.022C75.7903 147.425 75.4648 146.673 75.4648 144.8C77.8517 143.59 80.2412 142.386 82.6313 141.182C83.3121 140.837 83.9928 140.492 84.6941 140.136C85.3437 139.809 85.9933 139.483 86.6625 139.147C87.263 138.843 87.8635 138.54 88.4822 138.228C89.9488 137.563 89.9488 137.563 91.1558 137.563C90.7575 136.17 90.3592 134.777 89.9488 133.342C89.447 133.61 88.9452 133.878 88.4283 134.155C87.7724 134.496 87.1166 134.837 86.4409 135.189C85.7898 135.532 85.1387 135.874 84.4678 136.228C82.7068 136.96 82.7068 136.96 80.8963 136.357C83.4853 134.964 86.0743 133.571 88.7418 132.136C86.352 125.732 83.9198 119.348 81.4367 112.98C80.8959 111.592 80.3562 110.205 79.8166 108.817C79.4599 107.901 79.1032 106.985 78.7463 106.069C78.5736 105.626 78.4009 105.182 78.223 104.725C77.362 102.521 76.4912 100.321 75.6015 98.1282C75.4324 97.7105 75.2632 97.2928 75.0889 96.8625C74.626 95.7228 74.1603 94.5843 73.6944 93.4459C73.0508 91.7296 73.0508 91.7296 73.0508 90.5234Z" fill="#626262"/>
<path d="M150.299 55.5449C151.484 57.3199 152.461 59.0185 153.317 60.9726C152.373 63.8034 150.026 64.6434 147.546 66.1365C147.071 66.4346 146.596 66.7327 146.107 67.0399C143.082 68.8816 140.485 69.9034 137.022 70.6218C135.821 71.0027 134.625 71.4024 133.439 71.828C132.874 72.027 132.308 72.226 131.725 72.4311C130.288 72.9073 130.288 72.9073 129.78 74.2403C127.502 74.8927 125.312 74.907 122.953 74.8811C121.986 74.8729 121.986 74.8729 120.999 74.8646C120.511 74.8576 120.023 74.8506 119.521 74.8434C122.111 86.2341 122.111 86.2341 125.686 97.341C126.159 98.9665 126.159 98.9665 125.556 100.776C122.348 92.5121 120.259 84.0853 118.314 75.4465C117.674 75.4169 117.035 75.3874 116.376 75.3569C115.538 75.3117 114.701 75.2661 113.863 75.2203C113.441 75.2016 113.02 75.183 112.585 75.1638C109.398 74.98 109.398 74.98 108.054 73.6372C107.937 71.9364 107.937 71.9364 107.979 69.9434C107.99 69.2826 108.001 68.6218 108.012 67.941C108.026 67.4326 108.04 66.9241 108.054 66.4003C108.254 66.4003 108.453 66.4003 108.658 66.4003C108.658 67.5944 108.658 68.7885 108.658 70.0188C115.781 68.831 115.781 68.831 122.35 66.0234C123.745 65.1942 123.745 65.1942 125.707 64.9303C128.105 64.5709 129.808 63.8299 131.949 62.7442C133.401 62.1788 133.401 62.1788 135.384 61.9173C137.939 61.5279 140.05 60.7289 142.416 59.7288C142.829 59.5589 143.242 59.389 143.667 59.214C144.672 58.7994 145.676 58.3789 146.678 57.9572C145.683 57.9572 144.687 57.9572 143.661 57.9572C145.209 56.4101 146.363 56.4251 148.489 56.148C148.788 57.9391 148.788 57.9391 149.092 59.7665C149.491 58.3734 149.889 56.9802 150.299 55.5449Z" fill="#424242"/>
<path d="M153.921 34.4365C158.587 36.5157 161.147 41.2074 163.803 45.3673C164.202 45.9831 164.202 45.9831 164.61 46.6114C164.858 47.0109 165.107 47.4104 165.364 47.822C165.586 48.1766 165.809 48.5312 166.039 48.8965C166.759 50.4778 166.966 52.0211 167.198 53.735C165.129 55.0643 163.053 56.3797 160.974 57.6927C160.385 58.0717 159.796 58.4506 159.188 58.8411C158.622 59.1968 158.056 59.5524 157.473 59.9189C156.952 60.2505 156.43 60.5821 155.893 60.9238C154.524 61.575 154.524 61.575 152.714 60.9719C151.74 59.432 151.064 57.8071 150.3 56.1473C149.901 58.1374 149.503 60.1276 149.093 62.1781C148.894 62.1781 148.694 62.1781 148.489 62.1781C148.489 58.5958 148.489 55.0135 148.489 51.3227C150.481 51.3227 152.472 51.3227 154.524 51.3227C152.468 48.9255 150.102 47.7839 147.282 46.4981C149.476 42.467 151.683 38.4436 153.921 34.4365Z" fill="#C0E1FC"/>
<path d="M111.676 74.8428C113.866 74.8428 116.057 74.8428 118.314 74.8428C119.33 77.6455 120.019 80.4798 120.701 83.376C122.094 89.2685 123.678 94.8947 126.101 100.453C127.399 103.494 127.399 103.494 127.227 105.062C126.474 106.915 124.904 107.263 123.142 108.012C123.603 107.825 124.063 107.639 124.538 107.447C125.67 106.999 126.816 106.587 127.97 106.203C128.913 107.899 128.913 107.899 129.781 109.821C129.177 111.63 129.177 111.63 127.862 112.488C127.325 112.752 126.788 113.017 126.235 113.289C125.702 113.559 125.168 113.83 124.618 114.109C123.142 114.646 123.142 114.646 121.332 114.043C119.405 110.391 118.495 106.369 117.447 102.396C117.262 101.7 117.077 101.005 116.886 100.288C114.667 91.8578 112.735 83.503 111.676 74.8428Z" fill="#2C6EA3"/>
<path d="M115.296 39.2617C115.894 39.6597 116.491 40.0578 117.107 40.4679C117.107 41.2639 117.107 42.06 117.107 42.8802C117.704 42.6812 118.302 42.4821 118.917 42.2771C120.954 42.0509 120.954 42.0509 123.142 42.2771C124.915 43.7094 124.915 43.7094 126.159 45.2925C126.159 45.6905 126.159 46.0885 126.159 46.4986C120.185 46.4986 114.21 46.4986 108.054 46.4986C108.054 48.4888 108.054 50.4789 108.054 52.5294C108.453 52.7284 108.851 52.9274 109.261 53.1325C108.266 53.1325 107.27 53.1325 106.244 53.1325C106.443 54.1276 106.642 55.1226 106.847 56.1479C106.328 56.2085 105.808 56.2691 105.273 56.3316C103.055 56.7861 101.441 57.563 99.4544 58.6356C98.3164 59.2494 97.1627 59.837 95.9843 60.3694C94.446 59.6008 94.2906 58.8836 93.5703 57.354C93.172 56.757 92.7737 56.1599 92.3633 55.5448C94.5744 51.8281 96.9477 48.3028 99.6807 44.9533C100.168 44.3554 100.655 43.7576 101.156 43.1417C103.012 41.2841 104.423 40.4921 107.059 40.4396C107.512 40.4987 107.965 40.5578 108.431 40.6186C109.115 40.6979 109.115 40.6979 109.813 40.7788C111.072 41.0709 111.072 41.0709 112.882 42.2771C113.679 41.282 114.476 40.2869 115.296 39.2617Z" fill="#A1D2FA"/>
<path d="M138.833 81.4766C139.231 81.6756 139.629 81.8746 140.04 82.0796C139.442 82.2787 138.845 82.4777 138.229 82.6827C139.623 86.663 141.017 90.6433 142.454 94.7443C146.038 95.3413 146.038 95.3413 149.696 95.9504C149.696 96.1494 149.696 96.3484 149.696 96.5535C147.184 96.6027 144.899 96.5429 142.454 95.9504C143.051 97.7415 143.649 99.5327 144.264 101.378C145.857 101.378 147.451 101.378 149.092 101.378C148.675 104.646 148.031 107.82 147.282 111.027C145.5 109.247 145.419 107.436 144.868 104.997C140.61 107.363 136.383 109.774 132.27 112.384C131.674 112.761 131.078 113.137 130.464 113.524C130.039 113.894 129.614 114.265 129.177 114.646C129.177 117.277 129.713 118.546 130.782 120.924C131.115 121.677 131.448 122.431 131.78 123.184C132.308 124.366 132.838 125.546 133.37 126.726C133.883 127.868 134.388 129.013 134.893 130.159C135.2 130.841 135.506 131.524 135.822 132.227C136.419 133.944 136.419 133.944 135.815 135.753C133.469 130.881 131.325 125.934 129.252 120.94C129.007 120.359 128.763 119.778 128.511 119.179C128.284 118.628 128.057 118.076 127.823 117.508C127.619 117.015 127.414 116.521 127.204 116.013C126.763 114.646 126.763 114.646 126.763 112.233C127.559 111.835 128.356 111.437 129.177 111.027C128.579 108.938 128.579 108.938 127.97 106.806C127.148 107.272 127.148 107.272 126.31 107.748C124.349 108.615 124.349 108.615 121.935 108.012C123.528 107.216 125.121 106.42 126.763 105.6C126.563 104.008 126.364 102.415 126.159 100.775C127.97 102.961 127.97 102.961 127.97 104.997C132.351 102.807 136.732 100.618 141.247 98.3627C141.247 96.1638 141.048 95.1277 140.301 93.14C140.108 92.6117 139.915 92.0835 139.715 91.5392C139.302 90.4315 138.887 89.3243 138.471 88.2176C138.182 87.4264 138.182 87.4264 137.887 86.6192C137.707 86.1387 137.527 85.6582 137.341 85.1632C137.022 83.8889 137.022 83.8889 137.626 82.0796C138.024 81.8806 138.422 81.6816 138.833 81.4766Z" fill="#3D293C"/>
<path d="M135.212 13.932C137.022 14.8367 137.022 14.8367 138.229 15.7413C138.229 15.3432 138.229 14.9452 138.229 14.5351C140.04 15.1382 140.04 15.1382 141.058 16.9474C142.532 21.1202 141.984 25.8583 141.85 30.2151C140.257 30.2151 138.664 30.2151 137.022 30.2151C136.624 29.22 136.226 28.225 135.815 27.1997C135.467 27.4983 135.118 27.7968 134.759 28.1043C133.401 29.009 133.401 29.009 130.987 29.009C130.788 28.4119 130.589 27.8149 130.384 27.1997C129.389 26.5785 128.383 25.9748 127.366 25.3905C126.126 22.9119 126.623 19.977 127.215 17.362C128.881 13.7834 131.461 13.3531 135.212 13.932Z" fill="#2C2C2C"/>
<path d="M140.04 38.0552C140.704 40.3297 140.557 41.4471 139.55 43.6337C138.513 45.3117 137.76 46.3012 135.811 46.8219C134.353 47.0043 132.947 47.0642 131.478 47.0637C130.746 47.0669 130.746 47.0669 129.999 47.0701C128.636 47.0071 127.463 46.9038 126.16 46.4983C124.997 44.9929 124.997 44.9929 124.349 43.4829C122.825 42.7216 121.747 42.8204 120.049 42.8421C119.5 42.8476 118.951 42.853 118.385 42.8586C117.752 42.8691 117.752 42.8691 117.107 42.8798C116.709 41.8847 116.31 40.8897 115.9 39.8644C114.705 40.8595 113.51 41.8546 112.279 42.8798C111.881 42.4818 111.482 42.0838 111.072 41.6737C109.826 41.3723 109.826 41.3723 108.432 41.259C107.734 41.1809 107.734 41.1809 107.022 41.1012C105.637 41.0081 105.637 41.0081 104.325 41.4098C103.963 41.4969 103.6 41.584 103.227 41.6737C102.17 40.8821 102.17 40.8821 101.416 39.8644C101.416 39.4664 101.416 39.0684 101.416 38.6583C114.289 37.9262 127.151 37.9931 140.04 38.0552Z" fill="#818181"/>
<path d="M150.224 27.275C152.206 27.8297 153.556 28.2728 155.127 29.612C155.744 33.2249 153.984 35.733 152.223 38.7335C151.95 39.2147 151.678 39.6959 151.397 40.1917C148.663 44.9702 148.663 44.9702 147.282 46.4981C146.135 46.772 146.135 46.772 144.861 46.7337C144.404 46.7259 143.947 46.7181 143.476 46.7101C142.765 46.6798 142.765 46.6798 142.039 46.6489C141.317 46.6325 141.317 46.6325 140.581 46.6159C139.395 46.5875 138.208 46.5442 137.022 46.4981C139.086 42.1483 141.344 37.9501 143.774 33.7958C144.161 33.1283 144.161 33.1283 144.556 32.4473C144.805 32.027 145.053 31.6068 145.309 31.1738C145.529 30.7998 145.749 30.4259 145.976 30.0406C147.926 27.1752 147.926 27.1752 150.224 27.275Z" fill="#626262"/>
<path d="M51.3248 88.7139C51.524 88.7139 51.7232 88.7139 51.9283 88.7139C51.9283 91.8981 51.9283 95.0824 51.9283 98.3631C50.9326 98.7611 49.9368 99.1592 48.9108 99.5693C48.3687 101.41 48.3687 101.41 48.3073 103.188C49.3031 103.387 50.2989 103.586 51.3248 103.791C50.9769 108.223 49.6891 112.242 48.3073 116.455C47.402 115.098 46.6899 113.877 45.99 112.422C45.7842 112.001 45.5785 111.58 45.3665 111.146C44.9386 110.264 44.5127 109.381 44.0887 108.498C43.8822 108.076 43.6756 107.655 43.4628 107.221C43.2777 106.838 43.0926 106.454 42.9019 106.059C42.3052 104.946 42.3052 104.946 41.2998 104.055C40.4618 103.188 40.4618 103.188 40.3487 101.567C40.386 101.107 40.4234 100.646 40.4618 100.172C40.2627 100.57 40.0635 100.968 39.8583 101.378C39.46 101.378 39.0617 101.378 38.6513 101.378C38.6513 100.184 38.6513 98.9903 38.6513 97.76C38.253 97.561 37.8547 97.362 37.4443 97.1569C37.8426 96.9579 38.241 96.7589 38.6513 96.5539C39.09 95.3604 39.4951 94.1539 39.8583 92.9354C40.2955 92.9634 40.7328 92.9914 41.1832 93.0202C44.8986 93.1588 47.2186 93.1231 50.1178 90.5231C50.5162 89.9261 50.9145 89.329 51.3248 88.7139Z" fill="#FCAA97"/>
<path d="M19.3399 147.212C19.7507 147.647 20.1614 148.083 20.5846 148.531C22.413 150.369 24.4469 151.778 26.5819 153.243C26.1836 154.039 25.7853 154.835 25.3749 155.655C23.8912 155.687 22.4081 155.711 20.9241 155.73C20.2916 155.746 20.2916 155.746 19.6464 155.761C18.5379 155.772 17.4292 155.717 16.3224 155.655C15.9241 155.257 15.5258 154.859 15.1154 154.449C16.1807 156.653 17.254 158.852 18.3348 161.049C18.701 161.796 19.0651 162.544 19.4269 163.293C19.9484 164.372 20.4786 165.447 21.009 166.522C21.325 167.17 21.6411 167.817 21.9667 168.484C23.011 170.212 23.5804 171.03 25.3749 171.938C26.9932 172.134 28.4796 172.232 30.0992 172.247C30.5512 172.257 31.0033 172.268 31.469 172.279C32.9077 172.312 34.3463 172.333 35.7853 172.353C36.7629 172.373 37.7404 172.393 38.7179 172.415C41.1099 172.466 43.5017 172.507 45.8939 172.541C45.8939 173.337 45.8939 174.133 45.8939 174.953C42.7692 175.013 39.6447 175.057 36.5195 175.086C35.457 175.098 34.3946 175.115 33.3323 175.135C31.8026 175.165 30.2735 175.178 28.7437 175.189C28.2708 175.201 27.798 175.214 27.3108 175.227C25.1598 175.228 23.7437 175.057 21.8686 173.973C19.5241 171.433 18.1597 168.349 16.6432 165.277C16.057 164.095 15.4533 162.924 14.8479 161.752C14.4715 161.002 14.0963 160.251 13.7222 159.5C13.3811 158.82 13.04 158.141 12.6886 157.441C12.0979 155.655 12.0979 155.655 12.5127 154.3C13.6463 152.787 14.954 151.531 16.3224 150.227C17.1626 149.388 17.1626 149.388 18.0198 148.531C18.6732 147.878 18.6732 147.878 19.3399 147.212Z" fill="#782A28"/>
<path d="M61.5847 63.3848C64.4066 64.7947 65.6074 70.4129 66.5925 73.3305C67.6144 76.9785 67.6557 80.7272 67.6197 84.4925C68.0181 84.4925 68.4164 84.4925 68.8267 84.4925C68.8267 85.8856 68.8267 87.2787 68.8267 88.714C68.4284 88.714 68.0301 88.714 67.6197 88.714C67.6773 89.3802 67.7349 90.0465 67.7942 90.7329C68.2462 96.7274 68.1327 102.453 67.5213 108.431C66.7598 116.111 66.6145 123.821 66.4127 131.532C64.3372 128.421 62.7595 124.83 62.8295 121.054C63.1498 119.816 63.4812 118.581 63.8479 117.355C66.8787 106.202 65.172 94.0212 63.9987 82.6832C63.9333 81.9578 63.9333 81.9578 63.8664 81.2176C63.7527 80.0927 63.5802 78.974 63.3952 77.8586C62.9969 77.6596 62.5986 77.4606 62.1882 77.2555C60.7079 72.6446 60.9729 68.1195 61.5847 63.3848Z" fill="#21537B"/>
<path d="M55.5494 8.5042C58.0672 9.59066 59.2468 10.8431 60.3774 13.3288C61.0186 15.3265 61.0186 15.3265 60.9809 17.5504C60.0199 19.3954 58.8921 20.9643 57.3599 22.375C56.5613 22.599 55.7568 22.8038 54.9459 22.978C54.1708 24.1744 54.1708 24.1744 53.7389 25.3904C52.0379 24.9397 50.4558 24.4321 48.9109 23.5811C48.0811 21.8096 48.0811 21.8096 47.7039 19.9627C47.4799 19.5771 47.2558 19.1915 47.025 18.7942C46.2222 16.9033 46.3187 15.3584 46.4969 13.3288C48.2878 9.18427 51.1738 8.03572 55.5494 8.5042Z" fill="#FCAA97"/>
<path d="M14.5117 152.64C14.7171 153.032 14.9225 153.425 15.1341 153.829C16.2864 155.264 16.2864 155.264 18.4156 155.351C19.2267 155.352 20.0378 155.34 20.8485 155.316C21.4611 155.322 21.4611 155.322 22.0861 155.329C23.9186 155.305 25.0895 155.273 26.5629 154.131C26.7682 153.838 26.9736 153.545 27.1852 153.243C28.8867 153.694 30.4664 154.204 32.0132 155.052C32.9939 156.861 32.9939 156.861 33.2202 158.67C32.6228 159.566 32.6228 159.566 32.0132 160.48C32.8098 160.281 33.6065 160.082 34.4272 159.877C34.4272 160.275 34.4272 160.673 34.4272 161.083C34.9656 161.149 35.5039 161.215 36.0586 161.283C36.7649 161.379 37.4713 161.474 38.1991 161.573C39.2493 161.709 39.2493 161.709 40.3208 161.848C42.2777 162.29 43.2918 162.673 44.6867 164.098C44.6867 164.695 44.6867 165.292 44.6867 165.907C44.2884 165.907 43.8901 165.907 43.4797 165.907C43.4797 165.509 43.4797 165.111 43.4797 164.701C42.9321 164.838 42.3844 164.975 41.8201 165.116C39.1238 165.489 36.9115 164.795 34.3188 164.079C31.3092 163.317 28.2751 162.745 25.2238 162.176C24.6481 162.068 24.0723 161.96 23.4791 161.849C22.0996 161.592 20.7198 161.336 19.3397 161.083C20.1011 162.568 20.8688 164.05 21.6406 165.53C21.8557 165.952 22.0708 166.373 22.2924 166.807C22.6104 167.414 22.6104 167.414 22.9348 168.032C23.1276 168.405 23.3204 168.778 23.519 169.162C24.208 170.322 24.208 170.322 25.9782 171.335C27.5086 171.48 28.9789 171.56 30.5115 171.585C30.951 171.596 31.3905 171.608 31.8433 171.62C33.2452 171.656 34.6471 171.684 36.0491 171.712C37.0004 171.735 37.9516 171.759 38.9028 171.783C41.233 171.841 43.5633 171.891 45.8937 171.938C45.8937 172.137 45.8937 172.336 45.8937 172.541C43.0268 172.601 40.1602 172.645 37.2928 172.674C36.3182 172.686 35.3435 172.702 34.369 172.723C32.9652 172.753 31.562 172.766 30.1579 172.777C29.7247 172.789 29.2914 172.802 28.845 172.814C26.7698 172.815 25.4896 172.609 23.6927 171.545C22.1983 169.96 21.3114 168.479 20.3463 166.527C20.0021 165.835 19.6579 165.144 19.3032 164.431C19.1297 164.074 18.9563 163.716 18.7776 163.347C18.2445 162.248 17.6998 161.156 17.1532 160.064C14.5117 154.703 14.5117 154.703 14.5117 152.64Z" fill="#2C2C2C"/>
<path d="M117.107 147.212C117.505 148.406 117.903 149.6 118.314 150.83C117.883 151.18 117.453 151.53 117.01 151.89C115.229 153.342 113.452 154.8 111.675 156.258C111.226 156.622 110.777 156.986 110.315 157.361C108.088 159.16 108.088 159.16 106.847 161.686C106.25 161.686 105.652 161.686 105.037 161.686C103.762 162.657 102.574 163.641 101.378 164.701C100.674 165.309 99.9702 165.917 99.2657 166.525C98.9164 166.828 98.5671 167.13 98.2072 167.443C96.7666 168.686 95.3073 169.904 93.8342 171.109C93.3729 171.49 92.9115 171.871 92.4362 172.263C91.1706 173.134 90.2451 173.495 88.7422 173.747C88.1447 171.658 88.1447 171.658 87.5352 169.526C87.9895 169.181 88.4438 168.837 88.9119 168.482C92.7295 165.575 96.4932 162.612 100.209 159.575C103.827 156.618 107.491 153.733 111.211 150.903C112.336 150.042 113.445 149.157 114.535 148.251C115.9 147.212 115.9 147.212 117.107 147.212Z" fill="#782A28"/>
<path d="M57.3603 32.0244C61.1368 35.1513 63.3239 39.8552 63.9988 44.689C64.1085 46.3986 64.1379 48.1024 64.1497 49.8152C64.1622 50.2653 64.1746 50.7154 64.1874 51.1792C64.2071 53.9542 63.9469 55.6821 62.1883 57.9567C60.618 59.3741 59.3976 59.91 57.3603 60.369C57.3635 59.7001 57.3667 59.0311 57.3699 58.3419C57.3809 55.8422 57.3878 53.3426 57.3935 50.8429C57.3965 49.7643 57.4006 48.6858 57.4059 47.6072C57.4132 46.0503 57.4166 44.4933 57.4193 42.9363C57.4224 42.46 57.4255 41.9836 57.4287 41.4928C57.4289 39.2048 57.3315 37.0028 57.0172 34.7347C56.9313 34.0393 56.8454 33.344 56.7568 32.6275C56.956 32.4285 57.1551 32.2295 57.3603 32.0244Z" fill="#81C3F8"/>
<path d="M118.918 142.388C121.044 143.331 122.703 144.616 124.5 146.082C125.039 146.518 125.577 146.955 126.132 147.405C126.539 147.74 126.947 148.074 127.367 148.418C126.769 149.613 126.172 150.807 125.556 152.037C125.955 152.037 126.353 152.037 126.763 152.037C126.564 152.435 126.365 152.833 126.16 153.243C125.562 153.044 124.965 152.845 124.349 152.64C124.629 153.181 124.629 153.181 124.915 153.733C125.556 155.052 125.556 155.052 126.16 156.862C124.367 156.862 122.575 156.862 120.728 156.862C120.728 157.658 120.728 158.454 120.728 159.274C121.923 159.473 123.118 159.672 124.349 159.877C124.349 160.275 124.349 160.673 124.349 161.083C120.434 160.069 116.644 158.954 112.883 157.465C113.408 154.746 114.658 153.458 116.504 151.434C116.902 151.235 117.3 151.036 117.711 150.831C117.412 150.01 117.412 150.01 117.107 149.172C116.504 147.212 116.504 147.212 116.504 144.8C117.711 143.443 117.711 143.443 118.918 142.388Z" fill="#2C2C2C"/>
<path d="M143.665 144.945C145.756 145.74 146.321 147.893 147.195 149.82C147.405 150.266 147.614 150.711 147.83 151.171C148.272 152.115 148.709 153.062 149.143 154.01C149.804 155.455 150.479 156.893 151.157 158.33C151.585 159.25 152.012 160.17 152.438 161.09C152.639 161.518 152.839 161.946 153.046 162.387C154.127 164.768 154.829 166.899 155.128 169.526C153.734 170.123 152.34 170.72 150.903 171.335C149.926 169.149 148.95 166.963 147.975 164.776C147.484 163.676 146.993 162.576 146.501 161.476C145.548 159.338 144.604 157.195 143.661 155.052C143.354 154.37 143.046 153.688 142.729 152.985C142.307 152.026 142.307 152.026 141.877 151.047C141.498 150.198 141.498 150.198 141.111 149.332C140.608 147.699 140.569 146.959 141.247 145.403C142.454 144.8 142.454 144.8 143.665 144.945Z" fill="#212121"/>
<path d="M183.491 155.053C184.089 155.849 184.686 156.645 185.302 157.465C184.444 159.64 183.604 160.331 181.492 161.288C180.95 161.54 180.408 161.792 179.849 162.051C178.963 162.449 178.963 162.449 178.06 162.855C176.804 163.435 175.549 164.016 174.295 164.598C173.633 164.905 172.972 165.212 172.29 165.528C170.138 166.547 168.01 167.608 165.888 168.688C164.828 169.227 164.828 169.227 163.747 169.776C162.367 170.481 160.988 171.189 159.612 171.9C158.667 172.38 158.667 172.38 157.704 172.869C157.147 173.156 156.591 173.442 156.018 173.737C154.523 174.351 154.523 174.351 152.109 174.351C151.91 173.555 151.711 172.759 151.506 171.939C158.27 168.316 165.091 164.811 171.949 161.369C172.831 160.927 173.712 160.484 174.592 160.04C175.842 159.41 177.093 158.783 178.345 158.158C178.915 157.87 178.915 157.87 179.496 157.576C182.146 156.259 182.146 156.259 183.491 156.259C183.491 155.861 183.491 155.463 183.491 155.053Z" fill="#782A28"/>
<path d="M115.296 39.2617C115.894 39.6597 116.491 40.0578 117.107 40.4679C117.107 41.2639 117.107 42.06 117.107 42.8802C117.704 42.6812 118.302 42.4821 118.917 42.2771C120.954 42.0509 120.954 42.0509 123.142 42.2771C124.915 43.7094 124.915 43.7094 126.159 45.2925C126.159 45.6905 126.159 46.0885 126.159 46.4986C125.333 46.5213 125.333 46.5213 124.49 46.5444C122.437 46.602 120.385 46.6618 118.332 46.7232C117.445 46.7492 116.558 46.7744 115.672 46.7986C114.394 46.8336 113.116 46.8719 111.838 46.9109C110.686 46.9441 110.686 46.9441 109.511 46.9779C107.495 47.0429 107.495 47.0429 105.743 47.4906C105.095 47.5966 105.095 47.5966 104.433 47.7048C103.226 46.4986 103.226 46.4986 103 44.7648C103.226 42.8802 103.226 42.8802 104.094 41.4102C106.148 40.1587 107.467 40.4151 109.792 40.7364C111.072 41.0709 111.072 41.0709 112.882 42.2771C113.679 41.282 114.476 40.2869 115.296 39.2617Z" fill="#0F0D09"/>
<path d="M89.3456 139.976C89.9349 141.036 90.5243 142.096 91.1136 143.156C91.765 144.294 91.765 144.294 92.9666 145.403C90.6462 147.883 88.1706 149.781 85.3474 151.66C84.9444 151.939 84.5414 152.218 84.1262 152.506C83.0822 153.205 81.9915 153.833 80.8966 154.449C79.0861 153.846 79.0861 153.846 77.9922 152.15C77.2756 150.228 77.2756 150.228 77.5914 149.114C78.8997 147.208 80.5861 145.879 82.3676 144.423C82.7212 144.128 83.0747 143.832 83.439 143.528C87.7177 139.976 87.7177 139.976 89.3456 139.976Z" fill="#FCAA97"/>
<path d="M129.177 16.3447C131.591 17.1488 134.005 17.9529 136.419 18.757C136.419 19.5531 136.419 20.3492 136.419 21.1693C137.614 21.1693 138.809 21.1693 140.04 21.1693C140.066 22.1741 140.064 23.1799 140.04 24.1847C139.436 24.7878 139.436 24.7878 137.89 24.8255C137.404 24.8131 136.919 24.8006 136.419 24.7878C136.419 25.1858 136.419 25.5839 136.419 25.994C133.742 27.5662 131.52 27.3499 128.573 26.597C127.329 25.6547 127.329 25.6547 126.763 24.1847C126.435 21.2338 126.313 20.0346 127.97 17.5509C128.368 17.1528 128.767 16.7548 129.177 16.3447Z" fill="#FCAA97"/>
<path d="M89.9497 133.342C90.8312 134.938 91.1567 135.69 91.1567 137.563C88.6137 138.856 86.0684 140.144 83.5209 141.428C82.6544 141.866 81.7887 142.304 80.9236 142.745C79.6804 143.377 78.435 144.004 77.189 144.631C76.8023 144.829 76.4156 145.026 76.0172 145.23C74.2994 146.089 73.1903 146.609 71.2412 146.609C71.042 145.216 70.8429 143.823 70.6377 142.388C80.22 137.282 80.22 137.282 85.0463 134.812C85.6048 134.525 86.1634 134.238 86.7389 133.943C88.1392 133.342 88.1392 133.342 89.9497 133.342Z" fill="#21537B"/>
<path d="M105.641 160.48C107.556 162.151 108.522 163.805 109.616 166.077C111.474 169.727 111.474 169.727 114.858 171.784C118.228 172.306 121.562 172.18 124.953 171.939C124.953 172.735 124.953 173.531 124.953 174.351C111.336 175.593 111.336 175.593 108.074 173.64C106.14 171.613 105.294 169.124 104.434 166.511C103.846 165.297 103.247 164.089 102.623 162.893C103.619 162.097 104.615 161.301 105.641 160.48Z" fill="#782A28"/>
<path d="M51.9286 87.5078C52.1278 87.5078 52.3269 87.5078 52.5321 87.5078C53.1311 90.9495 53.1988 94.2708 53.1356 97.7601C53.7132 97.6843 53.7132 97.6843 54.3025 97.607C54.8012 97.5456 55.2999 97.4842 55.8136 97.4209C56.3107 97.3579 56.8079 97.295 57.32 97.2301C57.7316 97.206 58.1431 97.1819 58.5671 97.157C59.5668 98.1561 59.2738 99.332 59.2838 100.7C59.2923 101.233 59.3009 101.767 59.3097 102.316C59.1706 103.791 59.1706 103.791 57.9636 105.6C56.1712 105.401 54.3788 105.202 52.5321 104.997C52.3718 105.629 52.2116 106.261 52.0465 106.912C51.8313 107.744 51.616 108.576 51.4005 109.407C51.2955 109.823 51.1905 110.24 51.0823 110.669C50.5605 112.667 50.0687 114.117 48.9111 115.852C48.1328 114.297 48.4331 113.8 48.9087 112.154C49.1159 111.425 49.1159 111.425 49.3272 110.682C49.5507 109.92 49.5507 109.92 49.7786 109.143C49.9253 108.631 50.0719 108.119 50.223 107.591C50.5865 106.323 50.954 105.056 51.3251 103.791C50.1302 103.791 48.9352 103.791 47.7041 103.791C48.1567 101.756 48.1567 101.756 48.9111 99.5694C49.7077 99.1713 50.5043 98.7733 51.3251 98.3632C51.6238 92.9898 51.6238 92.9898 51.9286 87.5078Z" fill="#251F09"/>
<path d="M107.451 161.687C109.38 163.417 110.198 164.847 111.148 167.227C111.973 168.909 111.973 168.909 113.486 170.13C116.996 171.086 120.747 170.861 124.349 170.733C123.951 168.743 123.553 166.752 123.142 164.702C126.835 164.847 126.835 164.847 128.298 166.108C131.077 169.456 130.988 170.225 130.988 174.954C123.818 174.954 116.649 174.954 109.262 174.954C109.262 174.755 109.262 174.556 109.262 174.351C114.44 174.351 119.618 174.351 124.953 174.351C124.953 173.555 124.953 172.759 124.953 171.939C123.785 172.044 123.785 172.044 122.593 172.151C114.448 172.665 114.448 172.665 111.848 170.702C110.789 169.14 110.01 167.638 109.262 165.908C108.932 165.369 108.602 164.831 108.262 164.276C107.451 162.893 107.451 162.893 107.451 161.687Z" fill="#212121"/>
<path d="M66.4124 82.0801C66.8108 82.8761 67.2091 83.6722 67.6194 84.4924C68.0178 84.4924 68.4161 84.4924 68.8264 84.4924C68.8264 85.8855 68.8264 87.2786 68.8264 88.7139C68.4281 88.7139 68.0298 88.7139 67.6194 88.7139C67.677 89.3802 67.7346 90.0464 67.7939 90.7328C68.2459 96.7273 68.1324 102.453 67.521 108.431C66.7595 116.111 66.6142 123.82 66.4124 131.532C65.3008 129.866 64.6045 128.415 63.8853 126.557C63.6651 126.007 63.445 125.456 63.2181 124.889C62.4446 121.626 63.4594 118.522 64.2837 115.331C66.0396 108.354 66.2096 101.531 66.2616 94.3678C66.2786 93.1679 66.2967 91.968 66.3158 90.7682C66.3597 87.8722 66.39 84.9763 66.4124 82.0801Z" fill="#21537B"/>
<path d="M142.303 80.4218C142.751 80.571 143.199 80.7203 143.661 80.8741C143.736 81.4338 143.81 81.9935 143.887 82.5702C144.153 84.5765 144.153 84.5765 145.471 86.3018C145.928 87.4847 146.352 88.68 146.754 89.8825C146.967 90.5099 147.18 91.1373 147.4 91.7836C147.885 93.5387 147.885 93.5387 147.885 95.951C145.958 96.0539 144.287 95.9848 142.454 95.3479C141.16 93.7083 140.64 91.9016 140.04 89.9202C139.861 89.4242 139.682 88.9283 139.498 88.4172C138.778 86.4058 138.229 84.8346 138.229 82.6833C140.079 80.2197 140.079 80.2197 142.303 80.4218Z" fill="#2C6EA3"/>
<path d="M141.85 98.9658C142.249 99.1648 142.647 99.3639 143.057 99.5689C143.498 100.964 143.903 102.372 144.264 103.79C142.179 104.9 140.091 106.004 138.003 107.107C137.409 107.424 136.814 107.74 136.202 108.066C135.634 108.365 135.066 108.665 134.481 108.973C133.956 109.251 133.432 109.529 132.891 109.815C131.591 110.424 131.591 110.424 130.384 110.424C129.786 108.832 129.189 107.24 128.573 105.6C130.757 104.474 132.946 103.358 135.136 102.245C136.071 101.763 136.071 101.763 137.025 101.271C137.62 100.97 138.215 100.668 138.828 100.358C139.653 99.9365 139.653 99.9365 140.494 99.5063C140.942 99.328 141.389 99.1496 141.85 98.9658Z" fill="#2C6EA3"/>
<path d="M19.3397 147.212C19.7504 147.647 20.1612 148.083 20.5844 148.531C22.4128 150.369 24.4466 151.778 26.5817 153.243C26.1834 154.039 25.785 154.835 25.3747 155.655C23.8909 155.687 22.4078 155.711 20.9238 155.73C20.2914 155.746 20.2914 155.746 19.6461 155.761C18.5376 155.772 17.429 155.717 16.3222 155.655C15.9238 155.257 15.5255 154.859 15.1152 154.449C15.5135 155.444 15.9118 156.439 16.3222 157.464C15.3264 157.663 14.3306 157.862 13.3047 158.067C12.9063 156.873 12.508 155.679 12.0977 154.449C13.6961 152.805 15.2947 151.258 17.0765 149.813C18.7467 148.596 18.7467 148.596 19.3397 147.212Z" fill="#2C2C2C"/>
<path d="M55.5499 8.5042C57.3227 9.33343 57.3227 9.33343 58.5674 10.3134C58.5674 10.7115 58.5674 11.1095 58.5674 11.5196C57.9077 11.4574 57.248 11.3952 56.5683 11.3311C55.834 11.3933 55.0996 11.4555 54.3429 11.5196C53.2956 12.9623 53.2956 12.9623 52.5324 14.535C51.2123 15.025 51.2123 15.025 50.1184 15.138C50.5167 15.9341 50.9151 16.7302 51.3254 17.5504C50.728 17.5504 50.1305 17.5504 49.5149 17.5504C49.5149 16.9533 49.5149 16.3563 49.5149 15.7411C49.1166 15.7411 48.7183 15.7411 48.3079 15.7411C48.5179 16.9324 48.5179 16.9324 48.9114 18.1534C49.3097 18.3524 49.7081 18.5515 50.1184 18.7565C49.7201 19.5526 49.3218 20.3486 48.9114 21.1688C47.3715 19.1971 46.5416 17.9097 46.2334 15.4019C46.6016 12.5107 47.3994 11.0448 49.6658 9.22036C51.7881 8.30454 53.2564 8.25864 55.5499 8.5042Z" fill="#1A1717"/>
<path d="M148.489 53.1328C148.489 54.1279 148.489 55.123 148.489 56.1482C147.493 56.5462 146.497 56.9443 145.471 57.3544C146.268 57.5534 147.065 57.7524 147.885 57.9574C145.953 58.7719 144.016 59.572 142.077 60.3697C141.531 60.5998 140.986 60.83 140.424 61.067C137.592 62.2238 135.316 63.1137 132.194 62.782C132.194 61.986 132.194 61.1899 132.194 60.3697C133.878 59.6636 135.563 58.9604 137.249 58.259C137.728 58.0576 138.207 57.8563 138.701 57.6488C139.16 57.4584 139.619 57.2679 140.092 57.0717C140.515 56.8948 140.939 56.7179 141.375 56.5357C142.454 56.1482 142.454 56.1482 143.661 56.1482C143.86 55.5512 144.059 54.9541 144.264 54.339C145.733 53.6242 146.847 53.1328 148.489 53.1328Z" fill="#2C2C2C"/>
<path d="M49.8917 103.716C50.3647 103.741 50.8377 103.766 51.325 103.791C50.9771 108.224 49.6892 112.243 48.3075 116.456C47.3725 115.054 46.7166 113.881 46.0585 112.359C45.8718 111.93 45.6851 111.5 45.4927 111.058C45.2057 110.39 45.2057 110.39 44.9128 109.709C44.6187 109.031 44.6187 109.031 44.3187 108.339C43.8362 107.226 43.3559 106.112 42.876 104.997C43.8842 105.035 43.8842 105.035 44.9128 105.073C47.4451 104.985 47.5658 103.826 49.8917 103.716Z" fill="#21537B"/>
<path d="M136.419 107.409C136.817 107.608 137.215 107.807 137.626 108.012C135.746 110.079 133.777 111.66 131.473 113.249C130.93 113.625 130.387 114.001 129.827 114.388C129.206 114.814 129.206 114.814 128.573 115.249C128.814 115.806 129.055 116.363 129.303 116.937C130.194 119.001 131.077 121.069 131.958 123.137C132.341 124.033 132.726 124.927 133.112 125.821C133.667 127.104 134.215 128.391 134.761 129.678C135.024 130.278 135.024 130.278 135.291 130.889C136.487 133.739 136.487 133.739 135.815 135.754C133.469 130.881 131.325 125.934 129.252 120.941C129.008 120.36 128.763 119.778 128.511 119.179C128.284 118.628 128.057 118.077 127.824 117.508C127.619 117.015 127.415 116.522 127.204 116.013C126.763 114.646 126.763 114.646 126.763 112.234C127.559 111.836 128.356 111.438 129.177 111.028C129.177 110.033 129.177 109.037 129.177 108.012C129.575 108.808 129.973 109.604 130.384 110.425C130.805 110.2 131.227 109.975 131.661 109.744C132.485 109.316 132.485 109.316 133.326 108.879C133.872 108.592 134.418 108.305 134.981 108.01C135.692 107.713 135.692 107.713 136.419 107.409Z" fill="#231312"/>
<path d="M127.366 106.203C129.136 107.664 129.405 108.807 129.78 111.028C128.716 111.651 127.646 112.265 126.574 112.875C125.979 113.217 125.384 113.56 124.77 113.914C123.142 114.646 123.142 114.646 121.331 114.043C120.758 112.929 120.758 112.929 120.313 111.593C120.161 111.151 120.009 110.708 119.853 110.253C119.743 109.911 119.634 109.57 119.521 109.219C119.935 109.102 120.35 108.985 120.777 108.865C121.321 108.708 121.865 108.551 122.425 108.389C122.964 108.235 123.503 108.081 124.059 107.923C125.679 107.438 125.679 107.438 127.366 106.203Z" fill="#2C6EA3"/>
<path d="M90.5524 155.656C91.6463 156.41 91.6463 156.41 92.3629 157.465C92.7228 159.469 92.5386 160.224 91.3822 161.913C89.9489 162.893 89.9489 162.893 88.063 162.817C86.3279 162.29 86.3279 162.29 85.1209 161.083C84.8946 159.01 84.8946 159.01 85.1209 156.862C86.8221 154.847 88.1317 154.787 90.5524 155.656Z" fill="#142515"/>
<path d="M135.212 13.9322C137.376 14.9194 138.104 15.5543 139.436 17.5507C139.512 19.473 139.512 19.473 139.436 21.1691C138.44 21.1691 137.445 21.1691 136.419 21.1691C136.419 20.3731 136.419 19.577 136.419 18.7568C135.635 18.6449 135.635 18.6449 134.835 18.5307C132.798 18.1537 132.798 18.1537 130.874 17.4376C130.314 17.2759 129.754 17.1142 129.177 16.9476C128.579 17.3456 127.982 17.7436 127.366 18.1537C127.578 16.6225 127.873 15.8494 128.913 14.686C130.997 13.6177 132.94 13.5938 135.212 13.9322Z" fill="#2C2C2C"/>
<path d="M135.815 26.5967C137.022 27.8028 137.022 27.8028 137.022 30.2151C138.018 30.2151 139.014 30.2151 140.04 30.2151C139.413 32.0323 138.832 32.6277 137.211 33.7205C134.806 34.582 133.433 34.5385 130.987 33.8336C130.12 32.5898 130.12 32.5898 129.78 31.4213C130.378 31.4213 130.975 31.4213 131.591 31.4213C131.392 30.6252 131.192 29.8292 130.987 29.009C131.672 28.7229 132.356 28.4368 133.062 28.1421C135.065 27.4191 135.065 27.4191 135.815 26.5967Z" fill="#FCAA97"/>
<path d="M143.661 100.775C145.453 100.974 147.246 101.173 149.092 101.378C148.675 104.646 148.032 107.821 147.282 111.028C145.501 109.248 145.419 107.436 144.868 104.997C141.283 107.087 141.283 107.087 137.626 109.218C137.427 108.422 137.228 107.626 137.022 106.806C138.002 106.301 138.983 105.799 139.965 105.298C140.784 104.879 140.784 104.879 141.619 104.45C143.057 103.791 143.057 103.791 144.264 103.791C144.065 102.796 143.866 101.801 143.661 100.775Z" fill="#211719"/>
<path d="M125.556 38.6582C130.535 38.6582 135.513 38.6582 140.643 38.6582C140.04 41.6736 140.04 41.6736 138.833 43.4828C136.964 43.7857 136.066 43.6359 134.443 42.6465C132.661 41.5929 130.958 40.9817 128.988 40.3544C128.343 40.1468 127.698 39.9392 127.034 39.7254C126.546 39.5722 126.058 39.4191 125.556 39.2613C125.556 39.0623 125.556 38.8632 125.556 38.6582Z" fill="#818181"/>
<path d="M66.4131 82.0801C66.8114 82.8761 67.2097 83.6722 67.6201 84.4924C68.0184 84.4924 68.4167 84.4924 68.8271 84.4924C68.8271 85.8855 68.8271 87.2786 68.8271 88.7139C68.4288 88.7139 68.0305 88.7139 67.6201 88.7139C67.6776 89.4081 67.7352 90.1024 67.7945 90.8176C68.1834 96.1275 68.2867 101.277 67.7332 106.58C67.6835 107.076 67.6338 107.573 67.5826 108.084C67.4427 109.273 67.236 110.454 67.0166 111.631C66.4191 111.929 66.4191 111.929 65.8096 112.234C66.0087 102.283 66.2079 92.3324 66.4131 82.0801Z" fill="#21537B"/>
<path d="M113.486 136.96C115.079 138.154 116.673 139.348 118.314 140.578C117.622 143.347 116.932 143.797 114.693 145.403C114.357 145.117 114.021 144.831 113.675 144.536C112.169 143.519 111.045 143.238 109.262 142.991C110.505 140.817 111.888 138.888 113.486 136.96Z" fill="#2C2C2C"/>
<path d="M120.727 144.8C123.769 145.068 125.179 146.436 127.366 148.418C126.769 149.612 126.171 150.806 125.555 152.037C125.954 152.037 126.352 152.037 126.762 152.037C126.563 152.435 126.364 152.833 126.159 153.243C125.562 153.044 124.964 152.845 124.348 152.64C123.95 153.038 123.552 153.436 123.141 153.846C121.747 152.254 120.353 150.662 118.917 149.021C119.116 148.623 119.315 148.225 119.52 147.815C120.118 148.014 120.715 148.213 121.331 148.418C121.132 147.224 120.933 146.03 120.727 144.8Z" fill="#2C2C2C"/>
<path d="M103.829 57.3535C104.427 57.652 104.427 57.652 105.036 57.9566C105.036 58.3546 105.036 58.7527 105.036 59.1627C105.758 59.2374 106.48 59.312 107.224 59.3889C109.427 59.6592 111.4 60.1907 113.485 60.972C112.656 62.4797 112.656 62.4797 111.675 63.9874C111.277 63.9874 110.878 63.9874 110.468 63.9874C110.07 64.7834 109.671 65.5795 109.261 66.3997C104.508 65.872 104.508 65.872 103.829 65.1935C103.805 63.7866 103.804 62.3789 103.829 60.972C104.251 61.1026 104.673 61.2332 105.107 61.3677C105.656 61.5357 106.206 61.7036 106.771 61.8766C107.318 62.0445 107.864 62.2124 108.426 62.3854C109.81 62.8346 109.81 62.8346 111.071 62.7812C111.071 62.3832 111.071 61.9851 111.071 61.5751C108.881 60.978 106.69 60.381 104.433 59.7658C104.234 58.9698 104.035 58.1737 103.829 57.3535Z" fill="#873528"/>
<path d="M117.711 32.6279C117.312 33.822 116.914 35.0161 116.504 36.2464C116.105 36.2464 115.707 36.2464 115.297 36.2464C115.297 36.8434 115.297 37.4405 115.297 38.0556C115.297 38.2546 115.297 38.4537 115.297 38.6587C112.309 38.6587 109.322 38.6587 106.244 38.6587C109.671 35.2346 109.671 35.2346 112.317 33.9472C113.074 33.5682 113.074 33.5682 113.847 33.1815C115.297 32.6279 115.297 32.6279 117.711 32.6279Z" fill="#C0E1FC"/>
<path d="M106.244 53.1319C111.722 52.9463 111.722 52.9463 114.09 54.338C114.882 55.6196 114.882 55.6196 115.297 56.7504C114.699 57.3474 114.102 57.9444 113.486 58.5596C111.295 57.9625 109.105 57.3655 106.848 56.7504C106.648 55.5563 106.449 54.3622 106.244 53.1319Z" fill="#C14C37"/>
<path d="M142.454 95.9512C144.844 96.1502 147.234 96.3492 149.696 96.5542C149.696 98.1464 149.696 99.7385 149.696 101.379C147.904 101.379 146.111 101.379 144.265 101.379C143.667 99.5877 143.07 97.7966 142.454 95.9512Z" fill="#2C6EA3"/>
<path d="M129.177 16.3447C131.591 17.1488 134.005 17.9529 136.419 18.757C136.22 19.1551 136.02 19.5531 135.815 19.9632C135.218 19.7642 134.62 19.5652 134.005 19.3601C134.005 20.1562 134.005 20.9522 134.005 21.7724C133.125 21.805 132.245 21.8284 131.364 21.8478C130.874 21.8618 130.384 21.8758 129.879 21.8902C128.573 21.7724 128.573 21.7724 127.366 20.5663C127.565 18.5778 127.742 17.7784 129.177 16.3447Z" fill="#B14E46"/>
<path d="M61.5851 63.3848C62.7921 63.9878 62.7921 63.9878 63.4664 65.1822C64.1993 67.6873 64.1278 70.0255 64.0746 72.6194C64.0691 73.1235 64.0637 73.6277 64.0581 74.1471C64.0439 75.3843 64.0223 76.6215 63.9991 77.8586C63.4017 77.6596 62.8042 77.4606 62.1886 77.2555C61.0466 72.4643 60.9546 68.2635 61.5851 63.3848Z" fill="#21537B"/>
<path d="M57.3603 32.0244C58.9258 33.0842 59.6704 34.0234 60.1327 35.862C60.6455 39.9792 60.0475 43.2489 58.5673 47.1013C58.3682 47.1013 58.169 47.1013 57.9638 47.1013C57.9273 46.4608 57.8907 45.8202 57.853 45.1602C57.8024 44.2995 57.7513 43.4389 57.6998 42.5783C57.6735 42.137 57.6471 41.6958 57.6199 41.2412C57.4779 38.972 57.3017 36.7272 56.9831 34.4744C56.9085 33.8649 56.8338 33.2554 56.7568 32.6275C56.956 32.4285 57.1551 32.2295 57.3603 32.0244Z" fill="#21537B"/>
<path d="M104.434 55.5449C109.512 57.0375 109.512 57.0375 114.693 58.5603C114.494 59.3564 114.295 60.1524 114.09 60.9726C110.991 60.5855 108.058 59.9578 105.037 59.1634C104.838 57.9693 104.639 56.7752 104.434 55.5449Z" fill="#DE5343"/>
<path d="M123.746 153.846C124.563 154.637 125.368 155.442 126.16 156.258C126.16 156.457 126.16 156.656 126.16 156.861C124.367 156.861 122.575 156.861 120.728 156.861C120.728 157.657 120.728 158.453 120.728 159.273C122.521 159.572 122.521 159.572 124.349 159.876C124.349 160.275 124.349 160.673 124.349 161.083C120.434 160.069 116.644 158.953 112.883 157.464C112.883 157.066 112.883 156.668 112.883 156.258C116.667 156.059 120.451 155.86 124.349 155.655C124.15 155.058 123.951 154.461 123.746 153.846Z" fill="#22231C"/>
<path d="M140.04 24.1846C140.04 26.1747 140.04 28.1649 140.04 30.2153C139.044 30.2153 138.048 30.2153 137.022 30.2153C136.624 29.2203 136.226 28.2252 135.815 27.2C135.467 27.4985 135.118 27.797 134.759 28.1046C133.401 29.0092 133.401 29.0092 130.987 29.0092C130.987 28.4121 130.987 27.8151 130.987 27.2C132.78 26.8019 134.572 26.4039 136.419 25.9938C136.419 25.5958 136.419 25.1977 136.419 24.7876C139.361 24.1846 139.361 24.1846 140.04 24.1846Z" fill="#2C2C2C"/>
<path d="M118.917 142.388C121.255 143.443 121.255 143.443 121.934 144.8C121.536 144.8 121.138 144.8 120.727 144.8C121.126 146.392 121.524 147.984 121.934 149.625C121.138 149.426 120.341 149.227 119.52 149.022C118.923 149.221 118.325 149.42 117.71 149.625C116.729 148.268 116.729 148.268 115.899 146.609C116.441 144.769 117.514 143.663 118.917 142.388Z" fill="#2C2C2C"/>
<path d="M20.5469 149.625C22.7066 150.621 24.6194 151.906 26.5819 153.243C26.1836 154.04 25.7853 154.836 25.3749 155.656C22.116 155.873 22.116 155.873 20.6223 154.977C19.6506 153.359 19.7826 152.076 19.9434 150.228C20.1425 150.029 20.3417 149.83 20.5469 149.625Z" fill="#2C2C2C"/>
<path d="M138.833 81.4766C139.232 81.6756 139.63 81.8746 140.04 82.0796C139.443 82.2787 138.845 82.4777 138.23 82.6827C139.624 86.663 141.018 90.6433 142.454 94.7443C146.039 95.3413 146.039 95.3413 149.696 95.9504C149.696 96.1494 149.696 96.3484 149.696 96.5535C147.185 96.6027 144.9 96.5429 142.454 95.9504C143.052 97.5425 143.649 99.1347 144.265 100.775C143.667 101.074 143.667 101.074 143.058 101.378C142.953 101.059 142.849 100.74 142.741 100.411C141.905 97.8753 141.04 95.3541 140.125 92.8455C139.938 92.327 139.75 91.8084 139.557 91.2742C139.169 90.2049 138.778 89.137 138.383 88.0704C138.199 87.5565 138.014 87.0426 137.824 86.5132C137.656 86.0519 137.487 85.5906 137.313 85.1153C137.023 83.8889 137.023 83.8889 137.626 82.0796C138.025 81.8806 138.423 81.6816 138.833 81.4766Z" fill="#382234"/>
<path d="M51.929 88.7139C51.929 91.8981 51.929 95.0824 51.929 98.3631C51.3315 98.5621 50.7341 98.7611 50.1185 98.9662C47.9349 93.2089 47.9349 93.2089 48.8384 91.0861C50.8463 88.7139 50.8463 88.7139 51.929 88.7139Z" fill="#21537B"/>
<path d="M150.3 55.5449C151.484 57.3199 152.462 59.0185 153.317 60.9726C152.562 63.2364 151.769 63.5301 149.696 64.5911C149.298 64.5911 148.9 64.5911 148.489 64.5911C148.675 63.1961 148.864 61.8015 149.055 60.4072C149.16 59.6306 149.265 58.854 149.373 58.0538C149.696 56.148 149.696 56.148 150.3 55.5449Z" fill="#FEEDEE"/>
<path d="M118.917 149.625C121.097 150.351 121.587 151.134 122.953 152.942C123.329 153.433 123.704 153.925 124.092 154.431C124.952 155.656 124.952 155.656 124.952 156.259C123.359 156.259 121.766 156.259 120.124 156.259C119.726 154.07 119.327 151.881 118.917 149.625Z" fill="#2C2C2C"/>
<path d="M127.97 39.8643C129.065 40.1347 130.159 40.4125 131.251 40.6935C132.165 40.9244 132.165 40.9244 133.097 41.1599C134.608 41.6735 134.608 41.6735 135.212 42.8796C135.013 43.2777 134.813 43.6757 134.608 44.0858C131.195 44.4269 129.04 43.3102 126.159 41.6735C126.757 41.0764 127.354 40.4794 127.97 39.8643Z" fill="#A1A1A1"/>
<path d="M32.0137 155.053C33.8061 155.053 35.5984 155.053 37.4452 155.053C36.8477 155.252 36.2502 155.451 35.6347 155.656C35.1921 156.871 35.1921 156.871 35.0312 158.068C36.2261 157.67 37.421 157.272 38.6522 156.862C37.2627 158.43 35.937 159.182 34.0128 159.99C33.525 160.198 33.0372 160.406 32.5346 160.619C32.1636 160.773 31.7925 160.926 31.4102 161.084C31.6218 160.536 31.8334 159.989 32.0514 159.425C32.8146 157.397 32.8146 157.397 32.0137 155.053Z" fill="#D9D9D9"/>
<path d="M41.6689 22.9783C46.1321 22.7776 49.6884 22.8005 53.739 24.7876C54.7739 25.7558 54.7739 25.7558 55.5495 26.5968C54.7528 26.5968 53.9562 26.5968 53.1355 26.5968C53.1355 26.1988 53.1355 25.8007 53.1355 25.3907C52.5878 25.428 52.0401 25.4653 51.4758 25.5037C48.1057 25.5246 44.8926 24.4701 41.6689 23.5814C41.6689 23.3824 41.6689 23.1834 41.6689 22.9783Z" fill="#5171FE"/>
<path d="M92.9668 54.3389C95.3454 55.3445 97.0641 56.8881 99.0018 58.5604C97.5778 59.9834 96.7212 60.0629 94.7773 60.3696C94.6839 59.8472 94.6839 59.8472 94.5887 59.3143C94.1147 57.764 93.3862 56.7894 92.3633 55.545C92.5624 55.147 92.7616 54.749 92.9668 54.3389Z" fill="#1E0F0D"/>
<path d="M63.999 68.8125C65.6871 70.4994 65.9545 71.9112 66.413 74.2402C65.9227 76.3887 65.9227 76.3887 65.206 78.4617C64.9871 79.6648 64.7797 80.8703 64.6025 82.0802C64.4034 82.0802 64.2042 82.0802 63.999 82.0802C63.999 77.7019 63.999 73.3235 63.999 68.8125Z" fill="#21537B"/>
<path d="M55.5498 12.123C56.9616 12.2963 58.3705 12.4966 59.7743 12.7261C60.0049 13.7249 60.2052 14.7311 60.3778 15.7415C59.7743 16.3446 59.7743 16.3446 57.9261 16.3823C57.3411 16.3698 56.756 16.3574 56.1533 16.3446C56.3524 15.3495 56.5516 14.3544 56.7568 13.3292C56.1593 13.1302 55.5619 12.9312 54.9463 12.7261C55.1454 12.5271 55.3446 12.3281 55.5498 12.123Z" fill="#835556"/>
<path d="M52.1618 28.3074C55.3578 29.8326 55.3578 29.8326 56.1529 31.4217C55.7546 31.8198 55.3563 32.2178 54.9459 32.6279C54.5725 32.1428 54.1991 31.6577 53.8144 31.1579C51.9098 29.2546 49.9821 29.071 47.3668 28.9152C45.3716 29.0428 43.9684 29.8018 42.2724 30.8186C41.8741 30.6196 41.4758 30.4206 41.0654 30.2156C44.4462 27.3706 47.9347 26.8279 52.1618 28.3074Z" fill="#21537B"/>
<path d="M118.917 147.815C119.615 148.197 119.615 148.197 120.327 148.586C120.932 148.916 121.537 149.247 122.161 149.587C122.763 149.916 123.365 150.245 123.985 150.583C124.904 151.081 125.828 151.57 126.762 152.037C126.563 152.435 126.364 152.833 126.159 153.243C125.562 153.044 124.964 152.845 124.348 152.64C123.95 153.038 123.552 153.436 123.141 153.846C122.434 153.07 121.731 152.291 121.029 151.509C120.637 151.075 120.245 150.642 119.841 150.195C118.917 149.022 118.917 149.022 118.917 147.815Z" fill="#342607"/>
<path d="M124.952 171.938C126.745 171.938 128.537 171.938 130.384 171.938C130.384 172.735 130.384 173.531 130.384 174.351C128.591 174.351 126.799 174.351 124.952 174.351C124.952 173.555 124.952 172.759 124.952 171.938Z" fill="#782A28"/>
<path d="M59.1704 37.4521C59.5687 37.4521 59.967 37.4521 60.3774 37.4521C60.1234 40.8322 59.8245 43.9177 58.5669 47.1014C58.3677 47.1014 58.1686 47.1014 57.9634 47.1014C57.8402 43.6407 57.7996 40.7055 59.1704 37.4521Z" fill="#626262"/>
<path d="M41.0654 23.582C45.1607 23.9129 49.1222 24.5124 53.1354 25.3913C51.1481 26.7152 50.8725 26.7202 48.6469 26.409C48.1871 26.3491 47.7274 26.2892 47.2537 26.2276C45.9738 26.0081 44.7337 25.7253 43.4794 25.3913C43.4794 24.9932 43.4794 24.5952 43.4794 24.1851C42.6828 23.9861 41.8862 23.7871 41.0654 23.582Z" fill="#626262"/>
<path d="M120.727 156.861C120.727 157.657 120.727 158.453 120.727 159.274C122.52 159.572 122.52 159.572 124.348 159.877C124.348 160.275 124.348 160.673 124.348 161.083C123.266 160.812 122.185 160.534 121.105 160.254C120.502 160.1 119.9 159.946 119.28 159.787C117.71 159.274 117.71 159.274 116.503 158.067C118.313 156.861 118.313 156.861 120.727 156.861Z" fill="#212121"/>
<path d="M117.71 32.6279C117.91 32.6279 118.109 32.6279 118.314 32.6279C118.115 34.4191 117.916 36.2102 117.71 38.0556C116.914 38.2546 116.117 38.4537 115.296 38.6587C114.434 37.2388 114.037 36.5598 114.316 34.8895C114.44 34.5412 114.565 34.1929 114.693 33.8341C114.892 34.6301 115.091 35.4262 115.296 36.2464C116.976 35.4069 117.094 34.3432 117.71 32.6279Z" fill="#A1D2FA"/>
<path d="M143.661 104.997C141.568 106.781 139.516 108.06 137.022 109.219C137.022 108.423 137.022 107.626 137.022 106.806C137.785 106.384 138.553 105.971 139.323 105.562C139.75 105.332 140.177 105.101 140.618 104.863C141.85 104.394 141.85 104.394 143.661 104.997Z" fill="#2D1B22"/>
<path d="M150.903 43.4834C150.903 44.8765 150.903 46.2696 150.903 47.7049C149.708 47.3069 148.513 46.9089 147.282 46.4988C148.645 43.4834 148.645 43.4834 150.903 43.4834Z" fill="#C0E1FC"/>
<path d="M116.503 38.6581C117.571 38.6092 118.64 38.5741 119.709 38.5451C120.304 38.5241 120.899 38.5031 121.512 38.4814C123.141 38.6581 123.141 38.6581 124.261 39.5698C124.489 39.866 124.717 40.1622 124.952 40.4674C123.149 41.368 121.964 40.7125 120.048 40.2035C119.387 40.0302 118.726 39.8568 118.045 39.6782C117.536 39.5406 117.027 39.403 116.503 39.2612C116.503 39.0622 116.503 38.8632 116.503 38.6581Z" fill="#A1A1A1"/>
<path d="M148.489 53.1328C148.489 53.7299 148.489 54.3269 148.489 54.942C145.801 55.8376 145.801 55.8376 143.058 56.7513C144.265 54.339 144.265 54.339 145.773 53.5851C147.282 53.1328 147.282 53.1328 148.489 53.1328Z" fill="#2C2C2C"/>
<path d="M13.9082 157.465C15.4019 157.763 15.4019 157.763 16.9257 158.068C17.1249 158.864 17.324 159.66 17.5292 160.48C16.5334 160.48 15.5377 160.48 14.5117 160.48C14.3125 159.485 14.1134 158.49 13.9082 157.465Z" fill="#782A28"/>
<path d="M13.9082 153.846C15.2647 155.083 15.72 155.659 16.3222 157.464C15.3264 157.663 14.3306 157.862 13.3047 158.067C12.9275 156.635 12.9275 156.635 12.7012 155.052C13.0995 154.654 13.4978 154.256 13.9082 153.846Z" fill="#782A28"/>
<path d="M100.209 149.021C100.209 150.614 100.209 152.206 100.209 153.846C99.8106 153.846 99.4123 153.846 99.0019 153.846C97.9835 152.414 97.9835 152.414 97.1914 150.831C97.9027 149.409 98.5235 149.021 100.209 149.021Z" fill="#1D2A64"/>
<path d="M132.194 18.1543C133.588 18.3533 134.982 18.5523 136.419 18.7574C136.22 19.1554 136.021 19.5534 135.815 19.9635C135.218 19.7645 134.62 19.5655 134.005 19.3605C134.005 20.1565 134.005 20.9526 134.005 21.7728C133.208 21.5737 132.412 21.3747 131.591 21.1697C131.79 20.1746 131.989 19.1795 132.194 18.1543Z" fill="#46272B"/>
<path d="M38.6522 157.464C36.2623 158.658 33.8724 159.852 31.4102 161.083C32.7766 158.352 32.7766 158.352 35.0312 157.577C35.666 157.348 35.666 157.348 36.3136 157.113C37.4452 156.861 37.4452 156.861 38.6522 157.464Z" fill="#232B3F"/>
<path d="M115.296 138.77C116.292 139.367 117.287 139.964 118.313 140.579C118.114 141.375 117.915 142.171 117.71 142.991C117.112 142.991 116.515 142.991 115.899 142.991C115.7 141.598 115.501 140.205 115.296 138.77Z" fill="#2C2C2C"/>
<path d="M136.419 26.5967C133.703 29.009 133.703 29.009 130.987 29.009C130.987 28.4119 130.987 27.8149 130.987 27.1997C135.061 25.9182 135.061 25.9182 136.419 26.5967Z" fill="#FCAA97"/>
<path d="M156.334 147.212C158.525 147.411 160.715 147.61 162.972 147.815C162.773 148.213 162.574 148.611 162.369 149.021C160.178 149.021 157.988 149.021 155.73 149.021C155.93 148.424 156.129 147.827 156.334 147.212Z" fill="#3B3207"/>
<path d="M112.883 156.259C114.675 156.458 116.468 156.657 118.314 156.862C117.916 157.26 117.518 157.658 117.107 158.068C114.92 157.842 114.92 157.842 112.883 157.465C112.883 157.067 112.883 156.669 112.883 156.259Z" fill="#161616"/>
<path d="M121.331 150.228C123.349 150.564 124.972 151.043 126.763 152.037C126.563 152.435 126.364 152.833 126.159 153.243C122.689 152.263 122.689 152.263 121.331 150.228Z" fill="#212121"/>
<path d="M147.885 104.394C148.489 105.6 148.489 105.6 147.923 107.484C147.711 108.056 147.5 108.629 147.282 109.218C146.075 107.409 146.075 107.409 146.226 106.127C146.678 104.997 146.678 104.997 147.885 104.394Z" fill="#FCAA97"/>
<path d="M61.5847 63.3848C62.1821 63.6833 62.1821 63.6833 62.7917 63.9878C63.2327 65.3834 63.6374 66.7911 63.9987 68.2094C63.4012 68.2094 62.8037 68.2094 62.1882 68.2094C61.3708 66.5758 61.5454 65.1884 61.5847 63.3848Z" fill="#163752"/>
<path d="M159.955 152.037C160.154 152.435 160.353 152.833 160.559 153.243C161.953 152.845 163.347 152.447 164.783 152.037C164.584 152.435 164.385 152.833 164.18 153.243C162.932 153.625 162.932 153.625 161.426 153.922C160.678 154.073 160.678 154.073 159.915 154.228C159.53 154.301 159.145 154.374 158.748 154.449C159.146 153.653 159.545 152.857 159.955 152.037Z" fill="#332F13"/>
</g>
</g>
<defs>
<clipPath id="clip0_2255_6441">
<rect width="226" height="196" fill="white"/>
</clipPath>
<clipPath id="clip1_2255_6441">
<rect width="221" height="178" fill="white" transform="translate(-11 8)"/>
</clipPath>
</defs>
</svg>
