<svg width="386" height="177" viewBox="0 0 386 177" fill="none" xmlns="http://www.w3.org/2000/svg">
<g opacity="0.5">
<path opacity="0.6" d="M287.416 7.49126C287.879 7.86112 288.342 8.23097 288.819 8.61204C290.728 9.96535 291.791 9.98393 294.102 10.0196C297.036 10.2276 297.749 10.379 300.18 12.267C302.502 15.416 302.448 17.7018 302.372 21.517C302.359 22.5339 302.346 23.5508 302.334 24.5677C302.311 26.1587 302.285 27.7495 302.25 29.3403C302.131 35.0355 302.194 40.1678 304.113 45.5929C304.882 48.0102 304.865 50.2942 304.809 52.8138C304.798 53.7022 304.786 54.5906 304.774 55.506C304.622 57.6831 304.622 57.6831 303.874 59.1814C303.38 59.1814 302.887 59.1814 302.378 59.1814C302.347 59.7994 302.316 60.4175 302.285 61.0542C301.036 66.0557 297.554 69.7299 293.401 72.6658C293.583 73.6441 293.583 73.6441 293.769 74.6421C294.121 76.9761 294.245 79.1406 294.248 81.4973C294.25 82.3198 294.251 83.1423 294.253 83.9896C294.249 84.8571 294.246 85.7246 294.242 86.6184C294.241 87.5095 294.239 88.4006 294.238 89.3188C294.201 97.0188 293.891 104.687 293.401 112.37C294.148 112.415 294.896 112.461 295.666 112.507C296.631 112.57 297.596 112.633 298.591 112.698C300.036 112.789 300.036 112.789 301.51 112.882C303.874 113.119 303.874 113.119 304.622 113.868C304.635 114.985 304.595 116.103 304.532 117.219C304.496 117.892 304.459 118.566 304.422 119.26C304.38 119.968 304.338 120.676 304.295 121.406C304.256 122.117 304.217 122.829 304.177 123.561C304.079 125.325 303.978 127.088 303.874 128.851C305.608 127.292 306.08 126.838 306.475 124.444C306.53 123.241 306.53 123.241 306.586 122.015C306.804 117.676 306.804 117.676 307.615 116.865C309.156 116.789 310.7 116.767 312.244 116.771C313.087 116.769 313.931 116.767 314.801 116.765C317.209 116.859 319.465 117.161 321.829 117.614C321.921 125.892 321.702 134.08 321.081 142.335C322.809 142.335 324.537 142.335 326.317 142.335C326.3 138.948 326.242 135.562 326.177 132.175C326.173 131.218 326.168 130.262 326.164 129.276C326.031 123.59 325.659 120.379 321.829 116.115C321.829 115.621 321.829 115.127 321.829 114.617C330.963 114.617 340.098 114.617 349.509 114.617C349.509 115.112 349.509 115.606 349.509 116.115C353.952 116.115 358.396 116.115 362.975 116.115C361.987 117.846 361 119.576 359.982 121.359C359.512 123.952 359.512 123.952 359.526 126.624C359.502 127.587 359.478 128.55 359.453 129.543C359.442 130.545 359.432 131.547 359.421 132.55C359.4 133.572 359.378 134.595 359.354 135.618C359.301 138.107 359.262 140.595 359.234 143.084C359.975 143.084 360.715 143.084 361.478 143.084C361.497 147.125 361.51 151.165 361.52 155.205C361.523 156.581 361.528 157.957 361.535 159.332C361.544 161.305 361.548 163.278 361.552 165.251C361.555 165.87 361.559 166.489 361.563 167.126C361.563 168.601 361.525 170.077 361.478 171.551C360.072 172.96 357.653 172.396 355.781 172.397C355.264 172.399 354.747 172.4 354.215 172.401C352.498 172.405 350.781 172.402 349.065 172.4C347.877 172.4 346.689 172.401 345.501 172.402C343.008 172.403 340.515 172.402 338.022 172.398C334.819 172.394 331.616 172.396 328.414 172.401C325.96 172.403 323.506 172.403 321.051 172.401C319.87 172.4 318.689 172.401 317.508 172.402C315.86 172.404 314.212 172.401 312.564 172.397C311.154 172.396 311.154 172.396 309.716 172.395C307.615 172.3 307.615 172.3 306.867 171.551C306.8 169.499 306.78 167.467 306.794 165.415C306.795 164.801 306.796 164.186 306.797 163.554C306.801 161.584 306.81 159.615 306.82 157.645C306.824 156.314 306.827 154.982 306.83 153.65C306.838 150.377 306.851 147.105 306.867 143.833C307.854 143.586 308.842 143.339 309.859 143.084C309.436 141.862 308.996 140.646 308.55 139.432C308.307 138.754 308.064 138.076 307.813 137.378C306.739 135.353 305.988 134.868 303.874 134.095C303.597 134.465 303.319 134.836 303.033 135.218C301.63 136.342 301.63 136.342 297.141 136.342C297.141 147.961 297.141 159.58 297.141 171.551C295.66 171.551 294.179 171.551 292.653 171.551C292.653 172.046 292.653 172.54 292.653 173.049C287.233 173.068 281.813 173.082 276.393 173.091C274.547 173.094 272.702 173.1 270.857 173.106C268.21 173.115 265.564 173.119 262.918 173.123C262.088 173.127 261.257 173.13 260.401 173.134C259.255 173.134 259.255 173.134 258.086 173.135C257.072 173.137 257.072 173.137 256.038 173.14C254.499 173.049 254.499 173.049 253.751 172.3C252.558 172.208 251.36 172.167 250.164 172.147C249.4 172.132 248.636 172.117 247.849 172.101C247.019 172.089 246.188 172.076 245.332 172.063C244.486 172.048 243.64 172.032 242.769 172.016C240.055 171.967 237.341 171.923 234.628 171.879C232.793 171.847 230.958 171.814 229.123 171.781C224.615 171.7 220.106 171.626 215.598 171.551C215.598 161.91 215.598 152.269 215.598 142.335C222.51 142.335 229.423 142.335 236.545 142.335C236.545 139.121 236.545 135.908 236.545 132.596C245.679 132.349 254.813 132.102 264.225 131.847C262.496 130.364 260.768 128.881 258.988 127.352C251.502 113.11 256.885 92.4932 261.232 77.9097C259.998 77.9097 258.763 77.9097 257.492 77.9097C257.121 74.5723 257.121 74.5723 256.744 71.1675C254.769 70.9203 252.794 70.6731 250.759 70.4184C250.913 69.8621 251.067 69.3059 251.226 68.7328C251.54 66.4305 251.222 65.6031 250.011 63.6762C250.504 63.1818 250.998 62.6873 251.507 62.1779C251.268 60.5986 251.268 60.5986 250.759 59.1814C252.61 58.8106 252.61 58.8106 254.499 58.4323C254.499 57.4434 254.499 56.4546 254.499 55.4357C253.589 55.3585 252.678 55.2812 251.741 55.2016C248.941 54.8338 246.95 54.3541 244.774 52.4392C244.166 50.0513 244.166 50.0513 244.026 47.9444C246.923 45.4178 248.928 45.3548 252.655 45.4863C256.463 45.9214 258.705 47.4601 261.092 50.3323C261.632 51.0276 262.172 51.7228 262.728 52.4392C262.975 52.4392 263.222 52.4392 263.476 52.4392C263.199 51.7903 262.921 51.1413 262.635 50.4727C261.842 47.4117 262.245 46.3238 263.476 43.4496C265.017 41.5036 265.017 41.5036 266.796 39.6571C268.564 37.811 270.073 36.1952 271.352 33.9772C272.572 32.0238 273.54 31.3323 275.54 30.2462C278.09 28.9134 278.09 28.9134 279.187 26.2196C278.832 25.8178 278.477 25.4161 278.111 25.0022C275.961 21.7288 276.636 18.1502 277.319 14.4295C278.589 9.41027 278.589 9.41027 280.917 7.77219C283.183 7.45547 285.132 7.24797 287.416 7.49126Z" fill="#21537B"/>
<path opacity="0.6" d="M19.5944 6.92928C20.1035 6.9795 20.6127 7.02971 21.1373 7.08145C23.0062 7.60966 23.6785 8.17138 24.8311 9.73853C25.3834 11.7138 25.3834 11.7138 25.813 13.9992C26.7067 17.9877 28.0367 20.3234 30.6435 23.4044C31.9915 25.3327 31.9042 26.9452 31.5641 29.216C31.972 29.3782 32.3799 29.5404 32.8002 29.7076C35.1465 31.0524 36.8652 32.8966 38.7178 34.8345C42.3924 38.6471 44.5407 40.5902 49.9862 40.8744C54.682 41.1287 54.682 41.1287 55.5035 41.9512C55.5339 43.1994 55.5354 44.4488 55.5035 45.6969C56.2422 45.6882 56.9809 45.6795 57.7419 45.6706C58.7005 45.6638 59.6591 45.657 60.6467 45.6501C61.6014 45.6414 62.5561 45.6327 63.5398 45.6237C65.977 45.6969 65.977 45.6969 67.4732 46.446C67.8743 45.9671 68.2755 45.4881 68.6889 44.9946C70.7975 43.1609 72.2151 42.9497 74.9542 42.7004C74.2996 45.6033 74.2996 45.6033 73.458 46.446C74.0087 46.42 74.5593 46.3939 75.1267 46.367C81.0143 46.2035 81.0143 46.2035 84.025 47.2888C85.8829 49.1492 86.0042 50.6108 86.1758 53.1882C80.8242 56.4432 76.7096 57.4688 70.4656 56.9339C70.7125 58.17 70.9594 59.406 71.2137 60.6796C65.9723 62.0916 60.9167 63.2244 55.5035 63.6761C55.5122 64.1541 55.5208 64.6321 55.5298 65.1246C55.5365 65.7436 55.5433 66.3626 55.5502 67.0004C55.5589 67.6174 55.5676 68.2345 55.5765 68.8703C55.5035 70.4183 55.5035 70.4183 54.7554 71.1674C52.8623 71.2222 50.9901 71.2367 49.0978 71.2142C48.3 71.2092 48.3 71.2092 47.4862 71.204C46.1687 71.1951 44.8512 71.1817 43.5338 71.1674C43.6955 71.6148 43.8572 72.0622 44.0238 72.5232C46.8266 80.3201 49.591 88.1226 51.7629 96.1229C51.9954 96.9454 51.9954 96.9454 52.2325 97.7845C53.8097 103.837 54.2582 108.748 51.2048 114.392C50.3003 115.897 49.379 117.392 48.4432 118.878C47.9686 119.665 47.494 120.452 47.0051 121.263C44.9196 124.712 42.7815 128.122 40.591 131.505C36.4168 137.844 36.4168 137.844 35.6173 145.258C36.3069 147.747 37.3872 149.353 39.0451 151.325C38.8137 151.773 38.5822 152.221 38.3438 152.682C37.4725 154.388 37.4725 154.388 36.8008 156.569C38.0137 158.095 39.261 159.594 40.5413 161.063C40.5413 161.558 40.5413 162.052 40.5413 162.562C41.8837 162.817 41.8837 162.817 43.2532 163.077C46.7438 163.978 48.6298 165.059 51.0148 167.806C51.4372 169.982 51.2768 171.55 51.0148 173.799C49.7895 175.026 48.3962 174.645 46.7074 174.647C45.5763 174.65 45.5763 174.65 44.4223 174.652C43.6045 174.648 42.7867 174.645 41.944 174.641C41.1122 174.639 40.2804 174.636 39.4234 174.634C33.5744 174.598 27.7306 174.483 21.8854 174.267C21.151 174.244 20.4165 174.221 19.6598 174.197C18.9834 174.168 18.307 174.139 17.6101 174.109C17.0161 174.085 16.4222 174.062 15.8102 174.037C14.3576 173.799 14.3576 173.799 12.8614 172.3C12.6916 170.755 12.6916 170.755 12.7153 168.877C12.7201 168.205 12.7249 167.534 12.7299 166.843C12.7424 166.141 12.755 165.439 12.7679 164.715C12.7746 164.008 12.7814 163.3 12.7884 162.57C12.806 160.819 12.8307 159.069 12.8614 157.318C15.8828 156.401 17.5494 156.95 20.5295 158.02C21.3357 158.305 22.1419 158.59 22.9725 158.883C23.5859 159.108 24.1992 159.333 24.8311 159.565C24.9237 158.839 25.0163 158.113 25.1117 157.365C25.2659 156.607 25.4202 155.85 25.5792 155.07C26.073 154.823 26.5667 154.576 27.0754 154.321C27.3223 153.58 27.5692 152.838 27.8235 152.074C27.318 152.078 26.8124 152.082 26.2915 152.086C23.9968 152.101 21.7021 152.111 19.4073 152.121C18.6117 152.127 17.8162 152.133 16.9965 152.14C15.8465 152.143 15.8465 152.143 14.6732 152.147C13.968 152.151 13.2629 152.155 12.5363 152.159C10.7808 152.081 9.30308 151.824 7.62467 151.325C7.52765 143.563 7.7809 135.867 8.22138 128.12C8.8613 116.84 9.34829 105.565 9.6131 94.2693C9.64863 92.8895 9.64863 92.8895 9.68488 91.4818C9.71173 90.2837 9.71173 90.2837 9.73913 89.0614C9.86175 87.0197 10.1715 85.1462 10.6171 83.1535C10.9684 80.8192 11.139 78.7287 10.6171 76.4113C8.47608 74.7573 8.47608 74.7573 6.84149 73.845C2.98094 70.7291 0.835931 64.7526 0.143602 59.9304C-0.455835 52.5195 0.780051 46.0687 4.63224 39.7038C4.51487 38.1096 4.51487 38.1096 3.88413 36.7073C2.44985 32.3985 2.44702 27.8826 4.39846 23.7379C5.49699 21.7688 6.37728 20.7501 8.09223 19.1963C10.3483 16.6993 10.5139 14.7437 10.8772 11.465C11.5102 9.2257 12.3863 8.65746 14.3576 7.49113C16.5058 6.7741 17.4245 6.68236 19.5944 6.92928Z" fill="#2C6EA3"/>
<path opacity="0.6" d="M101.886 76.4111C101.886 76.9056 101.886 77.4 101.886 77.9094C104.108 77.9094 106.33 77.9094 108.619 77.9094C108.619 77.415 108.619 76.9205 108.619 76.4111C112.892 77.1813 114.79 78.5018 117.547 81.8394C118.345 83.1533 118.345 83.1533 118.345 85.4007C119.385 85.3877 119.385 85.3877 120.446 85.3744C121.342 85.3676 122.238 85.3609 123.161 85.3539C124.055 85.3452 124.949 85.3365 125.87 85.3276C128.07 85.4007 128.07 85.4007 128.818 86.1499C128.872 87.413 128.881 88.6782 128.865 89.9424C128.858 90.6309 128.851 91.3194 128.845 92.0288C128.836 92.5609 128.827 93.093 128.818 93.6412C130.299 94.012 130.299 94.012 131.811 94.3903C131.811 94.8848 131.811 95.3792 131.811 95.8886C129.836 95.8886 127.861 95.8886 125.826 95.8886C125.826 96.6302 125.826 97.3719 125.826 98.136C127.307 98.3832 128.788 98.6304 130.314 98.8851C130.314 99.1323 130.314 99.3796 130.314 99.6343C128.586 99.6343 126.858 99.6343 125.078 99.6343C125.448 100.376 125.448 100.376 125.826 101.133C127.34 101.621 127.34 101.621 128.818 101.882C128.818 103.859 128.818 105.837 128.818 107.875C125.362 107.875 121.906 107.875 118.345 107.875C118.498 108.915 118.651 109.955 118.809 111.026C120.893 125.305 120.893 125.305 121.337 131.847C115.16 134.126 109.323 134.977 102.775 134.984C101.956 134.985 101.956 134.985 101.121 134.986C98.2349 134.956 95.7653 134.666 92.9091 134.094C92.9091 142.5 92.9091 150.905 92.9091 159.565C97.0865 159.565 97.4041 159.086 100.39 156.568C101.131 156.568 101.871 156.568 102.634 156.568C102.863 157.591 102.863 157.591 103.096 158.634C104.416 161.732 105.779 162.403 108.713 163.966C109.533 164.412 110.352 164.858 111.197 165.318C112.143 165.808 112.143 165.808 113.108 166.307C112.738 163.341 112.738 163.341 112.36 160.314C115.693 159.943 115.693 159.943 119.093 159.565C119.155 158.978 119.216 158.391 119.28 157.786C119.841 155.819 119.841 155.819 121.384 154.836C121.862 154.666 122.341 154.496 122.833 154.321C123.08 154.799 123.327 155.277 123.581 155.77C125.751 158.014 128.1 157.916 131.063 158.113C136.618 158.514 136.618 158.514 138.544 159.866C139.292 161.063 139.292 161.063 139.292 162.936C138.272 165.489 137.254 165.807 134.803 167.056C132.462 167.946 130.087 168.702 127.696 169.444C127.066 169.648 126.437 169.853 125.788 170.063C122.746 171.02 120.078 171.849 116.849 171.551C116.602 172.293 116.355 173.034 116.1 173.798C108.188 173.959 100.703 173.844 92.9091 172.3C92.6622 171.559 92.4153 170.817 92.161 170.053C90.8378 170.059 90.8378 170.059 89.4878 170.065C86.1751 170.078 82.8623 170.087 79.5495 170.094C78.1232 170.098 76.6968 170.103 75.2705 170.109C73.2053 170.119 71.1401 170.123 69.0749 170.126C68.4503 170.13 67.8257 170.134 67.1822 170.138C62.2634 170.138 57.4068 169.769 52.5113 169.304C52.4924 164.09 52.4793 158.876 52.4703 153.662C52.4665 151.886 52.4614 150.111 52.4549 148.336C52.4459 145.79 52.4416 143.245 52.4383 140.699C52.4325 139.5 52.4325 139.5 52.4266 138.278C52.4265 137.543 52.4265 136.808 52.4264 136.051C52.4248 135.4 52.4231 134.75 52.4214 134.08C52.5113 132.596 52.5113 132.596 53.2595 131.847C54.6426 131.672 56.0311 131.538 57.4208 131.426C58.1778 131.363 58.9348 131.3 59.7148 131.235C60.3002 131.19 60.8855 131.145 61.4886 131.098C61.4847 130.308 61.4808 129.517 61.4768 128.703C61.4633 125.781 61.4546 122.859 61.4475 119.937C61.4438 118.67 61.4387 117.404 61.4322 116.137C61.4232 114.32 61.4189 112.504 61.4156 110.687C61.4117 110.117 61.4078 109.548 61.4039 108.961C61.4037 107.6 61.4423 106.239 61.4886 104.878C62.2367 104.129 62.2367 104.129 64.5192 104.044C65.5283 104.044 66.5375 104.048 67.5465 104.056C68.342 104.057 68.342 104.057 69.1535 104.059C70.8534 104.063 72.5533 104.073 74.2532 104.082C75.4031 104.086 76.553 104.089 77.703 104.092C80.5274 104.101 83.3517 104.114 86.1761 104.129C86.1129 103.694 86.0497 103.259 85.9846 102.811C84.9964 95.2567 86.7719 88.918 90.9015 82.5037C93.7052 78.947 97.233 76.4111 101.886 76.4111Z" fill="#FD8E2E"/>
<path opacity="0.6" d="M101.886 76.4111C101.886 76.9056 101.886 77.4 101.886 77.9094C104.108 77.9094 106.33 77.9094 108.619 77.9094C108.619 77.415 108.619 76.9205 108.619 76.4111C112.892 77.1813 114.79 78.5018 117.547 81.8394C118.345 83.1533 118.345 83.1533 118.345 85.4007C119.385 85.3877 119.385 85.3877 120.446 85.3744C121.342 85.3676 122.238 85.3609 123.161 85.3539C124.055 85.3452 124.949 85.3365 125.87 85.3276C128.07 85.4007 128.07 85.4007 128.818 86.1499C128.872 87.413 128.881 88.6782 128.865 89.9424C128.858 90.6309 128.851 91.3194 128.845 92.0288C128.836 92.5609 128.827 93.093 128.818 93.6412C130.299 94.012 130.299 94.012 131.811 94.3903C131.811 94.8848 131.811 95.3792 131.811 95.8886C129.836 95.8886 127.861 95.8886 125.826 95.8886C125.826 96.6302 125.826 97.3719 125.826 98.136C127.307 98.3832 128.788 98.6304 130.314 98.8851C130.314 99.1323 130.314 99.3796 130.314 99.6343C128.586 99.6343 126.858 99.6343 125.078 99.6343C125.448 100.376 125.448 100.376 125.826 101.133C127.34 101.621 127.34 101.621 128.818 101.882C128.818 103.859 128.818 105.837 128.818 107.875C125.362 107.875 121.906 107.875 118.345 107.875C118.498 108.915 118.651 109.955 118.809 111.026C120.893 125.305 120.893 125.305 121.337 131.847C115.16 134.126 109.323 134.977 102.775 134.984C101.956 134.985 101.956 134.985 101.121 134.986C98.2349 134.956 95.7653 134.666 92.9091 134.094C92.9091 142.5 92.9091 150.905 92.9091 159.565C97.0865 159.565 97.4041 159.086 100.39 156.568C101.131 156.568 101.871 156.568 102.634 156.568C102.863 157.591 102.863 157.591 103.096 158.634C104.416 161.732 105.779 162.403 108.713 163.966C109.533 164.412 110.352 164.858 111.197 165.318C112.143 165.808 112.143 165.808 113.108 166.307C112.738 163.341 112.738 163.341 112.36 160.314C115.693 159.943 115.693 159.943 119.093 159.565C119.155 158.978 119.216 158.391 119.28 157.786C119.841 155.819 119.841 155.819 121.384 154.836C121.862 154.666 122.341 154.496 122.833 154.321C123.08 154.799 123.327 155.277 123.581 155.77C125.751 158.014 128.1 157.916 131.063 158.113C136.618 158.514 136.618 158.514 138.544 159.866C139.292 161.063 139.292 161.063 139.292 162.936C138.272 165.489 137.254 165.807 134.803 167.056C132.462 167.946 130.087 168.702 127.696 169.444C127.066 169.648 126.437 169.853 125.788 170.063C122.746 171.02 120.078 171.849 116.849 171.551C116.602 172.293 116.355 173.034 116.1 173.798C108.188 173.959 100.703 173.844 92.9091 172.3C92.6622 171.559 92.4153 170.817 92.161 170.053C90.8378 170.059 90.8378 170.059 89.4878 170.065C86.1751 170.078 82.8623 170.087 79.5495 170.094C78.1232 170.098 76.6968 170.103 75.2705 170.109C73.2053 170.119 71.1401 170.123 69.0749 170.126C68.4503 170.13 67.8257 170.134 67.1822 170.138C62.2634 170.138 57.4068 169.769 52.5113 169.304C52.4924 164.09 52.4793 158.876 52.4703 153.662C52.4665 151.886 52.4614 150.111 52.4549 148.336C52.4459 145.79 52.4416 143.245 52.4383 140.699C52.4325 139.5 52.4325 139.5 52.4266 138.278C52.4265 137.543 52.4265 136.808 52.4264 136.051C52.4248 135.4 52.4231 134.75 52.4214 134.08C52.5113 132.596 52.5113 132.596 53.2595 131.847C54.6426 131.672 56.0311 131.538 57.4208 131.426C58.1778 131.363 58.9348 131.3 59.7148 131.235C60.3002 131.19 60.8855 131.145 61.4886 131.098C61.4847 130.308 61.4808 129.517 61.4768 128.703C61.4633 125.781 61.4546 122.859 61.4475 119.937C61.4438 118.67 61.4387 117.404 61.4322 116.137C61.4232 114.32 61.4189 112.504 61.4156 110.687C61.4117 110.117 61.4078 109.548 61.4039 108.961C61.4037 107.6 61.4423 106.239 61.4886 104.878C62.2367 104.129 62.2367 104.129 64.5192 104.044C65.5283 104.044 66.5375 104.048 67.5465 104.056C68.342 104.057 68.342 104.057 69.1535 104.059C70.8534 104.063 72.5533 104.073 74.2532 104.082C75.4031 104.086 76.553 104.089 77.703 104.092C80.5274 104.101 83.3517 104.114 86.1761 104.129C86.1129 103.694 86.0497 103.259 85.9846 102.811C84.9964 95.2567 86.7719 88.918 90.9015 82.5037C93.7052 78.947 97.233 76.4111 101.886 76.4111Z" fill="#FD8E2E"/>
<path opacity="0.6" d="M321.83 114.617C330.964 114.617 340.099 114.617 349.51 114.617C349.51 115.112 349.51 115.606 349.51 116.115C353.954 116.115 358.397 116.115 362.976 116.115C361.988 117.846 361.001 119.576 359.983 121.359C359.513 123.953 359.513 123.953 359.527 126.624C359.503 127.587 359.479 128.55 359.454 129.543C359.443 130.545 359.433 131.547 359.422 132.55C359.401 133.572 359.379 134.595 359.355 135.618C359.302 138.107 359.263 140.595 359.235 143.084C359.976 143.084 360.716 143.084 361.48 143.084C361.498 147.125 361.512 151.165 361.521 155.206C361.524 156.581 361.53 157.957 361.536 159.332C361.545 161.305 361.549 163.278 361.553 165.251C361.556 165.87 361.56 166.489 361.564 167.126C361.564 168.602 361.526 170.077 361.48 171.551C360.073 172.96 357.654 172.396 355.783 172.398C355.266 172.399 354.749 172.4 354.216 172.401C352.499 172.405 350.782 172.403 349.066 172.4C347.878 172.401 346.69 172.401 345.502 172.402C343.009 172.403 340.516 172.402 338.023 172.398C334.82 172.394 331.617 172.396 328.415 172.401C325.961 172.404 323.507 172.403 321.053 172.401C319.871 172.4 318.69 172.401 317.509 172.403C315.861 172.405 314.213 172.402 312.565 172.398C311.155 172.397 311.155 172.397 309.717 172.396C307.616 172.301 307.616 172.301 306.868 171.551C306.802 169.5 306.782 167.467 306.795 165.415C306.796 164.801 306.797 164.187 306.798 163.554C306.802 161.584 306.812 159.615 306.821 157.646C306.825 156.314 306.828 154.982 306.831 153.65C306.84 150.378 306.853 147.106 306.868 143.833C308.349 143.463 308.349 143.463 309.86 143.084C308.237 137.616 308.237 137.616 304.437 133.626C303.758 133.287 303.079 132.947 302.379 132.596C302.682 130.477 302.984 129.726 304.627 128.286C306.544 126.125 306.533 124.821 306.634 121.968C306.816 117.666 306.816 117.666 307.616 116.865C309.157 116.79 310.702 116.767 312.245 116.771C313.089 116.769 313.933 116.767 314.802 116.765C317.21 116.859 319.466 117.161 321.83 117.614C321.922 125.892 321.703 134.08 321.082 142.335C322.81 142.335 324.538 142.335 326.319 142.335C326.301 138.948 326.244 135.562 326.178 132.175C326.174 131.219 326.17 130.262 326.165 129.277C326.032 123.59 325.66 120.379 321.83 116.115C321.83 115.621 321.83 115.127 321.83 114.617Z" fill="#FE8E2D"/>
<path opacity="0.6" d="M236.545 132.597C240.858 132.56 245.171 132.533 249.485 132.515C250.952 132.507 252.419 132.497 253.887 132.484C255.996 132.466 258.105 132.457 260.215 132.451C260.871 132.443 261.526 132.435 262.201 132.427C262.815 132.427 263.429 132.427 264.062 132.427C264.6 132.424 265.138 132.42 265.693 132.417C267.501 132.631 268.68 133.111 270.209 134.095C270.824 136.053 270.824 136.053 271.156 138.502C271.281 139.376 271.407 140.25 271.536 141.151C271.654 142.067 271.771 142.984 271.893 143.928C272.022 144.85 272.151 145.772 272.284 146.722C272.602 149.004 272.907 151.288 273.202 153.573C274.683 153.944 274.683 153.944 276.194 154.322C275.551 157.033 275.153 158.469 272.904 160.186C268.076 162.495 263.895 163.873 258.538 164.274C257.946 164.451 257.353 164.628 256.743 164.81C255.767 166.537 255.767 166.537 255.247 168.555C254.753 169.544 254.26 170.533 253.751 171.552C241.16 171.552 228.57 171.552 215.598 171.552C215.598 161.911 215.598 152.269 215.598 142.336C222.51 142.336 229.423 142.336 236.545 142.336C236.545 139.122 236.545 135.908 236.545 132.597Z" fill="#F06900"/>
<path opacity="0.6" d="M236.545 132.597C240.858 132.56 245.171 132.533 249.485 132.515C250.952 132.507 252.419 132.497 253.887 132.484C255.996 132.466 258.105 132.457 260.215 132.451C260.871 132.443 261.526 132.435 262.201 132.427C262.815 132.427 263.429 132.427 264.062 132.427C264.6 132.424 265.138 132.42 265.693 132.417C267.501 132.631 268.68 133.111 270.209 134.095C270.824 136.053 270.824 136.053 271.156 138.502C271.281 139.376 271.407 140.25 271.536 141.151C271.654 142.067 271.771 142.984 271.893 143.928C272.022 144.85 272.151 145.772 272.284 146.722C272.602 149.004 272.907 151.288 273.202 153.573C274.683 153.944 274.683 153.944 276.194 154.322C275.551 157.033 275.153 158.469 272.904 160.186C268.076 162.495 263.895 163.873 258.538 164.274C257.946 164.451 257.353 164.628 256.743 164.81C255.767 166.537 255.767 166.537 255.247 168.555C254.753 169.544 254.26 170.533 253.751 171.552C241.16 171.552 228.57 171.552 215.598 171.552C215.598 161.911 215.598 152.269 215.598 142.336C222.51 142.336 229.423 142.336 236.545 142.336C236.545 139.122 236.545 135.908 236.545 132.597Z" fill="#F06900"/>
<path opacity="0.6" d="M19.5949 6.92928C20.1041 6.9795 20.6132 7.02971 21.1378 7.08145C23.0067 7.60966 23.679 8.17138 24.8316 9.73853C25.3839 11.7138 25.3839 11.7138 25.8135 13.9992C26.7071 17.9877 28.0371 20.3234 30.644 23.4044C31.992 25.3327 31.9047 26.9452 31.5645 29.216C31.9725 29.3792 32.3804 29.5424 32.8007 29.7105C35.1382 31.0464 36.8647 32.8665 38.7183 34.7877C39.0785 35.1551 39.4386 35.5225 39.8097 35.9011C40.8045 36.9164 41.7954 37.9354 42.7861 38.9547C43.5267 39.6964 44.2673 40.438 45.0304 41.2021C36.6367 41.4493 28.243 41.6965 19.5949 41.9512C19.348 46.6483 19.1011 51.3454 18.8468 56.1848C16.6249 55.9376 14.403 55.6903 12.1138 55.4356C11.7435 56.1773 11.7435 56.1773 11.3657 56.9339C12.1064 56.1923 12.1064 56.1923 12.8619 55.4356C13.6026 55.4356 14.3432 55.4356 15.1063 55.4356C15.1063 56.1773 15.1063 56.9189 15.1063 57.683C17.2885 57.5774 19.4703 57.4675 21.6522 57.3553C22.2694 57.3258 22.8865 57.2964 23.5224 57.266C24.1203 57.2346 24.7182 57.2033 25.3342 57.1709C25.8827 57.1435 26.4312 57.116 26.9963 57.0877C28.5857 56.9326 30.0212 56.5864 31.5645 56.1848C35.4916 55.6542 35.4916 55.6542 37.5494 56.1848C39.2616 57.8093 40.2318 59.7106 41.2899 61.8033C41.584 62.3392 41.8781 62.8752 42.1812 63.4274C42.902 64.7478 43.595 66.0835 44.2823 67.4218C42.0447 69.7453 39.8707 71.7828 37.1753 73.5553C36.6276 73.9213 36.0798 74.2873 35.5155 74.6644C29.0563 78.4411 21.6585 78.5535 14.3582 77.9096C9.1791 76.5199 5.95997 73.8664 3.27395 69.2566C-0.591854 61.246 -0.779869 53.7085 1.73683 45.2316C2.4716 43.2223 3.52851 41.5285 4.63281 39.7038C4.51544 38.1096 4.51544 38.1096 3.88471 36.7073C2.45042 32.3985 2.44759 27.8826 4.39903 23.738C5.49756 21.7688 6.37785 20.7501 8.09279 19.1963C10.3489 16.6993 10.5145 14.7437 10.8777 11.465C11.5107 9.2257 12.3868 8.65746 14.3582 7.49113C16.5063 6.7741 17.425 6.68236 19.5949 6.92928Z" fill="#C0E1FC"/>
<path opacity="0.6" d="M287.417 7.49126C288.111 8.04605 288.111 8.04605 288.82 8.61204C290.729 9.96536 291.793 9.98394 294.103 10.0196C297.037 10.2276 297.75 10.379 300.182 12.267C302.503 15.416 302.449 17.7018 302.373 21.5171C302.36 22.5339 302.347 23.5508 302.335 24.5677C302.312 26.1588 302.286 27.7495 302.251 29.3403C302.132 35.0356 302.195 40.1678 304.114 45.5931C304.883 48.0104 304.866 50.2944 304.81 52.8139C304.799 53.7023 304.787 54.5908 304.775 55.5061C304.623 57.6833 304.623 57.6833 303.875 59.1815C297.514 59.4513 291.449 58.6218 285.173 57.6833C284.926 56.4472 284.679 55.2111 284.425 53.9376C284.178 55.4209 283.931 56.9042 283.676 58.4324C284.911 58.4324 286.145 58.4324 287.417 58.4324C286.094 62.6469 283.551 65.0086 279.936 67.422C279.195 67.422 278.455 67.422 277.692 67.422C277.938 63.7138 278.185 60.0056 278.44 56.185C273.749 56.185 269.058 56.185 264.226 56.185C263.855 55.0725 263.855 55.0725 263.478 53.9376C262.051 53.2527 262.051 53.2527 260.485 53.1885C259.991 53.6829 259.498 54.1773 258.989 54.6867C256.683 54.9121 256.683 54.9121 253.892 54.9208C252.977 54.9334 252.062 54.9459 251.119 54.9589C248.35 54.6694 246.938 54.1705 244.775 52.4393C244.167 50.0515 244.167 50.0515 244.027 47.9445C246.924 45.4179 248.93 45.3549 252.656 45.4864C256.464 45.9215 258.706 47.4602 261.093 50.3324C261.903 51.3753 261.903 51.3753 262.729 52.4393C262.976 52.4393 263.223 52.4393 263.478 52.4393C263.061 51.4659 263.061 51.4659 262.636 50.4729C261.843 47.4118 262.246 46.3239 263.478 43.4497C265.018 41.5037 265.018 41.5037 266.797 39.6572C268.565 37.8111 270.074 36.1953 271.353 33.9773C272.573 32.0239 273.541 31.3324 275.541 30.2462C278.091 28.9135 278.091 28.9135 279.188 26.2196C278.833 25.8179 278.478 25.4162 278.112 25.0023C275.962 21.7289 276.637 18.1502 277.32 14.4295C278.59 9.41028 278.59 9.41028 280.918 7.77219C283.184 7.45547 285.133 7.24797 287.417 7.49126Z" fill="#C0E1FC"/>
<path opacity="0.6" d="M80.8926 131.426C81.4107 131.455 81.9288 131.485 82.4626 131.515C86.0833 131.754 86.0833 131.754 86.9243 132.597C86.994 133.746 87.0121 134.899 87.0092 136.051C87.0091 136.786 87.0091 137.521 87.009 138.278C87.0051 139.077 87.0013 139.876 86.9973 140.699C86.9963 141.513 86.9952 142.327 86.9941 143.165C86.9899 145.776 86.9805 148.386 86.971 150.997C86.9673 152.762 86.9638 154.527 86.9608 156.292C86.9525 160.629 86.94 164.967 86.9243 169.304C88.6524 169.304 90.3805 169.304 92.161 169.304C92.161 169.551 92.161 169.798 92.161 170.053C87.9572 170.072 83.7534 170.085 79.5495 170.094C78.1232 170.098 76.6968 170.103 75.2705 170.11C73.2053 170.119 71.1401 170.123 69.0749 170.126C68.4503 170.13 67.8257 170.134 67.1822 170.138C62.2634 170.138 57.4068 169.769 52.5113 169.304C52.4924 164.09 52.4793 158.876 52.4703 153.662C52.4665 151.887 52.4614 150.111 52.4549 148.336C52.4459 145.791 52.4416 143.245 52.4383 140.699C52.4344 139.9 52.4306 139.101 52.4266 138.278C52.4265 137.543 52.4265 136.808 52.4264 136.051C52.4248 135.401 52.4231 134.75 52.4214 134.08C52.5113 132.597 52.5113 132.597 53.2595 131.847C62.3556 130.513 71.7394 130.891 80.8926 131.426Z" fill="#FEA750"/>
<path opacity="0.6" d="M80.8926 131.426C81.4107 131.455 81.9288 131.485 82.4626 131.515C86.0833 131.754 86.0833 131.754 86.9243 132.597C86.994 133.746 87.0121 134.899 87.0092 136.051C87.0091 136.786 87.0091 137.521 87.009 138.278C87.0051 139.077 87.0013 139.876 86.9973 140.699C86.9963 141.513 86.9952 142.327 86.9941 143.165C86.9899 145.776 86.9805 148.386 86.971 150.997C86.9673 152.762 86.9638 154.527 86.9608 156.292C86.9525 160.629 86.94 164.967 86.9243 169.304C88.6524 169.304 90.3805 169.304 92.161 169.304C92.161 169.551 92.161 169.798 92.161 170.053C87.9572 170.072 83.7534 170.085 79.5495 170.094C78.1232 170.098 76.6968 170.103 75.2705 170.11C73.2053 170.119 71.1401 170.123 69.0749 170.126C68.4503 170.13 67.8257 170.134 67.1822 170.138C62.2634 170.138 57.4068 169.769 52.5113 169.304C52.4924 164.09 52.4793 158.876 52.4703 153.662C52.4665 151.887 52.4614 150.111 52.4549 148.336C52.4459 145.791 52.4416 143.245 52.4383 140.699C52.4344 139.9 52.4306 139.101 52.4266 138.278C52.4265 137.543 52.4265 136.808 52.4264 136.051C52.4248 135.401 52.4231 134.75 52.4214 134.08C52.5113 132.597 52.5113 132.597 53.2595 131.847C62.3556 130.513 71.7394 130.891 80.8926 131.426Z" fill="#FEA750"/>
<path opacity="0.6" d="M80.8926 131.426C81.4107 131.455 81.9288 131.485 82.4626 131.515C86.0833 131.754 86.0833 131.754 86.9243 132.597C86.994 133.746 87.0121 134.899 87.0092 136.051C87.0091 136.786 87.0091 137.521 87.009 138.278C87.0051 139.077 87.0013 139.876 86.9973 140.699C86.9963 141.513 86.9952 142.327 86.9941 143.165C86.9899 145.776 86.9805 148.386 86.971 150.997C86.9673 152.762 86.9638 154.527 86.9608 156.292C86.9525 160.629 86.94 164.967 86.9243 169.304C88.6524 169.304 90.3805 169.304 92.161 169.304C92.161 169.551 92.161 169.798 92.161 170.053C87.9572 170.072 83.7534 170.085 79.5495 170.094C78.1232 170.098 76.6968 170.103 75.2705 170.11C73.2053 170.119 71.1401 170.123 69.0749 170.126C68.4503 170.13 67.8257 170.134 67.1822 170.138C62.2634 170.138 57.4068 169.769 52.5113 169.304C52.4924 164.09 52.4793 158.876 52.4703 153.662C52.4665 151.887 52.4614 150.111 52.4549 148.336C52.4459 145.791 52.4416 143.245 52.4383 140.699C52.4344 139.9 52.4306 139.101 52.4266 138.278C52.4265 137.543 52.4265 136.808 52.4264 136.051C52.4248 135.401 52.4231 134.75 52.4214 134.08C52.5113 132.597 52.5113 132.597 53.2595 131.847C62.3556 130.513 71.7394 130.891 80.8926 131.426Z" fill="#FEA750"/>
<path opacity="0.6" d="M22.8953 41.1057C23.5968 41.1033 24.2983 41.101 25.021 41.0985C25.7839 41.1001 26.5468 41.1016 27.3328 41.1031C28.4992 41.1021 28.4992 41.1021 29.6891 41.101C31.3369 41.1005 32.9846 41.1019 34.6323 41.105C37.1641 41.109 39.6958 41.105 42.2276 41.1002C43.8242 41.1007 45.4207 41.1017 47.0172 41.1031C47.7801 41.1016 48.543 41.1001 49.329 41.0985C50.3812 41.1021 50.3812 41.1021 51.4547 41.1057C52.3858 41.1066 52.3858 41.1066 53.3357 41.1075C54.7554 41.2026 54.7554 41.2026 55.5035 41.9518C55.5339 43.2 55.5355 44.4493 55.5035 45.6974C56.2422 45.6888 56.9809 45.6801 57.742 45.6711C58.7006 45.6643 59.6591 45.6576 60.6467 45.6506C61.6014 45.6419 62.5561 45.6332 63.5398 45.6243C65.977 45.6974 65.977 45.6974 67.4732 46.4466C67.8743 45.9676 68.2755 45.4886 68.6888 44.9951C70.7975 43.1614 72.2151 42.9503 74.9542 42.7009C74.2996 45.6038 74.2996 45.6038 73.458 46.4466C74.0086 46.4205 74.5593 46.3944 75.1266 46.3676C81.0143 46.204 81.0143 46.204 84.0249 47.2894C85.8828 49.1497 86.0041 50.6114 86.1757 53.1888C80.8241 56.4437 76.7096 57.4694 70.4656 56.9345C70.8359 58.7886 70.8359 58.7886 71.2137 60.6801C65.8434 62.2088 61.0948 63.2075 55.5035 62.9275C55.5035 62.4331 55.5035 61.9387 55.5035 61.4293C54.5966 61.9029 54.5966 61.9029 53.6713 62.3862C52.8718 62.7966 52.0724 63.207 51.2487 63.6299C50.064 64.2426 50.064 64.2426 48.8554 64.8677C46.5263 65.9241 46.5263 65.9241 42.7858 66.6732C41.0577 63.4594 39.3295 60.2456 37.5491 56.9345C36.1604 56.9113 36.1604 56.9113 34.7437 56.8876C33.9626 56.8746 33.9626 56.8746 33.1657 56.8613C31.582 56.8761 31.582 56.8761 30.1703 57.309C28.4973 57.7011 27.0496 57.769 25.334 57.7568C24.7361 57.7543 24.1382 57.7519 23.5221 57.7494C22.905 57.7432 22.2878 57.7369 21.6519 57.7304C21.0231 57.727 20.3944 57.7237 19.7466 57.7202C18.1997 57.7114 16.6528 57.6979 15.106 57.6836C15.106 56.942 15.106 56.2003 15.106 55.4362C14.6122 55.9306 14.1185 56.4251 13.6098 56.9345C12.8692 56.9345 12.1285 56.9345 11.3655 56.9345C11.7358 55.822 11.7358 55.822 12.1136 54.6871C17.1633 55.3426 17.1633 55.3426 18.8465 56.1853C18.8426 55.7581 18.8387 55.3308 18.8346 54.8906C18.8191 52.9655 18.8094 51.0405 18.7997 49.1154C18.7935 48.4428 18.7872 47.7702 18.7808 47.0772C18.7783 46.4374 18.7759 45.7977 18.7734 45.1385C18.7695 44.5461 18.7656 43.9538 18.7616 43.3434C18.9289 40.6021 20.5444 41.108 22.8953 41.1057Z" fill="#C0E1FC"/>
<path opacity="0.6" d="M284.425 50.9404C284.672 50.9404 284.919 50.9404 285.173 50.9404C285.173 53.1654 285.173 55.3903 285.173 57.6826C293.69 58.4243 293.69 58.4243 302.379 59.1809C301.529 64.2877 301.529 64.2877 299.621 66.7658C299.084 67.4872 299.084 67.4872 298.536 68.2231C295.106 71.7812 291.345 73.2664 286.716 74.5381C283.547 75.4135 280.708 76.307 277.876 78.0087C271.958 81.4172 263.966 78.8656 257.493 77.9092C257.246 75.6843 256.999 73.4593 256.745 71.167C254.77 70.9198 252.795 70.6726 250.76 70.4179C250.914 69.8616 251.069 69.3054 251.228 68.7323C251.541 66.43 251.224 65.6025 250.012 63.6757C250.506 63.1812 250.999 62.6868 251.508 62.1774C251.27 60.5981 251.27 60.5981 250.76 59.1809C251.994 58.9337 253.229 58.6865 254.501 58.4317C254.501 57.4429 254.501 56.454 254.501 55.4352C253.513 55.188 252.526 54.9408 251.508 54.6861C252.022 54.6494 252.536 54.6127 253.066 54.5749C253.74 54.5189 254.414 54.4629 255.108 54.4052C255.777 54.353 256.445 54.3009 257.134 54.2471C259.172 54.037 259.172 54.037 261.234 52.4387C261.577 52.9215 261.92 53.4044 262.274 53.9018C265.179 56.1837 267.923 55.9385 271.52 55.9971C272.184 56.0193 272.849 56.0415 273.533 56.0644C275.169 56.1172 276.804 56.1567 278.44 56.1844C278.46 57.4953 278.475 58.8063 278.487 60.1173C278.495 60.8473 278.504 61.5774 278.513 62.3296C278.449 64.1683 278.221 65.6696 277.692 67.4213C278.51 66.9424 279.327 66.4634 280.17 65.9699C281.869 64.9747 283.283 64.3063 285.173 63.6757C286.048 61.8599 286.048 61.8599 286.669 59.93C286.916 59.4356 287.163 58.9412 287.417 58.4317C286.183 58.4317 284.948 58.4317 283.677 58.4317C283.924 55.9596 284.17 53.4875 284.425 50.9404Z" fill="#F22A2E"/>
<path opacity="0.6" d="M284.425 50.9404C284.672 50.9404 284.919 50.9404 285.173 50.9404C285.173 53.1654 285.173 55.3903 285.173 57.6826C293.69 58.4243 293.69 58.4243 302.379 59.1809C301.529 64.2877 301.529 64.2877 299.621 66.7658C299.084 67.4872 299.084 67.4872 298.536 68.2231C295.106 71.7812 291.345 73.2664 286.716 74.5381C283.547 75.4135 280.708 76.307 277.876 78.0087C271.958 81.4172 263.966 78.8656 257.493 77.9092C257.246 75.6843 256.999 73.4593 256.745 71.167C254.77 70.9198 252.795 70.6726 250.76 70.4179C250.914 69.8616 251.069 69.3054 251.228 68.7323C251.541 66.43 251.224 65.6025 250.012 63.6757C250.506 63.1812 250.999 62.6868 251.508 62.1774C251.27 60.5981 251.27 60.5981 250.76 59.1809C251.994 58.9337 253.229 58.6865 254.501 58.4317C254.501 57.4429 254.501 56.454 254.501 55.4352C253.513 55.188 252.526 54.9408 251.508 54.6861C252.022 54.6494 252.536 54.6127 253.066 54.5749C253.74 54.5189 254.414 54.4629 255.108 54.4052C255.777 54.353 256.445 54.3009 257.134 54.2471C259.172 54.037 259.172 54.037 261.234 52.4387C261.577 52.9215 261.92 53.4044 262.274 53.9018C265.179 56.1837 267.923 55.9385 271.52 55.9971C272.184 56.0193 272.849 56.0415 273.533 56.0644C275.169 56.1172 276.804 56.1567 278.44 56.1844C278.46 57.4953 278.475 58.8063 278.487 60.1173C278.495 60.8473 278.504 61.5774 278.513 62.3296C278.449 64.1683 278.221 65.6696 277.692 67.4213C278.51 66.9424 279.327 66.4634 280.17 65.9699C281.869 64.9747 283.283 64.3063 285.173 63.6757C286.048 61.8599 286.048 61.8599 286.669 59.93C286.916 59.4356 287.163 58.9412 287.417 58.4317C286.183 58.4317 284.948 58.4317 283.677 58.4317C283.924 55.9596 284.17 53.4875 284.425 50.9404Z" fill="#F22A2E"/>
<path opacity="0.6" d="M321.828 114.617C330.963 114.617 340.097 114.617 349.508 114.617C349.508 115.112 349.508 115.606 349.508 116.115C353.952 116.115 358.396 116.115 362.974 116.115C359.982 121.359 359.982 121.359 359.234 122.109C357.012 122.109 354.79 122.109 352.501 122.109C352.501 128.783 352.501 135.458 352.501 142.335C343.86 142.335 335.219 142.335 326.317 142.335C326.177 132.175 326.177 132.175 326.162 129.001C326.022 123.418 325.585 120.297 321.828 116.115C321.828 115.621 321.828 115.127 321.828 114.617Z" fill="#FEA850"/>
<path opacity="0.6" d="M119.093 132.597C119.596 135.514 120.093 138.433 120.589 141.352C120.732 142.178 120.874 143.004 121.021 143.856C121.156 144.655 121.291 145.454 121.43 146.277C121.618 147.378 121.618 147.378 121.81 148.5C122.5 153.708 122.5 153.708 121.01 155.913C120.431 156.609 120.431 156.609 119.841 157.318C119.594 158.06 119.347 158.801 119.093 159.565C115.76 159.936 115.76 159.936 112.36 160.315C112.853 162.54 113.347 164.764 113.856 167.057C112.53 166.34 111.206 165.622 109.882 164.903C109.144 164.503 108.406 164.103 107.646 163.692C105.627 162.562 105.627 162.562 103.382 161.064C102.868 158.723 102.868 158.723 102.634 156.569C101.616 157.079 101.616 157.079 100.577 157.599C99.7747 158.001 98.9723 158.402 98.1457 158.816C97.6056 159.125 97.0656 159.434 96.5092 159.753C95.1533 160.315 95.1533 160.315 92.9089 159.565C92.9089 151.16 92.9089 142.755 92.9089 134.095C100.671 134.189 100.671 134.189 103.068 134.23C107.302 134.254 111.173 133.888 115.298 132.921C116.848 132.597 116.848 132.597 119.093 132.597Z" fill="#FCAA97"/>
<path opacity="0.6" d="M107.123 106.377C107.616 106.377 108.11 106.377 108.619 106.377C108.372 108.107 108.125 109.838 107.871 111.621C108.611 111.621 109.352 111.621 110.115 111.621C110.115 109.89 110.115 108.16 110.115 106.377C110.362 106.377 110.609 106.377 110.863 106.377C110.863 108.107 110.863 109.838 110.863 111.621C111.357 111.621 111.851 111.621 112.359 111.621C112.606 110.385 112.853 109.149 113.107 107.875C114.836 107.875 116.564 107.875 118.344 107.875C120.869 124.956 120.869 124.956 121.337 131.847C115.227 134.101 109.439 134.977 102.961 134.984C102.441 134.985 101.92 134.986 101.384 134.986C97.5262 134.946 93.7418 134.581 89.9163 134.095C90.125 131.066 90.3468 128.039 90.5708 125.012C90.6297 124.156 90.6885 123.3 90.7491 122.419C90.8118 121.588 90.8745 120.758 90.9391 119.902C90.9939 119.141 91.0488 118.38 91.1053 117.596C91.4125 115.367 91.4125 115.367 92.9087 110.872C97.5993 111.119 102.29 111.366 107.123 111.621C107.123 109.89 107.123 108.16 107.123 106.377Z" fill="#2C6EA3"/>
<path opacity="0.6" d="M102.774 85.2963C103.746 85.2986 103.746 85.2986 104.738 85.3009C105.4 85.3002 106.061 85.2995 106.742 85.2988C108.144 85.2982 109.545 85.2996 110.946 85.3028C113.098 85.3068 115.251 85.3028 117.403 85.298C118.761 85.2985 120.119 85.2995 121.477 85.3009C122.125 85.2994 122.774 85.2979 123.442 85.2963C127.984 85.3143 127.984 85.3143 128.818 86.1496C128.872 87.4127 128.881 88.6779 128.865 89.942C128.858 90.6306 128.851 91.3191 128.844 92.0285C128.835 92.5606 128.827 93.0926 128.818 93.6409C129.805 93.8881 130.793 94.1353 131.81 94.39C131.81 94.8844 131.81 95.3788 131.81 95.8883C129.835 95.8883 127.86 95.8883 125.825 95.8883C125.825 96.6299 125.825 97.3715 125.825 98.1356C127.307 98.3829 128.788 98.6301 130.314 98.8848C130.314 99.132 130.314 99.3792 130.314 99.6339C128.586 99.6339 126.858 99.6339 125.077 99.6339C125.448 100.376 125.448 100.376 125.825 101.132C127.34 101.621 127.34 101.621 128.818 101.881C128.818 103.859 128.818 105.837 128.818 107.874C123.387 107.874 117.955 107.874 112.36 107.874C112.36 106.885 112.36 105.897 112.36 104.878C110.878 105.125 109.397 105.372 107.871 105.627C107.871 105.133 107.871 104.638 107.871 104.129C105.441 105.419 105.441 105.419 104.878 107.874C103.772 107.894 102.665 107.909 101.559 107.921C100.634 107.934 100.634 107.934 99.6914 107.948C98.1456 107.874 98.1456 107.874 97.3974 107.125C97.3227 105.582 97.2996 104.035 97.2981 102.49C97.2971 101.549 97.2962 100.609 97.2952 99.6398C97.2967 99.1475 97.2983 98.6553 97.2999 98.1481C97.3039 96.6437 97.3 95.1394 97.2952 93.635C97.2961 92.6944 97.2971 91.7539 97.2981 90.7848C97.2994 89.4797 97.2994 89.4797 97.3006 88.1482C97.4827 84.3896 99.4926 85.3093 102.774 85.2963Z" fill="#FDA53E"/>
<path opacity="0.6" d="M34.557 146.081C36.8618 148.158 38.0639 149.874 39.0456 152.823C38.305 153.565 37.5644 154.307 36.8013 155.071C37.7038 157.643 38.5854 159.194 40.5418 161.064C40.5418 161.558 40.5418 162.053 40.5418 162.562C41.8842 162.817 41.8842 162.817 43.2537 163.077C46.7443 163.979 48.6303 165.059 51.0153 167.806C51.4377 169.983 51.2772 171.551 51.0153 173.799C49.7899 175.026 48.3967 174.646 46.7079 174.648C45.5768 174.65 45.5768 174.65 44.4228 174.652C43.605 174.649 42.7871 174.645 41.9445 174.642C41.1127 174.639 40.2809 174.637 39.4239 174.634C33.5749 174.599 27.7311 174.483 21.886 174.267C20.7842 174.233 20.7842 174.233 19.6603 174.197C18.9839 174.168 18.3075 174.139 17.6106 174.109C17.0167 174.086 16.4227 174.062 15.8107 174.038C14.3581 173.799 14.3581 173.799 12.8619 172.301C12.6921 170.755 12.6921 170.755 12.7158 168.877C12.7206 168.206 12.7255 167.535 12.7304 166.843C12.743 166.141 12.7555 165.439 12.7684 164.716C12.7752 164.008 12.7819 163.3 12.7889 162.571C12.8065 160.82 12.8312 159.069 12.8619 157.318C15.8833 156.402 17.5499 156.95 20.53 158.02C21.3362 158.305 22.1424 158.59 22.973 158.884C23.5864 159.109 24.1997 159.334 24.8316 159.565C25.0785 158.082 25.3254 156.599 25.5797 155.071C26.5672 154.823 27.5547 154.576 28.5721 154.322C28.5721 153.333 28.5721 152.344 28.5721 151.325C30.5471 151.325 32.5221 151.325 34.557 151.325C34.557 149.594 34.557 147.864 34.557 146.081Z" fill="#2C2C2C"/>
<path opacity="0.6" d="M215.598 142.335C222.51 142.335 229.423 142.335 236.545 142.335C236.545 151.976 236.545 161.618 236.545 171.551C229.632 171.551 222.72 171.551 215.598 171.551C215.598 161.91 215.598 152.268 215.598 142.335Z" fill="#FEA74F"/>
<path opacity="0.6" d="M121.337 153.571C124.236 154.882 124.236 154.882 125.078 156.568C127.597 156.949 130.095 157.197 132.632 157.409C136.699 157.821 136.699 157.821 138.549 159.122C139.292 160.313 139.292 160.313 139.292 162.186C138.272 164.739 137.254 165.057 134.803 166.307C132.462 167.196 130.087 167.952 127.696 168.694C127.066 168.899 126.437 169.103 125.788 169.313C122.746 170.27 120.078 171.1 116.848 170.801C116.478 171.914 116.478 171.914 116.1 173.049C108.266 173.207 100.596 173.335 92.9091 171.55C92.1609 170.801 92.1609 170.801 92.0879 168.106C92.0929 166.991 92.1018 165.876 92.1142 164.761C92.1176 164.193 92.1209 163.625 92.1244 163.039C92.1333 161.631 92.1467 160.223 92.1609 158.815C92.8601 158.846 93.5593 158.877 94.2796 158.909C97.2595 158.791 98.1845 157.729 100.39 155.819C101.131 155.819 101.871 155.819 102.634 155.819C102.787 156.5 102.939 157.182 103.096 157.885C104.416 160.983 105.779 161.654 108.713 163.216C109.532 163.663 110.352 164.109 111.197 164.568C111.827 164.895 112.458 165.221 113.108 165.557C112.861 163.58 112.614 161.602 112.36 159.564C115.693 159.194 115.693 159.194 119.093 158.815C119.232 157.935 119.232 157.935 119.373 157.036C119.841 155.07 119.841 155.07 121.337 153.571Z" fill="#2C2C2C"/>
<path opacity="0.6" d="M261.232 78.6592C262.961 78.6592 264.689 78.6592 266.469 78.6592C267.71 81.1433 267.368 83.9264 267.401 86.6597C267.426 88.0204 267.451 89.3811 267.476 90.7419C267.511 92.8713 267.544 95.0008 267.574 97.1304C267.695 105.313 267.997 113.394 268.951 121.527C269.407 125.495 269.523 129.351 269.462 133.346C265.306 132.856 262.555 130.887 259.596 128.008C252.702 117.058 255.745 101.123 258.24 89.147C259.086 85.6027 260.104 82.1239 261.232 78.6592Z" fill="#2C6EA3"/>
<path opacity="0.6" d="M22.8953 41.1057C23.5968 41.1033 24.2983 41.101 25.021 41.0985C25.7839 41.1001 26.5468 41.1016 27.3328 41.1031C28.4992 41.1021 28.4992 41.1021 29.6892 41.101C31.3369 41.1005 32.9846 41.1019 34.6323 41.105C37.1641 41.109 39.6959 41.105 42.2277 41.1002C43.8242 41.1007 45.4208 41.1017 47.0173 41.1031C47.7802 41.1016 48.5431 41.1001 49.3291 41.0985C50.3813 41.1021 50.3813 41.1021 51.4548 41.1057C52.3858 41.1066 52.3858 41.1066 53.3357 41.1075C54.7555 41.2026 54.7555 41.2026 55.5036 41.9518C55.558 43.7146 55.5662 45.4789 55.5504 47.2425C55.5436 48.2092 55.5368 49.1758 55.5299 50.1718C55.5212 50.9202 55.5125 51.6686 55.5036 52.4396C53.0349 52.9341 50.5661 53.4285 48.0226 53.9379C48.3929 52.8254 48.3929 52.8254 48.7707 51.6905C43.8062 52.4115 43.8062 52.4115 39.7467 55.1552C36.7516 57.5802 35.3365 57.1781 31.5643 56.9344C30.5651 57.1771 29.5676 57.4271 28.5719 57.6836C27.4939 57.7417 26.4135 57.7644 25.334 57.7567C24.7361 57.7543 24.1382 57.7519 23.5222 57.7494C22.905 57.7431 22.2878 57.7369 21.6519 57.7304C21.0231 57.727 20.3944 57.7236 19.7466 57.7201C18.1997 57.7113 16.6528 57.6979 15.106 57.6836C15.106 56.9419 15.106 56.2003 15.106 55.4362C14.6122 55.9306 14.1185 56.425 13.6098 56.9344C12.8692 56.9344 12.1285 56.9344 11.3655 56.9344C11.7358 55.822 11.7358 55.822 12.1136 54.687C17.1633 55.3425 17.1633 55.3425 18.8465 56.1853C18.8426 55.758 18.8387 55.3308 18.8346 54.8906C18.8191 52.9655 18.8094 51.0405 18.7998 49.1154C18.7935 48.4428 18.7872 47.7702 18.7808 47.0772C18.7784 46.4374 18.7759 45.7977 18.7735 45.1385C18.7695 44.5461 18.7656 43.9537 18.7616 43.3434C18.9289 40.6021 20.5444 41.108 22.8953 41.1057Z" fill="#FEA751"/>
<path opacity="0.6" d="M276.194 154.321C277.878 154.134 277.878 154.134 279.935 154.321C280.367 154.808 280.799 155.295 281.244 155.796C283.488 157.824 284.996 157.76 287.977 157.88C289.52 157.941 291.063 158.003 292.653 158.067C292.653 163.011 292.653 167.955 292.653 173.049C280.062 173.049 267.471 173.049 254.499 173.049C253.751 170.053 253.751 170.053 255.014 167.337C256.354 165.208 257.239 164.005 259.736 163.311C260.6 163.249 261.464 163.187 262.354 163.123C266.814 162.652 271.045 160.61 274.698 158.067C275.74 156.138 275.74 156.138 276.194 154.321Z" fill="#2C2C2C"/>
<path opacity="0.6" d="M309.659 116.765C310.512 116.767 311.365 116.769 312.245 116.771C313.089 116.769 313.932 116.767 314.802 116.765C317.212 116.859 319.458 117.194 321.83 117.613C321.93 126.403 321.647 135.11 321.082 143.88C321.009 145.049 320.937 146.218 320.866 147.387C320.692 150.198 320.514 153.008 320.334 155.819C315.354 155.234 315.354 155.234 313.04 153.759C310.877 150.631 310.367 147.702 309.612 144.008C308.439 138.056 308.439 138.056 304.483 133.72C303.789 133.349 303.095 132.978 302.379 132.596C302.682 130.476 302.983 129.725 304.626 128.285C306.544 126.125 306.533 124.82 306.634 121.968C306.848 116.902 306.848 116.902 309.659 116.765Z" fill="#2C2C2C"/>
<path opacity="0.6" d="M284.424 50.9404C284.671 50.9404 284.918 50.9404 285.172 50.9404C285.172 53.1653 285.172 55.3903 285.172 57.6826C293.689 58.4242 293.689 58.4242 302.379 59.1809C301.529 64.2877 301.529 64.2877 299.62 66.7658C299.083 67.4872 299.083 67.4872 298.536 68.2231C295.105 71.7812 291.344 73.2664 286.715 74.538C283.553 75.4118 280.732 76.2945 277.916 78.0115C275.538 79.3557 274.457 79.775 271.8 79.6415C271.231 79.6231 270.662 79.6048 270.076 79.5859C268.714 79.4074 268.714 79.4074 267.966 78.6583C267.935 76.9106 267.934 75.162 267.966 73.4143C266.731 73.4143 265.497 73.4143 264.225 73.4143C264.506 71.4596 264.842 70.5537 266.23 69.1156C270.494 66.0537 272.966 65.7055 278.097 66.5463C280.127 66.8674 280.127 66.8674 282.227 65.2207C282.705 64.7109 283.183 64.201 283.676 63.6756C284.17 63.6756 284.664 63.6756 285.172 63.6756C285.404 63.0885 285.635 62.5014 285.874 61.8965C286.668 59.93 286.668 59.93 287.417 58.4317C286.182 58.4317 284.948 58.4317 283.676 58.4317C283.923 55.9596 284.17 53.4875 284.424 50.9404Z" fill="#FCAA97"/>
<path opacity="0.6" d="M287.417 7.49134C288.114 8.04467 288.114 8.04467 288.826 8.60918C290.732 9.96848 291.792 9.984 294.103 10.0197C297.037 10.2276 297.751 10.3791 300.182 12.267C303.399 16.6319 302.517 21.8122 302.52 27.0156C302.529 27.9933 302.538 28.9711 302.547 29.9784C302.549 30.9098 302.55 31.8412 302.552 32.8008C302.555 33.6575 302.558 34.5141 302.561 35.3966C302.379 37.4566 302.379 37.4566 300.883 38.9548C300.297 38.1823 299.71 37.4097 299.106 36.6138C297.103 34.2073 295.145 32.9412 292.373 31.5103C289.075 29.6677 289.075 29.6677 288.355 27.6564C288.306 26.0323 288.306 26.0323 288.913 23.2231C289.654 22.7287 290.395 22.2342 291.158 21.7248C291.704 19.8049 291.704 19.8049 291.906 17.9792C289.678 18.0157 289.678 18.0157 287.449 18.0523C285.921 17.9792 285.921 17.9792 283.677 17.23C282.936 17.23 282.195 17.23 281.432 17.23C281.432 15.7468 281.432 14.2635 281.432 12.7353C280.939 12.7353 280.445 12.7353 279.936 12.7353C280.168 13.9636 280.168 13.9636 280.404 15.2167C280.684 17.9792 280.684 17.9792 279.188 20.2266C279.188 18.9905 279.188 17.7544 279.188 16.4809C278.694 16.4809 278.201 16.4809 277.692 16.4809C278.149 10.8987 278.149 10.8987 279.469 9.03642C282.05 7.34601 284.419 7.24621 287.417 7.49134Z" fill="#0F0F0F"/>
<path opacity="0.6" d="M282.928 32.2129C284.668 33.9546 284.699 34.4203 284.799 36.8013C284.691 41.6008 282.061 44.3916 278.744 47.5994C275.096 50.7863 272.809 51.9108 267.966 51.6903C267.472 53.1736 266.979 54.6569 266.47 56.1851C265.483 55.9379 264.495 55.6907 263.478 55.436C263.478 54.9416 263.478 54.4472 263.478 53.9377C262.062 53.4272 262.062 53.4272 260.485 53.1886C259.991 53.683 259.498 54.1775 258.989 54.6869C256.683 54.9122 256.683 54.9122 253.892 54.921C252.977 54.9335 252.062 54.9461 251.119 54.959C248.35 54.6696 246.938 54.1706 244.775 52.4395C244.167 50.0516 244.167 50.0516 244.027 47.9447C246.924 45.418 248.93 45.3551 252.656 45.4866C256.467 45.922 258.723 47.4815 261.14 50.3325C261.664 51.0278 262.189 51.7231 262.729 52.4395C263.223 51.9451 263.717 51.4506 264.226 50.9412C264.719 51.4356 265.213 51.9301 265.722 52.4395C266.606 50.6688 266.546 49.4957 266.61 47.5233C267.116 42.2831 269.398 38.7097 273.343 35.2884C276.467 33.0319 278.95 31.4355 282.928 32.2129Z" fill="#448D22"/>
<path opacity="0.6" d="M236.545 132.597C240.859 132.56 245.172 132.533 249.486 132.515C250.953 132.507 252.42 132.497 253.887 132.484C255.997 132.466 258.106 132.457 260.216 132.451C260.871 132.443 261.527 132.435 262.202 132.427C262.816 132.427 263.43 132.427 264.062 132.427C264.601 132.424 265.139 132.42 265.693 132.417C267.502 132.631 268.681 133.111 270.21 134.095C270.825 136.053 270.825 136.053 271.157 138.502C271.345 139.813 271.345 139.813 271.537 141.151C271.654 142.067 271.772 142.984 271.893 143.928C272.023 144.85 272.152 145.772 272.285 146.722C272.603 149.004 272.908 151.288 273.203 153.573C274.19 153.82 275.178 154.067 276.195 154.322C275.545 157.138 275.135 158.495 272.773 160.239C271.62 160.786 271.62 160.786 270.444 161.345C269.685 161.722 268.926 162.098 268.144 162.486C265.721 163.312 265.721 163.312 260.485 163.312C260.485 153.423 260.485 143.534 260.485 133.346C252.585 133.346 244.685 133.346 236.545 133.346C236.545 133.099 236.545 132.852 236.545 132.597Z" fill="#FC8D2D"/>
<path opacity="0.6" d="M101.886 76.4111C101.886 76.9056 101.886 77.4 101.886 77.9094C104.108 77.9094 106.33 77.9094 108.619 77.9094C108.619 77.415 108.619 76.9205 108.619 76.4111C112.892 77.1813 114.79 78.5018 117.547 81.8394C118.345 83.1533 118.345 83.1533 118.345 85.4007C108.346 85.7715 108.346 85.7715 98.1458 86.1499C97.8989 90.8469 97.6521 95.544 97.3977 100.383C93.4477 99.889 89.4977 99.3945 85.428 98.8851C86.4172 91.3572 88.2581 83.7394 94.5456 78.8926C96.9852 77.2592 98.8913 76.4111 101.886 76.4111Z" fill="#C0E1FC"/>
<path opacity="0.6" d="M92.9088 134.095C96.8588 134.342 100.809 134.589 104.878 134.844C104.948 143.629 104.751 152.302 104.13 161.063C102.634 158.254 102.634 158.254 102.634 156.569C101.616 157.079 101.616 157.079 100.577 157.599C99.3734 158.201 99.3734 158.201 98.1455 158.816C97.6055 159.125 97.0655 159.434 96.5091 159.753C95.1531 160.314 95.1531 160.314 92.9088 159.565C92.9088 151.16 92.9088 142.755 92.9088 134.095Z" fill="#FCAA97"/>
<path opacity="0.6" d="M22.5869 7.49073C24.0831 8.42714 24.0831 8.42714 24.8312 9.73813C24.9715 11.7514 24.9715 11.7514 24.8312 13.4838C24.0906 12.9894 23.35 12.4949 22.5869 11.9855C22.0931 13.9632 21.5994 15.941 21.0907 17.9786C18.3751 18.2258 15.6594 18.473 12.8615 18.7277C12.6146 19.9638 12.3678 21.1999 12.1134 22.4734C13.7133 24.0754 14.457 24.2912 16.602 24.7208C16.602 26.4513 16.602 28.1818 16.602 29.9647C15.9381 30.3051 15.9381 30.3051 15.2607 30.6524C11.6504 32.5691 8.84084 34.3896 6.12858 37.4561C5.38795 37.2088 4.64733 36.9616 3.88426 36.7069C2.44997 32.3982 2.44715 27.8822 4.39858 23.7376C5.49711 21.7684 6.37741 20.7497 8.09235 19.1959C10.3484 16.6989 10.5141 14.7433 10.8773 11.4646C11.5103 9.2253 12.3864 8.65706 14.3577 7.49073C17.2922 6.51124 19.6011 6.79308 22.5869 7.49073Z" fill="#0F0E0F"/>
<path opacity="0.6" d="M98.1458 85.4013C102.394 85.3828 106.642 85.3692 110.89 85.3601C112.336 85.3564 113.782 85.3512 115.229 85.3448C117.303 85.3357 119.377 85.3314 121.451 85.3281C122.427 85.3223 122.427 85.3223 123.423 85.3164C124.972 85.3163 126.521 85.3548 128.07 85.4013C128.818 86.1504 128.818 86.1504 128.891 87.8623C128.883 88.5489 128.874 89.2355 128.865 89.9429C128.858 90.6314 128.851 91.32 128.844 92.0294C128.836 92.5614 128.827 93.0935 128.818 93.6417C129.806 93.889 130.793 94.1362 131.811 94.3909C131.811 94.8853 131.811 95.3797 131.811 95.8891C129.836 95.8891 127.861 95.8891 125.826 95.8891C125.826 96.6308 125.826 97.3724 125.826 98.1365C127.307 98.3838 128.788 98.631 130.314 98.8857C130.314 99.1329 130.314 99.3801 130.314 99.6348C128.586 99.6348 126.858 99.6348 125.078 99.6348C125.448 100.376 125.448 100.376 125.826 101.133C127.34 101.622 127.34 101.622 128.818 101.882C128.818 103.86 128.818 105.838 128.818 107.875C124.868 107.875 120.918 107.875 116.848 107.875C116.848 100.706 116.848 93.5369 116.848 86.1504C110.677 86.1504 104.505 86.1504 98.1458 86.1504C98.1458 85.9032 98.1458 85.656 98.1458 85.4013Z" fill="#F78C2B"/>
<path opacity="0.6" d="M122.085 153.571C124.984 154.882 124.984 154.882 125.825 156.568C128.344 156.949 130.842 157.197 133.379 157.409C137.446 157.821 137.446 157.821 139.297 159.122C140.039 160.313 140.039 160.313 140.039 162.186C139.02 164.739 138.002 165.057 135.551 166.307C133.209 167.196 130.835 167.952 128.444 168.694C127.814 168.899 127.184 169.103 126.535 169.313C123.494 170.27 120.825 171.1 117.596 170.801C113.44 163.89 113.44 163.89 113.107 159.564C116.44 159.194 116.44 159.194 119.84 158.815C119.933 158.228 120.026 157.641 120.121 157.036C120.588 155.07 120.588 155.07 122.085 153.571Z" fill="#2C2C2C"/>
<path opacity="0.6" d="M280.682 11.2373C281.805 13.4847 281.805 13.4847 282.927 15.7321C282.433 15.7321 281.939 15.7321 281.431 15.7321C281.431 16.2265 281.431 16.721 281.431 17.2304C282.333 17.0218 282.333 17.0218 283.254 16.809C284.203 16.6468 284.203 16.6468 285.171 16.4812C285.418 16.7285 285.665 16.9757 285.919 17.2304C286.927 17.4032 287.942 17.5387 288.958 17.6518C289.93 17.7599 290.903 17.8681 291.904 17.9795C291.904 19.2156 291.904 20.4516 291.904 21.7252C290.423 22.4668 290.423 22.4668 288.912 23.2234C288.973 24.1659 289.035 25.1084 289.099 26.0795C289.204 27.6861 289.204 27.6861 288.912 29.2165C286.741 31.4213 284.594 31.8796 281.618 32.4471C276.236 33.7154 272.232 35.9592 269.134 40.6408C267.712 43.4142 267.575 46.1877 267.494 49.2675C267.161 51.2738 266.519 51.9235 264.972 53.1888C262.488 49.5309 262.488 49.5309 261.98 47.9448C262.727 44.3297 264.268 42.2805 266.796 39.6576C268.564 37.8114 270.072 36.1956 271.352 33.9776C272.571 32.0243 273.54 31.3327 275.539 30.2466C278.09 28.9138 278.09 28.9138 279.186 26.22C278.654 25.6174 278.654 25.6174 278.111 25.0026C276.336 22.3011 276.761 19.6283 276.942 16.4812C277.683 16.4812 278.423 16.4812 279.186 16.4812C279.186 15.9868 279.186 15.4924 279.186 14.983C279.79 12.1305 279.79 12.1305 280.682 11.2373Z" fill="#C0E1FC"/>
<path opacity="0.6" d="M352.501 143.085C355.463 143.085 358.426 143.085 361.478 143.085C361.497 147.125 361.51 151.166 361.519 155.206C361.523 156.582 361.528 157.957 361.535 159.333C361.544 161.306 361.548 163.279 361.551 165.252C361.555 165.871 361.559 166.489 361.563 167.127C361.563 168.602 361.525 170.077 361.478 171.552C361.108 171.923 361.108 171.923 360.73 172.301C358.015 172.301 355.299 172.301 352.501 172.301C352.501 162.66 352.501 153.018 352.501 143.085Z" fill="#F06900"/>
<path opacity="0.6" d="M293.4 113.119C295.13 113.099 296.86 113.084 298.59 113.072C299.554 113.064 300.517 113.055 301.51 113.046C303.874 113.119 303.874 113.119 304.622 113.868C304.573 115.892 304.477 117.89 304.341 119.908C304.309 120.462 304.276 121.016 304.242 121.586C304.068 124.349 303.83 127.086 303.471 129.831C303.064 132.628 303.064 132.628 303.126 135.593C301.237 136.539 299.9 136.416 297.796 136.389C297.115 136.382 296.434 136.375 295.732 136.369C294.948 136.355 294.948 136.355 294.149 136.342C293.574 133.289 293.311 130.417 293.327 127.312C293.33 126.481 293.332 125.651 293.335 124.795C293.341 123.939 293.347 123.084 293.354 122.202C293.357 121.329 293.36 120.456 293.364 119.557C293.373 117.411 293.385 115.265 293.4 113.119Z" fill="#2C6EA3"/>
<path opacity="0.6" d="M244.773 29.9649C249.419 31.2727 252.837 32.9515 255.995 36.7071C256.489 37.2015 256.982 37.6959 257.491 38.2053C257.693 40.2193 257.557 42.1693 257.491 44.1984C252.448 45.8818 248.045 45.1886 243.336 42.8552C240.189 41.0252 236.829 38.8865 235.796 35.2088C235.936 33.2423 235.936 33.2423 236.544 31.4631C239.367 29.5787 241.51 29.5193 244.773 29.9649Z" fill="#458F28"/>
<path opacity="0.6" d="M82.4355 104.878C83.9168 104.878 85.398 104.878 86.9242 104.878C88.9347 106.985 88.9347 106.985 90.6647 109.373C91.0822 109.702 91.4998 110.031 91.93 110.371C92.909 111.62 92.909 111.62 92.8272 113.628C92.669 114.417 92.5109 115.207 92.3479 116.021C91.4343 121.042 90.9808 126.008 90.6647 131.098C87.9491 131.098 85.2335 131.098 82.4355 131.098C82.4355 122.445 82.4355 113.793 82.4355 104.878Z" fill="#F06902"/>
<path opacity="0.6" d="M82.4355 104.878C83.9168 104.878 85.398 104.878 86.9242 104.878C88.9347 106.985 88.9347 106.985 90.6647 109.373C91.0822 109.702 91.4998 110.031 91.93 110.371C92.909 111.62 92.909 111.62 92.8272 113.628C92.669 114.417 92.5109 115.207 92.3479 116.021C91.4343 121.042 90.9808 126.008 90.6647 131.098C87.9491 131.098 85.2335 131.098 82.4355 131.098C82.4355 122.445 82.4355 113.793 82.4355 104.878Z" fill="#F06902"/>
<path opacity="0.6" d="M82.4355 131.098C84.9043 131.098 87.3731 131.098 89.9166 131.098C89.9166 132.087 89.9166 133.075 89.9166 134.094C90.9041 134.094 91.8916 134.094 92.909 134.094C92.9278 137.543 92.9412 140.992 92.9501 144.441C92.9539 145.61 92.9589 146.779 92.9655 147.948C93.0046 155.112 92.857 162.166 92.1609 169.303C90.4328 169.303 88.7047 169.303 86.9242 169.303C86.6773 157.19 86.4304 145.076 86.1761 132.596C84.9417 132.349 83.7073 132.101 82.4355 131.847C82.4355 131.6 82.4355 131.352 82.4355 131.098Z" fill="#FE8B29"/>
<path opacity="0.6" d="M82.4355 131.098C84.9043 131.098 87.3731 131.098 89.9166 131.098C89.9166 132.087 89.9166 133.075 89.9166 134.094C90.9041 134.094 91.8916 134.094 92.909 134.094C92.9278 137.543 92.9412 140.992 92.9501 144.441C92.9539 145.61 92.9589 146.779 92.9655 147.948C93.0046 155.112 92.857 162.166 92.1609 169.303C90.4328 169.303 88.7047 169.303 86.9242 169.303C86.6773 157.19 86.4304 145.076 86.1761 132.596C84.9417 132.349 83.7073 132.101 82.4355 131.847C82.4355 131.6 82.4355 131.352 82.4355 131.098Z" fill="#FE8B29"/>
<path opacity="0.6" d="M101.138 57.6836C102.369 57.7888 103.6 57.899 104.831 58.0113C105.86 58.1026 105.86 58.1026 106.909 58.1957C108.619 58.4327 108.619 58.4327 109.367 59.1819C110.612 63.7674 111.529 68.667 110.863 73.4153C109.741 75.335 109.741 75.335 108.619 76.4118C105.508 76.0658 103.953 75.7682 101.886 73.4153C101.392 73.1836 100.898 72.9518 100.39 72.713C98.4316 71.6715 97.688 70.8974 96.649 68.9205C96.4658 66.8826 96.5465 64.9814 96.649 62.9275C97.3434 62.6726 97.3434 62.6726 98.0517 62.4125C100.101 61.1451 100.427 59.9366 101.138 57.6836Z" fill="#FCAA97"/>
<path opacity="0.6" d="M22.0832 41.1172C23.1872 41.1173 24.2913 41.1216 25.3954 41.1291C25.9755 41.1301 26.5556 41.1312 27.1533 41.1323C29.0133 41.1365 30.8733 41.1459 32.7333 41.1554C33.9913 41.1592 35.2493 41.1626 36.5074 41.1657C39.5977 41.1739 42.688 41.1869 45.7784 41.2022C45.7784 41.4494 45.7784 41.6967 45.7784 41.9514C40.3471 41.9514 34.9159 41.9514 29.32 41.9514C29.3496 46.8484 29.3496 46.8484 29.3874 51.7455C29.3893 52.352 29.3912 52.9585 29.3931 53.5834C29.399 54.519 29.399 54.519 29.405 55.4736C29.32 56.934 29.32 56.934 28.5719 57.6831C27.5675 57.7477 26.5597 57.7633 25.5532 57.7562C24.9481 57.7538 24.3429 57.7514 23.7195 57.7489C23.0835 57.7426 22.4475 57.7364 21.7922 57.7299C21.1533 57.7265 20.5144 57.7231 19.8562 57.7197C18.2728 57.7108 16.6894 57.6974 15.106 57.6831C15.106 56.9414 15.106 56.1998 15.106 55.4357C14.6123 55.9301 14.1185 56.4245 13.6098 56.934C12.8692 56.934 12.1285 56.934 11.3655 56.934C11.7358 55.8215 11.7358 55.8215 12.1136 54.6866C17.1633 55.3421 17.1633 55.3421 18.8465 56.1848C18.8426 55.7576 18.8387 55.3303 18.8347 54.8901C18.8192 52.9651 18.8094 51.04 18.7998 49.1149C18.7935 48.4423 18.7872 47.7697 18.7808 47.0768C18.7784 46.437 18.776 45.7972 18.7735 45.1381C18.7696 44.5457 18.7656 43.9533 18.7616 43.343C18.9134 40.8559 19.533 41.2043 22.0832 41.1172Z" fill="#FC8829"/>
<path opacity="0.6" d="M48.7705 51.691C49.0174 52.1854 49.2643 52.6798 49.5186 53.1893C52.8514 52.8184 52.8514 52.8184 56.2516 52.4401C56.2516 53.1818 56.2516 53.9234 56.2516 54.6875C56.7453 54.6875 57.2391 54.6875 57.7478 54.6875C57.7901 56.8055 57.7729 58.0035 56.9997 59.9314C53.0779 63.805 48.0311 65.4235 42.7857 66.6736C42.0109 65.3692 41.2497 64.0566 40.4946 62.7407C39.8567 61.6456 39.8567 61.6456 39.2059 60.5284C38.2971 58.4332 38.2971 58.4332 38.4461 56.7681C39.296 54.8791 40.4734 53.7761 42.0376 52.4401C44.4288 51.6419 46.27 51.6353 48.7705 51.691Z" fill="#FCAA97"/>
<path opacity="0.6" d="M86.1762 98.8857C87.4856 98.992 88.7947 99.102 90.1037 99.2135C91.1973 99.3047 91.1973 99.3047 92.3129 99.3978C94.4053 99.6349 94.4053 99.6349 97.3977 100.384C97.6446 102.609 97.8915 104.834 98.1458 107.126C100.368 107.373 102.59 107.621 104.879 107.875C105.126 106.886 105.373 105.898 105.627 104.879C107.871 104.879 110.115 104.879 112.36 104.879C113.201 109.935 113.201 109.935 112.36 111.621C110.879 111.621 109.397 111.621 107.871 111.621C108.118 109.89 108.365 108.16 108.619 106.377C108.126 106.377 107.632 106.377 107.123 106.377C107.123 108.108 107.123 109.838 107.123 111.621C105.237 111.682 103.352 111.726 101.466 111.761C100.939 111.78 100.411 111.799 99.8685 111.818C95.9838 111.872 93.3639 111.197 89.9167 109.374C86.5758 105.764 86.0859 103.766 86.1762 98.8857Z" fill="#FCAA97"/>
<path opacity="0.6" d="M294.149 136.342C295.137 136.342 296.124 136.342 297.141 136.342C297.141 147.961 297.141 159.58 297.141 171.551C295.66 171.551 294.179 171.551 292.653 171.551C292.653 167.101 292.653 162.651 292.653 158.067C291.11 158.144 289.567 158.221 287.977 158.301C285.347 158.432 285.347 158.432 282.927 158.067C281.94 156.831 280.952 155.595 279.935 154.321C284.626 153.827 289.316 153.332 294.149 152.823C294.149 147.384 294.149 141.945 294.149 136.342Z" fill="#F88D2D"/>
<path opacity="0.6" d="M22.587 11.2373C23.5845 11.2373 24.582 11.2373 25.5795 11.2373C25.7285 12.0224 25.7285 12.0224 25.8805 12.8234C26.0126 13.5051 26.1447 14.1869 26.2808 14.8893C26.411 15.5672 26.5412 16.2451 26.6753 16.9436C27.0006 18.7283 27.0006 18.7283 27.8238 20.2269C27.2315 22.2924 26.3833 24.2237 25.5795 26.22C23.1107 26.22 20.642 26.22 18.0984 26.22C19.1939 26.529 20.2894 26.838 21.4181 27.1564C23.2855 27.6831 23.2855 27.6831 24.8314 28.4674C25.4187 30.0476 25.4187 30.0476 25.5795 31.4639C23.574 32.777 22.6851 32.972 20.2492 32.7281C18.0984 32.213 18.0984 32.213 16.6022 31.4639C16.6022 29.239 16.6022 27.0141 16.6022 24.7217C16.0159 24.629 15.4296 24.5363 14.8255 24.4408C12.8617 23.9726 12.8617 23.9726 11.3655 22.4743C11.646 20.5078 11.646 20.5078 12.1136 18.7286C14.8223 17.9691 17.5584 17.6057 20.3427 17.2304C21.0834 15.2527 21.824 13.2749 22.587 11.2373Z" fill="#FCAA97"/>
<path opacity="0.6" d="M74.9542 42.7002C74.2996 45.6031 74.2996 45.6031 73.458 46.4458C74.0087 46.4198 74.5593 46.3937 75.1267 46.3668C81.0143 46.2033 81.0143 46.2033 84.025 47.2886C85.8828 49.149 86.0042 50.6106 86.1758 53.188C80.6051 56.6436 76.2264 57.4376 69.7175 56.9337C69.4328 55.1911 69.1843 53.4423 68.9694 51.6897C69.2163 51.4425 69.4632 51.1953 69.7175 50.9406C68.9769 50.6934 68.2363 50.4462 67.4732 50.1915C66.7251 48.8805 66.7251 48.8805 66.7251 47.195C69.4403 44.0352 70.7579 42.7002 74.9542 42.7002Z" fill="#FCAA97"/>
<path opacity="0.6" d="M105.627 135.593C106.121 135.593 106.615 135.593 107.123 135.593C107.276 136.237 107.276 136.237 107.431 136.894C107.905 138.895 108.379 140.896 108.853 142.897C109.024 143.617 109.194 144.338 109.37 145.081C110.266 148.858 111.191 152.625 112.173 156.381C113.076 159.938 113.552 163.4 113.856 167.056C113.28 166.74 112.703 166.425 112.109 166.099C110.983 165.484 110.983 165.484 109.835 164.856C109.089 164.447 108.342 164.039 107.573 163.618C106.434 163 105.289 162.392 104.131 161.812C103.927 141.629 103.927 141.629 105.627 135.593Z" fill="white"/>
<path opacity="0.6" d="M254.5 45.6969C258.449 47.0399 260.287 49.2013 262.73 52.4391C263.223 51.9447 263.717 51.4503 264.226 50.9409C264.719 51.4353 265.213 51.9297 265.722 52.4391C266.463 51.2031 267.203 49.967 267.966 48.6935C269.008 51.8217 267.834 53.2892 266.47 56.1848C265.483 55.9376 264.495 55.6904 263.478 55.4357C263.478 54.9412 263.478 54.4468 263.478 53.9374C262.062 53.4269 262.062 53.4269 260.485 53.1883C259.991 53.6827 259.498 54.1771 258.989 54.6865C256.683 54.9119 256.683 54.9119 253.893 54.9206C252.977 54.9332 252.062 54.9457 251.119 54.9587C248.35 54.6692 246.938 54.1703 244.775 52.4391C244.167 50.0513 244.167 50.0513 244.027 47.9443C247.354 45.0427 250.262 45.2127 254.5 45.6969Z" fill="#458F27"/>
<path opacity="0.6" d="M260.485 52.4395C261.935 53.0481 261.935 53.0481 263.478 53.9377C263.725 54.6794 263.972 55.421 264.226 56.1851C261.51 56.1851 258.795 56.1851 255.997 56.1851C255.997 57.174 255.997 58.1628 255.997 59.1816C256.83 59.2434 257.663 59.3052 258.522 59.3689C261.234 59.9308 261.234 59.9308 262.309 61.4759C262.448 61.9548 262.587 62.4338 262.73 62.9273C259.674 64.0747 256.899 63.3999 253.752 62.9273C257.826 64.0398 257.826 64.0398 261.982 65.1747C261.735 65.9163 261.488 66.658 261.234 67.4221C259.259 67.4221 257.284 67.4221 255.249 67.4221C256.977 67.6693 258.705 67.9165 260.485 68.1712C260.239 69.1601 259.992 70.1489 259.737 71.1678C258.997 71.1678 258.256 71.1678 257.493 71.1678C257.246 71.6622 256.999 72.1566 256.745 72.666C256.745 72.1716 256.745 71.6772 256.745 71.1678C254.77 70.9205 252.795 70.6733 250.76 70.4186C250.914 69.8624 251.069 69.3062 251.228 68.7331C251.541 66.4308 251.224 65.6033 250.012 63.6764C250.506 63.182 250.999 62.6876 251.508 62.1782C251.27 60.5988 251.27 60.5988 250.76 59.1816C251.994 58.9344 253.229 58.6872 254.501 58.4325C254.501 57.4437 254.501 56.4548 254.501 55.436C253.513 55.1888 252.526 54.9416 251.508 54.6868C252.292 54.6318 252.292 54.6318 253.092 54.5757C253.773 54.5196 254.454 54.4636 255.155 54.4059C255.832 54.3538 256.509 54.3016 257.207 54.2479C259.123 54.0908 259.123 54.0908 260.485 52.4395Z" fill="#FF9982"/>
<path opacity="0.6" d="M280.683 11.2373C281.431 12.7356 282.179 14.2338 282.927 15.7321C282.433 15.7321 281.94 15.7321 281.431 15.7321C281.431 16.2265 281.431 16.7209 281.431 17.2304C282.333 17.0218 282.333 17.0218 283.254 16.809C284.203 16.6467 284.203 16.6467 285.171 16.4812C285.418 16.7284 285.665 16.9757 285.919 17.2304C286.927 17.4032 287.942 17.5386 288.959 17.6517C289.931 17.7599 290.903 17.8681 291.904 17.9795C291.998 19.7587 291.998 19.7587 291.904 21.7251C291.411 22.2196 290.917 22.714 290.408 23.2234C289.421 23.2234 288.433 23.2234 287.416 23.2234C287.23 23.6869 287.045 24.1505 286.855 24.628C285.737 26.5311 284.986 26.9905 282.927 27.7182C281.94 27.7182 280.952 27.7182 279.935 27.7182C277.506 25.0833 276.755 23.0765 276.755 19.5714C276.803 18.5405 276.86 17.5099 276.942 16.4812C277.683 16.4812 278.423 16.4812 279.186 16.4812C279.186 15.9868 279.186 15.4924 279.186 14.983C279.791 12.1305 279.791 12.1305 280.683 11.2373Z" fill="#FCAA97"/>
<path opacity="0.6" d="M101.138 57.6836C102.37 57.7888 103.601 57.899 104.832 58.0113C105.86 58.1026 105.86 58.1026 106.91 58.1957C108.619 58.4327 108.619 58.4327 109.367 59.1819C109.398 60.6798 109.399 62.1787 109.367 63.6766C108.627 63.4294 107.886 63.1822 107.123 62.9275C106.876 63.9164 106.629 64.9052 106.375 65.924C105.14 65.924 103.906 65.924 102.634 65.924C102.881 66.9129 103.128 67.9017 103.382 68.9206C101.138 68.9206 98.8937 68.9206 96.6494 68.9206C96.6494 66.9428 96.6494 64.9651 96.6494 62.9275C97.3437 62.6726 97.3437 62.6726 98.0521 62.4125C100.101 61.1451 100.428 59.9366 101.138 57.6836Z" fill="#111011"/>
<path opacity="0.6" d="M55.5036 61.4287C55.5036 61.9231 55.5036 62.4176 55.5036 62.927C55.9973 63.1742 56.4911 63.4214 56.9998 63.6761C56.5061 63.6761 56.0123 63.6761 55.5036 63.6761C55.5123 64.1541 55.521 64.6321 55.5299 65.1246C55.5366 65.7436 55.5434 66.3626 55.5503 67.0004C55.559 67.6175 55.5677 68.2345 55.5766 68.8703C55.5036 70.4183 55.5036 70.4183 54.7555 71.1674C53.6964 71.2322 52.6342 71.2476 51.5731 71.2406C50.9342 71.2382 50.2954 71.2358 49.6371 71.2333C48.9654 71.227 48.2938 71.2207 47.6017 71.2143C46.9272 71.2109 46.2526 71.2075 45.5576 71.204C43.8855 71.1952 42.2135 71.1828 40.5415 71.1674C41.0353 70.5803 41.529 69.9932 42.0377 69.3882C43.685 67.6352 43.685 67.6352 43.5339 65.9235C44.1019 65.7246 44.6699 65.5256 45.2551 65.3207C45.9987 65.0561 46.7422 64.7915 47.5082 64.5189C48.246 64.2581 48.9837 63.9974 49.7438 63.7288C51.8175 62.9053 53.2694 61.4287 55.5036 61.4287Z" fill="#FDA652"/>
<path opacity="0.6" d="M13.6099 151.324C18.3005 151.324 22.9911 151.324 27.8239 151.324C27.577 152.313 27.3301 153.302 27.0758 154.321C26.582 154.321 26.0883 154.321 25.5796 154.321C25.3327 155.804 25.0858 157.287 24.8315 158.816C20.8976 158.311 17.3307 157.136 13.6099 155.819C13.6099 154.336 13.6099 152.852 13.6099 151.324Z" fill="#FCAA97"/>
<path opacity="0.6" d="M34.5567 146.081C36.8616 148.158 38.0637 149.874 39.0453 152.823C38.3047 153.565 37.5641 154.307 36.801 155.071C37.698 157.38 38.6541 159.612 39.7935 161.813C37.571 160.777 35.7017 159.564 33.7619 158.067C32.0555 156.755 30.3645 155.518 28.5719 154.321C28.5719 153.333 28.5719 152.344 28.5719 151.325C30.5469 151.325 32.5219 151.325 34.5567 151.325C34.5567 149.594 34.5567 147.864 34.5567 146.081Z" fill="#2C2C2C"/>
<path opacity="0.6" d="M96.6494 68.9199C97.6369 69.9088 98.6244 70.8976 99.6418 71.9164C101.746 73.3404 103.837 74.3586 106.188 75.2875C106.99 75.6583 107.792 76.0292 108.619 76.4112C108.866 77.1529 109.113 77.8945 109.367 78.6586C103.569 78.7523 103.569 78.7523 101.886 77.9095C101.886 77.4151 101.886 76.9206 101.886 76.4112C100.158 76.9057 98.4299 77.4001 96.6494 77.9095C96.6494 74.9429 96.6494 71.9764 96.6494 68.9199Z" fill="white"/>
<path opacity="0.6" d="M27.0756 20.2266C27.5694 20.2266 28.0631 20.2266 28.5718 20.2266C30.8504 23.1123 31.7504 24.8186 31.5642 28.467C29.897 28.528 28.2292 28.5714 26.5613 28.6075C25.6326 28.6335 24.704 28.6596 23.7471 28.6865C20.9519 28.4555 19.5899 27.8534 17.3503 26.2196C19.1498 25.3186 20.3053 25.395 22.3065 25.4237C23.2236 25.4338 23.2236 25.4338 24.1592 25.4441C24.8622 25.4572 24.8622 25.4572 25.5794 25.4705C26.0732 23.74 26.5669 22.0095 27.0756 20.2266Z" fill="#101011"/>
<path opacity="0.6" d="M350.258 116.116C354.455 116.116 358.652 116.116 362.976 116.116C361.988 117.847 361.001 119.577 359.983 121.36C357.268 121.113 354.552 120.866 351.754 120.611C351.26 119.128 350.767 117.644 350.258 116.116Z" fill="#FE8B29"/>
<path opacity="0.6" d="M287.416 23.2227C287.91 23.2227 288.403 23.2227 288.912 23.2227C289.273 28.7339 289.273 28.7339 287.79 30.714C285.081 31.799 282.843 31.6087 279.935 31.4631C279.441 30.4743 278.947 29.4854 278.439 28.4666C279.935 26.9683 279.935 26.9683 282.086 26.6874C284.816 26.1405 285.592 25.2451 287.416 23.2227Z" fill="#FCAA97"/>
<path opacity="0.6" d="M16.6023 25.4707C17.5975 26.0038 17.5975 26.0038 18.6128 26.5476C20.7696 27.5663 22.4945 28.1231 24.8315 28.4672C25.0784 29.4561 25.3252 30.4449 25.5796 31.4638C23.5741 32.7769 22.6852 32.9718 20.2493 32.7279C18.0985 32.2129 18.0985 32.2129 16.6023 31.4638C16.6023 29.4861 16.6023 27.5083 16.6023 25.4707Z" fill="#FCAA97"/>
<path opacity="0.6" d="M291.905 153.571C291.658 155.055 291.411 156.538 291.157 158.066C288.381 158.282 285.695 158.405 282.927 158.066C280.917 156.193 280.917 156.193 279.935 154.32C281.369 154.194 282.803 154.07 284.237 153.946C285.035 153.876 285.834 153.807 286.656 153.735C288.402 153.608 290.154 153.571 291.905 153.571Z" fill="#FCAA97"/>
<path opacity="0.6" d="M126.573 95.1396C128.301 95.1396 130.03 95.1396 131.81 95.1396C132.879 96.9034 133.371 97.7469 133.026 99.8217C132.871 100.254 132.717 100.687 132.558 101.133C130.583 101.133 128.608 101.133 126.573 101.133C125.975 98.6703 125.753 97.6041 126.573 95.1396Z" fill="#FCAA97"/>
<path opacity="0.6" d="M74.9542 42.7002C74.7672 44.1048 74.7672 44.1048 74.2061 45.6967C73.2087 46.1962 72.2112 46.6956 71.2137 47.195C70.6113 48.7307 70.6113 48.7307 70.4656 50.1915C69.4781 50.1915 68.4906 50.1915 67.4732 50.1915C66.8654 48.9274 66.8654 48.9274 66.7251 47.195C69.4403 44.0352 70.7579 42.7002 74.9542 42.7002Z" fill="#FF9982"/>
<path opacity="0.6" d="M18.8465 41.9512C19.0934 41.9512 19.3403 41.9512 19.5946 41.9512C19.5946 46.8954 19.5946 51.8397 19.5946 56.9338C22.5571 56.9338 25.5196 56.9338 28.5719 56.9338C28.5719 57.181 28.5719 57.4282 28.5719 57.6829C24.1282 57.6829 19.6844 57.6829 15.106 57.6829C15.106 56.9413 15.106 56.1996 15.106 55.4355C14.6123 55.9299 14.1185 56.4244 13.6098 56.9338C12.8692 56.9338 12.1285 56.9338 11.3655 56.9338C11.7358 55.8213 11.7358 55.8213 12.1136 54.6864C17.1633 55.3419 17.1633 55.3419 18.8465 56.1847C18.8465 51.4876 18.8465 46.7906 18.8465 41.9512Z" fill="#E1672D"/>
<path opacity="0.6" d="M344.273 140.837C346.001 140.837 347.729 140.837 349.509 140.837C349.509 143.062 349.509 145.287 349.509 147.579C348.522 147.579 347.534 147.579 346.517 147.579C346.517 146.837 346.517 146.096 346.517 145.332C345.776 145.332 345.036 145.332 344.273 145.332C344.273 143.848 344.273 142.365 344.273 140.837Z" fill="#F1DCD7"/>
<path opacity="0.6" d="M105.626 135.593C106.12 135.593 106.614 135.593 107.122 135.593C108.122 139.22 108.808 142.286 108.619 146.081C107.384 146.081 106.15 146.081 104.878 146.081C104.858 144.895 104.843 143.708 104.831 142.522C104.823 141.862 104.814 141.201 104.805 140.521C104.872 138.753 105.126 137.282 105.626 135.593Z" fill="white"/>
<path opacity="0.6" d="M303.874 118.363C304.862 118.363 305.849 118.363 306.867 118.363C306.968 119.673 307.04 120.984 307.1 122.296C307.165 123.391 307.165 123.391 307.232 124.508C306.867 126.604 306.867 126.604 303.126 129.6C303.373 125.892 303.62 122.184 303.874 118.363Z" fill="#FCAA97"/>
<path opacity="0.6" d="M255.249 44.1989C256.839 43.8712 256.839 43.8712 258.989 44.1989C261.475 46.3068 263.201 48.512 264.133 51.6434C264.163 52.1533 264.194 52.6632 264.226 53.1885C262.103 52.3531 261.208 51.6571 259.784 49.8174C258.115 47.7909 256.972 47.2026 254.501 46.4463C254.748 45.7047 254.994 44.963 255.249 44.1989Z" fill="#818181"/>
<path opacity="0.6" d="M112.36 104.878C113.202 109.935 113.202 109.935 112.36 111.62C110.879 111.62 109.398 111.62 107.872 111.62C108.118 109.89 108.365 108.159 108.62 106.376C108.126 106.129 107.632 105.882 107.123 105.627C108.966 104.705 110.325 104.824 112.36 104.878Z" fill="#FCAA97"/>
<path opacity="0.6" d="M276.195 56.9346C276.936 56.9346 277.677 56.9346 278.44 56.9346C278.46 58.1362 278.474 59.338 278.486 60.5398C278.495 61.209 278.504 61.8782 278.513 62.5677C278.44 64.4259 278.44 64.4259 277.692 66.6733C276.704 66.4261 275.717 66.1788 274.699 65.9241C275.193 62.9576 275.687 59.991 276.195 56.9346Z" fill="#E62206"/>
<path opacity="0.6" d="M260.486 52.4395C261.935 53.0481 261.935 53.0481 263.478 53.9377C263.725 54.6794 263.972 55.421 264.226 56.1851C263.649 56.2305 263.073 56.2759 262.479 56.3227C261.728 56.3854 260.978 56.4482 260.205 56.5129C259.085 56.6041 259.085 56.6041 257.943 56.6972C256.012 56.8216 256.012 56.8216 254.501 57.6834C254.501 56.9417 254.501 56.2001 254.501 55.436C253.513 55.1888 252.526 54.9416 251.508 54.6869C252.292 54.6318 252.292 54.6318 253.092 54.5757C253.773 54.5196 254.454 54.4636 255.155 54.4059C255.832 54.3538 256.509 54.3016 257.207 54.2479C259.124 54.0908 259.124 54.0908 260.486 52.4395Z" fill="#FCAA97"/>
<path opacity="0.6" d="M101.886 73.415C102.72 73.9481 102.72 73.9481 103.57 74.4919C105.492 75.7189 105.492 75.7189 107.31 76.037C107.742 76.1606 108.174 76.2842 108.619 76.4116C108.866 77.1532 109.113 77.8949 109.368 78.659C103.57 78.7526 103.57 78.7526 101.886 77.9098C101.886 76.4266 101.886 74.9433 101.886 73.415Z" fill="#FCAA97"/>
<path opacity="0.6" d="M267.966 48.6934C269.007 51.8217 267.834 53.2891 266.47 56.1847C265.482 55.9375 264.495 55.6903 263.477 55.4356C263.477 54.9411 263.477 54.4467 263.477 53.9373C262.737 53.6901 261.996 53.4429 261.233 53.1882C261.48 52.6937 261.727 52.1993 261.981 51.6899C262.475 51.9371 262.969 52.1843 263.477 52.439C263.724 51.9446 263.971 51.4502 264.225 50.9408C264.719 51.4352 265.213 51.9296 265.722 52.439C266.462 51.203 267.203 49.9669 267.966 48.6934Z" fill="#7F9E3D"/>
<path opacity="0.6" d="M107.872 64.4248C108.612 64.4248 109.353 64.4248 110.116 64.4248C110.116 66.8969 110.116 69.3691 110.116 71.9161C108.881 72.1633 107.647 72.4105 106.375 72.6653C106.128 71.9236 105.882 71.182 105.627 70.4179C106.368 70.4179 107.108 70.4179 107.872 70.4179C107.872 68.4401 107.872 66.4624 107.872 64.4248Z" fill="#FCAA97"/>
<path opacity="0.6" d="M263.476 45.6973C264.972 46.54 264.972 46.54 266.468 47.9447C266.655 50.3325 266.655 50.3325 266.468 52.4395C265.728 52.8103 265.728 52.8103 264.972 53.1886C263.491 50.5929 263.491 50.5929 261.98 47.9447C262.473 47.203 262.967 46.4614 263.476 45.6973Z" fill="#FCAA97"/>
<path opacity="0.6" d="M267.216 41.2021C267.71 41.4494 268.204 41.6966 268.713 41.9513C268.466 42.4457 268.219 42.9401 267.965 43.4495C267.795 44.7258 267.659 46.0065 267.544 47.2888C267.481 47.9706 267.418 48.6524 267.354 49.3548C267.309 49.8782 267.263 50.4016 267.216 50.9409C266.995 50.4812 266.773 50.0215 266.544 49.5479C265.676 47.8587 264.646 46.4391 263.476 44.9478C264.71 43.7117 265.945 42.4757 267.216 41.2021Z" fill="#C0E1FC"/>
<path opacity="0.6" d="M126.574 95.1396C128.302 95.1396 130.03 95.1396 131.811 95.1396C131.811 97.3871 131.811 97.3871 131.062 98.8853C129.334 98.3909 127.606 97.8965 125.826 97.3871C126.073 96.6454 126.319 95.9038 126.574 95.1396Z" fill="#FF9982"/>
<path opacity="0.6" d="M278.44 10.4883C279.851 12.9379 280.445 15.1604 280.684 17.9796C279.944 19.0921 279.944 19.0921 279.188 20.227C279.188 18.9909 279.188 17.7549 279.188 16.4813C278.694 16.4813 278.201 16.4813 277.692 16.4813C277.939 14.5036 278.186 12.5259 278.44 10.4883Z" fill="#52333A"/>
<path opacity="0.6" d="M106.375 62.1777C107.363 62.6722 108.35 63.1666 109.367 63.676C108.627 64.0468 108.627 64.0468 107.871 64.4251C107.327 65.9076 106.825 67.4063 106.375 68.9199C105.881 68.6727 105.388 68.4255 104.879 68.1708C104.879 67.6764 104.879 67.1819 104.879 66.6725C104.138 66.4253 103.398 66.1781 102.635 65.9234C103.869 65.9234 105.103 65.9234 106.375 65.9234C106.375 64.6873 106.375 63.4513 106.375 62.1777Z" fill="#FCAA97"/>
<path opacity="0.6" d="M17.3503 25.4707C19.8191 25.7179 22.2879 25.9651 24.8314 26.2198C24.8314 26.9615 24.8314 27.7031 24.8314 28.4672C19.8752 27.999 19.8752 27.999 17.3503 25.4707Z" fill="#4A2A30"/>
<path opacity="0.6" d="M110.863 104.878C111.604 104.878 112.344 104.878 113.107 104.878C113.949 109.935 113.949 109.935 113.107 111.62C112.614 111.62 112.12 111.62 111.611 111.62C111.364 109.395 111.117 107.17 110.863 104.878Z" fill="#FCAA97"/>
<path opacity="0.6" d="M132.559 93.6411C132.559 94.1356 132.559 94.63 132.559 95.1394C130.584 95.1394 128.609 95.1394 126.574 95.1394C126.327 95.6338 126.08 96.1283 125.826 96.6377C126.073 95.6488 126.319 94.66 126.574 93.6411C128.858 92.9061 130.275 92.9061 132.559 93.6411Z" fill="#FCAA97"/>
<path opacity="0.6" d="M12.1136 54.6865C14.6385 54.9206 14.6385 54.9206 17.3503 55.4357C17.8441 56.1773 18.3379 56.9189 18.8466 57.6831C17.6122 57.6831 16.3778 57.6831 15.106 57.6831C15.106 56.9414 15.106 56.1998 15.106 55.4357C14.6123 55.9301 14.1185 56.4245 13.6098 56.9339C12.8692 56.9339 12.1285 56.9339 11.3655 56.9339C11.6124 56.1923 11.8592 55.4506 12.1136 54.6865Z" fill="#81C3F8"/>
<path opacity="0.6" d="M289.661 17.9795C290.401 17.9795 291.142 17.9795 291.905 17.9795C291.905 19.2156 291.905 20.4516 291.905 21.7252C289.683 21.3543 289.683 21.3543 287.417 20.976C287.663 20.4816 287.91 19.9872 288.165 19.4778C288.658 19.4778 289.152 19.4778 289.661 19.4778C289.661 18.9833 289.661 18.4889 289.661 17.9795Z" fill="#8A3F4E"/>
<path opacity="0.6" d="M11.3655 18.7285C12.9879 19.1076 14.3577 19.4775 15.8541 20.2268C15.6072 20.7212 15.3604 21.2156 15.106 21.725C13.8716 21.725 12.6373 21.725 11.3655 21.725C11.3655 20.7362 11.3655 19.7473 11.3655 18.7285Z" fill="#FCAA97"/>
</g>
</svg>
