<svg width="284" height="157" viewBox="0 0 284 157" fill="none" xmlns="http://www.w3.org/2000/svg">
<g opacity="0.6">
<path d="M219.529 0C220.23 0.219279 220.932 0.438559 221.654 0.664483C222.004 2.96692 222.004 2.96692 222.362 5.31586C225.375 5.23747 228.387 5.15492 231.4 5.06847C232.425 5.03963 233.451 5.01194 234.477 4.98541C235.948 4.94715 237.419 4.9048 238.89 4.86163C239.777 4.83727 240.663 4.81291 241.576 4.78781C243.533 4.86532 243.533 4.86532 244.315 3.9869C252.275 3.27833 252.275 3.27833 255.38 5.2328C256.438 6.12087 257.474 7.03204 258.478 7.9738C258.478 8.63163 258.478 9.28947 258.478 9.96725C258.945 9.96725 259.413 9.96725 259.894 9.96725C259.933 11.1576 259.96 12.3482 259.983 13.5388C259.999 14.2018 260.016 14.8648 260.033 15.5479C259.894 17.2766 259.894 17.2766 258.478 18.6055C257.543 18.6055 256.609 18.6055 255.645 18.6055C254.884 20.3679 254.162 22.1164 253.521 23.9214C260.999 23.9214 268.477 23.9214 276.182 23.9214C276.182 24.1407 276.182 24.3599 276.182 24.5859C269.171 24.9148 269.171 24.9148 262.019 25.2504C263.706 26.011 263.706 26.011 265.427 26.787C274.649 31.5646 279.985 38.6135 283.264 47.8428C283.931 56.19 283.931 56.19 281.139 59.8035C278.565 62.0136 276.289 63.0419 272.951 63.9565C271.767 64.2906 271.767 64.2906 270.558 64.6314C268.392 65.1193 268.392 65.1193 265.56 65.1193C265.396 69.5413 265.596 73.8387 266.207 78.2247C267.046 84.5849 267.56 90.9551 268.038 97.3468C268.129 98.5342 268.219 99.7216 268.31 100.909C268.894 108.607 269.437 116.307 269.941 124.009C269.972 124.466 270.002 124.924 270.033 125.395C270.118 126.686 270.2 127.977 270.282 129.268C270.35 130.349 270.35 130.349 270.42 131.452C270.523 133.704 270.517 135.959 270.517 138.212C262.805 138.212 255.093 138.212 247.148 138.212C246.675 135.108 246.315 132.235 246.164 129.129C246.121 128.278 246.079 127.427 246.035 126.55C245.992 125.635 245.949 124.719 245.905 123.804C245.859 122.857 245.812 121.91 245.766 120.964C245.644 118.485 245.524 116.007 245.406 113.528C245.284 110.993 245.16 108.459 245.035 105.924C244.793 100.961 244.553 95.9976 244.315 91.0342C244.139 91.7514 244.139 91.7514 243.959 92.483C243.794 93.1518 243.63 93.8207 243.46 94.5097C243.278 95.2502 243.096 95.9907 242.908 96.7537C242.715 97.5387 242.522 98.3237 242.323 99.1326C242.138 99.8842 241.953 100.636 241.763 101.41C241.578 102.162 241.393 102.914 241.203 103.688C241.016 104.447 240.83 105.206 240.638 105.988C240.249 107.567 239.859 109.147 239.468 110.726C239.184 111.876 239.184 111.876 238.893 113.05C238.722 113.74 238.551 114.431 238.375 115.142C236.55 122.751 236.199 130.449 235.817 138.212C228.105 138.212 220.393 138.212 212.448 138.212C212.187 122.778 214.284 108.366 219.131 93.6116C219.671 91.9203 220.13 90.2123 220.592 88.5008C222.495 81.9107 225.764 75.8784 229.123 69.8564C230.04 68.0035 230.556 66.4651 230.86 64.4549C230.181 64.3315 230.181 64.3315 229.488 64.2057C229.006 64.0686 228.524 63.9316 228.027 63.7904C226.982 61.8283 227.161 60.0131 227.095 57.8256C227.08 57.3703 227.066 56.9149 227.05 56.4458C227.004 54.9902 226.962 53.5346 226.921 52.0789C226.89 51.0925 226.859 50.1062 226.828 49.1198C226.752 46.7008 226.68 44.2816 226.611 41.8624C226.13 41.7752 225.649 41.6879 225.154 41.598C224.52 41.4814 223.886 41.3648 223.233 41.2447C222.606 41.13 221.979 41.0153 221.333 40.8972C215.875 39.7967 212.712 37.4812 209.615 33.2242C208.267 30.0333 208.199 28.1087 208.199 24.5859C204.927 24.5859 201.655 24.5859 198.285 24.5859C195.461 20.0601 195.575 15.0897 196.16 9.96725C196.861 8.43229 197.562 6.89733 198.285 5.31586C202.257 5.31586 206.23 5.31586 210.323 5.31586C210.557 4.00019 210.791 2.68451 211.031 1.32897C211.733 1.32897 212.434 1.32897 213.156 1.32897C213.39 1.76752 213.623 2.20608 213.864 2.65793C214.331 2.00009 214.799 1.34226 215.28 0.664483C217.095 0.581423 217.095 0.581423 218.821 0.664483C219.055 0.445204 219.289 0.225924 219.529 0Z" fill="#FCA851"/>
<path d="M64.7346 3.8623C59.9742 4.10903 56.8102 4.41639 53.3792 7.65972C51.4051 9.98745 51.5313 12.434 51.8411 15.2831C52.6821 17.5673 52.6821 17.5673 53.9656 19.27C55.8688 19.8514 55.8688 19.8514 57.5064 19.9345C57.5064 21.2502 57.5064 22.5658 57.5064 23.9214C57.0774 23.9959 56.6483 24.0704 56.2063 24.1472C49.5728 25.6123 44.9029 29.4213 41.1745 34.7192C37.4967 40.4668 38.1299 49.9803 39.7112 56.2812C41.9013 61.5435 45.4062 65.9379 50.4248 69.1062C50.8922 69.1062 51.3596 69.1062 51.8411 69.1062C52.4674 89.178 49.9933 107.076 43.9125 126.352C43.0054 129.286 42.4134 131.798 42.6351 134.89C44.2709 135.109 45.9068 135.329 47.5922 135.555C47.5922 135.993 47.5922 136.432 47.5922 136.884C47.1248 136.884 46.6574 136.884 46.1759 136.884C46.1034 142.906 46.1263 148.832 46.884 154.825C54.004 156.725 61.9406 156.246 69.2712 156.218C70.2266 156.217 71.1819 156.216 72.1373 156.216C74.6181 156.213 77.0988 156.207 79.5796 156.199C82.1246 156.192 84.6695 156.189 87.2145 156.186C92.1831 156.179 97.1517 156.168 102.12 156.154C102.048 154.975 101.964 153.798 101.874 152.621C101.828 151.965 101.783 151.309 101.736 150.634C101.412 148.844 101.412 148.844 99.6861 146.892C96.1475 144.676 91.9648 143.453 87.9572 142.199C85.7 142.822 85.7 142.822 83.7083 143.528C83.4746 143.309 83.2409 143.09 83.0001 142.864C84.4023 142.645 85.8044 142.425 87.249 142.199C87.249 141.761 87.249 141.322 87.249 140.87C83.0886 140.206 83.0886 140.206 82.2919 140.206C82.7593 139.767 83.2267 139.329 83.7083 138.877C83.0072 137.561 83.0072 137.561 82.2919 136.219C82.7221 136.062 83.1522 135.904 83.5954 135.742C85.5087 134.676 85.9754 133.757 86.9309 131.884C87.2483 131.267 87.5657 130.65 87.8927 130.014C88.2207 129.348 88.5487 128.682 88.8867 127.996C89.227 127.311 89.5673 126.626 89.918 125.921C97.5742 110.241 99.8844 98.8943 93.5644 82.3881C92.908 80.8251 92.2111 79.2854 91.498 77.7445C90.9634 76.4999 90.4322 75.254 89.9046 74.0068C89.4957 73.0475 89.0867 72.0881 88.6654 71.0997C91.4697 71.0997 94.274 71.0997 97.1633 71.0997C97.1633 66.9334 97.1633 62.7671 97.1633 58.4745C98.5654 58.4745 99.9676 58.4745 101.412 58.4745C102.113 58.036 102.814 57.5974 103.537 57.1455C103.274 56.7618 103.011 56.3781 102.74 55.9827C101.914 54.4876 101.914 54.4876 102.74 52.9925C103.003 52.6088 103.266 52.225 103.537 51.8297C102.485 51.5008 102.485 51.5008 101.412 51.1652C101.763 49.5206 101.763 49.5206 102.12 47.8428C101.463 47.6783 100.806 47.5139 100.129 47.3444C97.6136 46.4189 97.0344 46.0289 95.7469 43.8559C95.5177 42.1226 95.4012 40.5344 95.3846 38.7996C95.3728 38.3712 95.361 37.9428 95.3489 37.5014C95.3081 35.9098 95.2851 34.3177 95.2601 32.7258C95.1871 29.1625 95.114 25.5992 95.0388 21.9279C85.6911 21.7087 76.3434 21.4894 66.7125 21.2635C67.063 20.6056 67.063 20.6056 67.4206 19.9345C67.6262 16.8307 67.514 13.8243 66.978 10.7563C66.6909 8.46598 67.0171 7.34071 68.1288 5.31586C66.7125 3.9869 66.7125 3.9869 64.7346 3.8623Z" fill="#2C6EA3"/>
<path d="M236.522 64.4551C237.658 64.6611 238.794 64.8692 239.93 65.078C240.562 65.1937 241.195 65.3093 241.847 65.4284C243.603 65.784 243.603 65.784 245.728 66.4485C248.045 66.5291 250.178 66.5437 252.455 66.1163C254.717 65.6919 256.883 65.7417 259.183 65.784C259.183 66.6612 259.183 67.5383 259.183 68.442C261.052 68.442 262.922 68.442 264.848 68.442C267.686 86.8555 268.719 105.453 269.938 124.01C269.983 124.696 269.983 124.696 270.03 125.397C270.114 126.687 270.196 127.978 270.278 129.268C270.324 129.989 270.37 130.71 270.417 131.453C270.52 133.704 270.513 135.959 270.513 138.213C262.801 138.213 255.09 138.213 247.144 138.213C246.672 135.108 246.311 132.235 246.161 129.13C246.118 128.279 246.076 127.427 246.032 126.551C245.989 125.635 245.945 124.72 245.902 123.804C245.856 122.858 245.809 121.911 245.762 120.964C245.64 118.486 245.521 116.007 245.403 113.528C245.281 110.994 245.156 108.459 245.032 105.924C244.789 100.961 244.55 95.9979 244.312 91.0345C244.135 91.7517 244.135 91.7517 243.955 92.4833C243.791 93.1521 243.626 93.821 243.457 94.51C243.275 95.2505 243.093 95.991 242.905 96.754C242.615 97.9315 242.615 97.9315 242.32 99.1329C242.135 99.8845 241.95 100.636 241.76 101.411C241.575 102.162 241.39 102.914 241.2 103.688C241.013 104.447 240.827 105.206 240.634 105.988C240.246 107.568 239.856 109.147 239.465 110.726C239.275 111.493 239.086 112.26 238.89 113.05C238.719 113.741 238.548 114.431 238.372 115.142C236.546 122.751 236.196 130.45 235.814 138.213C228.102 138.213 220.39 138.213 212.445 138.213C212.184 122.779 214.281 108.366 219.128 93.612C219.667 91.9206 220.127 90.2126 220.588 88.5011C222.667 81.3058 226.236 74.2594 230.149 67.7775C232.415 66.7141 234.201 67.7564 236.522 68.442C236.522 67.1263 236.522 65.8106 236.522 64.4551Z" fill="#2C6EA3"/>
<path d="M20.2845 96.1377C16.4416 96.1377 12.5986 96.1377 8.63925 96.1377C8.63925 96.3477 8.63925 96.5577 8.63925 96.774C6.76971 96.774 4.90018 96.774 2.97399 96.774C3.38944 97.5089 3.80489 98.2439 4.23293 99.0011C4.4307 100.102 4.4307 100.102 4.42472 101.237C4.43487 101.646 4.44501 102.055 4.45546 102.477C4.4601 102.902 4.46461 103.328 4.46898 103.753C4.47786 104.188 4.48728 104.622 4.49726 105.057C4.51943 106.114 4.53606 107.17 4.54767 108.228C4.23608 108.228 3.92449 108.228 3.60346 108.228C3.5957 109.943 3.58998 111.659 3.58617 113.375C3.58458 113.96 3.58243 114.544 3.57972 115.128C3.57591 115.966 3.57412 116.804 3.57272 117.642C3.5711 117.904 3.56948 118.167 3.5678 118.438C3.56774 119.065 3.58393 119.691 3.60346 120.317C4.19535 120.916 5.21289 120.676 6.00025 120.677C6.21775 120.677 6.43525 120.678 6.65933 120.678C7.3816 120.68 8.10385 120.679 8.82612 120.678C9.32593 120.678 9.82573 120.678 10.3255 120.679C11.3744 120.679 12.4232 120.678 13.472 120.677C14.8194 120.675 16.1668 120.676 17.5142 120.678C18.5466 120.679 19.5791 120.679 20.6116 120.678C21.1085 120.678 21.6054 120.678 22.1024 120.679C22.7958 120.68 23.4891 120.678 24.1824 120.677C24.7754 120.676 24.7754 120.676 25.3804 120.676C26.2645 120.636 26.2645 120.636 26.5792 120.317C26.6071 119.446 26.6155 118.583 26.61 117.711C26.6095 117.45 26.6091 117.19 26.6086 116.921C26.6069 116.084 26.6029 115.248 26.5989 114.412C26.5973 113.846 26.5959 113.28 26.5946 112.715C26.5911 111.325 26.5857 109.935 26.5792 108.546C25.9561 108.388 25.9561 108.388 25.3203 108.228C26.0033 105.905 26.0033 105.905 27.6021 104.211C27.8877 104.066 28.1734 103.922 28.4677 103.773C28.3404 102.873 28.2134 102.554 27.5222 101.943C26.7154 101.025 26.7199 100.471 26.6776 99.2596C26.6011 97.4324 26.6011 97.4324 26.2645 97.0922C25.616 97.0603 24.9663 97.0509 24.3171 97.0524C23.9621 97.0516 23.6071 97.0507 23.2413 97.0499C22.2283 97.09 21.2791 97.2181 20.2845 97.4103C20.2458 100.926 20.3378 104.403 20.5992 107.909C19.8722 107.909 19.1452 107.909 18.3961 107.909C18.4033 106.471 18.4277 105.033 18.4551 103.594C18.4569 103.188 18.4587 102.782 18.4606 102.363C18.5165 99.9483 18.6732 98.5847 20.2845 96.774C20.2845 96.564 20.2845 96.354 20.2845 96.1377Z" fill="#FE8E2D"/>
<path d="M64.7348 3.8623C59.9744 4.10903 56.8104 4.41639 53.3794 7.65972C51.4053 9.98745 51.5315 12.434 51.8413 15.2831C52.6823 17.5673 52.6823 17.5673 53.9658 19.27C55.869 19.8514 55.869 19.8514 57.5066 19.9345C57.5066 21.908 57.5066 23.8815 57.5066 25.9148C59.8938 26.9104 61.1921 27.2438 63.88 27.2438C63.88 33.3836 63.88 39.5234 63.88 45.8493C63.1789 45.8493 62.4778 45.8493 61.7555 45.8493C61.405 51.4409 61.405 51.4409 61.0474 57.1455C60.3463 56.7069 59.6452 56.2684 58.9229 55.8165C60.8751 59.611 62.616 60.9882 66.7569 62.5029C70.1193 63.5053 70.1193 63.5053 72.3778 65.7838C69.8072 65.5645 67.2366 65.3452 64.5881 65.1193C64.5881 65.5578 64.5881 65.9964 64.5881 66.4483C67.1832 67.5433 69.4121 68.0004 72.2451 68.1925C73.2816 68.267 73.2816 68.267 74.3391 68.3431C74.8603 68.3756 75.3816 68.4082 75.9186 68.4417C76.2692 69.4285 76.2692 69.4285 76.6268 70.4352C77.0942 70.4352 77.5615 70.4352 78.0431 70.4352C78.0431 70.8737 78.0431 71.3123 78.0431 71.7641C84.4787 71.8384 90.7507 71.6939 97.1633 71.0996C97.1633 66.9333 97.1633 62.767 97.1633 58.4745C98.5654 58.4745 99.9676 58.4745 101.412 58.4745C102.113 58.0359 102.814 57.5973 103.537 57.1455C103.274 56.7618 103.011 56.378 102.74 55.9827C101.914 54.4876 101.914 54.4876 102.74 52.9925C103.003 52.6087 103.266 52.225 103.537 51.8296C102.485 51.5007 102.485 51.5007 101.412 51.1652C101.763 49.5206 101.763 49.5206 102.12 47.8427C101.463 47.6783 100.806 47.5138 100.129 47.3444C97.6136 46.4189 97.0344 46.0289 95.747 43.8558C95.5177 42.1226 95.4013 40.5344 95.3846 38.7995C95.3728 38.3712 95.361 37.9428 95.3489 37.5014C95.3081 35.9097 95.2852 34.3177 95.2601 32.7258C95.1871 29.1625 95.1141 25.5992 95.0388 21.9279C85.6912 21.7086 76.3435 21.4894 66.7126 21.2634C67.0631 20.6056 67.0631 20.6056 67.4208 19.9345C67.6264 16.8307 67.5142 13.8242 66.9782 10.7563C66.691 8.46598 67.0173 7.34071 68.1289 5.31586C66.7126 3.9869 66.7126 3.9869 64.7348 3.8623Z" fill="#DD5D02"/>
<path opacity="0.6" d="M64.7348 3.8623C59.9744 4.10903 56.8104 4.41639 53.3794 7.65972C51.4053 9.98745 51.5315 12.434 51.8413 15.2831C52.6823 17.5673 52.6823 17.5673 53.9658 19.27C55.869 19.8514 55.869 19.8514 57.5066 19.9345C57.5066 21.908 57.5066 23.8815 57.5066 25.9148C59.8938 26.9104 61.1921 27.2438 63.88 27.2438C63.88 33.3836 63.88 39.5234 63.88 45.8493C63.1789 45.8493 62.4778 45.8493 61.7555 45.8493C61.405 51.4409 61.405 51.4409 61.0474 57.1455C60.3463 56.7069 59.6452 56.2684 58.9229 55.8165C60.8751 59.611 62.616 60.9882 66.7569 62.5029C70.1193 63.5053 70.1193 63.5053 72.3778 65.7838C69.8072 65.5645 67.2366 65.3452 64.5881 65.1193C64.5881 65.5578 64.5881 65.9964 64.5881 66.4483C67.1832 67.5433 69.4121 68.0004 72.2451 68.1925C73.2816 68.267 73.2816 68.267 74.3391 68.3431C74.8603 68.3756 75.3816 68.4082 75.9186 68.4417C76.2692 69.4285 76.2692 69.4285 76.6268 70.4352C77.0942 70.4352 77.5615 70.4352 78.0431 70.4352C78.0431 70.8737 78.0431 71.3123 78.0431 71.7641C84.4787 71.8384 90.7507 71.6939 97.1633 71.0996C97.1633 66.9333 97.1633 62.767 97.1633 58.4745C98.5654 58.4745 99.9676 58.4745 101.412 58.4745C102.113 58.0359 102.814 57.5973 103.537 57.1455C103.274 56.7618 103.011 56.378 102.74 55.9827C101.914 54.4876 101.914 54.4876 102.74 52.9925C103.003 52.6087 103.266 52.225 103.537 51.8296C102.485 51.5007 102.485 51.5007 101.412 51.1652C101.763 49.5206 101.763 49.5206 102.12 47.8427C101.463 47.6783 100.806 47.5138 100.129 47.3444C97.6136 46.4189 97.0344 46.0289 95.747 43.8558C95.5177 42.1226 95.4013 40.5344 95.3846 38.7995C95.3728 38.3712 95.361 37.9428 95.3489 37.5014C95.3081 35.9097 95.2852 34.3177 95.2601 32.7258C95.1871 29.1625 95.1141 25.5992 95.0388 21.9279C85.6912 21.7086 76.3435 21.4894 66.7126 21.2634C67.0631 20.6056 67.0631 20.6056 67.4208 19.9345C67.6264 16.8307 67.5142 13.8242 66.9782 10.7563C66.691 8.46598 67.0173 7.34071 68.1289 5.31586C66.7126 3.9869 66.7126 3.9869 64.7348 3.8623Z" fill="#DD5D02"/>
<path opacity="0.6" d="M89.3697 72.4287C85.8123 72.846 82.7535 73.8404 79.4555 75.0867C78.4929 75.4477 78.4929 75.4477 77.5108 75.816C76.7207 76.1128 76.7207 76.1128 75.9147 76.4156C75.979 77.1685 75.979 77.1685 76.0447 77.9367C76.6498 85.3964 76.9925 92.8632 77.331 100.337C80.1353 100.118 82.9396 99.8986 85.8289 99.6726C83.9932 101.807 83.9932 101.807 81.9478 101.861C80.9989 101.826 80.9989 101.826 80.0308 101.791C79.3928 101.773 78.7547 101.755 78.0972 101.736C77.6107 101.713 77.1241 101.69 76.6228 101.666C76.4772 102.14 76.3315 102.614 76.1814 103.102C73.2136 112.722 70.1288 122.258 66.446 131.66C65.9829 132.946 65.6245 134.234 65.2923 135.555C66.2271 135.555 67.1619 135.555 68.125 135.555C68.125 135.993 68.125 136.432 68.125 136.884C70.1614 136.808 72.1969 136.723 74.2328 136.635C74.8052 136.614 75.3775 136.594 75.9672 136.572C82.6077 136.268 82.6077 136.268 85.1207 134.89C86.7138 132.723 87.8319 130.397 88.9713 127.996C89.4722 126.969 89.4722 126.969 89.9832 125.921C97.515 110.201 99.9125 98.8489 93.5356 82.3415C92.883 80.7964 92.194 79.2712 91.4941 77.7446C90.7696 75.978 90.0703 74.2038 89.3697 72.4287Z" fill="#2C6EA3"/>
<path opacity="0.6" d="M248.345 3.77954C253.176 3.80649 255.1 4.80252 258.48 7.97408C258.48 8.63192 258.48 9.28976 258.48 9.96753C258.947 9.96753 259.415 9.96753 259.896 9.96753C259.935 11.1578 259.962 12.3485 259.985 13.5391C260.001 14.2021 260.018 14.8651 260.035 15.5481C259.896 17.2768 259.896 17.2768 258.48 18.6058C257.545 18.6058 256.611 18.6058 255.647 18.6058C254.886 20.3682 254.164 22.1167 253.523 23.9217C261.001 23.9217 268.479 23.9217 276.184 23.9217C276.184 24.1409 276.184 24.3602 276.184 24.5861C269.173 24.9151 269.173 24.9151 262.021 25.2506C263.145 25.7577 264.27 26.2648 265.429 26.7872C274.651 31.5649 279.987 38.6138 283.266 47.843C283.933 56.1902 283.933 56.1902 281.141 59.8037C278.567 62.0138 276.291 63.0422 272.953 63.9567C272.163 64.1794 271.374 64.4022 270.56 64.6316C268.394 65.1196 268.394 65.1196 265.562 65.1196C265.562 66.216 265.562 67.3124 265.562 68.442C263.458 68.442 261.355 68.442 259.188 68.442C259.188 67.5649 259.188 66.6878 259.188 65.7841C257.786 65.7841 256.384 65.7841 254.939 65.7841C254.7 63.9847 254.465 62.1851 254.231 60.3851C254.164 59.8798 254.096 59.3744 254.026 58.8537C253.666 56.05 253.446 53.3316 253.523 50.501C259.089 49.2725 264.502 48.288 270.217 47.9832C272.034 47.898 272.034 47.898 274.06 47.1786C274.41 46.1918 274.41 46.1918 274.768 45.1851C272.664 45.8429 270.561 46.5008 268.394 47.1786C268.33 46.4706 268.33 46.4706 268.264 45.7484C268.205 45.1376 268.146 44.5269 268.084 43.8977C268.027 43.2887 267.969 42.6796 267.91 42.0522C267.856 40.5592 267.856 40.5592 266.978 39.8692C265.071 39.7119 263.179 39.5888 261.268 39.4955C260.731 39.4668 260.194 39.4381 259.64 39.4085C258.31 39.3378 256.979 39.2709 255.647 39.2048C255.291 37.4747 254.937 35.7443 254.585 34.0135C254.484 33.5231 254.383 33.0327 254.278 32.5275C253.87 30.5147 253.523 28.6334 253.523 26.5796C252.822 26.9085 252.822 26.9085 252.107 27.2441C248.317 27.5467 248.317 27.5467 246.679 26.468C245.071 24.3981 245.435 22.0853 245.382 19.5999C245.205 18.7789 245.205 18.7789 245.025 17.9413C243.652 17.0107 243.652 17.0107 242.192 16.6124C242.192 15.2967 242.192 13.981 242.192 12.6255C242.66 12.6255 243.127 12.6255 243.609 12.6255C243.601 12.0576 243.592 11.4897 243.584 10.9046C243.577 10.1705 243.571 9.43641 243.564 8.68009C243.556 7.94774 243.548 7.21538 243.54 6.46083C243.662 3.25458 245.292 3.84647 248.345 3.77954Z" fill="#0D2131"/>
<path d="M11.4336 121.158C10.9432 121.184 10.4527 121.21 9.94743 121.237C6.52008 121.449 6.52008 121.449 5.72407 122.196C5.65807 123.216 5.64089 124.239 5.64367 125.26C5.64373 125.912 5.64378 126.564 5.64384 127.235C5.64749 127.944 5.65115 128.653 5.65491 129.383C5.65591 130.105 5.65692 130.827 5.65795 131.57C5.66193 133.886 5.67082 136.202 5.67981 138.517C5.68336 140.083 5.68659 141.649 5.68949 143.214C5.69732 147.061 5.70918 150.908 5.72407 154.756C4.08822 154.756 2.45238 154.756 0.76696 154.756C0.76696 154.975 0.76696 155.194 0.76696 155.42C4.74632 155.437 8.72565 155.449 12.705 155.457C14.0552 155.46 15.4054 155.464 16.7555 155.47C18.7104 155.478 20.6653 155.482 22.6203 155.485C23.2115 155.488 23.8028 155.492 24.4119 155.495C29.0681 155.496 33.6654 155.168 38.2994 154.756C38.3173 150.131 38.3297 145.506 38.3383 140.881C38.3418 139.306 38.3467 137.732 38.3528 136.157C38.3613 133.899 38.3654 131.641 38.3685 129.383C38.3722 128.675 38.3758 127.966 38.3796 127.235C38.3796 126.584 38.3797 125.932 38.3798 125.26C38.3813 124.683 38.3829 124.106 38.3845 123.512C38.2994 122.196 38.2994 122.196 37.5912 121.531C28.9808 120.348 20.0981 120.683 11.4336 121.158Z" fill="#FEA750"/>
<path d="M57.504 23.9219C50.7593 25.0934 46.3161 28.3035 42.1348 33.3518C37.9437 39.3073 38.4157 46.9249 39.0919 53.8237C40.5968 59.8201 44.0061 64.8059 49.4321 68.2995C53.3009 70.5122 55.7614 71.858 60.3366 71.7647C60.3366 71.3262 60.3366 70.8876 60.3366 70.4358C60.8843 70.6276 61.432 70.8195 61.9963 71.0172C66.3521 72.474 69.8752 73.4275 74.4997 73.0937C74.4997 72.6551 74.4997 72.2166 74.4997 71.7647C72.8639 71.7647 71.228 71.7647 69.5426 71.7647C69.5426 71.3262 69.5426 70.8876 69.5426 70.4358C71.6458 70.4358 73.7491 70.4358 75.916 70.4358C75.916 69.5586 75.916 68.6815 75.916 67.7778C75.3948 67.7376 74.8735 67.6973 74.3365 67.6558C73.6455 67.6001 72.9544 67.5445 72.2425 67.4871C71.5606 67.4331 70.8787 67.3792 70.1761 67.3236C68.2775 67.1288 66.4506 66.8296 64.5855 66.4488C64.5855 66.0103 64.5855 65.5717 64.5855 65.1199C65.1332 65.2843 65.1332 65.2843 65.692 65.4521C67.9377 65.8844 70.0894 65.8256 72.3752 65.7844C71.6671 63.7909 71.6671 63.7909 69.9686 62.8695C69.273 62.5842 68.5774 62.299 67.8607 62.0051C67.1688 61.7147 66.4769 61.4244 65.7639 61.1252C63.8774 60.4685 63.8774 60.4685 61.7529 60.4685C61.2855 59.5914 60.8181 58.7143 60.3366 57.8106C60.5703 57.8106 60.804 57.8106 61.0447 57.8106C61.2784 57.8106 61.5121 57.8106 61.7529 57.8106C61.7529 53.8635 61.7529 49.9165 61.7529 45.8498C62.454 45.8498 63.1551 45.8498 63.8774 45.8498C63.8774 39.71 63.8774 33.5702 63.8774 27.2443C61.7741 26.8057 59.6709 26.3672 57.504 25.9153C57.504 25.2575 57.504 24.5996 57.504 23.9219Z" fill="#C0E1FC"/>
<path opacity="0.6" d="M68.1277 135.555C63.261 135.477 58.4234 135.572 53.5662 135.845C52.8329 135.884 52.8329 135.884 52.0848 135.924C49.9687 136.052 48.1974 136.251 46.1747 136.884C46.1023 142.906 46.1252 148.832 46.8829 154.825C54.0029 156.725 61.9395 156.247 69.2701 156.218C70.2255 156.217 71.1808 156.216 72.1362 156.216C74.617 156.213 77.0977 156.207 79.5785 156.199C82.1235 156.192 84.6684 156.189 87.2134 156.186C92.182 156.179 97.1506 156.168 102.119 156.154C102.047 154.975 101.962 153.798 101.873 152.621C101.827 151.965 101.782 151.309 101.735 150.634C101.411 148.844 101.411 148.844 99.685 146.892C96.1464 144.676 91.9637 143.453 87.9561 142.199C85.6988 142.822 85.6988 142.822 83.7071 143.528C83.4735 143.309 83.2398 143.09 82.999 142.864C85.1022 142.535 85.1022 142.535 87.2479 142.199C87.2479 141.761 87.2479 141.322 87.2479 140.87C83.0875 140.206 83.0875 140.206 82.2908 140.206C82.7582 139.767 83.2256 139.329 83.7071 138.877C83.2398 138 82.7724 137.123 82.2908 136.219C80.4614 136.201 78.6321 136.188 76.8026 136.178C76.2859 136.172 75.7692 136.166 75.2369 136.161C72.7401 136.15 70.5281 136.25 68.1277 136.884C68.1277 136.445 68.1277 136.006 68.1277 135.555Z" fill="#2C2C2C"/>
<path opacity="0.6" d="M222.357 5.31641C229.368 5.31641 236.379 5.31641 243.602 5.31641C243.602 7.72849 243.602 10.1406 243.602 12.6257C243.135 12.6257 242.667 12.6257 242.186 12.6257C242.856 15.758 242.856 15.758 244.753 18.2739C245.727 19.2706 245.727 19.2706 245.727 23.922C230.537 23.922 215.347 23.922 199.696 23.922C199.93 23.0449 200.164 22.1678 200.405 21.2641C200.468 20.2894 200.497 19.3126 200.499 18.3362C200.5 17.7871 200.5 17.2381 200.501 16.6724C200.499 16.1045 200.496 15.5366 200.493 14.9514C200.496 14.3835 200.499 13.8156 200.501 13.2305C200.5 12.4069 200.5 12.4069 200.499 11.5667C200.498 11.0686 200.497 10.5705 200.496 10.0574C200.436 8.41283 200.436 8.41283 199.696 5.98089C203.435 5.98089 207.175 5.98089 211.027 5.98089C211.494 7.51585 211.962 9.05081 212.443 10.6323C215.995 10.4133 215.995 10.4133 218.817 8.63883C219.05 9.07739 219.284 9.51595 219.525 9.9678C219.992 9.9678 220.46 9.9678 220.941 9.9678C221.409 8.43284 221.876 6.89788 222.357 5.31641Z" fill="#EE6800"/>
<path d="M64.732 3.8623C59.9716 4.10903 56.8076 4.41639 53.3766 7.65972C51.4025 9.98745 51.5287 12.434 51.8386 15.2831C52.6795 17.5673 52.6795 17.5673 53.963 19.27C55.8662 19.8514 55.8662 19.8514 57.5038 19.9345C57.5038 21.908 57.5038 23.8815 57.5038 25.9148C59.891 26.9104 61.1894 27.2438 63.8773 27.2438C63.8773 33.3836 63.8773 39.5235 63.8773 45.8493C70.187 45.8493 76.4967 45.8493 82.9976 45.8493C82.9976 37.9553 82.9976 30.0612 82.9976 21.9279C77.6226 21.7087 72.2477 21.4894 66.7099 21.2635C66.9436 20.8249 67.1773 20.3863 67.4181 19.9345C67.6237 16.8307 67.5115 13.8243 66.9755 10.7563C66.6883 8.46598 67.0146 7.34071 68.1262 5.31586C66.7099 3.9869 66.7099 3.9869 64.732 3.8623Z" fill="#EE6800"/>
<path d="M64.732 3.8623C59.9716 4.10903 56.8076 4.41639 53.3766 7.65972C51.4025 9.98745 51.5287 12.434 51.8386 15.2831C52.6795 17.5673 52.6795 17.5673 53.963 19.27C55.8662 19.8514 55.8662 19.8514 57.5038 19.9345C57.5038 21.908 57.5038 23.8815 57.5038 25.9148C59.891 26.9104 61.1894 27.2438 63.8773 27.2438C63.8773 33.3836 63.8773 39.5235 63.8773 45.8493C70.187 45.8493 76.4967 45.8493 82.9976 45.8493C82.9976 37.9553 82.9976 30.0612 82.9976 21.9279C77.6226 21.7087 72.2477 21.4894 66.7099 21.2635C66.9436 20.8249 67.1773 20.3863 67.4181 19.9345C67.6237 16.8307 67.5115 13.8243 66.9755 10.7563C66.6883 8.46598 67.0146 7.34071 68.1262 5.31586C66.7099 3.9869 66.7099 3.9869 64.732 3.8623Z" fill="#EE6800"/>
<path d="M41.9232 96.1377C33.2765 96.1377 24.6299 96.1377 15.7213 96.1377C15.7213 96.5763 15.7213 97.0148 15.7213 97.4667C11.5149 97.4667 7.3084 97.4667 2.97448 97.4667C5.80711 102.118 5.80711 102.118 6.51527 102.783C8.61849 102.783 10.7217 102.783 12.8887 102.783C12.8887 108.703 12.8887 114.624 12.8887 120.724C21.0679 120.724 29.2471 120.724 37.6742 120.724C37.807 111.712 37.807 111.712 37.8213 108.896C37.9539 103.944 38.3674 101.176 41.9232 97.4667C41.9232 97.0281 41.9232 96.5895 41.9232 96.1377Z" fill="#FEA850"/>
<path d="M95.0388 21.9287C91.066 21.9287 87.0932 21.9287 83.0001 21.9287C83.0001 29.8228 83.0001 37.7169 83.0001 45.8501C85.1033 45.8501 87.2065 45.8501 89.3735 45.8501C89.3735 54.1828 89.3735 62.5154 89.3735 71.1005C91.9441 71.1005 94.5147 71.1005 97.1632 71.1005C97.1632 66.9342 97.1632 62.7679 97.1632 58.4753C98.5654 58.4753 99.9676 58.4753 101.412 58.4753C102.113 58.0368 102.814 57.5982 103.537 57.1464C103.274 56.7626 103.011 56.3789 102.74 55.9835C101.914 54.4884 101.914 54.4884 102.74 52.9934C103.003 52.6096 103.266 52.2259 103.537 51.8305C102.485 51.5016 102.485 51.5016 101.412 51.166C101.646 50.0696 101.88 48.9732 102.12 47.8436C101.463 47.6791 100.806 47.5147 100.129 47.3452C97.6135 46.4197 97.0344 46.0298 95.7469 43.8567C95.5175 42.1221 95.4014 40.5364 95.3845 38.8004C95.3718 38.3174 95.3591 37.8345 95.346 37.3369C95.3078 35.8002 95.2837 34.2636 95.2601 32.7266C95.2366 31.6822 95.2121 30.6379 95.1868 29.5936C95.1249 27.0386 95.0824 24.4843 95.0388 21.9287Z" fill="#FE8D2C"/>
<path opacity="0.6" d="M208.909 24.5859C215.919 24.5859 222.93 24.5859 230.153 24.5859C229.219 26.5595 228.284 28.533 227.321 30.5663C228.255 30.347 229.19 30.1277 230.153 29.9018C230.621 28.1476 231.088 26.3933 231.57 24.5859C236.01 24.5859 240.45 24.5859 245.025 24.5859C244.228 29.8187 244.228 29.8187 243.628 31.8719C243.502 32.3066 243.377 32.7413 243.247 33.1892C243.118 33.6256 242.989 34.062 242.856 34.5117C242.724 34.9661 242.592 35.4205 242.456 35.8886C242.135 36.9946 241.81 38.0997 241.484 39.2046C240.631 39.2294 239.779 39.2542 238.9 39.2798C237.784 39.3235 236.669 39.3676 235.553 39.4122C234.991 39.4272 234.428 39.4422 233.849 39.4576C232.375 39.5221 230.908 39.6896 229.445 39.869C228.978 40.5269 228.51 41.1847 228.029 41.8625C222.417 41.6426 217.373 40.9401 213.1 37.276C208.936 33.0036 208.909 30.7591 208.909 24.5859Z" fill="#0D2131"/>
<path opacity="0.6" d="M218.787 140.012C219.575 140.018 220.362 140.025 221.173 140.031C221.988 140.048 222.803 140.065 223.642 140.082C224.47 140.091 225.299 140.1 226.152 140.109C228.193 140.133 230.233 140.165 232.273 140.207C232.293 142.491 232.306 144.775 232.317 147.059C232.323 147.708 232.329 148.357 232.335 149.025C232.337 149.648 232.34 150.272 232.342 150.914C232.346 151.488 232.349 152.062 232.353 152.653C232.273 154.161 232.273 154.161 231.565 156.154C226.662 156.171 221.759 156.183 216.856 156.191C215.187 156.194 213.519 156.199 211.85 156.204C209.455 156.212 207.059 156.216 204.663 156.219C203.541 156.224 203.541 156.224 202.396 156.229C201.701 156.229 201.007 156.23 200.291 156.23C199.374 156.232 199.374 156.232 198.438 156.234C196.865 156.154 196.865 156.154 194.74 155.49C195.077 150.75 195.077 150.75 196.466 148.596C198.805 147.204 200.993 146.859 203.706 146.449C205.465 146.212 205.465 146.212 207.487 145.522C208.91 145.706 210.328 145.923 211.736 146.187C211.736 145.748 211.736 145.31 211.736 144.858C210.568 144.858 209.399 144.858 208.195 144.858C211.426 141.602 213.958 139.942 218.787 140.012Z" fill="#2C2C2C"/>
<path opacity="0.6" d="M255.648 5.31663C258.534 5.23446 261.419 5.17419 264.305 5.13413C265.287 5.11742 266.269 5.09476 267.25 5.06599C268.661 5.02567 270.073 5.00861 271.485 4.99218C272.334 4.97478 273.183 4.95738 274.058 4.93945C276.185 5.31663 276.185 5.31663 277.524 6.82162C278.264 8.53367 278.575 9.63797 278.566 11.4631C278.566 11.977 278.565 12.491 278.565 13.0205C278.553 13.5481 278.542 14.0758 278.53 14.6194C278.533 15.147 278.535 15.6747 278.537 16.2183C278.507 19.3284 278.19 20.8786 276.893 23.9222C269.181 23.9222 261.469 23.9222 253.523 23.9222C254.232 20.5998 254.232 20.5998 255.648 18.6063C256.816 18.1677 257.985 17.7292 259.189 17.2773C259.422 14.8653 259.656 12.4532 259.897 9.96802C259.429 9.96802 258.962 9.96802 258.481 9.96802C257.422 8.4578 256.509 6.93266 255.648 5.31663Z" fill="#EE6800"/>
<path d="M232.283 38.9456C232.819 38.9542 233.355 38.9628 233.908 38.9716C234.742 39.005 234.742 39.005 235.594 39.0391C236.158 39.0511 236.723 39.0631 237.305 39.0754C238.697 39.1067 240.089 39.1544 241.48 39.2052C241.247 39.6438 241.013 40.0823 240.772 40.5342C240.702 42.2154 240.673 43.878 240.678 45.5593C240.677 46.0558 240.677 46.5522 240.676 47.0637C240.676 48.1138 240.677 49.1639 240.68 50.2139C240.684 51.8239 240.68 53.4338 240.675 55.0438C240.676 56.063 240.677 57.0822 240.678 58.1014C240.677 58.5846 240.675 59.0677 240.674 59.5655C240.641 62.0944 240.641 62.0944 241.48 64.4555C239.349 65.0763 238.742 65.1496 236.523 64.4555C236.523 65.7712 236.523 67.0869 236.523 68.4424C234.887 68.2232 233.252 68.0039 231.566 67.778C231.332 66.6816 231.099 65.5852 230.858 64.4555C230.405 64.3733 229.952 64.2911 229.486 64.2064C229.004 64.0693 228.522 63.9323 228.025 63.7911C226.472 60.8759 227.156 56.9472 227.147 53.707C227.14 52.2558 227.118 50.8052 227.096 49.3541C227.091 48.4301 227.088 47.5061 227.085 46.582C227.078 45.7414 227.072 44.9008 227.065 44.0347C227.451 40.7101 228.544 38.8401 232.283 38.9456Z" fill="#FA9241"/>
<path opacity="0.6" d="M251.394 139.541C256.068 139.541 260.742 139.541 265.558 139.541C267.907 143.95 267.907 143.95 268.744 146.227C269.379 147.885 269.99 149.118 271.002 150.63C272.07 152.397 272.114 153.489 271.931 155.489C267.587 156.923 263.587 157.018 259.007 156.984C258.304 156.989 257.601 156.994 256.877 156.999C255.867 156.997 255.867 156.997 254.836 156.994C254.226 156.993 253.616 156.991 252.987 156.99C251.394 156.818 251.394 156.818 249.27 155.489C248.773 150.641 249.068 143.908 251.394 139.541Z" fill="#2C2C2C"/>
<path d="M248.345 3.77954C253.176 3.80649 255.1 4.80252 258.48 7.97408C258.48 8.63192 258.48 9.28975 258.48 9.96753C258.947 9.96753 259.415 9.96753 259.896 9.96753C259.935 11.1578 259.962 12.3485 259.985 13.5391C260.001 14.2021 260.018 14.8651 260.035 15.5481C259.896 17.2768 259.896 17.2768 258.48 18.6058C257.545 18.6058 256.611 18.6058 255.647 18.6058C254.886 20.3682 254.164 22.1167 253.523 23.9216C261.001 23.9216 268.479 23.9216 276.184 23.9216C276.184 24.1409 276.184 24.3602 276.184 24.5861C273.322 24.7176 270.46 24.8396 267.598 24.9599C266.789 24.9972 265.98 25.0344 265.147 25.0728C263.969 25.121 263.969 25.121 262.768 25.1701C262.048 25.2015 261.329 25.2328 260.588 25.2651C258.397 25.25 256.379 24.9764 254.231 24.5861C254.231 25.9018 254.231 27.2175 254.231 28.573C253.997 27.9152 253.764 27.2573 253.523 26.5796C252.822 26.9085 252.822 26.9085 252.107 27.2441C248.317 27.5467 248.317 27.5467 246.679 26.468C245.071 24.3981 245.435 22.0853 245.382 19.5999C245.205 18.7789 245.205 18.7789 245.025 17.9413C243.652 17.0107 243.652 17.0107 242.192 16.6123C242.192 15.2967 242.192 13.981 242.192 12.6255C242.66 12.6255 243.127 12.6255 243.609 12.6255C243.601 12.0576 243.592 11.4897 243.584 10.9045C243.577 10.1705 243.571 9.43641 243.565 8.68009C243.556 7.94773 243.548 7.21538 243.54 6.46082C243.662 3.25458 245.292 3.84647 248.345 3.77954Z" fill="#FCAA97"/>
<path opacity="0.6" d="M75.2058 136.22C73.3911 136.202 71.5766 136.189 69.7618 136.179C69.2511 136.173 68.7403 136.168 68.2141 136.162C65.493 136.15 62.9784 136.263 60.3344 136.885C60.0496 139.611 59.9919 141.065 61.6622 143.364C64.1741 145.061 66.3399 145.683 69.3247 146.338C71.1707 146.919 71.9382 147.373 73.0813 148.846C73.315 149.942 73.5487 151.038 73.7895 152.168C80.5665 152.168 87.3436 152.168 94.326 152.168C94.326 148.846 94.326 148.846 92.6442 147.143C89.169 144.676 84.962 143.48 80.871 142.201C78.6138 142.824 78.6138 142.824 76.6221 143.53C76.3884 143.31 76.1547 143.091 75.9139 142.865C78.0172 142.536 78.0172 142.536 80.1629 142.201C80.1629 141.762 80.1629 141.324 80.1629 140.872C76.0025 140.207 76.0025 140.207 75.2058 140.207C75.6732 139.769 76.1405 139.33 76.6221 138.878C76.1547 138.001 75.6873 137.124 75.2058 136.22Z" fill="#2C2C2C"/>
<path d="M89.3735 45.8483C89.3735 54.1809 89.3735 62.5136 89.3735 71.0987C91.9441 71.0987 94.5147 71.0987 97.1632 71.0987C97.1632 66.9324 97.1632 62.7661 97.1632 58.4735C98.5654 58.4735 99.9676 58.4735 101.412 58.4735C102.113 58.035 102.814 57.5964 103.537 57.1445C103.274 56.7608 103.011 56.3771 102.74 55.9817C101.914 54.4866 101.914 54.4866 102.74 52.9915C103.134 52.4159 103.134 52.4159 103.537 51.8287C102.836 51.6094 102.135 51.3901 101.412 51.1642C101.646 50.0678 101.88 48.9714 102.12 47.8417C97.3525 45.4557 95.4595 45.8483 89.3735 45.8483Z" fill="#FD7816"/>
<path d="M64.732 3.8623C59.9716 4.10903 56.8076 4.41639 53.3766 7.65972C51.4025 9.98745 51.5287 12.434 51.8386 15.2831C52.6795 17.5673 52.6795 17.5673 53.963 19.27C55.8662 19.8514 55.8662 19.8514 57.5038 19.9345C57.5038 21.908 57.5038 23.8815 57.5038 25.9148C59.891 26.9103 61.1894 27.2438 63.8772 27.2438C64.0985 25.7072 64.0985 25.7072 63.8772 23.9214C62.1068 22.717 62.1068 22.717 60.3364 21.9279C61.7657 21.9928 63.1949 22.0577 64.6241 22.1226C65.0787 22.0583 65.5333 21.9941 66.0017 21.9279C67.5194 19.7917 67.5955 19.2329 67.5508 16.7782C67.5407 16.1897 67.5307 15.6013 67.5204 14.995C67.418 13.2896 67.418 13.2896 66.9754 10.7563C66.6882 8.46597 67.0145 7.3407 68.1262 5.31586C66.7098 3.9869 66.7098 3.9869 64.732 3.8623Z" fill="#FCAA97"/>
<path opacity="0.6" d="M244.313 90.3691C244.546 90.3691 244.78 90.3691 245.021 90.3691C245.226 94.4328 245.428 98.4966 245.626 102.561C245.694 103.938 245.762 105.316 245.832 106.693C246.24 114.773 246.52 122.813 246.437 130.903C243.166 130.903 239.894 130.903 236.523 130.903C236.292 123.094 237.003 115.374 239.408 107.874C240.573 103.928 241.459 99.9174 242.391 95.9183C242.538 95.2982 242.684 94.6782 242.836 94.0394C242.967 93.4769 243.098 92.9145 243.233 92.335C243.605 91.0336 243.605 91.0336 244.313 90.3691Z" fill="#F2DBD7"/>
<path d="M219.529 0C221.654 0.664485 221.654 0.664485 222.362 1.99345C222.448 3.08491 222.486 4.17996 222.495 5.27435C222.505 5.85595 222.515 6.43756 222.525 7.03679C222.362 8.6383 222.362 8.6383 220.946 10.6318C220.551 10.5084 220.157 10.3851 219.751 10.258C217.818 9.91482 216.476 10.2195 214.572 10.6318C213.871 10.6318 213.17 10.6318 212.448 10.6318C211.031 8.6383 211.031 8.6383 211.031 5.98036C207.526 6.19964 204.021 6.41892 200.409 6.64485C200.643 7.30269 200.876 7.96053 201.117 8.6383C201.182 9.59894 201.21 10.5621 201.211 11.5247C201.212 12.0789 201.213 12.633 201.214 13.204C201.211 13.7805 201.209 14.357 201.206 14.9509C201.208 15.5274 201.211 16.1038 201.214 16.6978C201.213 17.252 201.212 17.8062 201.211 18.3772C201.21 18.883 201.21 19.3888 201.209 19.9099C201.117 21.2635 201.117 21.2635 200.409 23.257C222.843 23.5859 222.843 23.5859 245.731 23.9215C245.497 24.5793 245.264 25.2371 245.023 25.9149C245.023 25.4763 245.023 25.0378 245.023 24.5859C240.583 24.5859 236.143 24.5859 231.568 24.5859C231.568 25.9016 231.568 27.2173 231.568 28.5728C231.101 29.2307 230.633 29.8885 230.152 30.5663C229.217 30.5663 228.282 30.5663 227.319 30.5663C227.707 28.3239 228.066 27.1892 229.444 25.2504C222.666 25.0311 215.889 24.8119 208.907 24.5859C208.907 25.9016 208.907 27.2173 208.907 28.5728C208.673 28.5728 208.44 28.5728 208.199 28.5728C208.199 27.2572 208.199 25.9415 208.199 24.5859C204.927 24.5859 201.655 24.5859 198.285 24.5859C195.461 20.0602 195.575 15.0897 196.16 9.96727C196.861 8.43231 197.562 6.89735 198.285 5.31588C202.257 5.31588 206.23 5.31588 210.323 5.31588C210.557 4.0002 210.791 2.68452 211.031 1.32897C211.733 1.32897 212.434 1.32897 213.156 1.32897C213.39 1.76753 213.623 2.20609 213.864 2.65794C214.331 2.0001 214.799 1.34226 215.28 0.664485C217.095 0.581424 217.095 0.581424 218.821 0.664485C219.055 0.445205 219.289 0.225925 219.529 0Z" fill="#FE8D2C"/>
<path d="M46.8828 150.839C46.8828 152.155 46.8828 153.47 46.8828 154.826C54.0028 156.727 61.9394 156.248 69.2701 156.22C70.2254 156.218 71.1807 156.217 72.1361 156.217C74.6169 156.214 77.0977 156.208 79.5785 156.2C82.1234 156.193 84.6684 156.191 87.2133 156.187C92.182 156.18 97.1506 156.169 102.119 156.155C102.119 154.839 102.119 153.523 102.119 152.168C101.548 152.161 100.976 152.154 100.388 152.147C94.981 152.082 89.5743 152.014 84.1676 151.942C81.3886 151.906 78.6095 151.87 75.8304 151.837C73.1442 151.805 70.4581 151.771 67.772 151.734C66.7515 151.721 65.7309 151.708 64.7104 151.697C58.7561 151.629 52.7995 150.839 46.8828 150.839Z" fill="#782A28"/>
<path d="M9.97308 120.866C7.63616 120.866 5.29923 120.866 2.89149 120.866C2.89149 121.743 2.89149 122.62 2.89149 123.524C1.95672 123.524 1.02195 123.524 0.0588541 123.524C0.0411034 126.583 0.0283823 129.643 0.0199537 132.702C0.0164328 133.739 0.011632 134.776 0.00543022 135.812C-0.0315762 142.167 0.108164 148.424 0.767013 154.755C2.40286 154.755 4.03871 154.755 5.72413 154.755C5.95782 144.01 6.19151 133.265 6.43229 122.195C7.60075 121.976 8.76921 121.757 9.97308 121.531C9.97308 121.311 9.97308 121.092 9.97308 120.866Z" fill="#FE8B29"/>
<path d="M251.082 53.6982C253.517 53.8228 253.517 53.8228 254.225 54.4873C254.393 56.3869 254.524 58.2741 254.623 60.1769C254.654 60.7127 254.684 61.2485 254.716 61.8005C254.791 63.128 254.862 64.4558 254.933 65.7835C250.954 67.1068 247.749 67.7584 243.647 66.448C243.165 66.2287 242.683 66.0094 242.186 65.7835C241.055 59.6312 241.055 59.6312 242.894 56.4808C245.019 55.6502 245.019 55.6502 247.143 55.1518C248.559 53.8228 248.559 53.8228 251.082 53.6982Z" fill="#FCAA97"/>
<path opacity="0.6" d="M245.732 25.25C246.433 25.6886 247.134 26.1271 247.856 26.579C249.313 26.7388 249.313 26.7388 250.822 26.662C251.713 26.6346 252.604 26.6072 253.522 26.579C253.766 27.56 254 28.5434 254.23 29.5276C254.361 30.0749 254.493 30.6223 254.628 31.1862C255.031 33.8338 254.938 36.5297 254.938 39.2041C250.498 39.2041 246.058 39.2041 241.483 39.2041C241.921 37.2717 242.359 35.3393 242.811 33.3484C242.946 32.7421 243.081 32.1358 243.22 31.5112C243.331 31.0305 243.443 30.5498 243.558 30.0545C243.669 29.5639 243.78 29.0732 243.895 28.5677C244.316 27.2434 244.316 27.2434 245.732 25.25Z" fill="#C0E1FC"/>
<path opacity="0.6" d="M64.732 3.8623C59.9716 4.10903 56.8076 4.41639 53.3766 7.65973C51.3202 10.0845 51.7871 12.2897 51.8385 15.2831C52.5396 15.5024 53.2407 15.7217 53.963 15.9476C54.1967 16.6055 54.4304 17.2633 54.6712 17.9411C55.6059 17.7218 56.5407 17.5025 57.5038 17.2766C57.5038 17.0573 57.5038 16.838 57.5038 16.6121C57.9712 16.6121 58.4386 16.6121 58.9201 16.6121C58.9785 16.0913 59.037 15.5705 59.0972 15.034C59.4357 13.1917 59.4357 13.1917 61.0888 12.4175C61.5416 12.2668 61.9944 12.116 62.4609 11.9607C61.7598 11.9607 61.0587 11.9607 60.3364 11.9607C60.8038 10.8643 61.2712 9.76791 61.7527 8.63829C63.1549 8.85757 64.557 9.07685 66.0017 9.30277C66.7028 7.98709 67.4038 6.67141 68.1262 5.31587C66.7098 3.9869 66.7098 3.9869 64.732 3.8623Z" fill="#161314"/>
<path opacity="0.6" d="M248.341 3.77954C253.173 3.80649 255.097 4.80252 258.477 7.97408C258.477 8.63192 258.477 9.28976 258.477 9.96753C258.944 9.96753 259.412 9.96753 259.893 9.96753C259.893 11.2832 259.893 12.5989 259.893 13.9544C259.458 13.8988 259.022 13.8431 258.574 13.7857C258.001 13.718 257.429 13.6504 256.839 13.5807C256.272 13.5113 255.705 13.4419 255.121 13.3704C253.401 13.1919 253.401 13.1919 251.395 13.9544C251.322 13.5707 251.249 13.187 251.174 12.7916C250.618 11.0835 249.763 10.0097 248.563 8.63857C247.73 9.62532 247.73 9.62532 246.881 10.632C246.267 11.2899 245.654 11.9477 245.022 12.6255C244.554 12.6255 244.087 12.6255 243.605 12.6255C243.586 11.3104 243.573 9.99525 243.561 8.6801C243.553 7.94774 243.545 7.21538 243.536 6.46083C243.659 3.25458 245.289 3.84647 248.341 3.77954Z" fill="#131010"/>
<path d="M219.525 0C221.649 0.664485 221.649 0.664485 222.357 1.99345C222.443 3.08491 222.482 4.17996 222.49 5.27435C222.5 5.85595 222.51 6.43756 222.521 7.03679C222.357 8.6383 222.357 8.6383 220.941 10.6318C220.547 10.5084 220.152 10.3851 219.746 10.258C217.813 9.91482 216.472 10.2195 214.568 10.6318C213.867 10.6318 213.166 10.6318 212.443 10.6318C210.556 7.16135 210.086 5.26142 211.027 1.32897C211.728 1.32897 212.429 1.32897 213.151 1.32897C213.385 1.76753 213.619 2.20609 213.86 2.65794C214.327 2.0001 214.794 1.34226 215.276 0.664485C217.091 0.581424 217.091 0.581424 218.817 0.664485C219.05 0.445205 219.284 0.225925 219.525 0Z" fill="#FF9982"/>
<path d="M97.8714 46.5137C97.6377 46.9522 97.4041 47.3908 97.1633 47.8426C96.1336 48.151 96.1336 48.151 95.0831 48.4656C92.9144 49.1716 92.9144 49.1716 91.498 51.1651C92.1991 52.1518 92.1991 52.1518 92.9144 53.1585C93.1703 54.7062 93.4079 56.2567 93.6225 57.8099C94.7956 58.9106 96.1765 58.588 97.7829 58.599C98.4091 58.6084 99.0354 58.6178 99.6806 58.6275C101.412 58.4744 101.412 58.4744 103.537 57.1454C103.274 56.7617 103.011 56.3779 102.74 55.9826C101.914 54.4875 101.914 54.4875 102.74 52.9924C103.134 52.4168 103.134 52.4168 103.537 51.8295C102.836 51.6103 102.135 51.391 101.412 51.1651C101.646 50.0687 101.88 48.9723 102.12 47.8426C100.718 47.4041 99.3161 46.9655 97.8714 46.5137Z" fill="#FF9982"/>
<path d="M63.1692 61.7972C62.5662 63.0769 62.5662 63.0769 62.0185 64.6628C61.7419 65.4402 61.7419 65.4402 61.4597 66.2332C61.0448 67.7776 61.0448 67.7776 61.0448 70.4355C65.6832 72.2277 69.4611 73.4503 74.4997 73.0935C74.4997 72.6549 74.4997 72.2163 74.4997 71.7645C72.8639 71.7645 71.228 71.7645 69.5426 71.7645C69.5426 71.3259 69.5426 70.8874 69.5426 70.4355C71.6458 70.4355 73.7491 70.4355 75.916 70.4355C75.916 69.5584 75.916 68.6813 75.916 67.7776C75.3948 67.7373 74.8735 67.6971 74.3365 67.6556C73.6455 67.5999 72.9544 67.5442 72.2425 67.4869C71.5606 67.4329 70.8787 67.379 70.1761 67.3234C68.2775 67.1286 66.4506 66.8293 64.5855 66.4486C64.5855 66.0101 64.5855 65.5715 64.5855 65.1197C64.9507 65.2293 65.3158 65.3389 65.692 65.4519C67.9377 65.8841 70.0894 65.8254 72.3752 65.7841C71.6671 63.7907 71.6671 63.7907 70.0986 62.9912C69.1442 62.6469 69.1442 62.6469 68.1706 62.2956C67.5361 62.0592 66.9017 61.8228 66.248 61.5792C64.5855 61.1327 64.5855 61.1327 63.1692 61.7972Z" fill="#FCAA97"/>
<path d="M84.416 73.0928C81.378 73.7506 78.34 74.4085 75.2099 75.0862C74.6503 77.7117 74.4412 79.0443 74.7424 81.552C74.8086 82.1409 74.8748 82.7297 74.943 83.3365C75.0165 83.9442 75.0899 84.5519 75.1657 85.1781C75.9711 91.9505 76.4647 98.1796 74.5903 104.822C74.4427 105.366 74.2952 105.911 74.1432 106.471C72.3086 112.961 69.9428 119.31 67.5727 125.642C67.2686 126.468 66.9645 127.293 66.6512 128.144C66.3733 128.884 66.0955 129.624 65.8092 130.387C65.2957 132.232 65.2957 132.232 66.0039 134.225C70.328 123.749 73.8653 113.076 77.3344 102.33C77.7698 102.346 78.2053 102.361 78.6539 102.377C79.2262 102.389 79.7986 102.401 80.3883 102.413C80.9552 102.429 81.5221 102.444 82.1061 102.46C83.7078 102.33 83.7078 102.33 85.8323 101.001C85.8323 100.563 85.8323 100.124 85.8323 99.6722C83.028 99.8914 80.2237 100.111 77.3344 100.337C77.3467 98.9156 77.3467 98.9156 77.3593 97.4659C77.4014 90.404 77.293 83.4536 76.6262 76.4152C79.1968 75.7574 81.7675 75.0995 84.416 74.4217C84.416 73.9832 84.416 73.5446 84.416 73.0928Z" fill="#21537B"/>
<path d="M101.41 152.832C94.8667 152.832 88.3233 152.832 81.5816 152.832C81.5816 153.709 81.5816 154.586 81.5816 155.49C88.1976 156.241 94.7594 156.22 101.41 156.154C101.41 155.058 101.41 153.962 101.41 152.832Z" fill="#9F3735"/>
<path d="M208.199 23.9219C220.585 23.9219 232.971 23.9219 245.732 23.9219C245.498 24.5797 245.264 25.2376 245.024 25.9153C245.024 25.4768 245.024 25.0382 245.024 24.5864C240.583 24.5864 236.143 24.5864 231.569 24.5864C231.569 25.902 231.569 27.2177 231.569 28.5733C231.101 29.2311 230.634 29.889 230.152 30.5667C229.217 30.5667 228.283 30.5667 227.32 30.5667C227.707 28.3243 228.067 27.1896 229.444 25.2508C222.667 25.0316 215.89 24.8123 208.908 24.5864C208.908 25.902 208.908 27.2177 208.908 28.5733C208.674 28.5733 208.44 28.5733 208.199 28.5733C208.199 27.0383 208.199 25.5034 208.199 23.9219Z" fill="#FE8D2C"/>
<path d="M68.1262 135.555C65.3218 135.555 62.5175 135.555 59.6282 135.555C60.3293 135.774 61.0304 135.993 61.7527 136.219C62.272 137.558 62.272 137.558 62.4609 138.877C61.7598 139.316 61.0587 139.754 60.3364 140.206C60.5701 140.645 60.8038 141.083 61.0446 141.535C61.9793 141.316 62.9141 141.096 63.8772 140.871C64.1109 141.309 64.3446 141.748 64.5854 142.2C63.8843 142.419 63.1832 142.638 62.4609 142.864C62.6946 143.303 62.9283 143.741 63.169 144.193C64.5712 143.754 65.9734 143.316 67.418 142.864C67.6517 140.452 67.8854 138.04 68.1262 135.555Z" fill="white"/>
<path d="M219.528 0C221.652 0.664485 221.652 0.664485 222.361 1.99345C222.446 3.08491 222.485 4.17996 222.493 5.27435C222.503 5.85595 222.513 6.43756 222.524 7.03679C222.361 8.6383 222.361 8.6383 220.944 10.6318C220.243 10.4125 219.542 10.1932 218.82 9.96727C218.663 8.55611 218.518 7.14385 218.377 5.73118C218.295 4.94486 218.213 4.15853 218.128 3.34838C218.123 2.68197 218.117 2.01557 218.112 1.32897C218.579 0.890409 219.046 0.45185 219.528 0Z" fill="#FCAA97"/>
<path d="M97.8703 46.5137C97.6366 46.9522 97.4029 47.3908 97.1622 47.8426C96.1325 48.151 96.1325 48.151 95.082 48.4656C92.9132 49.1716 92.9132 49.1716 91.4969 51.1651C91.7306 51.3843 91.9643 51.6036 92.2051 51.8295C93.7237 51.7958 93.7237 51.7958 95.6131 51.6219C96.2311 51.5696 96.8491 51.5174 97.4858 51.4636C99.2768 51.1667 100.549 50.6777 102.119 49.8361C101.886 48.959 101.652 48.0819 101.411 47.1782C100.243 46.9589 99.0742 46.7396 97.8703 46.5137Z" fill="#FCAA97"/>
<path d="M102.829 55.1523C99.7905 55.1523 96.7525 55.1523 93.6225 55.1523C93.8562 56.2487 94.0898 57.3451 94.3306 58.4748C95.4664 58.5108 96.6025 58.5365 97.7386 58.5578C98.3712 58.5732 99.0039 58.5887 99.6556 58.6045C101.412 58.4748 101.412 58.4748 103.537 57.1458C103.303 56.488 103.069 55.8301 102.829 55.1523Z" fill="#FCAA97"/>
<path d="M218.112 138.212C222.552 138.212 226.992 138.212 231.567 138.212C231.567 138.87 231.567 139.528 231.567 140.205C227.127 140.205 222.686 140.205 218.112 140.205C218.112 139.548 218.112 138.89 218.112 138.212Z" fill="#FCAA97"/>
<path d="M211.027 1.3291C211.728 1.3291 212.429 1.3291 213.151 1.3291C214.108 3.12443 214.099 4.72999 214.258 6.72804C214.317 7.45612 214.377 8.1842 214.438 8.93434C214.481 9.49454 214.524 10.0547 214.568 10.6319C213.867 10.6319 213.166 10.6319 212.443 10.6319C210.556 7.16148 210.086 5.26156 211.027 1.3291Z" fill="#FCAA97"/>
<path d="M230.861 64.4551C232.731 64.4551 234.601 64.4551 236.527 64.4551C236.527 65.7708 236.527 67.0864 236.527 68.442C234.891 68.2227 233.255 68.0034 231.57 67.7775C231.336 66.6811 231.102 65.5847 230.861 64.4551Z" fill="#579433"/>
<path d="M230.147 24.5859C230.615 24.5859 231.082 24.5859 231.564 24.5859C231.741 28.3237 231.741 28.3237 230.147 30.5663C229.213 30.5663 228.278 30.5663 227.315 30.5663C227.687 28.0493 228.293 26.4654 230.147 24.5859Z" fill="white"/>
<path d="M56.0882 45.1846C55.6209 45.1846 55.1535 45.1846 54.6719 45.1846C53.9088 48.1682 53.6964 49.3908 55.3358 52.1201C55.8178 52.682 56.2998 53.2439 56.7964 53.8229C57.7174 52.0945 57.4558 51.0404 57.239 49.1299C57.1751 48.5329 57.1112 47.9359 57.0454 47.3208C56.7964 45.8491 56.7964 45.8491 56.0882 45.1846Z" fill="white"/>
<path d="M67.4169 137.548C67.1832 137.548 66.9495 137.548 66.7088 137.548C66.7088 138.644 66.7088 139.741 66.7088 140.87C66.0077 140.432 65.3066 139.993 64.5843 139.541C62.327 139.79 62.327 139.79 60.3353 140.206C60.569 140.644 60.8027 141.083 61.0435 141.535C61.9783 141.315 62.913 141.096 63.8761 140.87C64.1098 141.309 64.3435 141.747 64.5843 142.199C63.8832 142.419 63.1821 142.638 62.4598 142.864C62.6935 143.302 62.9272 143.741 63.168 144.193C64.5701 143.754 65.9723 143.316 67.4169 142.864C67.4169 141.109 67.4169 139.355 67.4169 137.548Z" fill="#2C2C2C"/>
<path d="M72.9929 70.0619C72.3484 70.1296 71.7039 70.1972 71.0399 70.2669C70.5451 70.3226 70.0504 70.3783 69.5406 70.4357C69.5406 70.8742 69.5406 71.3128 69.5406 71.7646C71.1764 71.7646 72.8123 71.7646 74.4977 71.7646C74.4977 72.2032 74.4977 72.6417 74.4977 73.0936C76.2504 72.4358 76.2504 72.4358 78.0385 71.7646C78.0385 71.3261 78.0385 70.8875 78.0385 70.4357C76.1809 69.5641 75.0428 69.84 72.9929 70.0619Z" fill="#FF9982"/>
<path opacity="0.6" d="M85.8323 99.6729C84.4301 99.6729 83.028 99.6729 81.5833 99.6729C81.5833 100.111 81.5833 100.55 81.5833 101.002C79.4801 101.331 79.4801 101.331 77.3344 101.666C77.3344 101.886 77.3344 102.105 77.3344 102.331C78.352 102.367 79.3701 102.393 80.3883 102.414C80.9552 102.429 81.5221 102.445 82.1061 102.461C83.7078 102.331 83.7078 102.331 85.8323 101.002C85.8323 100.563 85.8323 100.125 85.8323 99.6729Z" fill="#21537B"/>
<path d="M252.813 23.2568C253.046 23.9147 253.28 24.5725 253.521 25.2503C251.396 26.5793 251.396 26.5793 249.582 26.4547C247.856 25.9148 247.856 25.9148 246.439 23.9213C247.359 23.935 248.28 23.9487 249.228 23.9629C250.187 23.9771 251.147 23.9688 252.104 23.9213C252.338 23.702 252.572 23.4828 252.813 23.2568Z" fill="#FCAA97"/>
<path d="M246.439 21.2637C247.14 21.5926 247.14 21.5926 247.856 21.9282C248.828 21.974 249.803 21.9844 250.777 21.9697C251.682 21.956 252.588 21.9423 253.521 21.9282C253.053 22.8053 252.586 23.6824 252.104 24.5861C248.906 24.8295 248.906 24.8295 247.28 23.6724C246.439 22.5926 246.439 22.5926 246.439 21.2637Z" fill="#2F1D22"/>
<path opacity="0.6" d="M274.765 45.1846C274.532 46.0617 274.298 46.9388 274.057 47.8425C272.188 47.8425 270.318 47.8425 268.392 47.8425C270.377 45.8021 271.747 45.1846 274.765 45.1846Z" fill="#BDDAB2"/>
</g>
</svg>
