<svg width="18" height="18" viewBox="0 0 18 18" fill="none" xmlns="http://www.w3.org/2000/svg">
<path d="M2.04561 15.75C1.90811 15.75 1.78311 15.7158 1.67061 15.6473C1.55811 15.5788 1.47061 15.488 1.40811 15.375C1.34561 15.262 1.31136 15.14 1.30536 15.009C1.29936 14.878 1.33361 14.75 1.40811 14.625L8.34561 2.625C8.42061 2.5 8.51761 2.40625 8.63661 2.34375C8.75561 2.28125 8.87736 2.25 9.00186 2.25C9.12636 2.25 9.24836 2.28125 9.36786 2.34375C9.48736 2.40625 9.58411 2.5 9.65811 2.625L16.5956 14.625C16.6706 14.75 16.7051 14.8783 16.6991 15.0098C16.6931 15.1413 16.6586 15.263 16.5956 15.375C16.5326 15.487 16.4451 15.5778 16.3331 15.6473C16.2211 15.7168 16.0961 15.751 15.9581 15.75H2.04561ZM3.33936 14.25H14.6644L9.00186 4.5L3.33936 14.25ZM9.00186 13.5C9.21436 13.5 9.39261 13.428 9.53661 13.284C9.68061 13.14 9.75236 12.962 9.75186 12.75C9.75136 12.538 9.67936 12.36 9.53586 12.216C9.39236 12.072 9.21436 12 9.00186 12C8.78936 12 8.61136 12.072 8.46786 12.216C8.32436 12.36 8.25236 12.538 8.25186 12.75C8.25136 12.962 8.32336 13.1402 8.46786 13.2847C8.61236 13.4292 8.79036 13.501 9.00186 13.5ZM9.00186 11.25C9.21436 11.25 9.39261 11.178 9.53661 11.034C9.68061 10.89 9.75236 10.712 9.75186 10.5V8.25C9.75186 8.0375 9.67986 7.8595 9.53586 7.716C9.39186 7.5725 9.21386 7.5005 9.00186 7.5C8.78986 7.4995 8.61186 7.5715 8.46786 7.716C8.32386 7.8605 8.25186 8.0385 8.25186 8.25V10.5C8.25186 10.7125 8.32386 10.8907 8.46786 11.0347C8.61186 11.1788 8.78986 11.2505 9.00186 11.25Z" fill="#FFA726"/>
</svg>
