<svg width="69" height="69" viewBox="0 0 69 69" fill="none" xmlns="http://www.w3.org/2000/svg">
<g filter="url(#filter0_d_188_56)">
<rect x="4.5" y="0.5" width="60" height="60" rx="30" fill="white"/>
<g clip-path="url(#clip0_188_56)">
<path d="M49.5 30.5C49.5 22.2158 42.7842 15.5 34.5 15.5C26.2158 15.5 19.5 22.2158 19.5 30.5C19.5 37.9869 24.9853 44.1925 32.1562 45.3178V34.8359H28.3477V30.5H32.1562V27.1953C32.1562 23.4359 34.3957 21.3594 37.822 21.3594C39.4631 21.3594 41.1797 21.6523 41.1797 21.6523V25.3438H39.2883C37.4249 25.3438 36.8438 26.5 36.8438 27.6863V30.5H41.0039L40.3389 34.8359H36.8438V45.3178C44.0147 44.1925 49.5 37.987 49.5 30.5Z" fill="#1877F2"/>
<path d="M40.3389 34.8359L41.0039 30.5H36.8438V27.6863C36.8438 26.4999 37.4249 25.3438 39.2883 25.3438H41.1797V21.6523C41.1797 21.6523 39.4631 21.3594 37.8219 21.3594C34.3957 21.3594 32.1562 23.4359 32.1562 27.1953V30.5H28.3477V34.8359H32.1562V45.3178C32.9316 45.4393 33.7152 45.5002 34.5 45.5C35.2848 45.5002 36.0684 45.4393 36.8438 45.3178V34.8359H40.3389Z" fill="white"/>
</g>
</g>
<defs>
<filter id="filter0_d_188_56" x="0.5" y="0.5" width="68" height="68" filterUnits="userSpaceOnUse" color-interpolation-filters="sRGB">
<feFlood flood-opacity="0" result="BackgroundImageFix"/>
<feColorMatrix in="SourceAlpha" type="matrix" values="0 0 0 0 0 0 0 0 0 0 0 0 0 0 0 0 0 0 127 0" result="hardAlpha"/>
<feOffset dy="4"/>
<feGaussianBlur stdDeviation="2"/>
<feComposite in2="hardAlpha" operator="out"/>
<feColorMatrix type="matrix" values="0 0 0 0 0 0 0 0 0 0 0 0 0 0 0 0 0 0 0.25 0"/>
<feBlend mode="normal" in2="BackgroundImageFix" result="effect1_dropShadow_188_56"/>
<feBlend mode="normal" in="SourceGraphic" in2="effect1_dropShadow_188_56" result="shape"/>
</filter>
<clipPath id="clip0_188_56">
<rect width="30" height="30" fill="white" transform="translate(19.5 15.5)"/>
</clipPath>
</defs>
</svg>
