<svg width="69" height="69" viewBox="0 0 69 69" fill="none" xmlns="http://www.w3.org/2000/svg">
<g filter="url(#filter0_d_188_46)">
<rect x="4.5" y="0.5" width="60" height="60" rx="30" fill="white"/>
<g clip-path="url(#clip0_188_46)">
<path d="M29.9508 16.4864C26.9533 17.5263 24.3683 19.4999 22.5755 22.1175C20.7826 24.7351 19.8764 27.8586 19.99 31.0293C20.1035 34.2 21.2309 37.2507 23.2064 39.7333C25.1819 42.2159 27.9015 43.9996 30.9657 44.8224C33.4499 45.4634 36.0526 45.4915 38.55 44.9044C40.8125 44.3962 42.9042 43.3092 44.6203 41.7497C46.4065 40.0771 47.7029 37.9493 48.3703 35.595C49.0958 33.0349 49.2249 30.3425 48.7477 27.7247H34.7977V33.5114H42.8766C42.7151 34.4344 42.3691 35.3152 41.8593 36.1013C41.3495 36.8874 40.6863 37.5626 39.9094 38.0864C38.9229 38.739 37.8108 39.1781 36.6446 39.3755C35.4749 39.593 34.2752 39.593 33.1055 39.3755C31.92 39.1304 30.7985 38.6411 29.8125 37.9388C28.2285 36.8175 27.0391 35.2245 26.4141 33.3872C25.7785 31.5155 25.7785 29.4863 26.4141 27.6145C26.859 26.3026 27.5945 25.108 28.5657 24.12C29.677 22.9686 31.0841 22.1456 32.6324 21.7413C34.1808 21.3369 35.8106 21.3669 37.343 21.8278C38.5401 22.1953 39.6348 22.8374 40.5399 23.7028C41.4508 22.7966 42.3602 21.888 43.268 20.977C43.7368 20.4872 44.2477 20.0208 44.7094 19.5192C43.3279 18.2336 41.7063 17.2333 39.9375 16.5755C36.7165 15.4059 33.1922 15.3745 29.9508 16.4864Z" fill="white"/>
<path d="M29.9509 16.4866C33.192 15.3739 36.7163 15.4045 39.9376 16.5733C41.7067 17.2356 43.3276 18.2407 44.7071 19.5311C44.2384 20.0327 43.7438 20.5014 43.2657 20.9889C42.3563 21.8967 41.4478 22.8014 40.5399 23.703C39.6349 22.8375 38.5402 22.1955 37.3431 21.828C35.8111 21.3654 34.1814 21.3338 32.6326 21.7365C31.0839 22.1391 29.676 22.9606 28.5634 24.1108C27.5922 25.0988 26.8567 26.2933 26.4118 27.6053L21.5532 23.8436C23.2923 20.3949 26.3034 17.757 29.9509 16.4866Z" fill="#E33629"/>
<path d="M20.2643 27.5703C20.5254 26.2761 20.9589 25.0227 21.5533 23.8438L26.4119 27.6148C25.7763 29.4866 25.7763 31.5158 26.4119 33.3875C24.7932 34.6375 23.1736 35.8938 21.5533 37.1563C20.0654 34.1945 19.6116 30.8199 20.2643 27.5703Z" fill="#F8BD00"/>
<path d="M34.7974 27.7227H48.7474C49.2246 30.3405 49.0955 33.0328 48.3701 35.593C47.7027 37.9472 46.4062 40.075 44.6201 41.7477C43.0521 40.5242 41.4771 39.3102 39.9091 38.0867C40.6865 37.5624 41.35 36.8865 41.8599 36.0995C42.3697 35.3126 42.7155 34.4308 42.8763 33.507H34.7974C34.7951 31.5805 34.7974 29.6516 34.7974 27.7227Z" fill="#587DBD"/>
<path d="M21.5508 37.1564C23.1711 35.9064 24.7906 34.6502 26.4094 33.3877C27.0356 35.2257 28.2267 36.8187 29.8125 37.9393C30.8016 38.6383 31.9255 39.1236 33.1125 39.3643C34.2822 39.5817 35.4819 39.5817 36.6516 39.3643C37.8178 39.1668 38.9299 38.7278 39.9164 38.0752C41.4844 39.2986 43.0594 40.5127 44.6273 41.7361C42.9115 43.2964 40.8197 44.3843 38.557 44.8932C36.0596 45.4803 33.4569 45.4521 30.9727 44.8111C29.0079 44.2865 27.1727 43.3617 25.582 42.0947C23.8984 40.7581 22.5233 39.0736 21.5508 37.1564Z" fill="#319F43"/>
</g>
</g>
<defs>
<filter id="filter0_d_188_46" x="0.5" y="0.5" width="68" height="68" filterUnits="userSpaceOnUse" color-interpolation-filters="sRGB">
<feFlood flood-opacity="0" result="BackgroundImageFix"/>
<feColorMatrix in="SourceAlpha" type="matrix" values="0 0 0 0 0 0 0 0 0 0 0 0 0 0 0 0 0 0 127 0" result="hardAlpha"/>
<feOffset dy="4"/>
<feGaussianBlur stdDeviation="2"/>
<feComposite in2="hardAlpha" operator="out"/>
<feColorMatrix type="matrix" values="0 0 0 0 0 0 0 0 0 0 0 0 0 0 0 0 0 0 0.25 0"/>
<feBlend mode="normal" in2="BackgroundImageFix" result="effect1_dropShadow_188_46"/>
<feBlend mode="normal" in="SourceGraphic" in2="effect1_dropShadow_188_46" result="shape"/>
</filter>
<clipPath id="clip0_188_46">
<rect width="30" height="30" fill="white" transform="translate(19.5 15.5)"/>
</clipPath>
</defs>
</svg>
