<svg width="201" height="200" viewBox="0 0 201 200" fill="none" xmlns="http://www.w3.org/2000/svg">
<path fill-rule="evenodd" clip-rule="evenodd" d="M111.334 20.671L123.558 31.0671C126.223 33.3322 129.531 34.7028 133.017 34.9851L149.012 36.2776C157.16 36.9362 163.629 43.405 164.287 51.5534L165.58 67.5483C165.862 71.0338 167.233 74.3424 169.498 77.0065L179.894 89.2308C185.19 95.4581 185.19 104.607 179.894 110.834L169.498 123.058C167.233 125.723 165.862 129.031 165.58 132.517L164.287 148.512C163.629 156.66 157.16 163.129 149.012 163.787L133.017 165.08C129.531 165.362 126.223 166.733 123.558 168.998L111.334 179.394C105.107 184.69 95.9581 184.69 89.7308 179.394L77.5065 168.998C74.8425 166.733 71.5338 165.362 68.0483 165.08L52.0534 163.787C43.905 163.129 37.4362 156.66 36.7776 148.512L35.4847 132.517C35.2024 129.031 33.8319 125.723 31.5667 123.058L21.171 110.834C15.8753 104.607 15.8753 95.4581 21.171 89.2308L31.5671 77.0065C33.8322 74.3425 35.2028 71.0338 35.4851 67.5483L36.7776 51.5534C37.4362 43.405 43.905 36.9362 52.0534 36.2776L68.0483 34.9847C71.5338 34.7024 74.8425 33.3319 77.5065 31.0667L89.7308 20.671C95.9581 15.3753 105.107 15.3753 111.334 20.671ZM131.881 70.2269L92.1667 110.157L73.0589 91.0491L61.2749 102.833L92.1667 133.725L143.665 82.0108L131.881 70.2269Z" fill="#559C58"/>
</svg>
