<svg width="446" height="195" viewBox="0 0 446 195" fill="none" xmlns="http://www.w3.org/2000/svg">
<g opacity="0.6">
<path d="M0 0C147.18 0 294.36 0 446 0C446 73.59 446 147.18 446 223C298.82 223 151.64 223 0 223C0 149.41 0 75.82 0 0Z" fill="white"/>
<path d="M0 0C147.18 0 294.36 0 446 0C446 73.59 446 147.18 446 223C298.82 223 151.64 223 0 223C0 149.41 0 75.82 0 0ZM179.143 34.1933C178.434 34.3728 177.725 34.5522 176.995 34.737C155.061 40.4497 138.157 51.5057 121.721 66.8071C113.232 74.5627 103.781 81.0506 94.2736 87.4794C81.6799 95.9997 68.8536 104.975 61.9406 118.939C61.6862 119.451 61.4319 119.963 61.1698 120.491C58.1549 126.657 55.5122 132.98 52.8848 139.319C52.0388 141.359 51.1858 143.397 50.3318 145.433C42.6389 163.833 42.6389 163.833 36.4233 182.767C36.202 183.504 35.9806 184.241 35.7526 185C34.6298 188.875 33.9236 192.205 34.1933 196.24C33.4574 196.24 32.7215 196.24 31.9633 196.24C31.9633 199.919 31.9633 203.599 31.9633 207.39C158.048 207.39 284.132 207.39 414.037 207.39C414.037 203.71 414.037 200.031 414.037 196.24C412.81 196.24 411.584 196.24 410.32 196.24C410.359 195.51 410.359 195.51 410.398 194.765C410.778 181.979 405.142 170.564 399.216 159.538C395.183 151.906 391.638 144.342 388.78 136.188C385.346 126.392 381.954 116.857 376.87 107.783C376.461 107.049 376.052 106.315 375.63 105.559C364.41 86.7429 345.323 78.089 325.614 70.5581C318.915 67.9884 312.545 65.1389 306.253 61.6967C305.401 61.2348 304.55 60.773 303.672 60.2971C298.857 57.6156 294.228 54.7273 289.621 51.7081C279.954 45.3957 270.444 39.9875 259.423 36.4233C258.566 36.1416 257.708 35.8599 256.825 35.5697C233.257 28.5808 202.923 28.0183 179.143 34.1933Z" fill="#FEFEFF"/>
<path d="M296.079 90.083C300.121 92.8092 302.122 96.408 303.28 101.094C303.539 104.321 303.491 107.522 303.419 110.757C303.404 112.046 303.404 112.046 303.388 113.362C303.362 115.467 303.326 117.572 303.28 119.677C304.085 119.669 304.891 119.662 305.722 119.654C308.23 119.675 310.487 119.941 312.943 120.42C313.311 119.684 313.311 119.684 313.686 118.934C314.667 118.934 315.649 118.934 316.66 118.934C316.66 119.424 316.66 119.915 316.66 120.42C320.631 121.223 324.512 121.325 328.547 121.399C329.25 121.414 329.953 121.43 330.678 121.446C332.912 121.494 335.146 121.538 337.38 121.582C338.9 121.614 340.419 121.646 341.939 121.679C345.653 121.758 349.368 121.834 353.083 121.907C353.725 123.111 354.358 124.32 354.988 125.531C355.341 126.203 355.695 126.876 356.059 127.569C356.303 128.154 356.548 128.738 356.8 129.34C356.432 130.076 356.432 130.076 356.056 130.827C354.817 130.827 353.578 130.827 352.34 130.827C352.34 137.205 352.34 143.583 352.34 150.154C336.15 150.399 319.96 150.644 303.28 150.897C303.034 152.614 302.789 154.331 302.536 156.1C303.272 156.1 304.008 156.1 304.766 156.1C304.806 158.299 304.836 160.498 304.859 162.697C304.872 163.323 304.884 163.949 304.897 164.593C304.904 165.492 304.904 165.492 304.911 166.408C304.923 167.237 304.923 167.237 304.935 168.083C304.766 169.48 304.766 169.48 303.28 170.967C295.415 171.852 287.377 170.821 280.236 167.25C276.267 166.99 273.796 166.902 270.573 169.48C269.247 171.019 269.247 171.019 268.343 172.454C266.949 172.314 266.949 172.314 265.37 171.71C263.814 168.988 263.739 166.622 263.883 163.534C264.34 163.559 264.797 163.585 265.268 163.612C266.169 163.642 266.169 163.642 267.089 163.673C267.684 163.699 268.279 163.725 268.892 163.751C270.616 163.671 270.616 163.671 271.859 162.549C273.909 159.843 273.774 157.135 273.546 153.87C272.577 151.249 272.577 151.249 271.177 148.713C270.943 148.26 270.708 147.807 270.467 147.34C269.15 144.829 267.712 142.457 266.113 140.119C264.929 138.256 264.63 137.564 264.44 135.287C265.803 132.017 267.898 129.431 270.573 127.11C272.231 126.567 272.231 126.567 273.546 126.367C273.638 125.723 273.73 125.079 273.825 124.416C274.29 121.907 274.29 121.907 275.042 120.101C276.344 115.398 276.073 110.499 276.132 105.644C276.269 100.021 276.661 96.4013 280.887 92.3594C285.708 88.888 290.424 88.0559 296.079 90.083Z" fill="#2C2C2C"/>
<path d="M122.651 112.243C122.651 115.187 122.651 118.13 122.651 121.163C123.8 121.623 124.95 122.083 126.135 122.557C128.69 123.579 131.245 124.601 133.801 125.623C136.289 124.017 136.289 124.017 138.261 121.906C138.366 120.418 138.366 120.418 138.028 118.887C137.517 115.96 137.517 115.96 138.586 114.101C138.969 113.734 139.352 113.366 139.747 112.986C142.548 113.395 143.691 114.491 145.508 116.61C145.964 117.13 146.42 117.649 146.89 118.184C147.924 119.676 147.924 119.676 147.924 121.906C148.598 121.815 149.273 121.723 149.968 121.628C154.406 121.573 158.275 124.285 162.047 126.366C162.047 126.612 162.047 126.857 162.047 127.11C159.594 126.865 157.141 126.619 154.614 126.366C154.123 131.272 153.633 136.178 153.127 141.233C151.901 140.497 150.674 139.761 149.411 139.003C146.472 138.575 145.351 138.736 142.86 140.397C140.33 142.855 140.238 144.811 139.747 148.248C139.392 150.734 139.055 152.974 138.261 155.356C138.148 156.999 138.076 158.644 138.025 160.29C137.994 161.255 137.963 162.221 137.931 163.215C137.901 164.235 137.872 165.255 137.842 166.274C137.81 167.303 137.778 168.331 137.745 169.359C137.666 171.877 137.59 174.395 137.517 176.913C135.8 176.913 134.083 176.913 132.314 176.913C132.893 182.317 132.893 182.317 135.287 187.041C138.015 188.916 139.783 188.907 143.092 188.899C143.958 188.901 144.825 188.903 145.717 188.905C147.871 188.959 147.871 188.959 149.411 188.063C151.051 188.01 152.694 188.001 154.335 188.017C155.219 188.023 156.102 188.03 157.012 188.037C158.033 188.05 158.033 188.05 159.074 188.063C159.442 192.111 159.442 192.111 159.817 196.24C144.118 196.24 128.419 196.24 112.244 196.24C112.244 193.542 112.244 190.843 112.244 188.063C111.232 188.002 110.22 187.941 109.178 187.877C104.853 187.388 102.359 185.68 99.3749 182.535C94.9382 175.797 97.4345 164.161 98.2858 156.522C98.6829 152.921 98.9546 149.352 99.0825 145.731C99.3119 139.554 99.8107 133.841 104.16 129.108C107.27 127.282 110.473 125.68 113.731 124.136C113.671 123.604 113.612 123.071 113.55 122.522C113.788 119.75 114.835 118.629 116.611 116.517C117.146 115.87 117.68 115.222 118.231 114.554C119.763 112.894 120.391 112.243 122.651 112.243Z" fill="#C0E1FC"/>
<path d="M214.08 121.906C216.473 122.777 218.17 123.898 220.027 125.623C220.64 126.19 221.253 126.757 221.885 127.342C222.253 127.756 222.621 128.169 223 128.596C223.782 127.561 223.782 127.561 224.58 126.505C226.394 124.104 228.399 123.035 231.177 121.906C237.052 121.13 242.65 121.137 247.675 124.522C250.629 126.945 252.437 128.803 253.338 132.684C253.659 137.252 253.535 141.861 253.477 146.436C256.633 147.254 258.412 147.677 261.395 146.209C262.69 145.385 263.967 144.531 265.222 143.648C266.031 143.189 266.031 143.189 266.857 142.719C269.516 143.606 269.894 144.559 271.133 146.973C271.362 147.44 271.591 147.906 271.828 148.387C272.066 148.837 272.304 149.286 272.549 149.749C274.166 152.982 274.614 155.486 274.29 159.073C272.579 163.273 272.579 163.273 270.574 164.276C263.552 165.015 259.351 161.769 254.034 157.493C253.448 157.001 252.862 156.508 252.257 156.001C250.525 154.562 250.525 154.562 248.517 153.457C246.787 152.383 246.787 152.383 245.3 150.153C245.011 150.558 244.721 150.963 244.423 151.381C239.193 158.43 231.624 166.633 223.067 169.447C219.975 169.49 218.427 168.187 216.171 166.274C215.755 165.936 215.339 165.598 214.91 165.251C213.628 164.198 212.366 163.126 211.107 162.046C210.528 161.556 210.528 161.556 209.938 161.057C203.657 155.706 198.47 151.042 196.984 142.719C197.459 142.397 197.934 142.075 198.424 141.744C200.156 140.554 200.156 140.554 200.7 138.259C199.228 138.505 197.757 138.75 196.24 139.003C196.708 134.887 196.708 134.887 198.099 133.149C200.12 130.286 199.957 126.831 199.957 123.393C203.976 120.713 209.4 121.45 214.08 121.906Z" fill="#EF5350"/>
<path d="M198.47 124.136C199.614 125.045 199.614 125.045 200.7 126.366C200.632 130.071 199.368 133.23 196.983 136.029C196.459 137.625 196.459 137.625 196.24 139.002C197.712 138.757 199.184 138.512 200.7 138.259C200.468 139.653 200.468 139.653 199.957 141.232C199.221 141.723 198.485 142.214 197.727 142.719C198.082 143.804 198.438 144.887 198.795 145.971C198.994 146.575 199.192 147.178 199.396 147.8C199.921 149.417 199.921 149.417 200.7 150.896C200.21 150.896 199.719 150.896 199.213 150.896C198.968 151.632 198.723 152.368 198.47 153.126C197.384 153.947 197.384 153.947 195.961 154.752C192.637 156.705 189.667 159.003 186.652 161.401C180.841 164.9 174.868 165.338 168.22 165.237C167.422 165.234 166.624 165.231 165.802 165.227C163.28 165.215 160.759 165.187 158.237 165.158C156.516 165.147 154.795 165.137 153.075 165.128C148.88 165.104 144.685 165.065 140.49 165.019C140.49 168.453 140.49 171.887 140.49 175.426C152.51 175.426 164.53 175.426 176.913 175.426C176.913 179.841 176.913 184.257 176.913 188.806C173.961 188.793 173.961 188.793 170.949 188.78C169.048 188.774 167.146 188.769 165.244 188.765C163.921 188.761 162.597 188.756 161.273 188.75C159.373 188.741 157.472 188.736 155.572 188.733C154.978 188.729 154.384 188.725 153.772 188.722C150.75 188.647 150.75 188.647 147.923 189.549C146.362 189.66 144.796 189.714 143.231 189.735C141.971 189.764 141.971 189.764 140.685 189.793C138.007 189.524 136.674 188.933 134.543 187.319C132.916 184.877 132.795 183.728 132.592 180.861C132.537 180.123 132.481 179.384 132.424 178.623C132.387 178.058 132.351 177.494 132.313 176.912C134.031 176.912 135.748 176.912 137.517 176.912C137.509 176.283 137.501 175.653 137.493 175.004C137.468 172.652 137.449 170.3 137.435 167.947C137.428 166.932 137.418 165.917 137.405 164.902C137.386 163.437 137.379 161.972 137.372 160.507C137.364 159.627 137.356 158.747 137.348 157.841C137.522 155.283 138.123 153.291 139.003 150.896C139.118 149.66 139.198 148.42 139.236 147.179C139.552 143.301 140.667 141.662 143.463 139.002C145.552 137.958 147.097 138.074 149.41 138.259C151.042 139.386 151.042 139.386 152.383 140.489C152.482 139.594 152.581 138.699 152.683 137.777C152.815 136.606 152.948 135.435 153.08 134.264C153.145 133.673 153.21 133.083 153.276 132.475C153.786 128.021 153.786 128.021 154.613 126.366C167.887 126.945 167.887 126.945 173.94 128.596C173.834 130.237 173.725 131.879 173.615 133.52C173.555 134.434 173.494 135.349 173.432 136.29C173.222 138.716 172.892 141.068 172.453 143.462C171.718 143.708 170.982 143.953 170.223 144.206C170.469 142.979 170.714 141.753 170.967 140.489C170.231 140.244 169.495 139.998 168.737 139.746C169.105 139.378 169.105 139.378 169.48 139.002C169.51 137.764 169.512 136.524 169.48 135.286C168.744 135.04 168.008 134.795 167.25 134.542C167.25 135.524 167.25 136.505 167.25 137.516C166.514 137.27 165.778 137.025 165.02 136.772C164.772 135.781 164.525 134.79 164.277 133.799C163.541 133.554 162.805 133.308 162.047 133.056C162.047 133.546 162.047 134.037 162.047 134.542C162.783 134.542 163.519 134.542 164.277 134.542C164.277 135.033 164.277 135.524 164.277 136.029C162.56 136.274 160.843 136.52 159.073 136.772C159.073 136.282 159.073 135.791 159.073 135.286C157.847 135.531 156.62 135.776 155.357 136.029C155.357 138.727 155.357 141.426 155.357 144.206C156.093 142.489 156.829 140.772 157.587 139.002C157.096 138.757 156.606 138.512 156.1 138.259C156.836 138.014 157.572 137.768 158.33 137.516C158.693 138.992 159.056 140.468 159.419 141.944C159.75 143.207 160.147 144.453 160.56 145.692C160.07 145.692 159.579 145.692 159.073 145.692C158.828 147.164 158.583 148.636 158.33 150.152C159.066 150.643 159.802 151.134 160.56 151.639C160.56 151.148 160.56 150.658 160.56 150.152C161.051 150.152 161.541 150.152 162.047 150.152C162.047 151.134 162.047 152.115 162.047 153.126C162.783 152.88 163.519 152.635 164.277 152.382C164.277 150.42 164.277 148.458 164.277 146.436C163.296 146.19 162.314 145.945 161.303 145.692C161.871 145.493 162.438 145.294 163.022 145.088C164.926 144.247 165.91 143.528 167.25 141.976C167.342 142.819 167.434 143.662 167.529 144.531C167.682 145.405 167.836 146.279 167.993 147.179C168.484 147.424 168.975 147.67 169.48 147.922C168.744 148.168 168.008 148.413 167.25 148.666C167.25 150.138 167.25 151.609 167.25 153.126C168.967 153.371 170.684 153.616 172.453 153.869C172.54 153.329 172.626 152.788 172.715 152.231C173.207 150.106 173.909 148.524 174.962 146.622C175.275 146.043 175.587 145.464 175.909 144.868C176.913 143.462 176.913 143.462 179.143 142.719C180.967 143.837 180.967 143.837 183.046 145.367C185.804 147.333 185.804 147.333 189.013 147.94C190.587 147.502 190.587 147.502 192.523 146.436C192.515 145.754 192.506 145.071 192.497 144.368C192.477 141.588 192.493 138.81 192.523 136.029C192.515 135.135 192.515 135.135 192.506 134.223C192.707 129.681 195.394 127.156 198.47 124.136Z" fill="#FE9881"/>
<path d="M305.51 156.844C322.681 156.844 339.852 156.844 357.543 156.844C357.543 167.637 357.543 178.43 357.543 189.55C352.4 189.568 347.256 189.582 342.113 189.591C340.366 189.595 338.619 189.6 336.873 189.606C334.35 189.616 331.828 189.62 329.305 189.623C328.534 189.627 327.764 189.631 326.969 189.635C322.007 189.635 317.133 189.343 312.2 188.807C312.219 188.227 312.239 187.647 312.259 187.05C312.186 184.624 311.488 183.779 310.016 181.885C307.708 178.647 307.14 176.398 306.996 172.454C307.594 172.254 308.192 172.055 308.808 171.85C309.437 171.558 310.065 171.267 310.713 170.967C310.958 170.231 311.204 169.495 311.456 168.737C309.494 168.737 307.532 168.737 305.51 168.737C305.51 164.812 305.51 160.887 305.51 156.844Z" fill="#F8C764"/>
<path d="M210.364 111.499C211.915 112.673 213.354 113.938 214.824 115.216C219.813 116.879 226.945 116.957 231.734 114.612C234.073 113.219 234.073 113.219 235.138 111.723C236.38 110.756 236.38 110.756 238.448 110.884C244.489 112.438 250.594 114.314 254.964 118.933C254.964 119.423 254.964 119.914 254.964 120.419C255.454 120.419 255.945 120.419 256.45 120.419C256.838 121.167 256.838 121.167 257.234 121.93C258.412 124.199 259.591 126.467 260.771 128.735C261.381 129.912 261.381 129.912 262.003 131.112C262.399 131.871 262.794 132.631 263.201 133.413C263.744 134.458 263.744 134.458 264.298 135.525C265.35 137.548 265.35 137.548 266.667 139.491C266.975 140.066 267.283 140.641 267.6 141.233C266.503 144.525 264.259 145.365 261.343 147.055C258.908 148.156 257.457 148.114 254.964 147.179C254.473 146.934 253.982 146.689 253.477 146.436C253.219 144.898 253.219 144.898 253.111 142.891C253.062 142.169 253.013 141.447 252.963 140.703C252.873 139.176 252.787 137.648 252.707 136.121C252.508 131.814 252.508 131.814 250.451 128.169C249.978 127.819 249.505 127.47 249.017 127.109C249.017 126.619 249.017 126.128 249.017 125.623C248.465 125.408 247.913 125.193 247.344 124.972C245.3 124.136 245.3 124.136 244.023 123.361C239.817 121.596 233.505 121.81 229.229 123.352C226.308 125.108 224.193 127.26 222.257 130.083C221.434 128.8 220.612 127.518 219.789 126.235C217.321 123.555 214.77 122.727 211.2 122.327C210.178 122.314 209.156 122.314 208.134 122.324C207.624 122.309 207.114 122.294 206.589 122.279C201.608 122.284 199.191 124.295 195.636 127.519C192.744 131.193 193.335 136.192 193.197 140.645C192.904 146.089 192.904 146.089 190.726 148.077C188.807 148.666 188.807 148.666 187.088 148.294C184.819 147.028 182.669 145.627 180.532 144.151C179.038 143.207 179.038 143.207 176.914 144.206C175.652 146.442 175.652 146.442 174.544 149.084C173.953 150.419 173.953 150.419 173.351 151.782C173.055 152.471 172.759 153.16 172.454 153.869C169.878 153.501 169.878 153.501 167.25 153.126C166.786 150.989 166.786 150.989 166.507 148.666C166.998 148.175 167.488 147.685 167.994 147.179C167.503 145.708 167.012 144.236 166.507 142.719C165.526 143.701 164.545 144.682 163.534 145.693C163.779 146.107 164.024 146.521 164.277 146.947C165.118 148.891 165.137 150.287 165.02 152.383C163.548 152.751 163.548 152.751 162.047 153.126C162.047 152.145 162.047 151.164 162.047 150.153C161.556 150.153 161.066 150.153 160.56 150.153C160.56 150.643 160.56 151.134 160.56 151.639C159.579 151.149 158.598 150.658 157.587 150.153C157.832 149.463 158.078 148.773 158.33 148.062C159.45 144.493 158.813 142.452 157.587 139.003C157.265 140.268 157.265 140.268 156.937 141.558C156.661 142.432 156.385 143.306 156.1 144.206C155.364 144.574 155.364 144.574 154.614 144.949C154.594 143.478 154.579 142.007 154.567 140.536C154.559 139.717 154.55 138.897 154.541 138.053C154.614 136.029 154.614 136.029 155.357 135.286C156.595 135.256 157.835 135.254 159.074 135.286C159.074 135.777 159.074 136.267 159.074 136.773C161.649 136.405 161.649 136.405 164.277 136.029C164.277 135.539 164.277 135.048 164.277 134.543C163.541 134.543 162.805 134.543 162.047 134.543C162.047 134.052 162.047 133.562 162.047 133.056C163.028 133.301 164.009 133.547 165.02 133.799C165.112 134.275 165.204 134.75 165.299 135.24C165.452 135.746 165.606 136.251 165.764 136.773C166.254 137.018 166.745 137.263 167.25 137.516C167.25 136.535 167.25 135.554 167.25 134.543C168.231 134.788 169.213 135.033 170.224 135.286C170.255 136.525 170.254 137.764 170.224 139.003C169.978 139.248 169.733 139.493 169.48 139.746C169.971 139.991 170.461 140.237 170.967 140.489C170.967 141.471 170.967 142.452 170.967 143.463C171.703 143.463 172.439 143.463 173.197 143.463C173.442 142.236 173.688 141.01 173.94 139.746C177.471 140.396 177.471 140.396 179.144 141.233C180.17 139.201 181.153 137.155 182.108 135.089C182.389 134.488 182.669 133.887 182.958 133.268C183.537 132.025 184.114 130.78 184.688 129.534C189.148 120.011 193.47 115.26 203.627 111.499C206.145 110.775 207.884 110.427 210.364 111.499Z" fill="#81C3F8"/>
<path d="M229.969 69.1761C236.026 73.6471 237.914 79.1406 240.097 86.2263C240.37 87.0906 240.643 87.9549 240.924 88.8454C241.97 92.9478 242.108 96.8944 241.583 101.093C239.215 104.793 235.952 105.741 231.92 107.04C232.165 107.53 232.411 108.021 232.663 108.526C234.168 109.011 234.168 109.011 235.637 109.27C234.795 111.887 233.235 113.368 230.819 114.644C225.974 116.124 219.749 116.208 214.986 114.456C212.43 112.928 211.323 112.149 210.363 109.27C210.961 109.07 211.559 108.871 212.175 108.666C213.118 108.229 213.118 108.229 214.08 107.783C214.325 107.047 214.571 106.311 214.823 105.553C213.65 105.622 213.65 105.622 212.454 105.692C208.774 105.511 206.977 104.396 204.417 101.836C203.393 94.1519 204.699 83.1904 208.601 76.3742C214.25 69.1795 220.998 66.3518 229.969 69.1761Z" fill="#F4927D"/>
<path d="M316.66 118.933C316.66 119.423 316.66 119.914 316.66 120.419C320.632 121.222 324.513 121.324 328.548 121.398C329.602 121.421 329.602 121.421 330.679 121.445C332.913 121.493 335.147 121.537 337.381 121.581C338.9 121.613 340.42 121.645 341.939 121.678C345.654 121.757 349.369 121.833 353.084 121.906C353.726 123.11 354.359 124.319 354.988 125.53C355.342 126.202 355.696 126.875 356.06 127.568C356.304 128.153 356.548 128.737 356.8 129.339C356.555 129.83 356.31 130.32 356.057 130.826C354.818 130.826 353.579 130.826 352.34 130.826C352.34 137.204 352.34 143.582 352.34 150.153C338.849 150.153 325.357 150.153 311.457 150.153C311.457 143.775 311.457 137.397 311.457 130.826C310.23 130.826 309.004 130.826 307.74 130.826C308.243 126.802 309.969 123.037 312.485 119.868C313.687 118.933 313.687 118.933 316.66 118.933Z" fill="#FCD068"/>
<path d="M245.3 149.409C246.036 149.777 246.036 149.777 246.787 150.153C247.155 151.256 247.155 151.256 247.53 152.383C248.872 153.243 250.22 154.097 251.592 154.909C254.705 156.875 257.587 159.149 260.509 161.384C262.268 162.779 262.268 162.779 263.883 163.533C264.331 165.198 264.594 166.867 264.879 168.567C265.443 170.468 266.207 171.092 267.6 172.453C267.968 173.924 267.968 173.924 268.343 175.426C241.851 175.426 215.359 175.426 188.063 175.426C188.807 171.709 188.807 171.709 189.55 170.223C189.578 168.844 189.604 167.466 189.615 166.088C189.734 159.206 189.734 159.206 191.394 156.604C193.191 155.079 194.979 154.11 197.108 153.12C198.598 152.481 198.598 152.481 199.213 150.896C201.69 151.943 202.913 153.113 204.556 155.216C207.568 158.695 210.942 161.532 214.545 164.369C215.086 164.809 215.628 165.25 216.186 165.704C219.313 168.135 219.313 168.135 223.122 168.823C231.573 165.494 240.464 156.986 245.3 149.409Z" fill="#81C3F8"/>
<path d="M306.918 119.505C308.705 119.7 309.904 120.28 311.456 121.163C311.233 121.682 311.01 122.201 310.78 122.737C310.356 123.751 310.356 123.751 309.923 124.787C309.496 125.796 309.496 125.796 309.061 126.825C308.258 128.582 308.258 128.582 309.226 130.083C309.962 130.328 310.698 130.573 311.456 130.826C311.456 137.204 311.456 143.582 311.456 150.153C308.758 150.398 306.06 150.643 303.28 150.896C303.034 152.613 302.789 154.33 302.536 156.099C303.272 156.099 304.008 156.099 304.766 156.099C304.806 158.299 304.836 160.497 304.859 162.697C304.872 163.322 304.884 163.948 304.897 164.593C304.904 165.491 304.904 165.491 304.911 166.407C304.923 167.237 304.923 167.237 304.935 168.082C304.766 169.479 304.766 169.479 303.28 170.966C295.415 171.851 287.377 170.82 280.236 167.249C276.267 166.989 273.796 166.901 270.573 169.479C269.247 171.018 269.247 171.018 268.343 172.453C266.949 172.313 266.949 172.313 265.37 171.709C263.814 168.988 263.739 166.621 263.883 163.533C264.34 163.559 264.797 163.585 265.268 163.611C266.169 163.641 266.169 163.641 267.089 163.672C267.684 163.698 268.279 163.724 268.892 163.751C270.616 163.67 270.616 163.67 271.859 162.548C273.909 159.842 273.774 157.134 273.546 153.869C272.577 151.249 272.577 151.249 271.177 148.713C270.943 148.259 270.708 147.806 270.467 147.339C269.15 144.828 267.712 142.456 266.113 140.118C264.929 138.255 264.63 137.564 264.44 135.286C265.803 132.016 267.898 129.43 270.573 127.109C272.231 126.566 272.231 126.566 273.546 126.366C273.735 126.86 273.924 127.353 274.118 127.862C274.374 128.518 274.63 129.174 274.894 129.851C275.144 130.497 275.394 131.144 275.651 131.81C276.452 133.823 276.452 133.823 277.719 135.513C279.356 138.695 279.048 141.93 279.011 145.45C279.074 148.423 279.353 150.381 281.194 152.781C283.122 154.946 283.122 154.946 286.183 154.613C285.938 153.632 285.692 152.65 285.44 151.639C286.553 150.865 287.666 150.091 288.779 149.317C290.468 147.416 290.468 147.416 291.386 141.976C299.113 140.872 299.113 140.872 306.996 139.746C305.555 133.189 303.853 126.809 301.793 120.419C303.174 119.038 305.082 119.543 306.918 119.505Z" fill="#C0E1FC"/>
<path d="M266.114 61.6968C267.43 62.536 267.43 62.536 268.344 63.9268C269.271 68.3094 269.05 72.2034 267.012 76.2092C265.551 78.386 264.044 80.4708 262.398 82.5101C263.609 81.7028 264.818 80.8922 266.016 80.0653C271.048 76.7171 271.048 76.7171 274.291 77.3068C275.034 78.0501 275.034 78.0501 275.313 79.7226C275.006 81.9779 274.405 82.9227 272.732 84.4411C264.259 90.6868 264.259 90.6868 260.911 90.6868C260.911 94.3663 260.911 98.0458 260.911 101.837C261.616 101.086 262.322 100.334 263.048 99.5603C266.2 96.4086 269.679 93.6555 273.548 91.4301C274.284 91.4301 275.02 91.4301 275.778 91.4301C276.142 96.8017 276.142 96.8017 274.584 99.2613C272.531 101.375 270.543 102.535 267.926 103.881C267.082 104.322 266.238 104.763 265.368 105.217C263.141 106.297 263.141 106.297 260.911 107.04C260.42 109.738 259.93 112.437 259.424 115.217C259.963 114.903 260.501 114.59 261.056 114.267C261.775 113.86 262.494 113.453 263.234 113.033C264.295 112.425 264.295 112.425 265.377 111.805C267.648 110.735 269.579 110.304 272.061 110.013C270.681 116.224 267.627 120.153 262.34 123.681C261.145 124.373 259.916 125.006 258.681 125.623C256.451 122.093 256.451 122.093 256.451 120.42C255.96 120.42 255.47 120.42 254.964 120.42C254.474 119.884 253.983 119.347 253.478 118.794C249.943 115.102 244.275 112.644 239.354 111.5C236.021 111.663 234.435 113.143 231.921 115.217C227.171 117.609 220.313 117.767 215.248 116.114C213.105 114.914 211.213 113.373 209.621 111.5C209.989 110.764 209.989 110.764 210.364 110.013C210.916 110.473 211.468 110.933 212.037 111.407C217.202 115.399 222.671 115.1 228.948 114.473C231.846 113.383 234.225 112.095 235.638 109.27C234.411 109.025 233.185 108.78 231.921 108.527C231.676 107.791 231.43 107.055 231.178 106.297C231.751 106.108 232.324 105.919 232.914 105.725C233.66 105.469 234.405 105.213 235.173 104.95C235.915 104.699 236.656 104.449 237.421 104.192C239.566 103.434 239.566 103.434 240.841 101.093C241.042 99.334 241.174 97.5661 241.259 95.7972C241.512 90.7596 241.512 90.7596 242.328 89.9435C245.436 89.5778 247.09 89.6822 249.808 91.2908C253.445 94.6937 256.22 99.9392 257.194 104.81C258.238 102.722 258.149 100.912 258.217 98.5847C258.271 97.3113 258.271 97.3113 258.327 96.0121C258.164 93.5419 258.164 93.5419 256.207 92.0428C255.552 91.5953 254.896 91.1478 254.221 90.6868C250.549 86.5827 247.531 82.2049 247.531 76.5635C251.536 76.1994 251.536 76.1994 253.501 77.7714C255.191 79.8102 256.045 81.7206 257.009 84.1826C257.327 84.9837 257.645 85.7848 257.973 86.6101C258.206 87.2195 258.44 87.8289 258.681 88.4568C258.565 87.6289 258.449 86.801 258.33 85.9481C257.882 82.3243 257.693 78.7257 257.613 75.0768C257.579 74.4444 257.545 73.812 257.509 73.1604C257.432 68.7633 258.419 66.2315 261.071 62.7363C262.837 61.3528 263.924 61.4405 266.114 61.6968Z" fill="#66BB6A"/>
<path d="M171.71 61.6963C173.801 61.6963 173.801 61.6963 176.17 62.4396C177.749 64.7625 177.749 64.7625 178.441 66.2086C179.188 67.8472 179.188 67.8472 180.816 69.873C183.215 73.9309 182.328 79.4385 182.117 83.9963C182.297 83.4405 182.477 82.8848 182.662 82.3122C183.036 81.2141 183.036 81.2141 183.417 80.0938C183.78 79.0072 183.78 79.0072 184.149 77.8986C185.164 75.6556 186.162 74.3963 188.063 72.8463C190.107 72.6605 190.107 72.6605 191.78 72.8463C191.304 78.5526 189.648 82.7475 185.229 86.505C183.485 88.1117 182.904 88.7603 182.665 91.1509C182.823 94.533 182.823 94.533 184.347 97.3763C184.651 96.7496 184.956 96.123 185.27 95.4773C185.67 94.6628 186.071 93.8484 186.484 93.0092C186.88 92.1986 187.277 91.3879 187.686 90.5527C188.807 88.4563 188.807 88.4563 190.293 86.9696C192.198 86.8302 192.198 86.8302 194.01 86.9696C194.753 87.713 194.753 87.713 194.986 90.0359C194.573 95.1533 191.836 98.0684 188.621 101.836C186.688 104.218 185.88 105.336 185.229 108.387C185.981 111.337 187.229 112.559 189.55 114.473C189.611 113.706 189.673 112.94 189.736 112.15C190.356 108.943 191.173 107.3 193.267 104.81C195.703 103.318 197.097 102.58 199.957 102.58C200.202 105.708 199.589 107.34 197.912 109.966C197.505 110.61 197.098 111.254 196.678 111.918C196.288 112.516 195.898 113.114 195.497 113.73C195.206 114.19 194.916 114.649 194.617 115.123C193.339 117.112 191.999 118.791 190.293 120.42C189.803 121.156 189.312 121.891 188.807 122.65C188.316 122.65 187.825 122.65 187.32 122.65C187.02 122.09 186.72 121.53 186.411 120.954C184.725 118.375 183.063 117.659 180.305 116.331C176.831 114.656 174.601 113.263 172.453 110.013C172.453 109.522 172.453 109.032 172.453 108.526C171.763 108.204 171.763 108.204 171.059 107.876C169.48 107.04 169.48 107.04 167.993 105.553C167.9 102.858 167.9 102.858 167.993 100.35C171.9 99.9685 174.588 100.964 177.657 103.323C179.005 104.746 180.167 106.232 181.373 107.783C181.864 108.028 182.354 108.274 182.86 108.526C182.442 106.019 182.072 103.944 180.63 101.836C178.81 100.745 177.049 99.7849 175.148 98.863C168.701 95.7014 168.701 95.7014 166.507 92.9163C166.321 90.5005 166.321 90.5005 166.507 88.4563C167.61 88.0883 167.61 88.0883 168.737 87.713C170.801 88.8367 170.801 88.8367 173.15 90.454C174.31 91.2402 174.31 91.2402 175.493 92.0423C177.657 93.6596 177.657 93.6596 180.63 96.633C180.63 93.4441 180.63 90.2552 180.63 86.9696C179.158 86.479 177.686 85.9884 176.17 85.483C172.162 83.6345 168.985 81.8211 166.507 78.0496C166.997 77.0684 167.488 76.0872 167.993 75.0763C171.709 75.4302 173.924 76.5865 176.913 78.793C176.073 77.089 175.205 75.4083 174.306 73.7348C173.711 72.6051 173.711 72.6051 173.104 71.4525C172.703 70.7032 172.303 69.9539 171.89 69.1819C170.9 66.7345 170.73 65.0535 170.967 62.4396C171.212 62.1943 171.457 61.949 171.71 61.6963Z" fill="#66BB6A"/>
<path d="M72.103 128.597C75.8349 130.718 78.8867 134.181 80.2797 138.26C80.6041 140.409 80.7876 142.516 80.8924 144.686C80.9128 146.451 80.9128 146.451 81.7664 147.923C81.7855 147.207 81.8047 146.49 81.8244 145.751C81.8666 144.812 81.9087 143.873 81.9522 142.906C81.9867 141.974 82.0212 141.043 82.0567 140.084C82.5628 137.215 83.2391 136.321 85.483 134.543C86.2189 134.789 86.9548 135.034 87.713 135.287C88.098 145.439 88.098 145.439 86.5516 149.038C85.3458 151.974 85.2725 153.111 86.2264 156.1C87.1345 157.905 88.1323 159.582 89.1997 161.303C89.2275 160.471 89.2553 159.638 89.2839 158.78C89.3327 157.685 89.3821 156.591 89.432 155.496C89.4571 154.673 89.4571 154.673 89.4828 153.834C89.684 149.791 89.684 149.791 90.968 147.903C92.173 147.18 92.173 147.18 94.1243 147.366C95.8897 147.923 95.8897 147.923 96.633 148.667C97.1284 153.83 96.3796 158.27 94.9112 163.202C94.2901 165.424 94.0129 167.195 94.403 169.48C94.8783 169.909 95.3536 170.339 95.8432 170.781C98.244 173.4 97.9883 176.446 98.1197 179.887C90.8332 180.423 85.42 179.207 78.793 176.17C78.5477 174.453 78.3024 172.736 78.0497 170.967C80.4073 169.788 82.9818 169.942 85.5759 169.805C86.1365 169.773 86.697 169.741 87.2746 169.708C88.6594 169.629 90.0445 169.554 91.4297 169.48C90.9391 168.254 90.4485 167.027 89.943 165.763C89.2687 165.725 89.2687 165.725 88.5808 165.686C86.5246 165.559 84.4712 165.406 82.4168 165.252C81.7096 165.213 81.0025 165.173 80.2739 165.132C75.5971 164.758 73.0701 164.076 69.873 160.56C69.5014 158.562 69.5014 158.562 69.873 156.843C71.628 155.088 72.0751 155.119 74.4724 155.078C78.1773 155.144 80.1949 156.312 83.253 158.33C84.3569 158.698 84.3569 158.698 85.483 159.073C85.2147 158.661 84.9464 158.249 84.67 157.825C84.325 157.286 83.9801 156.748 83.6247 156.193C83.2797 155.658 82.9348 155.124 82.5794 154.573C81.7664 153.127 81.7664 153.127 81.7664 151.64C81.0755 151.666 80.3846 151.692 79.6728 151.718C69.8966 151.932 69.8966 151.932 66.1564 149.41C65.413 147.459 65.413 147.459 65.413 145.693C66.1564 144.95 66.1564 144.95 68.1802 144.877C68.9995 144.886 69.8187 144.895 70.6628 144.904C71.8946 144.914 71.8946 144.914 73.1512 144.924C73.7865 144.933 74.4218 144.941 75.0764 144.95C74.5829 144.572 74.0894 144.195 73.581 143.806C64.3042 136.574 64.3042 136.574 63.5547 132.546C63.9264 130.827 63.9264 130.827 64.6697 129.479C67.1013 128.036 69.4173 127.994 72.103 128.597Z" fill="#66BB6A"/>
<path d="M381.33 156.843C382.724 157.633 382.724 157.633 383.56 159.073C383.487 163.027 382.624 165.212 379.843 167.993C378.15 169.312 376.423 170.509 374.64 171.71C375.376 171.464 376.112 171.219 376.87 170.966C377.907 170.917 378.945 170.903 379.983 170.92C381.386 170.943 381.386 170.943 382.817 170.966C383.328 172.314 383.328 172.314 383.56 173.94C382.191 175.788 381.327 176.171 379.1 176.913C377.644 176.913 376.189 176.913 374.733 176.913C371.317 177.108 371.317 177.108 368.769 179.192C367.852 180.885 367.095 182.529 366.463 184.346C367.242 184.132 368.021 183.917 368.824 183.696C369.849 183.417 370.874 183.138 371.899 182.86C372.412 182.718 372.925 182.576 373.454 182.43C375.649 181.836 377.558 181.373 379.843 181.373C380.122 183.046 380.122 183.046 379.843 185.09C376.952 188.064 374.589 188.217 370.505 188.388C366.673 188.549 366.673 188.549 363.397 190.479C361.978 192.452 361.978 192.452 361.056 194.483C359.773 196.24 359.773 196.24 357.925 196.687C356.823 196.674 356.823 196.674 355.699 196.662C354.866 196.661 354.033 196.661 353.174 196.661C352.275 196.642 351.376 196.622 350.45 196.603C349.529 196.597 348.608 196.592 347.659 196.587C345.214 196.569 342.769 196.536 340.324 196.495C337.828 196.457 335.331 196.44 332.835 196.421C327.938 196.38 323.043 196.318 318.147 196.24C318.147 194.032 318.147 191.824 318.147 189.55C316.43 189.55 314.712 189.55 312.943 189.55C312.943 189.304 312.943 189.059 312.943 188.806C318.539 188.789 324.135 188.776 329.73 188.768C332.328 188.764 334.926 188.759 337.525 188.75C340.51 188.741 343.495 188.737 346.48 188.734C347.884 188.728 347.884 188.728 349.315 188.722C350.178 188.722 351.041 188.722 351.93 188.722C352.693 188.72 353.455 188.719 354.241 188.717C356.057 188.806 356.057 188.806 357.543 189.55C357.543 183.417 357.543 177.285 357.543 170.966C360.517 171.71 360.517 171.71 362.003 173.196C362.9 175.785 362.975 178.471 363.165 181.187C363.227 182.057 363.289 182.927 363.354 183.824C363.399 184.487 363.444 185.15 363.49 185.833C365.819 181.953 365.819 181.953 366.37 177.564C365.748 175.424 365.748 175.424 364.93 173.382C363.977 170.078 364.112 166.948 364.233 163.533C365.215 163.288 366.196 163.043 367.207 162.79C369.2 165.077 369.75 166.653 369.948 169.666C369.997 170.329 370.045 170.992 370.096 171.675C370.138 172.428 370.138 172.428 370.18 173.196C370.276 172.334 370.276 172.334 370.375 171.454C371.058 166.384 371.979 162.269 375.383 158.33C377.786 156.728 378.544 156.495 381.33 156.843Z" fill="#66BB6A"/>
<path d="M138.26 87.7129C141.171 90.0499 143.821 92.8105 144.448 96.609C144.587 98.3282 144.629 100.019 144.625 101.743C144.625 102.343 144.625 102.943 144.626 103.561C144.531 106.887 144.359 109.233 142.069 111.825C141.306 112.472 140.532 113.109 139.747 113.73C139.256 114.465 138.765 115.201 138.26 115.96C138.459 116.895 138.658 117.83 138.864 118.794C139.131 120.364 139.131 120.364 139.003 121.906C137.517 123.764 135.779 125.063 133.8 126.366C129.762 124.787 125.848 122.968 121.907 121.163C122.152 117.483 122.397 113.804 122.65 110.013C121.914 109.768 121.178 109.522 120.42 109.27C119.38 103.029 118.887 97.2056 121.907 91.4296C125.563 86.4389 132.71 86.667 138.26 87.7129Z" fill="#F3927D"/>
<path d="M292.13 92.916C294.421 93.1536 295.545 93.3421 297.159 95.0386C300.894 100.906 300.894 100.906 301.05 104.809C301.087 105.456 301.123 106.103 301.16 106.769C301.3 110.8 301.278 113.359 298.82 116.703C298.295 118.704 298.295 118.704 298.077 120.419C299.303 120.419 300.53 120.419 301.793 120.419C303.556 123.687 304.726 126.92 305.65 130.501C305.781 130.981 305.913 131.462 306.049 131.957C306.748 134.611 307.15 137.002 306.997 139.746C301.827 141.266 296.755 141.665 291.387 141.976C289.661 138.939 290.078 137.248 290.643 133.799C291.365 128.57 290.045 125.39 287.304 120.922C284.287 115.568 283.912 110.094 284.697 104.066C285.84 101.5 287.361 99.5182 289.157 97.376C289.757 96.5012 290.347 95.6194 290.922 94.7279C291.52 93.831 291.52 93.831 292.13 92.916Z" fill="#F7957C"/>
<path d="M229.968 69.1773C236.026 73.6483 237.914 79.1418 240.096 86.2275C240.369 87.0918 240.643 87.9561 240.924 88.8465C241.984 93.0025 242.957 98.5909 240.802 102.517C238.548 104.791 236.84 105.546 233.685 105.601C232.443 105.578 232.443 105.578 231.176 105.554C230.92 101.285 230.92 98.0872 233.406 94.4041C234.142 94.1588 234.878 93.9135 235.636 93.6608C235.882 91.4531 236.127 89.2454 236.38 86.9708C235.828 86.6795 235.276 86.3882 234.707 86.0881C230.579 83.3674 228.747 79.4307 226.716 75.0775C224.237 74.9154 224.237 74.9154 221.513 75.8208C219.929 77.8984 218.843 80.124 217.796 82.5108C218.532 82.7561 219.268 83.0014 220.026 83.2541C220.026 83.7447 220.026 84.2353 220.026 84.7408C216.592 85.4767 213.158 86.2126 209.62 86.9708C209.736 91.9213 209.736 91.9213 211.803 93.382C212.562 93.888 212.562 93.888 213.336 94.4041C215.416 97.8349 214.958 101.68 214.823 105.554C211.088 105.774 208.933 105.575 205.903 103.324C203.996 101.417 204.195 100.681 204.184 98.0279C204.334 89.7111 205.195 79.6309 211.22 73.4311C216.827 68.2604 222.469 66.8162 229.968 69.1773Z" fill="#0D2131"/>
<path d="M138.259 160.56C143.088 160.484 147.917 160.432 152.746 160.396C154.389 160.381 156.032 160.361 157.676 160.335C160.036 160.299 162.395 160.282 164.755 160.269C165.492 160.254 166.228 160.239 166.987 160.223C167.671 160.223 168.356 160.222 169.061 160.222C169.663 160.216 170.266 160.209 170.886 160.202C173.034 160.692 173.485 161.742 174.683 163.533C175.419 164.024 176.155 164.514 176.913 165.02C164.893 165.02 152.873 165.02 140.489 165.02C140.489 168.454 140.489 171.888 140.489 175.426C152.509 175.426 164.529 175.426 176.913 175.426C176.913 179.842 176.913 184.257 176.913 188.806C168.082 188.561 159.251 188.316 150.153 188.063C149.785 186.959 149.785 186.959 149.409 185.833C147.909 185.906 146.409 185.978 144.909 186.051C144.432 185.979 143.954 185.907 143.463 185.833C142.972 185.097 142.482 184.361 141.976 183.603C143.203 183.603 144.429 183.603 145.693 183.603C145.693 183.112 145.693 182.622 145.693 182.116C143.71 180.719 141.692 179.419 139.613 178.169C138.259 176.913 138.259 176.913 137.922 175.159C137.937 174.485 137.953 173.812 137.969 173.118C137.983 172.022 137.983 172.022 137.998 170.904C138.023 170.143 138.048 169.381 138.074 168.597C138.087 167.827 138.1 167.057 138.114 166.264C138.149 164.362 138.198 162.461 138.259 160.56Z" fill="#FBCF6B"/>
<path d="M277.264 178.401C285.03 178.122 292.61 178.986 300.307 179.888C300.307 180.378 300.307 180.869 300.307 181.374C300.767 181.451 301.227 181.528 301.701 181.607C303.281 182.118 303.281 182.118 304.767 184.348C304.826 186.081 304.833 187.818 304.767 189.551C305.181 189.643 305.595 189.735 306.022 189.83C307.905 190.339 309.658 191.031 311.457 191.781C311.825 190.677 311.825 190.677 312.201 189.551C314.163 189.551 316.125 189.551 318.147 189.551C318.147 191.759 318.147 193.966 318.147 196.241C302.939 196.241 287.73 196.241 272.061 196.241C272.551 194.033 273.042 191.826 273.547 189.551C274.038 189.551 274.528 189.551 275.034 189.551C274.882 189.019 274.729 188.487 274.572 187.939C274.236 185.426 274.718 184.187 275.731 181.885C276.013 181.229 276.296 180.573 276.587 179.896C276.922 179.156 276.922 179.156 277.264 178.401Z" fill="#5985FD"/>
<path d="M154.613 126.367C167.887 126.946 167.887 126.946 173.94 128.597C173.834 130.239 173.725 131.88 173.615 133.522C173.554 134.436 173.494 135.35 173.432 136.292C173.221 138.718 172.892 141.07 172.453 143.464C171.717 143.709 170.981 143.954 170.223 144.207C170.469 142.981 170.714 141.754 170.967 140.491C170.231 140.245 169.495 140 168.737 139.747C169.105 139.379 169.105 139.379 169.48 139.004C169.51 137.765 169.512 136.526 169.48 135.287C168.744 135.042 168.008 134.797 167.25 134.544C167.25 135.525 167.25 136.506 167.25 137.517C166.514 137.272 165.778 137.027 165.02 136.774C164.772 135.783 164.524 134.792 164.277 133.801C163.541 133.555 162.805 133.31 162.047 133.057C162.047 133.548 162.047 134.038 162.047 134.544C162.783 134.544 163.518 134.544 164.277 134.544C164.277 135.034 164.277 135.525 164.277 136.031C162.56 136.276 160.842 136.521 159.073 136.774C159.073 136.283 159.073 135.793 159.073 135.287C157.847 135.532 156.62 135.778 155.357 136.031C155.357 138.729 155.357 141.427 155.357 144.207C156.093 142.49 156.828 140.773 157.587 139.004C157.096 138.759 156.605 138.513 156.1 138.261C156.836 138.015 157.572 137.77 158.33 137.517C158.693 138.993 159.056 140.469 159.419 141.945C159.75 143.209 160.147 144.455 160.56 145.694C160.069 145.694 159.579 145.694 159.073 145.694C158.828 147.166 158.583 148.637 158.33 150.154C159.066 150.644 159.802 151.135 160.56 151.641C160.56 151.15 160.56 150.659 160.56 150.154C161.051 150.154 161.541 150.154 162.047 150.154C162.047 151.135 162.047 152.116 162.047 153.127C162.783 152.882 163.518 152.637 164.277 152.384C164.277 150.421 164.277 148.459 164.277 146.437C163.295 146.192 162.314 145.947 161.303 145.694C161.871 145.495 162.438 145.295 163.022 145.09C164.926 144.249 165.91 143.529 167.25 141.977C167.342 142.82 167.434 143.664 167.529 144.532C167.682 145.406 167.835 146.28 167.993 147.181C168.484 147.426 168.974 147.671 169.48 147.924C168.744 148.169 168.008 148.414 167.25 148.667C167.25 150.139 167.25 151.611 167.25 153.127C168.967 153.372 170.684 153.618 172.453 153.871C172.208 154.852 171.963 155.833 171.71 156.844C169.279 156.865 166.847 156.879 164.416 156.89C163.726 156.897 163.035 156.903 162.324 156.909C161.66 156.912 160.997 156.914 160.313 156.916C159.396 156.922 159.396 156.922 158.461 156.928C156.843 156.844 156.843 156.844 154.613 156.101C154.368 154.383 154.123 152.666 153.87 150.897C152.889 150.652 151.908 150.407 150.897 150.154C150.651 150.644 150.406 151.135 150.153 151.641C147.7 151.641 145.247 151.641 142.72 151.641C143.147 154.764 143.147 154.764 145.693 156.101C143.649 156.782 142.453 156.925 140.351 156.89C139.415 156.875 138.48 156.86 137.517 156.844C137.747 156.016 137.977 155.188 138.213 154.335C138.846 151.891 139.106 149.606 139.236 147.088C139.554 143.264 140.706 141.627 143.463 139.004C145.551 137.96 147.097 138.075 149.41 138.261C151.042 139.387 151.042 139.387 152.383 140.491C152.482 139.596 152.581 138.701 152.682 137.779C152.815 136.607 152.947 135.436 153.08 134.265C153.145 133.675 153.21 133.085 153.276 132.476C153.786 128.022 153.786 128.022 154.613 126.367Z" fill="#F3CC6D"/>
<path d="M114.473 172.453C116.586 172.717 116.586 172.717 118.698 172.981C119.55 173.088 119.55 173.088 120.42 173.196C122.526 173.46 124.632 173.723 126.738 173.986C127.279 174.054 127.819 174.121 128.376 174.191C129.688 174.355 131.001 174.519 132.313 174.683C132.422 175.678 132.422 175.678 132.534 176.692C132.645 177.562 132.756 178.433 132.871 179.329C132.974 180.191 133.078 181.054 133.184 181.942C133.873 184.631 134.635 185.606 136.773 187.32C138.893 188.38 140.731 188.161 143.091 188.156C143.958 188.158 144.824 188.16 145.716 188.162C147.871 188.215 147.871 188.215 149.41 187.32C151.051 187.267 152.693 187.257 154.334 187.273C155.218 187.28 156.101 187.287 157.012 187.294C157.692 187.302 158.372 187.311 159.073 187.32C159.441 191.367 159.441 191.367 159.816 195.496C144.117 195.496 128.418 195.496 112.243 195.496C112.243 188.942 112.243 188.942 113.73 186.576C117.242 184.863 121.034 184.696 124.88 184.346C124.88 181.403 124.88 178.459 124.88 175.426C123.577 175.212 122.274 174.997 120.931 174.776C118.201 174.326 116.811 174.012 114.473 172.453Z" fill="#5281FD"/>
<path d="M246.043 124.879C248.469 124.966 249.233 125.828 251.014 127.527C254.916 132.613 253.553 140.386 253.476 146.436C256.632 147.254 258.412 147.676 261.395 146.209C262.689 145.384 263.966 144.531 265.222 143.648C265.761 143.341 266.301 143.035 266.856 142.719C269.515 143.605 269.894 144.559 271.132 146.973C271.476 147.673 271.476 147.673 271.828 148.387C272.066 148.836 272.304 149.286 272.549 149.749C274.166 152.982 274.613 155.486 274.29 159.072C272.578 163.273 272.578 163.273 270.573 164.276C263.551 165.015 259.351 161.768 254.034 157.493C253.448 157 252.861 156.508 252.257 156C250.52 154.556 250.52 154.556 248.471 153.442C246.786 152.382 246.786 152.382 246.043 150.385C246.043 147.121 246.984 144.966 248.273 141.976C247.292 141.485 246.311 140.994 245.3 140.489C245.3 139.753 245.3 139.017 245.3 138.259C246.772 138.504 248.243 138.75 249.76 139.002C249.423 138.22 249.085 137.438 248.738 136.633C248.535 136.156 248.331 135.678 248.122 135.187C247.653 134.086 247.175 132.99 246.694 131.894C245.944 129.807 245.55 127.824 245.3 125.622C245.545 125.377 245.79 125.132 246.043 124.879Z" fill="#FC9880"/>
<path d="M289.767 169.545C292.558 170.347 294.991 170.421 297.891 170.41C298.869 170.414 299.846 170.418 300.853 170.422C303.343 170.483 303.343 170.483 304.767 168.737C306.376 168.592 306.376 168.592 308.205 168.645C309.116 168.665 309.116 168.665 310.046 168.685C310.745 168.711 310.745 168.711 311.457 168.737C311.212 169.719 310.967 170.7 310.714 171.711C309.733 171.956 308.752 172.201 307.741 172.454C307.884 176.392 308.438 178.62 310.76 181.839C312.308 183.991 312.919 184.92 313.316 187.6C312.944 189.551 312.944 189.551 311.457 191.781C306.568 190.966 306.568 190.966 304.767 189.551C304.303 186.996 304.303 186.996 304.024 184.347C302.744 181.933 302.744 181.933 300.307 181.374C300.307 180.884 300.307 180.393 300.307 179.887C299.432 179.909 298.558 179.932 297.656 179.954C292.579 179.953 287.557 179.357 282.514 178.819C281.518 178.718 280.523 178.616 279.527 178.515C272.253 177.753 272.253 177.753 270.574 176.914C270.574 176.424 270.574 175.933 270.574 175.427C269.593 175.182 268.612 174.937 267.601 174.684C268.097 171.333 269.94 169.027 272.618 167.018C278.551 165.206 284.228 167.412 289.767 169.545Z" fill="#FB9A81"/>
<path d="M316.66 118.933C316.66 119.423 316.66 119.914 316.66 120.419C320.632 121.222 324.513 121.324 328.548 121.398C329.602 121.421 329.602 121.421 330.679 121.445C332.913 121.493 335.147 121.537 337.381 121.581C338.9 121.613 340.42 121.645 341.939 121.678C345.654 121.757 349.369 121.833 353.084 121.906C353.726 123.11 354.359 124.319 354.988 125.53C355.342 126.202 355.696 126.875 356.06 127.568C356.304 128.153 356.548 128.737 356.8 129.339C356.555 129.83 356.31 130.32 356.057 130.826C355.566 130.826 355.076 130.826 354.57 130.826C353.834 131.071 353.098 131.317 352.34 131.569C351.026 131.638 349.709 131.664 348.393 131.665C347.587 131.668 346.78 131.67 345.95 131.673C345.079 131.671 344.207 131.67 343.31 131.668C341.967 131.669 341.967 131.669 340.596 131.67C338.701 131.671 336.805 131.669 334.909 131.666C332.008 131.662 329.108 131.666 326.207 131.671C324.367 131.67 322.526 131.669 320.685 131.668C319.817 131.67 318.948 131.671 318.054 131.673C317.243 131.67 316.432 131.668 315.596 131.665C314.885 131.665 314.174 131.664 313.441 131.664C311.47 131.57 309.661 131.265 307.74 130.826C308.243 126.802 309.969 123.037 312.485 119.868C313.687 118.933 313.687 118.933 316.66 118.933Z" fill="#F8C764"/>
<path d="M140.49 165.021C152.51 165.021 164.53 165.021 176.914 165.021C178.4 169.481 178.4 169.481 178.4 175.427C165.89 175.427 153.38 175.427 140.49 175.427C140.49 171.993 140.49 168.559 140.49 165.021Z" fill="#FCFBF7"/>
<path d="M363.489 123.021C365.719 123.393 365.719 123.393 367.02 124.183C368.361 126.262 368.851 128.44 369.436 130.826C369.706 130.451 369.976 130.075 370.255 129.688C373.314 125.735 373.314 125.735 376.312 125.159C378.356 125.623 378.356 125.623 379.843 127.853C379.843 133.121 377.983 136.486 374.639 140.49C367.969 147.11 367.969 147.11 364.465 147.273C363.898 147.242 363.33 147.211 362.746 147.18C360.028 140.189 357.143 132.245 359.866 124.833C361.259 123.393 361.259 123.393 363.489 123.021Z" fill="#FEFEFF"/>
<path d="M355.1 150.117C356.41 150.101 357.721 150.121 359.03 150.153C359.774 150.897 359.774 150.897 359.774 156.1C340.886 156.1 321.998 156.1 302.537 156.1C302.537 154.383 302.537 152.666 302.537 150.897C309.025 150.799 315.513 150.702 322 150.606C325.013 150.561 328.026 150.516 331.039 150.471C333.95 150.427 336.862 150.384 339.773 150.341C340.88 150.324 341.987 150.308 343.094 150.291C347.096 150.23 351.098 150.189 355.1 150.117Z" fill="#F8C764"/>
<path d="M316.659 135.287C326.716 135.287 336.774 135.287 347.136 135.287C347.136 137.985 347.136 140.684 347.136 143.464C337.079 143.464 327.021 143.464 316.659 143.464C316.659 140.765 316.659 138.067 316.659 135.287Z" fill="#FAF9F4"/>
<path d="M138.26 87.7129C141.167 90.1618 143.977 92.8193 144.366 96.7635C144.408 99.5851 144.229 102.085 143.463 104.81C142.727 104.81 141.991 104.81 141.233 104.81C140.857 103.262 140.487 101.713 140.118 100.164C139.911 99.3013 139.704 98.4389 139.491 97.5504C139.003 95.1462 139.003 95.1462 139.003 92.1729C138.758 92.9088 138.512 93.6447 138.26 94.4029C137.524 94.6482 136.788 94.8935 136.03 95.1462C135.524 96.0661 135.524 96.0661 135.008 97.0045C133.8 98.8629 133.8 98.8629 131.988 99.4204C131.045 99.5123 131.045 99.5123 130.083 99.6062C128.02 99.9697 128.02 99.9697 126.366 101.093C125.128 101.123 123.888 101.125 122.65 101.093C122.65 101.829 122.65 102.565 122.65 103.323C121.914 103.323 121.178 103.323 120.42 103.323C119.38 98.8816 119.746 95.499 121.906 91.4295C125.565 86.4398 132.708 86.6665 138.26 87.7129Z" fill="#2C2C2C"/>
<path d="M250.503 154.614C253.279 156.002 255.589 157.614 258.029 159.492C260.832 161.704 260.832 161.704 263.883 163.534C264.331 165.2 264.594 166.869 264.879 168.569C265.442 170.47 266.207 171.094 267.6 172.454C267.845 173.435 268.09 174.417 268.343 175.428C262.456 175.428 256.569 175.428 250.503 175.428C250.503 168.559 250.503 161.691 250.503 154.614Z" fill="#E7EFFD"/>
<path d="M312.943 188.807C327.171 188.807 341.398 188.807 356.057 188.807C356.057 189.052 356.057 189.297 356.057 189.55C353.849 189.55 351.641 189.55 349.367 189.55C351.206 192.862 351.206 192.862 353.083 196.24C341.554 196.24 330.025 196.24 318.147 196.24C318.147 194.032 318.147 191.825 318.147 189.55C316.43 189.55 314.712 189.55 312.943 189.55C312.943 189.305 312.943 189.059 312.943 188.807Z" fill="#E6F0FF"/>
<path d="M102.58 104.067C104.392 104.253 104.392 104.253 106.296 104.811C109.02 108.896 108.819 113.694 107.969 118.423C107.34 121.158 106.488 123.335 104.81 125.624C99.1357 123.663 94.1613 119.075 91.4298 113.731C91.151 111.687 91.151 111.687 91.4298 110.014C91.9204 109.523 92.411 109.033 92.9164 108.527C97.7195 108.87 97.7195 108.87 99.6064 110.757C99.7588 110.337 99.9111 109.916 100.068 109.483C100.268 108.937 100.469 108.392 100.675 107.831C100.873 107.287 101.072 106.744 101.276 106.184C101.836 104.811 101.836 104.811 102.58 104.067Z" fill="#FEFEFF"/>
<path d="M137.517 156.844C137.762 157.825 138.007 158.806 138.26 159.817C149.544 159.817 160.828 159.817 172.453 159.817C172.453 160.062 172.453 160.308 172.453 160.56C161.17 160.56 149.886 160.56 138.26 160.56C137.078 175.891 137.078 175.891 142.767 180.538C144.728 181.551 144.728 181.551 146.437 182.117C146.192 182.853 145.946 183.589 145.693 184.347C144.712 184.347 143.731 184.347 142.72 184.347C143.833 185.46 144.941 185.337 146.483 185.509C147.449 185.616 148.415 185.723 149.41 185.834C149.655 186.57 149.901 187.306 150.153 188.064C147.526 189.815 146.298 189.772 143.185 189.783C142.351 189.795 141.517 189.808 140.659 189.82C138.011 189.522 136.656 188.914 134.543 187.32C132.916 184.879 132.795 183.729 132.592 180.863C132.509 179.755 132.509 179.755 132.424 178.624C132.387 178.06 132.351 177.495 132.313 176.914C134.031 176.914 135.748 176.914 137.517 176.914C137.517 170.291 137.517 163.668 137.517 156.844Z" fill="#F19B7E"/>
<path d="M319.633 108.526C319.387 109.508 319.142 110.489 318.889 111.5C319.38 111.5 319.871 111.5 320.376 111.5C320.131 112.481 319.885 113.462 319.633 114.473C320.123 114.473 320.614 114.473 321.119 114.473C321.365 113.737 321.61 113.001 321.863 112.243C323.825 112.243 325.788 112.243 327.809 112.243C327.809 113.224 327.809 114.205 327.809 115.216C328.3 115.216 328.791 115.216 329.296 115.216C329.25 114.649 329.204 114.082 329.157 113.497C329.296 111.5 329.296 111.5 330.179 110.152C331.982 108.971 333.127 108.998 335.243 109.27C336.729 110.756 336.729 110.756 336.729 112.986C336.285 113.278 335.84 113.569 335.382 113.869C332.944 115.89 332.505 118.179 331.526 121.163C328.092 121.163 324.658 121.163 321.119 121.163C321.119 120.672 321.119 120.182 321.119 119.676C320.138 119.676 319.157 119.676 318.146 119.676C318.146 119.186 318.146 118.695 318.146 118.19C319.127 118.19 320.108 118.19 321.119 118.19C321.119 117.699 321.119 117.209 321.119 116.703C319.924 117.071 319.924 117.071 318.704 117.446C315.916 118.19 315.916 118.19 312.943 118.19C312.943 117.454 312.943 116.718 312.943 115.96C313.433 115.96 313.924 115.96 314.429 115.96C314.429 115.469 314.429 114.979 314.429 114.473C313.693 114.473 312.958 114.473 312.199 114.473C312.199 113.982 312.199 113.492 312.199 112.986C312.69 112.741 313.181 112.496 313.686 112.243C312.95 111.998 312.214 111.752 311.456 111.5C311.456 111.009 311.456 110.519 311.456 110.013C314.338 109.126 316.597 108.526 319.633 108.526Z" fill="#212121"/>
<path d="M150.896 149.409C153.777 150.06 153.777 150.06 154.613 150.896C154.613 152.613 154.613 154.33 154.613 156.099C160.255 156.344 165.897 156.59 171.71 156.843C171.71 157.824 171.71 158.805 171.71 159.816C160.671 159.816 149.633 159.816 138.26 159.816C138.26 158.835 138.26 157.853 138.26 156.843C140.835 156.475 140.835 156.475 143.463 156.099C142.972 155.363 142.482 154.627 141.976 153.869C142.222 152.888 142.467 151.907 142.72 150.896C145.173 151.141 147.626 151.386 150.153 151.639C150.398 150.903 150.644 150.167 150.896 149.409Z" fill="#FBCF69"/>
<path d="M158.329 137.517C158.692 138.993 159.055 140.469 159.418 141.945C159.749 143.208 160.146 144.454 160.559 145.693C160.069 145.693 159.578 145.693 159.073 145.693C158.827 147.165 158.582 148.637 158.329 150.153C159.065 150.644 159.801 151.134 160.559 151.64C160.559 151.149 160.559 150.659 160.559 150.153C161.05 150.153 161.54 150.153 162.046 150.153C162.046 151.134 162.046 152.116 162.046 153.127C162.782 152.881 163.518 152.636 164.276 152.383C164.276 150.421 164.276 148.458 164.276 146.437C163.295 146.191 162.313 145.946 161.303 145.693C162.153 145.394 162.153 145.394 163.021 145.089C164.925 144.248 165.909 143.529 167.249 141.977C167.341 142.82 167.433 143.663 167.528 144.532C167.681 145.406 167.835 146.28 167.993 147.18C168.483 147.425 168.974 147.671 169.479 147.923C168.743 148.169 168.007 148.414 167.249 148.667C167.249 150.138 167.249 151.61 167.249 153.127C168.966 153.372 170.683 153.617 172.453 153.87C172.207 154.851 171.962 155.832 171.709 156.843C169.278 156.865 166.847 156.878 164.415 156.89C163.725 156.896 163.034 156.902 162.323 156.909C161.66 156.911 160.996 156.913 160.312 156.916C159.396 156.922 159.396 156.922 158.46 156.928C156.843 156.843 156.843 156.843 154.613 156.1C154.367 154.383 154.122 152.666 153.869 150.897C153.179 150.736 153.179 150.736 152.475 150.571C150.896 150.153 150.896 150.153 149.409 149.41C149.813 149.095 150.216 148.779 150.632 148.455C154.172 145.552 156.16 143.369 157.586 139.003C157.095 138.758 156.605 138.513 156.099 138.26C157.586 137.517 157.586 137.517 158.329 137.517Z" fill="#0D2131"/>
<path d="M190.294 158.33C190.355 160.204 190.399 162.077 190.433 163.952C190.452 164.475 190.471 164.999 190.49 165.538C190.543 169.391 189.79 171.98 188.064 175.427C184.707 175.484 181.678 175.503 178.401 174.683C178.293 173.84 178.186 172.997 178.075 172.128C177.946 169.623 177.946 169.623 176.914 168.737C176.884 167.25 176.882 165.763 176.914 164.277C177.628 164.1 177.628 164.1 178.357 163.92C181.61 163.042 187.659 158.33 190.294 158.33Z" fill="#C0E1FC"/>
<path d="M340.448 112.243C342.165 112.488 343.882 112.734 345.651 112.986C346.019 114.826 346.019 114.826 346.394 116.703C347.376 116.213 348.357 115.722 349.368 115.216C350.529 116.099 350.529 116.099 351.598 117.446C351.365 119.444 351.365 119.444 350.854 121.163C351.59 121.408 352.326 121.654 353.084 121.906C342.537 121.906 331.989 121.906 321.121 121.906C321.121 121.661 321.121 121.416 321.121 121.163C324.555 121.163 327.989 121.163 331.528 121.163C332.011 119.553 332.011 119.553 332.503 117.911C333.327 115.167 333.493 114.65 335.988 112.986C336.724 113.722 337.46 114.458 338.218 115.216C338.954 114.235 339.69 113.254 340.448 112.243Z" fill="#F2C0E9"/>
<path d="M159.073 188.063C161.071 188.043 163.069 188.028 165.066 188.017C165.625 188.01 166.185 188.004 166.761 187.998C170.228 187.983 173.493 188.23 176.913 188.806C176.913 191.259 176.913 193.712 176.913 196.24C171.271 196.24 165.629 196.24 159.817 196.24C159.571 193.541 159.326 190.843 159.073 188.063Z" fill="#E7F0FE"/>
<path d="M162.047 133.057C163.028 133.302 164.009 133.547 165.02 133.8C165.266 134.781 165.511 135.762 165.764 136.773C166.5 136.773 167.235 136.773 167.994 136.773C167.994 138.981 167.994 141.189 167.994 143.463C167.503 143.218 167.012 142.973 166.507 142.72C165.526 143.701 164.545 144.682 163.534 145.693C163.779 146.107 164.024 146.521 164.277 146.948C165.118 148.892 165.137 150.288 165.02 152.383C164.039 152.629 163.058 152.874 162.047 153.127C162.047 152.145 162.047 151.164 162.047 150.153C161.556 150.153 161.066 150.153 160.56 150.153C160.56 150.644 160.56 151.135 160.56 151.64C159.579 151.149 158.598 150.659 157.587 150.153C157.832 149.463 158.078 148.773 158.33 148.063C159.45 144.494 158.813 142.453 157.587 139.003C157.372 139.847 157.158 140.69 156.937 141.559C156.661 142.432 156.385 143.306 156.1 144.207C155.364 144.575 155.364 144.575 154.614 144.95C154.594 143.479 154.579 142.008 154.567 140.536C154.559 139.717 154.55 138.898 154.541 138.054C154.614 136.03 154.614 136.03 155.357 135.287C156.595 135.256 157.835 135.255 159.074 135.287C159.074 135.777 159.074 136.268 159.074 136.773C161.649 136.405 161.649 136.405 164.277 136.03C164.277 135.539 164.277 135.049 164.277 134.543C163.541 134.543 162.805 134.543 162.047 134.543C162.047 134.053 162.047 133.562 162.047 133.057Z" fill="#F9FBFD"/>
<path d="M102.58 185.089C104.33 185.796 106.065 186.539 107.783 187.319C109.261 187.615 110.747 187.88 112.243 188.063C111.998 189.044 111.753 190.025 111.5 191.036C111.132 190.668 111.132 190.668 110.757 190.293C106.784 190.604 106.784 190.604 103.044 191.826C99.0685 193.246 94.6333 193.132 90.733 191.501C88.4566 190.293 88.4566 190.293 86.2266 188.806C86.2266 188.316 86.2266 187.825 86.2266 187.319C86.7823 187.283 87.3381 187.247 87.9107 187.209C88.6427 187.154 89.3748 187.098 90.1291 187.041C91.2157 186.963 91.2157 186.963 92.3242 186.884C96.2032 186.31 98.3994 184.735 102.58 185.089Z" fill="#CFE2FF"/>
<path d="M149.41 138.26C151.103 139.356 152.398 140.575 153.87 141.977C153.625 142.713 153.379 143.449 153.127 144.207C150.033 144.267 147.219 144.194 144.207 143.463C144.452 144.69 144.697 145.916 144.95 147.18C143.11 146.444 143.11 146.444 141.233 145.693C141.233 146.184 141.233 146.675 141.233 147.18C143.809 148.652 143.809 148.652 146.437 150.153C146.437 150.399 146.437 150.644 146.437 150.897C145.21 151.142 143.984 151.387 142.72 151.64C142.925 153.083 142.925 153.083 143.463 154.613C144.199 155.104 144.935 155.595 145.693 156.1C143.649 156.782 142.453 156.924 140.351 156.89C138.948 156.867 138.948 156.867 137.517 156.843C137.747 156.016 137.977 155.188 138.213 154.335C138.846 151.89 139.106 149.606 139.236 147.087C139.554 143.263 140.706 141.626 143.463 139.003C145.621 137.925 147.011 137.983 149.41 138.26Z" fill="#0D2131"/>
<path d="M114.473 173.196C116.585 173.46 116.585 173.46 118.698 173.724C119.55 173.831 119.55 173.831 120.419 173.94C122.526 174.203 124.632 174.466 126.738 174.729C127.278 174.797 127.819 174.865 128.375 174.934C129.688 175.098 131 175.262 132.313 175.426C132.457 177.145 132.595 178.864 132.731 180.583C132.809 181.54 132.886 182.498 132.966 183.484C132.996 184.259 133.026 185.034 133.056 185.833C131.532 187.357 128.425 186.852 126.32 186.948C122.087 187.147 117.93 187.491 113.729 188.063C115.752 186.04 117.333 186.125 120.141 185.74C121.024 185.615 121.908 185.491 122.818 185.363C123.498 185.272 124.179 185.182 124.879 185.09C124.879 182.146 124.879 179.202 124.879 176.17C123.576 175.955 122.273 175.74 120.931 175.519C118.2 175.07 116.811 174.755 114.473 173.196Z" fill="#C0E1FC"/>
<path d="M195.497 154.614C195.518 157.665 195.532 160.716 195.543 163.767C195.549 164.634 195.556 165.502 195.562 166.396C195.565 167.227 195.567 168.058 195.569 168.915C195.573 169.682 195.577 170.448 195.581 171.239C195.497 173.198 195.497 173.198 194.753 175.428C192.546 175.428 190.338 175.428 188.063 175.428C188.714 171.897 188.714 171.897 189.55 170.224C189.649 167.753 189.734 165.286 189.739 162.813C189.844 159.813 190.191 158.458 192.094 156.092C194.01 154.614 194.01 154.614 195.497 154.614Z" fill="#E6EFFF"/>
<path d="M174.683 128.598C175.465 128.95 176.247 129.303 177.053 129.666C179.219 130.6 181.26 131.216 183.603 131.571C181.454 138.703 181.454 138.703 179.143 141.234C177.426 140.989 175.709 140.744 173.94 140.491C173.449 141.472 172.959 142.453 172.453 143.464C173.032 133.33 173.032 133.33 174.683 128.598Z" fill="#E5EEFE"/>
<path d="M262.396 165.02C262.89 166.342 262.89 166.342 263.14 167.994C261.31 171.191 258.344 173.99 254.963 175.427C252.501 175.566 252.501 175.566 250.503 175.427C250.503 173.219 250.503 171.012 250.503 168.737C251.784 168.109 253.07 167.492 254.359 166.879C255.433 166.361 255.433 166.361 256.528 165.833C258.672 165.023 260.132 164.855 262.396 165.02Z" fill="#D0E3FF"/>
<path d="M166.507 141.977C167.994 143.463 167.994 143.463 168.087 145.414C168.056 145.997 168.026 146.58 167.994 147.18C168.485 147.425 168.975 147.67 169.481 147.923C168.745 148.169 168.009 148.414 167.251 148.667C167.251 150.138 167.251 151.61 167.251 153.127C168.968 153.372 170.685 153.617 172.454 153.87C172.209 154.851 171.963 155.832 171.711 156.843C167.786 156.843 163.861 156.843 159.817 156.843C159.817 151.64 159.817 151.64 160.561 150.153C161.051 150.153 161.542 150.153 162.047 150.153C162.047 151.134 162.047 152.116 162.047 153.127C162.783 152.881 163.519 152.636 164.277 152.383C164.277 150.421 164.277 148.458 164.277 146.437C163.296 146.191 162.315 145.946 161.304 145.693C161.887 145.494 162.469 145.295 163.069 145.089C165.23 144.319 165.23 144.319 166.507 141.977Z" fill="#9F3735"/>
<path d="M270.574 176.913C272.782 177.158 274.99 177.404 277.264 177.656C277.023 178.664 277.023 178.664 276.776 179.692C276.569 180.569 276.362 181.445 276.149 182.349C275.942 183.22 275.735 184.091 275.522 184.988C274.958 187.287 274.958 187.287 275.034 189.55C274.544 189.55 274.053 189.55 273.548 189.55C273.387 190.792 273.387 190.792 273.222 192.059C272.804 194.753 272.804 194.753 272.061 196.24C271.57 196.24 271.08 196.24 270.574 196.24C270.574 189.862 270.574 183.484 270.574 176.913Z" fill="#E5EDFD"/>
<path d="M144.207 142.72C145.263 142.787 146.317 142.904 147.366 143.045C149.804 143.348 152.152 143.542 154.614 143.463C153.769 145.363 152.868 146.757 151.547 148.388C150 149.973 150 149.973 150.154 151.64C148.682 151.64 147.21 151.64 145.694 151.64C145.694 151.149 145.694 150.659 145.694 150.153C143.118 148.681 143.118 148.681 140.49 147.18C140.736 146.444 140.981 145.708 141.234 144.95C142.215 145.44 143.196 145.931 144.207 146.436C144.452 145.7 144.698 144.965 144.95 144.206C144.46 143.961 143.969 143.716 143.464 143.463C143.709 143.218 143.954 142.972 144.207 142.72Z" fill="#F4927D"/>
<path d="M81.0227 107.783C81.7586 107.783 82.4945 107.783 83.2527 107.783C85.1066 111.273 84.8571 113.695 83.996 117.447C82.4687 118.367 82.4687 118.367 81.0227 118.933C75.9218 114.418 75.9218 114.418 75.4941 111.546C75.6015 111.04 75.7088 110.534 75.8193 110.013C77.6591 110.381 77.6591 110.381 79.536 110.757C80.0266 109.775 80.5172 108.794 81.0227 107.783Z" fill="#FDFDFF"/>
<path d="M150.898 149.409C151.879 149.654 152.86 149.9 153.871 150.153C153.626 151.379 153.38 152.606 153.128 153.869C152.637 153.869 152.146 153.869 151.641 153.869C151.886 154.85 152.131 155.832 152.384 156.843C145.66 157.304 145.66 157.304 142.953 155.542C141.978 153.869 141.978 153.869 142.721 150.896C145.174 151.141 147.627 151.386 150.154 151.639C150.4 150.903 150.645 150.167 150.898 149.409Z" fill="#FCF6F3"/>
<path d="M319.633 108.526C319.387 109.508 319.142 110.489 318.889 111.5C319.38 111.5 319.871 111.5 320.376 111.5C320.131 112.481 319.885 113.462 319.633 114.473C320.123 114.473 320.614 114.473 321.119 114.473C321.119 115.209 321.119 115.945 321.119 116.703C318.238 117.59 315.978 118.19 312.943 118.19C312.943 117.454 312.943 116.718 312.943 115.96C313.433 115.96 313.924 115.96 314.429 115.96C314.429 115.469 314.429 114.978 314.429 114.473C313.693 114.473 312.958 114.473 312.199 114.473C312.199 113.982 312.199 113.492 312.199 112.986C312.69 112.741 313.181 112.496 313.686 112.243C312.95 111.998 312.214 111.752 311.456 111.5C311.456 111.009 311.456 110.519 311.456 110.013C314.338 109.126 316.597 108.526 319.633 108.526Z" fill="#163752"/>
<path d="M178.399 168.736C182.094 169.042 185.42 169.328 188.806 170.966C188.561 172.438 188.315 173.91 188.063 175.426C184.706 175.483 181.677 175.502 178.399 174.683C178.399 172.721 178.399 170.758 178.399 168.736Z" fill="#C0E1FC"/>
<path d="M349.507 115.449C349.952 115.617 350.396 115.786 350.854 115.96C351.691 119.491 351.691 119.491 350.854 121.163C351.59 121.408 352.326 121.654 353.084 121.906C342.537 121.906 331.989 121.906 321.121 121.906C321.121 121.661 321.121 121.416 321.121 121.163C324.555 121.163 327.989 121.163 331.528 121.163C331.773 120.673 332.018 120.182 332.271 119.676C332.271 120.167 332.271 120.658 332.271 121.163C336.441 121.163 340.611 121.163 344.908 121.163C345.153 119.937 345.398 118.71 345.651 117.446C346.914 115.643 347.281 115.131 349.507 115.449Z" fill="#EBADA0"/>
<path d="M162.047 130.084C163.379 130.189 164.71 130.298 166.042 130.409C167.154 130.5 167.154 130.5 168.289 130.592C170.223 130.827 170.223 130.827 171.71 131.571C171.71 132.797 171.71 134.024 171.71 135.287C169.48 135.287 169.48 135.287 167.25 134.544C167.25 135.525 167.25 136.506 167.25 137.517C166.514 137.272 165.778 137.027 165.02 136.774C164.772 135.783 164.524 134.792 164.277 133.801C163.541 133.555 162.805 133.31 162.047 133.057C162.047 133.548 162.047 134.039 162.047 134.544C162.782 134.544 163.518 134.544 164.277 134.544C164.277 135.035 164.277 135.525 164.277 136.031C162.559 136.276 160.842 136.521 159.073 136.774C159.553 134.183 160.635 132.293 162.047 130.084Z" fill="#134B87"/>
<path d="M333.013 191.037C332.455 194.568 332.455 194.568 330.783 196.241C328.865 196.348 327.029 196.379 325.115 196.334C324.59 196.327 324.065 196.32 323.524 196.313C322.227 196.296 320.93 196.269 319.633 196.241C323.97 191.787 326.651 189.638 333.013 191.037Z" fill="#D0E2FF"/>
<path d="M162.047 133.057C163.028 133.302 164.009 133.547 165.02 133.8C165.266 134.781 165.511 135.762 165.764 136.773C166.5 136.773 167.235 136.773 167.994 136.773C167.994 138.981 167.994 141.189 167.994 143.463C166.507 141.233 166.507 141.233 166.786 139.607C167.016 138.94 167.016 138.94 167.25 138.26C166.514 138.628 166.514 138.628 165.764 139.003C162.912 139.13 160.363 138.913 157.587 138.26C157.51 138.95 157.434 139.64 157.355 140.351C156.82 142.831 156.419 143.338 154.614 144.95C154.594 143.479 154.579 142.008 154.567 140.536C154.559 139.717 154.55 138.898 154.541 138.054C154.614 136.03 154.614 136.03 155.357 135.287C156.595 135.256 157.835 135.255 159.074 135.287C159.074 135.777 159.074 136.268 159.074 136.773C161.649 136.405 161.649 136.405 164.277 136.03C164.277 135.539 164.277 135.049 164.277 134.543C163.541 134.543 162.805 134.543 162.047 134.543C162.047 134.053 162.047 133.562 162.047 133.057Z" fill="#97B2E6"/>
<path d="M333.385 109.084C335.243 109.27 335.243 109.27 336.73 110.756C336.73 111.492 336.73 112.228 336.73 112.986C336.285 113.278 335.841 113.569 335.382 113.869C333.01 115.835 332.43 118.283 331.526 121.163C331.036 121.163 330.545 121.163 330.04 121.163C330 119.46 329.971 117.756 329.947 116.053C329.93 115.104 329.912 114.155 329.895 113.178C330.069 110.265 330.405 109.382 333.385 109.084Z" fill="#0D2131"/>
<path d="M310.713 111.5C311.94 111.5 313.166 111.5 314.43 111.5C314.184 111.991 313.939 112.481 313.686 112.987C313.196 112.987 312.705 112.987 312.2 112.987C312.2 113.477 312.2 113.968 312.2 114.473C312.936 114.473 313.671 114.473 314.43 114.473C314.43 114.964 314.43 115.455 314.43 115.96C313.939 115.96 313.448 115.96 312.943 115.96C312.943 116.696 312.943 117.432 312.943 118.19C313.464 117.945 313.986 117.699 314.523 117.447C316.853 116.636 318.671 116.589 321.12 116.703C321.12 117.194 321.12 117.685 321.12 118.19C320.138 118.19 319.157 118.19 318.146 118.19C318.146 118.681 318.146 119.171 318.146 119.677C319.128 119.677 320.109 119.677 321.12 119.677C321.12 120.167 321.12 120.658 321.12 121.163C319.403 121.163 317.685 121.163 315.916 121.163C316.162 120.427 316.407 119.692 316.66 118.933C316.215 119.179 315.77 119.424 315.312 119.677C313.686 120.42 313.686 120.42 311.456 120.42C310.726 117.407 310.652 114.593 310.713 111.5Z" fill="#F7FAFA"/>
<path d="M209.621 110.014C210.219 110.497 210.219 110.497 210.829 110.989C216.585 115.079 222.163 115.461 228.948 114.474C230.835 113.679 232.221 112.866 233.794 111.57C234.894 110.757 234.894 110.757 237.124 110.757C236.34 111.476 235.549 112.186 234.755 112.894C234.315 113.291 233.875 113.687 233.422 114.096C228.609 117.69 222.772 117.216 217.054 116.704C214.103 115.74 211.533 113.975 209.621 111.5C209.621 111.01 209.621 110.519 209.621 110.014Z" fill="#6589F6"/>
<path d="M195.496 154.614C195.496 157.558 195.496 160.501 195.496 163.534C194.269 163.534 193.043 163.534 191.779 163.534C191.289 164.025 190.798 164.515 190.293 165.021C189.71 159.082 189.71 159.082 192.058 156.054C194.009 154.614 194.009 154.614 195.496 154.614Z" fill="#CFE1FE"/>
<path d="M160.56 144.95C160.806 145.441 161.051 145.931 161.304 146.437C162.285 146.437 163.266 146.437 164.277 146.437C164.522 148.399 164.768 150.362 165.02 152.384C164.039 152.629 163.058 152.874 162.047 153.127C162.047 152.146 162.047 151.164 162.047 150.154C161.556 150.154 161.066 150.154 160.56 150.154C160.56 150.644 160.56 151.135 160.56 151.64C159.579 151.15 158.598 150.659 157.587 150.154C158.034 148.652 158.533 147.165 159.074 145.694C159.564 145.448 160.055 145.203 160.56 144.95Z" fill="#ECEEF4"/>
<path d="M173.196 133.8C176.032 134.934 177.631 135.679 179.886 137.516C179.641 138.743 179.396 139.969 179.143 141.233C177.426 140.988 175.709 140.743 173.94 140.49C173.449 141.471 172.959 142.452 172.453 143.463C172.698 140.274 172.944 137.085 173.196 133.8Z" fill="#5985FA"/>
<path d="M369.808 193.174C370.536 193.172 371.265 193.17 372.015 193.168C373.896 193.267 373.896 193.267 375.383 194.01C375.383 194.746 375.383 195.482 375.383 196.24C370.722 196.24 366.062 196.24 361.26 196.24C364.682 193.673 365.689 193.163 369.808 193.174Z" fill="#CFE2FF"/>
<path d="M167.25 147.923C170.053 148.227 171.562 148.568 173.94 150.153C173.45 151.379 172.959 152.606 172.454 153.87C170.736 153.624 169.019 153.379 167.25 153.126C166.967 151.646 166.72 150.158 166.507 148.666C166.752 148.421 166.997 148.176 167.25 147.923Z" fill="#FAF9FB"/>
<path d="M158.331 137.517C158.694 138.993 159.057 140.469 159.42 141.945C159.751 143.208 160.148 144.454 160.561 145.693C160.07 145.693 159.58 145.693 159.074 145.693C158.829 146.674 158.584 147.656 158.331 148.667C157.595 148.667 156.859 148.667 156.101 148.667C155.172 147.18 155.172 147.18 154.614 144.95C155.375 142.829 156.43 140.931 157.588 139.003C157.097 138.758 156.606 138.513 156.101 138.26C157.588 137.517 157.588 137.517 158.331 137.517Z" fill="#326499"/>
<path d="M357.543 183.604C360.976 188.753 360.976 188.753 360.517 192.524C359.495 194.614 359.495 194.614 358.287 196.24C357.796 196.24 357.305 196.24 356.8 196.24C356.555 194.032 356.309 191.825 356.057 189.55C356.547 189.55 357.038 189.55 357.543 189.55C357.543 187.588 357.543 185.625 357.543 183.604Z" fill="#E5EFFF"/>
<path d="M335.244 112.986C337.474 113.73 337.474 113.73 338.263 115.216C338.493 115.707 338.723 116.198 338.96 116.703C339.451 116.948 339.941 117.194 340.447 117.446C340.447 118.428 340.447 119.409 340.447 120.42C338.239 120.174 336.031 119.929 333.757 119.676C334.407 113.823 334.407 113.823 335.244 112.986Z" fill="#D9EDFD"/>
<path d="M340.446 112.243C342.185 112.457 343.921 112.704 345.65 112.986C345.756 118.508 345.756 118.508 344.906 121.163C343.925 121.163 342.944 121.163 341.933 121.163C342.002 119.967 342.002 119.967 342.073 118.747C341.929 115.879 341.638 115.002 339.703 112.986C339.948 112.741 340.194 112.496 340.446 112.243Z" fill="#0D0D0D"/>
<path d="M124.881 127.11C125.371 127.11 125.862 127.11 126.367 127.11C126.404 130.139 126.431 133.169 126.449 136.198C126.456 137.228 126.467 138.259 126.479 139.289C126.497 140.77 126.505 142.252 126.512 143.734C126.52 144.625 126.528 145.517 126.536 146.435C126.367 148.667 126.367 148.667 124.881 150.897C124.274 147.779 124.086 144.944 124.227 141.774C124.263 140.916 124.299 140.059 124.336 139.175C124.378 138.291 124.419 137.406 124.462 136.495C124.501 135.593 124.54 134.692 124.58 133.763C124.676 131.545 124.776 129.328 124.881 127.11Z" fill="#2C2C2C"/>
<path d="M198.47 124.136C199.599 125.079 199.599 125.079 200.7 126.366C200.468 129.107 200.468 129.107 199.957 131.569C199.405 131.4 198.853 131.232 198.284 131.058C196.196 130.607 196.196 130.607 194.521 131.894C194.107 132.278 193.693 132.661 193.267 133.056C193.508 129.078 195.866 126.899 198.47 124.136Z" fill="#FEA398"/>
<path d="M166.507 141.977C167.994 143.463 167.994 143.463 168.087 145.414C168.056 145.997 168.025 146.58 167.994 147.18C168.484 147.425 168.975 147.67 169.48 147.923C168.744 148.169 168.009 148.414 167.25 148.667C167.005 149.893 166.76 151.12 166.507 152.383C166.016 152.383 165.526 152.383 165.02 152.383C164.775 150.421 164.53 148.458 164.277 146.437C163.296 146.191 162.315 145.946 161.304 145.693C161.886 145.494 162.469 145.295 163.069 145.089C165.229 144.319 165.229 144.319 166.507 141.977Z" fill="#2E6799"/>
<path d="M246.043 124.879C248.579 124.969 249.274 125.879 251.107 127.713C252.733 130.082 252.733 130.082 252.594 131.848C252.394 132.246 252.195 132.645 251.99 133.056C251.99 132.565 251.99 132.074 251.99 131.569C251.009 131.569 250.027 131.569 249.016 131.569C248.035 131.569 247.054 131.569 246.043 131.569C245.39 126.996 245.39 126.996 245.3 125.622C245.545 125.377 245.79 125.132 246.043 124.879Z" fill="#FEA497"/>
<path d="M241.584 109.271C246.341 109.545 246.341 109.545 248.599 111.919C248.983 112.517 249.366 113.114 249.761 113.731C249.516 114.221 249.27 114.712 249.017 115.217C246.319 114.236 243.621 113.255 240.841 112.244C241.086 111.263 241.331 110.281 241.584 109.271Z" fill="#D1E3FF"/>
<path d="M135.288 91.4297C136.024 91.4297 136.759 91.4297 137.518 91.4297C137.763 92.4109 138.008 93.3921 138.261 94.403C137.525 94.6483 136.789 94.8936 136.031 95.1464C135.694 95.7596 135.356 96.3729 135.009 97.0047C133.801 98.863 133.801 98.863 131.896 99.5599C131.298 99.5752 130.7 99.5906 130.084 99.6064C129.594 99.1158 129.103 98.6252 128.598 98.1197C129.556 97.0971 130.55 96.107 131.571 95.1464C132.062 95.1464 132.552 95.1464 133.058 95.1464C133.41 94.5331 133.763 93.9199 134.126 93.288C134.509 92.6748 134.893 92.0615 135.288 91.4297Z" fill="#A1A1A1"/>
<path d="M167.25 134.544C168.231 134.789 169.212 135.035 170.223 135.287C170.255 136.526 170.254 137.765 170.223 139.004C169.978 139.249 169.733 139.495 169.48 139.747C169.971 139.993 170.461 140.238 170.967 140.491C170.476 142.698 169.985 144.906 169.48 147.181C168.989 147.181 168.499 147.181 167.993 147.181C167.748 143.011 167.503 138.84 167.25 134.544Z" fill="#F8FAFC"/>
<path d="M172.453 132.313C172.698 132.313 172.944 132.313 173.196 132.313C173.273 136.124 173.223 139.71 172.453 143.463C171.717 143.709 170.981 143.954 170.223 144.207C170.468 142.98 170.714 141.754 170.966 140.49C170.23 140.245 169.495 140 168.736 139.747C169.963 137.294 171.189 134.841 172.453 132.313Z" fill="#D1C286"/>
<path d="M306.254 180.629C308.112 182.301 308.112 182.301 309.971 184.346C309.971 187.319 309.971 187.319 309.227 188.806C308.491 188.806 307.755 188.806 306.997 188.806C305.786 185.742 305.315 183.82 306.254 180.629Z" fill="#FD817B"/>
<path d="M347.88 115.217C349.459 115.496 349.459 115.496 350.853 115.96C351.689 119.491 351.689 119.491 350.853 121.163C349.381 121.163 347.909 121.163 346.393 121.163C346.3 119.026 346.3 119.026 346.393 116.703C346.884 116.213 347.374 115.722 347.88 115.217Z" fill="#0D2131"/>
<path d="M321.12 114.474C321.12 115.21 321.12 115.946 321.12 116.704C318.238 117.59 315.979 118.19 312.943 118.19C312.943 117.455 312.943 116.719 312.943 115.96C313.434 115.96 313.925 115.96 314.43 115.96C314.43 115.47 314.43 114.979 314.43 114.474C316.711 113.333 318.668 114.065 321.12 114.474Z" fill="#A5D9C4"/>
<path d="M350.109 107.04C350.6 107.04 351.09 107.04 351.596 107.04C351.565 107.745 351.534 108.451 351.503 109.177C351.336 111.576 351.336 111.576 353.082 112.987C352.592 112.987 352.101 112.987 351.596 112.987C351.35 113.968 351.105 114.949 350.852 115.96C349.871 115.715 348.89 115.469 347.879 115.217C347.634 113.745 347.388 112.273 347.136 110.757C347.626 110.757 348.117 110.757 348.622 110.757C349.113 109.53 349.604 108.304 350.109 107.04Z" fill="#FBF9FD"/>
<path d="M312.2 185.091C312.968 187.163 312.977 187.966 312.246 190.108C311.986 190.66 311.725 191.212 311.457 191.781C308.971 191.367 306.972 190.776 304.767 189.551C304.767 188.324 304.767 187.098 304.767 185.834C305.257 185.834 305.748 185.834 306.253 185.834C307.286 187.292 308.28 188.779 309.227 190.294C310.208 188.577 311.189 186.86 312.2 185.091Z" fill="#ECB2B2"/>
<path d="M110.757 159.817C112.958 162.019 112.957 164.13 113.06 167.172C113.051 167.888 113.043 168.604 113.034 169.341C113.027 170.067 113.02 170.792 113.013 171.539C113.005 172.087 112.996 172.634 112.987 173.197C112.497 173.197 112.006 173.197 111.501 173.197C110.704 168.718 110.683 164.36 110.757 159.817Z" fill="#AFC6FE"/>
<path d="M137.517 127.854C138.007 127.854 138.498 127.854 139.003 127.854C139.171 130.919 139.321 133.986 139.468 137.052C139.516 137.926 139.564 138.8 139.613 139.7C139.651 140.534 139.69 141.368 139.729 142.227C139.768 142.997 139.807 143.768 139.847 144.562C139.747 146.437 139.747 146.437 138.26 147.924C137.668 145.322 137.428 142.933 137.444 140.267C137.446 139.541 137.449 138.815 137.451 138.067C137.458 137.318 137.464 136.569 137.47 135.798C137.474 135.035 137.477 134.271 137.48 133.485C137.489 131.608 137.501 129.731 137.517 127.854Z" fill="#2C2C2C"/>
<path d="M332.27 104.811C335.213 105.056 338.157 105.301 341.19 105.554C341.19 105.799 341.19 106.044 341.19 106.297C339.473 106.543 337.756 106.788 335.986 107.041C335.741 107.776 335.496 108.512 335.243 109.271C334.017 109.271 332.79 109.271 331.526 109.271C331.772 107.799 332.017 106.327 332.27 104.811Z" fill="#FBFCFF"/>
<path d="M162.047 130.083C164.044 129.851 164.044 129.851 165.763 130.083C164.741 131.57 164.741 131.57 163.533 133.057C163.043 133.057 162.552 133.057 162.047 133.057C162.047 133.547 162.047 134.038 162.047 134.543C162.782 134.543 163.518 134.543 164.277 134.543C164.277 135.034 164.277 135.525 164.277 136.03C162.559 136.275 160.842 136.521 159.073 136.773C159.555 134.171 160.417 132.179 162.047 130.083Z" fill="#4E7D9B"/>
<path d="M219.283 95.8896C221.736 95.8896 224.189 95.8896 226.717 95.8896C226.226 96.8708 225.735 97.852 225.23 98.863C223.758 98.863 222.286 98.863 220.77 98.863C220.279 97.8818 219.789 96.9006 219.283 95.8896Z" fill="#FFEFEB"/>
<path d="M160.56 150.152C161.051 150.152 161.542 150.152 162.047 150.152C162.047 151.134 162.047 152.115 162.047 153.126C162.538 153.126 163.028 153.126 163.534 153.126C163.534 154.107 163.534 155.088 163.534 156.099C162.307 156.344 161.081 156.59 159.817 156.842C159.724 151.825 159.724 151.825 160.56 150.152Z" fill="#3D6FAF"/>
<path d="M321.864 112.243C323.827 112.243 325.789 112.243 327.811 112.243C327.811 113.224 327.811 114.206 327.811 115.216C325.849 115.216 323.886 115.216 321.864 115.216C321.864 114.235 321.864 113.254 321.864 112.243Z" fill="#5069D4"/>
<path d="M342.676 107.04C343.412 107.04 344.148 107.04 344.906 107.04C344.906 109.002 344.906 110.965 344.906 112.987C343.68 112.741 342.453 112.496 341.189 112.243C341.84 108.713 341.84 108.713 342.676 107.04Z" fill="#F1D774"/>
<path d="M140.49 185.834C143.434 185.834 146.377 185.834 149.41 185.834C149.656 186.57 149.901 187.306 150.154 188.064C148.153 189.064 147.077 188.638 144.904 188.203C144.236 188.076 143.568 187.948 142.88 187.817C142.337 187.653 141.793 187.489 141.234 187.321C140.988 186.83 140.743 186.339 140.49 185.834Z" fill="#FC8F7E"/>
<path d="M333.757 114.474C334.248 115.21 334.738 115.945 335.244 116.704C334.753 117.685 334.263 118.666 333.757 119.677C334.984 119.432 336.21 119.186 337.474 118.934C337.719 119.67 337.964 120.405 338.217 121.164C336.255 121.164 334.292 121.164 332.271 121.164C332.921 115.31 332.921 115.31 333.757 114.474Z" fill="#FCF5F9"/>
<path d="M176.913 185.091C176.913 186.317 176.913 187.544 176.913 188.807C175.196 188.807 173.479 188.807 171.71 188.807C171.465 188.072 171.22 187.336 170.967 186.577C175.241 185.091 175.241 185.091 176.913 185.091Z" fill="#FD9C84"/>
<path d="M176.17 178.399C176.415 178.399 176.66 178.399 176.913 178.399C177.053 180.908 177.053 180.908 176.913 183.603C174.683 185.089 174.683 185.089 172.453 185.089C172.453 182.859 172.453 182.859 173.893 181.326C174.399 180.851 174.905 180.376 175.426 179.886C175.672 179.395 175.917 178.905 176.17 178.399Z" fill="#FE9D7D"/>
<path d="M128.598 112.243C130.805 112.243 133.013 112.243 135.288 112.243C135.042 112.979 134.797 113.715 134.544 114.473C132.827 114.473 131.11 114.473 129.341 114.473C129.096 113.737 128.85 113.001 128.598 112.243Z" fill="#FFEEEA"/>
<path d="M154.614 138.26C155.595 138.505 156.577 138.75 157.588 139.003C157.143 140.751 156.644 142.486 156.101 144.206C155.365 144.574 155.365 144.574 154.614 144.95C154.614 142.742 154.614 140.534 154.614 138.26Z" fill="#FCFDFD"/>
<path d="M128.598 123.393C131.051 123.393 133.504 123.393 136.031 123.393C134.927 124.864 134.927 124.864 133.801 126.366C131.634 125.568 130.249 125.044 128.598 123.393Z" fill="#EEE8F1"/>
<path d="M166.507 141.977C166.998 142.958 167.488 143.939 167.994 144.95C166.767 145.931 165.541 146.912 164.277 147.923C164.277 147.433 164.277 146.942 164.277 146.437C163.296 146.191 162.315 145.946 161.304 145.693C161.886 145.494 162.469 145.295 163.069 145.089C165.229 144.319 165.229 144.319 166.507 141.977Z" fill="#5891AE"/>
<path d="M155.358 135.287C156.584 135.287 157.811 135.287 159.074 135.287C159.32 136.023 159.565 136.759 159.818 137.517C158.1 137.762 156.383 138.008 154.614 138.26C154.86 137.279 155.105 136.298 155.358 135.287Z" fill="#CED7DA"/>
<path d="M266.856 131.57C266.121 133.042 265.385 134.514 264.626 136.03C262.396 133.243 262.396 133.243 262.396 131.57C264.626 130.827 264.626 130.827 266.856 131.57Z" fill="#CEE2FD"/>
<path d="M313.686 118.933C314.667 118.933 315.648 118.933 316.659 118.933C316.659 119.423 316.659 119.914 316.659 120.419C317.395 120.91 318.131 121.4 318.889 121.906C316.436 121.906 313.983 121.906 311.456 121.906C312.192 120.925 312.928 119.944 313.686 118.933Z" fill="#A0C296"/>
<path d="M238.609 97.376C238.377 99.1414 238.377 99.1414 237.866 101.093C237.13 101.583 236.394 102.074 235.636 102.579C235.636 102.089 235.636 101.598 235.636 101.093C235.145 100.847 234.655 100.602 234.149 100.349C236.937 97.376 236.937 97.376 238.609 97.376Z" fill="#0D2131"/>
<path d="M220.027 83.2527C220.027 83.7433 220.027 84.2339 220.027 84.7394C217.819 85.23 215.612 85.7206 213.337 86.226C215.337 82.2263 215.964 82.2905 220.027 83.2527Z" fill="#0D2131"/>
<path d="M250.503 154.614C252.853 155.633 253.471 156.093 254.963 158.331C253.491 158.331 252.019 158.331 250.503 158.331C250.503 157.104 250.503 155.878 250.503 154.614Z" fill="#D1E0FB"/>
<path d="M205.904 93.6592C206.149 94.1498 206.394 94.6404 206.647 95.1458C207.383 95.3911 208.119 95.6364 208.877 95.8892C209.122 96.6251 209.368 97.361 209.62 98.1192C209.13 98.1192 208.639 98.1192 208.134 98.1192C207.888 98.6098 207.643 99.1004 207.39 99.6058C205.791 97.2064 205.754 96.4214 205.904 93.6592Z" fill="#0D2131"/>
<path d="M231.919 76.5635C233.146 77.79 234.372 79.0165 235.636 80.2801C234.9 80.5254 234.164 80.7707 233.406 81.0235C232.67 81.3914 232.67 81.3914 231.919 81.7668C231.429 80.5403 230.938 79.3138 230.433 78.0501C230.923 78.0501 231.414 78.0501 231.919 78.0501C231.919 77.5595 231.919 77.0689 231.919 76.5635Z" fill="#0D2131"/>
<path d="M297.332 111.5C297.087 112.236 296.842 112.972 296.589 113.73C294.872 113.73 293.155 113.73 291.386 113.73C291.386 113.239 291.386 112.749 291.386 112.243C293.536 111.629 295.019 111.5 297.332 111.5Z" fill="#FFF4F2"/>
<path d="M318.89 110.014C319.871 110.259 320.852 110.504 321.863 110.757C321.863 112.474 321.863 114.191 321.863 115.96C321.618 115.47 321.372 114.979 321.12 114.474C320.629 114.474 320.138 114.474 319.633 114.474C319.878 113.492 320.124 112.511 320.376 111.5C319.886 111.5 319.395 111.5 318.89 111.5C318.89 111.01 318.89 110.519 318.89 110.014Z" fill="#F8FAFA"/>
<path d="M347.136 118.189C348.117 118.189 349.098 118.189 350.109 118.189C350.109 119.171 350.109 120.152 350.109 121.163C348.883 121.163 347.656 121.163 346.393 121.163C346.638 120.182 346.883 119.2 347.136 118.189Z" fill="#FEFDFE"/>
<path d="M153.87 150.896C154.115 150.896 154.36 150.896 154.613 150.896C154.613 152.859 154.613 154.821 154.613 156.843C154.122 156.843 153.632 156.843 153.126 156.843C153.126 156.353 153.126 155.862 153.126 155.356C152.636 155.356 152.145 155.356 151.64 155.356C151.64 154.866 151.64 154.375 151.64 153.87C152.13 153.625 152.621 153.379 153.126 153.126C153.372 152.391 153.617 151.655 153.87 150.896Z" fill="#DF9087"/>
<circle cx="128.597" cy="101.837" r="0.743333" fill="#20111D"/>
<circle cx="135.287" cy="101.837" r="0.743333" fill="#20111D"/>
<circle cx="228.946" cy="84.7404" r="0.743333" fill="#20111D"/>
<circle cx="298.82" cy="102.58" r="0.743333" fill="#20111D"/>
<circle cx="289.9" cy="102.58" r="0.743333" fill="#20111D"/>
<circle cx="218.54" cy="84.7404" r="0.743333" fill="#20111D"/>
</g>
</svg>
